$MeshFormat
4.1 0 8
$EndMeshFormat
$PhysicalNames
35
1 1 "r1"
1 2 "ground"
1 3 "flare"
1 4 "pipewall"
1 5 "x2"
1 6 "symmetry"
1 7 "r2"
1 8 "symmetry2"
1 9 "ground2"
1 11 "r3"
1 12 "ground3"
1 14 "symmetry3"
1 15 "r4"
1 16 "ground4"
1 18 "symmetry4"
1 19 "r5"
1 20 "ground5"
1 22 "symmetry5"
1 23 "r6"
1 24 "ground6"
1 26 "symmetry6"
1 27 "r7"
1 28 "ground7"
1 30 "symmetry7"
1 31 "r8"
1 32 "ground8"
1 34 "symmetry8"
2 7 "domain1"
2 10 "domain2"
2 15 "domain3"
2 19 "domain4"
2 23 "domain5"
2 27 "domain6"
2 31 "domain7"
2 35 "domain8"
$EndPhysicalNames
$Entities
24 38 9 0
1 0 488.8888888888888 0 0 
2 0 0 0 0 
3 457.3432961439855 -172.769948634498 0 0 
4 122.3606797749979 -5.278640450004204 0 0 
5 100 -50 0 0 
6 50 -50 0 0 
7 50 -150 0 0 
8 0 -150 0 0 
9 0 1222.222222222222 0 0 
10 1114.634330649659 -501.415465887335 0 0 
11 0 2100 0 0 
12 1900.125308262818 -894.1609546939143 0 0 
13 0 2666.666666666667 0 0 
14 2407.080556173249 -1147.63857864913 0 0 
15 0 3111.111111111111 0 0 
16 2804.663660498559 -1346.430130811784 0 0 
17 0 3600 0 0 
18 3241.987987399283 -1565.092294262146 0 0 
19 0 4000 0 0 
20 3599.78992435832 -1743.993262741665 0 0 
21 0 4800 0 0 
22 4315.378266508133 -2101.787433816572 0 0 
23 0 10000 0 0 
24 8966.520785676501 -4427.358693400755 0 0 
1 0 -172.769948634498 0 487.7544968055191 488.8888888888887 0 0 2 1 -3 
2 122.3606797749979 -172.769948634498 0 457.3432961439855 -5.278640450004218 0 0 2 3 -4 
3 49.99999999999999 -50.00000000000001 0 122.3606797749979 -0.00333442290281738 0 0 2 4 -6 
4 50 -150 0 50 -50 0 0 2 6 -7 
5 0 -150 0 50 -150 0 0 2 7 -8 
6 0 -150 0 0 488.8888888888888 0 0 2 8 -1 
7 0 -501.415465887335 0 1221.970940956613 1222.222222222222 0 0 2 9 -10 
8 0 488.8888888888888 0 0 1222.222222222222 0 0 2 1 -9 
9 457.3432961439855 -501.415465887335 0 1114.634330649659 -172.769948634498 0 0 2 10 -3 
10 -2.842170943040401e-14 -172.7699486344979 0 487.754496805519 488.8888888888887 0 0 2 3 -1 
11 0 -894.1609546939143 0 2099.94897105561 2100 0 0 2 11 -12 
12 1114.634330649659 -894.1609546939143 0 1900.125308262818 -501.415465887335 0 0 2 12 -10 
13 1.13686837721616e-13 -501.415465887335 0 1221.970940956613 1222.222222222223 0 0 2 10 -9 
14 0 1222.222222222222 0 0 2100 0 0 2 9 -11 
15 0 -1147.638578649129 0 2666.654383170227 2666.666666666667 0 0 2 13 -14 
16 1900.125308262818 -1147.63857864913 0 2407.080556173249 -894.1609546939143 0 0 2 14 -12 
17 1.591615728102624e-12 -894.1609546939146 0 2099.94897105561 2100 0 0 2 12 -11 
18 0 2100 0 0 2666.666666666667 0 0 2 11 -13 
19 0 -1346.430130811785 0 3111.109702544029 3111.111111111111 0 0 2 15 -16 
20 2407.080556173249 -1346.430130811784 0 2804.663660498559 -1147.63857864913 0 0 2 16 -14 
21 6.821210263296962e-13 -1147.63857864913 0 2666.654383170227 2666.666666666667 0 0 2 14 -13 
22 0 2666.666666666667 0 0 3111.111111111111 0 0 2 13 -15 
23 0 -1565.092294262146 0 3599.998997894867 3600 0 0 2 17 -18 
24 2804.663660498559 -1565.092294262146 0 3241.987987399283 -1346.430130811784 0 0 2 18 -16 
25 9.094947017729282e-13 -1346.430130811784 0 3111.10970254403 3111.111111111111 0 0 2 16 -15 
26 0 3111.111111111111 0 0 3600 0 0 2 15 -17 
27 0 -1743.993262741665 0 3999.993327934862 4000 0 0 2 19 -20 
28 3241.987987399283 -1743.993262741665 0 3599.78992435832 -1565.092294262146 0 0 2 20 -18 
29 2.273736754432321e-13 -1565.092294262146 0 3599.998997894867 3600 0 0 2 18 -17 
30 0 3600 0 0 4000 0 0 2 17 -19 
31 0 -2101.787433816573 0 4799.971484377824 4800 0 1 31 2 21 -22 
32 3599.78992435832 -2101.787433816572 0 4315.378266508133 -1743.993262741665 0 1 32 2 22 -20 
33 9.094947017729282e-13 -1743.993262741665 0 3999.99332793486 3999.999999999999 0 1 27 2 20 -19 
34 0 4000 0 0 4800 0 1 34 2 19 -21 
35 0 -4427.358693400756 0 9999.706619488945 10000 0 0 2 23 -24 
36 4315.378266508133 -4427.358693400755 0 8966.520785676501 -2101.787433816572 0 0 2 24 -22 
37 -4.547473508864641e-13 -2101.787433816573 0 4799.971484377825 4800 0 0 2 22 -21 
38 0 4800 0 0 10000 0 0 2 21 -23 
2 0 -172.769948634498 0 487.7544968055191 488.8888888888888 0 0 6 -2 -1 -6 -5 -4 -3 
3 0 -501.4154658873351 0 1221.970940956613 1222.222222222222 0 0 4 -10 -9 -7 -8 
4 0 -894.1609546939144 0 2099.94897105561 2100 0 0 4 -14 -13 -12 -11 
5 0 -1147.63857864913 0 2666.654383170227 2666.666666666667 0 0 4 -18 -17 -16 -15 
6 0 -1346.430130811785 0 3111.109702544029 3111.111111111111 0 0 4 -22 -21 -20 -19 
7 0 -1565.092294262146 0 3599.998997894867 3600 0 0 4 -26 -25 -24 -23 
8 0 -1743.993262741665 0 3999.993327934862 4000 0 0 4 -30 -29 -28 -27 
9 0 -2101.787433816573 0 4799.971484377824 4800 0 1 35 4 -34 -33 -32 -31 
10 0 -4427.358693400756 0 9999.706619488945 10000 0 0 4 -38 -37 -36 -35 
$EndEntities
$Nodes
9 706 19 7994
0 19 0 1
19
0 4000 0
0 20 0 1
20
3599.78992435832 -1743.993262741665 0
0 21 0 1
21
0 4800 0
0 22 0 1
22
4315.378266508133 -2101.787433816572 0
1 31 0 46
1212
1213
1214
1215
1216
1217
1218
1219
1220
1221
1222
1223
1224
1225
1226
1227
1228
1229
1230
1231
1232
1233
1234
1235
1236
1237
1238
1239
1240
1241
1242
1243
1244
1245
1246
1247
1248
1249
1250
1251
1252
1253
1254
1255
1256
1257
206.645263201771 4795.54978445603 0
412.9073530471631 4782.207389668456 0
618.4038068197566 4759.997555851351 0
822.7535813605739 4728.961465729907 0
1025.577759746468 4689.156668177489 0
1226.500254063398 4640.656971462383 0
1425.148502382871 4583.552306471026 0
1621.154159959363 4517.948559871665 0
1814.153781845935 4443.967377897153 0
2003.789497167376 4361.745940680374 0
2189.709672698826 4271.436707864135 0
2371.569565080323 4173.20713576318 0
2549.03195932481 4067.239367229414 0
2721.767794348396 3953.729893865775 0
2889.456773769345 3832.889191265311 0
3051.787959313384 3704.941329007768 0
3208.460347294509 3570.123555262311 0
3359.183426963873 3428.685856711176 0
3503.677718974612 3280.890495210235 0
3641.675293854943 3127.011521265394 0
3772.920268595666 2967.33426610822 0
3897.16928167182 2802.154811924844 0
4014.191943373179 2631.779443980415 0
4123.77126303907 2456.524082954033 0
4225.704053046341 2276.713696552056 0
4319.801304133402 2092.681698875239 0
4405.888535667742 1904.769332825253 0
4483.806119943841 1713.325035932809 0
4553.409577844196 1518.703794818705 0
4614.569846585264 1321.266487498285 0
4667.173519374874 1121.37921331098 0
4711.123055560533 919.4126143174216 0
4746.336961390635 715.7411885151697 0
4772.749941233488 510.7425951061214 0
4790.313018674754 304.7969539138607 0
4798.993627254834 98.28614127886543 0
4798.775670921981 -108.4069193699941 0
4789.659553804377 -314.8989657818238 0
4771.662179516688 -520.8071087937012 0
4744.816919816854 -725.7495417977914 0
4709.17355269198 -929.3462490516634 0
4664.798170060975 -1131.219710134054 0
4611.773055310717 -1330.995599658413 0
4550.196530567754 -1528.303482037902 0
4480.182774558863 -1722.777497689717 0
4401.861610740525 -1914.057041963178 0
1 32 0 6
1258
1259
1260
1261
1262
1263
4159.470968869527 -2023.833784997269 0
4026.20898775748 -1957.202794441245 0
3912.303120400989 -1900.249860763 0
3814.941901723488 -1851.569251424249 0
3731.72227382372 -1809.959437474365 0
3660.590178893108 -1774.393390009059 0
1 33 0 115
1264
1265
1266
1267
1268
1269
1270
1271
1272
1273
1274
1275
1276
1277
1278
1279
1280
1281
1282
1283
1284
1285
1286
1287
1288
1289
1290
1291
1292
1293
1294
1295
1296
1297
1298
1299
1300
1301
1302
1303
1304
1305
1306
1307
1308
1309
1310
1311
1312
1313
1314
1315
1316
1317
1318
1319
1320
1321
1322
1323
1324
1325
1326
1327
1328
1329
1330
1331
1332
1333
1334
1335
1336
1337
1338
1339
1340
1341
1342
1343
1344
1345
1346
1347
1348
1349
1350
1351
1352
1353
1354
1355
1356
1357
1358
1359
1360
1361
1362
1363
1364
1365
1366
1367
1368
1369
1370
1371
1372
1373
1374
1375
1376
1377
1378
3629.640306597207 -1680.98520062638 0
3658.387944843234 -1617.466427789364 0
3686.02410509793 -1553.456242266575 0
3712.540391047593 -1488.974091393188 0
3737.928746612175 -1424.039565900581 0
3762.181458405604 -1358.672393930586 0
3785.291158035818 -1292.892435160728 0
3807.250824458484 -1226.719674440815 0
3828.053785925468 -1160.174216254471 0
3847.693722145236 -1093.276278240831 0
3866.164666215377 -1026.04618497791 0
3883.461006318578 -958.5043622243363 0
3899.577487574546 -890.6713301784083 0
3914.509213549686 -822.5676975389944 0
3928.251647719619 -754.2141553882982 0
3940.800614877188 -685.6314708234733 0
3952.152302477936 -616.8404802040266 0
3962.30326169862 -547.8620833133668 0
3971.250408506532 -478.717236932918 0
3978.991024595453 -409.4269485375983 0
3985.522758264968 -340.0122694138915 0
3990.843625046376 -270.4942890833047 0
3994.952008383033 -200.8941281281307 0
3997.846660077312 -131.2329322565952 0
3999.526700687406 -61.53186563475265 0
3999.991619787486 8.187895325782165 0
3999.2412761303 77.90516860692128 0
3997.27589768538 147.5987729743076 0
3994.096081569024 217.2475343817589 0
3989.702793862708 286.8302924101424 0
3984.097369317633 356.325906715052 0
3977.281510923186 425.7132636747056 0
3969.257289479148 494.9712819110134 0
3960.027142854788 564.0789198803059 0
3949.593875342576 633.0151813790865 0
3937.960656754209 701.7591223888301 0
3925.131021436799 770.2898574916446 0
3911.108867196411 838.5865661561691 0
3895.898454214013 906.6284985885079 0
3879.504403702049 974.3949823641319 0
3861.931696427477 1041.865428992044 0
3843.185671261612 1109.019339871683 0
3823.272023543772 1175.836312582452 0
3802.196803376924 1242.296046999379 0
3779.966413729659 1308.378351653576 0
3756.587608588982 1374.063149566167 0
3732.067490801141 1439.330484671697 0
3706.413509993817 1504.160527648329 0
3679.63346018744 1568.533582257325 0
3651.735477685749 1632.43009069645 0
3622.728038398596 1695.830640070124 0
3592.61995519408 1758.71596841027 0
3561.420375266548 1821.06697038749 0
3529.138777766146 1882.864702326554 0
3495.78497022339 1944.090389349281 0
3461.369086127338 2004.725429978375 0
3425.901581704014 2064.751402100972 0
3389.39323254066 2124.150068899926 0
3351.855130444414 2182.903384145403 0
3313.298679977259 2240.99349781764 0
3273.735595436874 2298.402760868853 0
3233.177896730402 2355.113731456289 0
3191.637905758881 2411.109180133296 0
3149.128242978355 2466.372094651585 0
3105.661823597312 2520.885685121443 0
3061.25185344411 2574.633389394497 0
3015.911825053456 2627.598877968767 0
2969.655513429382 2679.766059110098 0
2922.49697201344 2731.119083557556 0
2874.450528342166 2781.642349424784 0
2825.530779539289 2831.320507091361 0
2775.752588164998 2880.138463563047 0
2725.131077859841 2928.08138692941 0
2673.681628431566 2975.134711200069 0
2621.419870963884 3021.284140910233 0
2568.361683473874 3066.515655082041 0
2514.523185725697 3110.815511798776 0
2459.920734724968 3154.17025204255 0
2404.570919742841 3196.566703813179 0
2348.490556812322 3237.991986488438 0
2291.696684197178 3278.433514293015 0
2234.206556692515 3317.879000511045 0
2176.03764076415 3356.316460940116 0
2117.207609089332 3393.734217644957 0
2057.734335185197 3430.120902504739 0
1997.635887720426 3465.465460813513 0
1936.930525747067 3499.757154207871 0
1875.636692678284 3532.985564233013 0
1813.773010656711 3565.140595518399 0
1751.358275128723 3596.212478725101 0
1688.411448349899 3626.191773897374 0
1624.951654593416 3655.069372834682 0
1560.99817404066 3682.836502024182 0
1496.570436784675 3709.484725368487 0
1431.688017007612 3735.005946709698 0
1366.370627019344 3759.392412294672 0
1300.638111323102 3782.636713110825 0
1234.510440517931 3804.731787163481 0
1168.007705312779 3825.67092159401 0
1101.150110120971 3845.447754810948 0
1033.957967354393 3864.056278283788 0
966.4516913067436 3881.490838372587 0
898.6517914148932 3897.746138191505 0
830.5788666768276 3912.817239052934 0
762.2535986890497 3926.699562136831 0
693.6967456323847 3939.388889802456 0
624.9291361276755 3950.881366836862 0
555.9716627554228 3961.173501654903 0
486.8452763046309 3970.262167280627 0
417.5709783727473 3978.144602452357 0
348.1698156225982 3984.818412360758 0
278.6628731536955 3990.281569404059 0
209.0712683677325 3994.532413780504 0
139.4161440228663 3997.569654025529 0
69.71866275545176 3999.392367355768 0
1 34 0 6
1379
1380
1381
1382
1383
1384
0 4067.9723253758 0
0 4147.495247414182 0
0 4240.531562287132 0
0 4349.377626922278 0
0 4476.719966809306 0
0 4625.70169081217 0
2 9 0 529
7466
7467
7468
7469
7470
7471
7472
7473
7474
7475
7476
7477
7478
7479
7480
7481
7482
7483
7484
7485
7486
7487
7488
7489
7490
7491
7492
7493
7494
7495
7496
7497
7498
7499
7500
7501
7502
7503
7504
7505
7506
7507
7508
7509
7510
7511
7512
7513
7514
7515
7516
7517
7518
7519
7520
7521
7522
7523
7524
7525
7526
7527
7528
7529
7530
7531
7532
7533
7534
7535
7536
7537
7538
7539
7540
7541
7542
7543
7544
7545
7546
7547
7548
7549
7550
7551
7552
7553
7554
7555
7556
7557
7558
7559
7560
7561
7562
7563
7564
7565
7566
7567
7568
7569
7570
7571
7572
7573
7574
7575
7576
7577
7578
7579
7580
7581
7582
7583
7584
7585
7586
7587
7588
7589
7590
7591
7592
7593
7594
7595
7596
7597
7598
7599
7600
7601
7602
7603
7604
7605
7606
7607
7608
7609
7610
7611
7612
7613
7614
7615
7616
7617
7618
7619
7620
7621
7622
7623
7624
7625
7626
7627
7628
7629
7630
7631
7632
7633
7634
7635
7636
7637
7638
7639
7640
7641
7642
7643
7644
7645
7646
7647
7648
7649
7650
7651
7652
7653
7654
7655
7656
7657
7658
7659
7660
7661
7662
7663
7664
7665
7666
7667
7668
7669
7670
7671
7672
7673
7674
7675
7676
7677
7678
7679
7680
7681
7682
7683
7684
7685
7686
7687
7688
7689
7690
7691
7692
7693
7694
7695
7696
7697
7698
7699
7700
7701
7702
7703
7704
7705
7706
7707
7708
7709
7710
7711
7712
7713
7714
7715
7716
7717
7718
7719
7720
7721
7722
7723
7724
7725
7726
7727
7728
7729
7730
7731
7732
7733
7734
7735
7736
7737
7738
7739
7740
7741
7742
7743
7744
7745
7746
7747
7748
7749
7750
7751
7752
7753
7754
7755
7756
7757
7758
7759
7760
7761
7762
7763
7764
7765
7766
7767
7768
7769
7770
7771
7772
7773
7774
7775
7776
7777
7778
7779
7780
7781
7782
7783
7784
7785
7786
7787
7788
7789
7790
7791
7792
7793
7794
7795
7796
7797
7798
7799
7800
7801
7802
7803
7804
7805
7806
7807
7808
7809
7810
7811
7812
7813
7814
7815
7816
7817
7818
7819
7820
7821
7822
7823
7824
7825
7826
7827
7828
7829
7830
7831
7832
7833
7834
7835
7836
7837
7838
7839
7840
7841
7842
7843
7844
7845
7846
7847
7848
7849
7850
7851
7852
7853
7854
7855
7856
7857
7858
7859
7860
7861
7862
7863
7864
7865
7866
7867
7868
7869
7870
7871
7872
7873
7874
7875
7876
7877
7878
7879
7880
7881
7882
7883
7884
7885
7886
7887
7888
7889
7890
7891
7892
7893
7894
7895
7896
7897
7898
7899
7900
7901
7902
7903
7904
7905
7906
7907
7908
7909
7910
7911
7912
7913
7914
7915
7916
7917
7918
7919
7920
7921
7922
7923
7924
7925
7926
7927
7928
7929
7930
7931
7932
7933
7934
7935
7936
7937
7938
7939
7940
7941
7942
7943
7944
7945
7946
7947
7948
7949
7950
7951
7952
7953
7954
7955
7956
7957
7958
7959
7960
7961
7962
7963
7964
7965
7966
7967
7968
7969
7970
7971
7972
7973
7974
7975
7976
7977
7978
7979
7980
7981
7982
7983
7984
7985
7986
7987
7988
7989
7990
7991
7992
7993
7994
3772.016753643713 -1472.218639539547 0
314.6064940525291 4055.025819827733 0
3882.8513737779 -1210.719604246066 0
3690.831477463382 1687.885795105742 0
1617.927877509629 3727.844438346858 0
1284.132238041029 3852.259886451292 0
3533.434524922386 1992.345758670126 0
3965.873042976345 -868.7235886755271 0
3826.941714681728 1363.392819295522 0
1931.801612740683 3570.979382605156 0
943.5694532367685 3951.587337810859 0
3337.948952765738 2308.291418184282 0
4026.658028547507 -521.0381165422482 0
3929.149170839667 1023.348616588647 0
2243.423123067472 3395.385413116703 0
601.1433629014429 4021.209556004084 0
3129.852523280468 2586.668845835832 0
4050.107468212237 -164.0173346959809 0
4015.889051492939 682.1483465998961 0
2532.755228153667 3187.862696480125 0
2900.251545057305 2848.466204071437 0
4061.516067382377 184.7617865901613 0
94.77925660682719 4409.853667792233 0
4039.138774208807 460.3081362472792 0
2689.360092166257 3043.790475395057 0
3900.777303350666 -1798.027149435558 0
458.366322991968 4038.647728980446 0
3831.917472907637 -1347.575040330379 0
2799.237169398009 2947.246401312314 0
4059.99337768055 43.69634863480015 0
4061.732313337412 336.066559903615 0
2988.560466058681 2735.416128593317 0
2410.334317519201 3270.694733901205 0
3976.32815077703 825.1282652241243 0
4041.261728503904 -321.3330913991774 0
3218.242162158928 2475.555085213074 0
739.9042211377624 3988.784791232359 0
2118.982765584881 3463.432926121322 0
3891.09404315775 1159.673551027827 0
4000.632105851197 -672.4997549829601 0
3432.54825378022 2184.88200836548 0
1088.799774939894 3920.24085815996 0
1812.521031977531 3636.258317026636 0
3779.628963715209 1497.477080809787 0
3932.184694450859 -1012.707104671276 0
3611.553370617758 1885.488626466437 0
1416.759841400803 3812.124646702789 0
176.3006737456559 4060.759166058284 0
3013.368536370319 3501.850174085297 0
4587.183855783638 585.7468452024813 0
4653.280360120814 9.319940326660252 0
3423.630824213622 3090.975947847311 0
2704.406320034669 3744.202983055153 0
4538.816188571252 1006.452238182632 0
4356.495983095098 -1580.287884683666 0
4599.778389673316 -430.0811151169501 0
3697.469570324535 2787.701095273467 0
926.4220084759195 4545.50942013439 0
2387.640247267526 3950.92927044012 0
4416.763881427326 1373.325104615042 0
4575.936635028852 -808.0956239369526 0
3919.001952815035 2449.605669562372 0
1282.316500813341 4464.967949297125 0
2018.724777733117 4157.469999391792 0
4286.28502266718 1728.580819816752 0
4467.554765713257 -1189.580518630246 0
4097.758729775342 2115.278152838001 0
1652.634580784291 4338.749764590241 0
507.9731058425414 4563.702640894676 0
3724.258354823506 -1611.137920956477 0
73.83704227438881 4191.946930034583 0
4140.606502742644 -1877.12560796109 0
3720.56855739881 -1735.562528584263 0
4275.918481389477 -1768.896177611282 0
4183.383571029278 -1611.571021032919 0
4232.33680927569 -1459.710503685985 0
4080.123004248848 -1498.823517331894 0
4102.488676673938 -1359.340316394077 0
4036.515755793008 -1622.809740626755 0
3941.341418146725 -1522.22470813779 0
4250.298369450921 -1317.109543085113 0
4145.84788317495 -1231.335426119799 0
4034.508853388676 -1254.745770612773 0
4061.972622331286 -1152.938615890683 0
4171.023213860505 -1108.786113152367 0
4081.588895605882 -1044.401578619977 0
4181.790427179931 -996.1964763621559 0
3920.162825759548 -1636.450484057234 0
4090.786681005693 -927.4795828655198 0
4196.850476868438 -884.6344473413494 0
4289.415871535863 -950.7353125597396 0
4120.686995358868 -813.5658204008429 0
4215.103379910408 -771.5787745314417 0
3984.746244409373 -1416.957128643337 0
4135.688364854695 -701.9960868790737 0
4230.035630326182 -653.9982285967162 0
4321.292571268929 -733.0899230971849 0
4343.557515066635 -610.5480039302058 0
4244.187007682744 -531.9311719391363 0
4351.878648660881 -482.5769466340838 0
4258.918879424797 -412.8178028096368 0
4362.747272133438 -357.9401890853533 0
4264.513035343656 -295.6896451372489 0
4375.643852787511 -235.8533554778036 0
4253.478734920172 -164.7121018488824 0
4388.178923770212 -107.2237933491975 0
4284.589511772574 -36.5183883432608 0
4399.867237242644 21.4326630476297 0
4283.084209222485 94.59807045714845 0
4411.474162722552 152.3261106013123 0
4305.596735800271 225.6736363658572 0
4419.427066163155 281.8217557614892 0
4310.492997597292 349.6551716898007 0
4534.911643884096 209.7952391909416 0
4505.377101362226 -177.4856124940616 0
4200.840439033003 292.4258149938907 0
4198.821715935112 415.6132808665357 0
4314.71484011583 473.4348519545289 0
4208.126136653229 537.727981998833 0
4316.023069012806 597.0092221151637 0
4191.57697036392 661.0725587313162 0
4321.016013521869 726.4309064628296 0
4209.052132934009 788.7421531991715 0
4321.220065355662 851.5346572369283 0
4212.944285711888 907.1316158754832 0
4441.120340055084 797.1932346526188 0
4195.775932964808 -78.81693290575923 0
4207.399857694721 182.1586556089874 0
4110.308539658362 583.0268912153309 0
4462.873298886259 -556.6226573631004 0
4530.725471260945 345.0535087300339 0
4187.055567370252 15.57328836201761 0
4160.818541489282 -456.9927797381392 0
4121.080567912139 -574.6764431684685 0
4117.08801999766 848.2370189018304 0
4111.33260252676 961.3675132342617 0
4209.457516385562 1027.56067871071 0
4085.466867318346 1076.698864293181 0
4203.779085402524 1150.116938675603 0
4070.938924987466 1201.978254484244 0
4193.371799578106 1275.644097185668 0
4081.378157811571 1328.551137141703 0
4181.014760151547 1395.657270994047 0
4066.249760996064 1447.897835932434 0
4326.416712505578 1101.050012804996 0
3969.081740799238 1371.798710083242 0
3942.749307676764 1497.244035888939 0
4050.8715496637 1571.388278499428 0
3940.921464608326 1622.041797335154 0
4042.348847246646 1696.957714880062 0
3928.898035040493 1748.607690570518 0
4037.164868575756 1825.433459583365 0
3910.944298881056 1871.317264598079 0
3818.01953158916 1797.903469986126 0
3792.91721097141 1909.461677554018 0
3879.099141054006 1990.347766719116 0
3751.12630504146 2027.641909790666 0
3847.444435118497 2112.705560320105 0
3728.088886189596 2156.581723296704 0
4000.318401797497 1279.054378991017 0
3820.439003251714 2234.390736357641 0
3699.31210700303 2277.623101507555 0
3599.418378367318 2198.575021190044 0
3580.051311391387 2320.777289695085 0
3670.783355315089 2398.779384387934 0
3553.917539884073 2439.033226646426 0
3650.688786397794 2522.913833676063 0
3519.655670338005 2556.713035357509 0
3434.63433220493 2471.365162658272 0
3393.815290633925 2581.440756046523 0
3472.525633392831 2672.43187766215 0
3343.914181126936 2693.163678871739 0
3423.836701146263 2789.135142431562 0
3293.559357278648 2806.249127724841 0
3220.937891552045 2698.100629751138 0
3153.583826459553 2816.346339669614 0
3241.078299634384 2921.789493287019 0
3113.58725539184 2938.907440154862 0
3191.044301483088 3040.013937620544 0
3064.093111629645 3056.349294010728 0
3155.324433310714 3181.857701132705 0
3004.448846310222 3170.207088829692 0
2926.268949909611 3056.871178119764 0
2881.065233931555 3175.101873533707 0
2944.478866577833 3276.912427509418 0
2818.527663828512 3276.986674155792 0
2760.552365442651 3167.299068991163 0
2679.306917099036 3269.571562900846 0
2753.163538630896 3385.392868228996 0
2625.576452364027 3381.453331584603 0
2685.868978179994 3492.460338546341 0
2560.924907966407 3484.530511349959 0
3286.662729334114 2600.32109725118 0
2511.509668963868 3381.713319059118 0
2440.856686319018 3473.024514171618 0
2488.015003955922 3583.536293251892 0
2364.817748137354 3567.715489686029 0
2410.125803489024 3680.769045778928 0
2287.011366661955 3666.107194724384 0
2241.783972252936 3549.472558792411 0
2165.83408003061 3647.307302250775 0
2207.913602204855 3760.552305120189 0
2085.828229518882 3732.472215019154 0
2124.047767566178 3849.351195751572 0
2001.617782504897 3814.285810785801 0
1972.643557779234 3693.881324717794 0
1876.065478421275 3775.974302433236 0
1915.896989911472 3904.159883620423 0
1795.546745065395 3872.971543010832 0
1831.473992953473 3992.110567517299 0
1709.985705606778 3958.040305980314 0
1750.769677865181 4087.016294748537 0
1617.241848950512 4044.737476921924 0
1589.233152759901 3908.170442172586 0
1497.109727806056 4004.735852676997 0
1515.995596292513 4129.57020842877 0
1399.758361365166 4086.548793436529 0
1417.512537478754 4222.090217159153 0
1294.046101391219 4166.834859784993 0
1281.549569915002 4026.122378240457 0
1174.927841641099 4114.836407434015 0
1185.563661305016 4243.600054458617 0
1070.305354013532 4187.480751591244 0
1075.611888207009 4326.500582619386 0
965.6251839416892 4259.851192966508 0
960.5391792981138 4120.466753270112 0
857.9767681641613 4198.669689415642 0
853.6417129103913 4090.292862117744 0
753.7456825145651 4136.340840797923 0
755.3568193297754 4262.309829303736 0
653.4545350300597 4207.901729139683 0
649.6327066722124 4327.070414340688 0
551.3868533395046 4265.949108638335 0
562.5113119912404 4158.411918749743 0
455.060340225564 4191.917220115759 0
445.4532349346083 4318.688742141532 0
347.1889371591078 4254.103445562871 0
340.821419603854 4376.107163417948 0
244.70428053265 4310.241810654294 0
248.6370264612501 4186.550815628184 0
2054.872889000595 3611.155820284971 0
3646.304852285652 2090.673611810102 0
1690.130282877886 3845.65726273473 0
1754.929628859687 3763.041045741439 0
3469.67995212124 2365.021391797491 0
2659.720185060148 3164.246750355193 0
3116.644804804108 2719.867299897096 0
4094.458849016306 743.7214431501645 0
3705.121374811059 1835.247506487956 0
3689.235419507177 1938.029615729444 0
4170.457161232049 -351.8350011681271 0
4165.832311563972 -250.9794204336907 0
1151.501318261817 3992.94753616434 0
3827.436910775398 1680.913031505745 0
1827.893558324348 4241.528461440735 0
2823.876941154983 3504.375625440255 0
2988.399410893582 2951.314087402719 0
3039.312526368352 2858.628159466024 0
1069.376542268292 4069.297111696319 0
2567.070271790592 3280.761510495458 0
1392.862546567763 3970.054636922543 0
3886.143079001082 -1421.929386444012 0
757.0712970426043 4380.791104350361 0
676.8650516726077 4609.218070573069 0
3847.472974893913 -1575.954193988204 0
348.6459430077056 4140.683558272054 0
3551.618729207683 2112.763233151951 0
62.12419933818123 4109.301162662235 0
143.9700543225211 4139.891188223059 0
3833.379902838296 -1659.336850462774 0
2321.400490858724 3454.404170768113 0
2401.620711787968 3364.459763556204 0
4473.254783920364 1170.995782485016 0
3995.488272129784 1132.851234370716 0
3312.713427215448 3247.462711412576 0
3159.762869983743 3368.106966519545 0
1463.726088283937 4383.088992879469 0
4185.841861174766 1912.55473143212 0
4037.52702470304 2303.541426926314 0
4538.859902875907 -996.1919540594165 0
4380.247048134976 1563.660496371217 0
2204.436013577832 4069.945759398408 0
3793.041879819749 2618.478408263274 0
2558.811234152012 3869.271834442633 0
3555.507322682474 2920.168606970898 0
3840.933805321601 1568.22119301164 0
1099.165572427694 4489.265240851372 0
157.0925923553824 4240.80950392564 0
1473.745131115147 3883.325912746711 0
1542.680115933913 3825.920451387124 0
2830.754668568581 3096.872807918571 0
4416.939559702883 -1390.48007099352 0
3311.313673213365 2497.024269048516 0
4013.029163813365 -1836.775287189769 0
4110.248127100544 -1739.316469668391 0
4086.145650192312 -392.5303551685657 0
110.8484205716845 4532.231173150531 0
215.8572524536856 4432.254872403194 0
308.6529496016203 4649.00510971916 0
4292.239289131818 -1171.83808685818 0
3805.592300766579 -1749.824846128664 0
1238.797147060782 3933.845720877428 0
3775.418172642946 1620.559787830048 0
4024.037841494373 897.423893465013 0
649.3651353074004 4097.731215459968 0
3482.858039579994 2257.27996233834 0
2891.310632613419 2967.924077005017 0
79.929523928091 4295.168113516118 0
4431.74634061539 532.3585003605235 0
3358.757379179036 2389.648594039595 0
4162.969094013692 1518.857089789294 0
4009.59232325783 1956.169337457084 0
542.8714615577074 4391.6842070067 0
3614.300445743206 2653.792042186508 0
2538.137923890078 3708.414307732744 0
3377.582789676226 2918.957772982272 0
2035.130707286107 3929.673408698501 0
4019.402960312628 999.6776410069658 0
2331.618482384525 3790.913000810367 0
1305.4650473173 4307.834314216922 0
3606.56715375761 1967.327675319014 0
2126.923440326052 3552.684890956394 0
3976.016801829671 -1724.952431898244 0
4045.446968224142 -745.2692315186328 0
4117.498551561043 495.5678939767142 0
4099.863502700056 409.5856146374111 0
3880.564061407416 1416.029005834466 0
386.1847002996205 4050.303660379673 0
429.7486477501755 4104.501840384693 0
246.2497811951662 4053.454195304992 0
3767.069377925609 -1541.554091238645 0
912.2557154247958 4024.637704802939 0
847.0705628794491 4015.983615660205 0
528.6773609786374 4028.698010422368 0
3860.065488315126 -1281.862198258311 0
3915.736860909417 -1344.44954092589 0
3805.06548932414 -1417.327239383165 0
3965.35276959229 -1186.456036401792 0
3976.026252072365 -1091.222947566834 0
2744.163804927988 2995.049058231084 0
2637.018561736827 3091.653296992035 0
4036.527003080379 535.1033584205253 0
4062.305272458225 112.5719961537392 0
2851.967463682426 2897.115374524984 0
4023.461558265565 610.7801980335912 0
3998.958979633206 755.8558822443038 0
4059.752700285041 -98.35911657415399 0
3085.361139427304 2642.309926822 0
2308.153439689078 3353.947063192314 0
3948.852215166311 951.455123876169 0
3382.884419218968 2245.339306472402 0
1993.217642634067 3542.924736911861 0
3848.31056308299 1294.589281483094 0
3979.038772463534 -795.1281680188931 0
1217.268021747817 3864.641584020216 0
1685.363295804361 3701.039367632648 0
3663.247242978643 1753.880526690425 0
3898.857887135429 -1140.264958265765 0
2355.117010951374 3307.397686854734 0
2582.827879059078 3138.850941361478 0
4058.709730871168 257.4347126461954 0
1160.92067957401 3897.132395937817 0
3626.792463773617 1810.879919688516 0
4058.771993826068 -25.99694477919567 0
3037.702903220017 2695.344384417038 0
2962.980291443068 2799.968888475576 0
2474.528529649651 3232.660943120922 0
4069.669785411529 -237.92465656742 0
3264.664666132734 2416.931213633869 0
3174.598477497885 2531.574072002506 0
671.1677371191722 4009.403869407534 0
2058.919930220603 3500.903595386415 0
2179.259508332585 3428.035601941278 0
3874.141604512811 1227.528998369788 0
3918.119593883332 1088.349660070114 0
4021.631387393832 -598.2128287022981 0
3468.498330677678 2119.405105792127 0
1015.292605892778 3936.212408295054 0
1874.117977114527 3603.226329285226 0
1879.456492804684 3675.932307011561 0
1751.083453503582 3671.268230634207 0
3804.253489406959 1430.288631102535 0
3950.190102954969 -939.0761009017461 0
1486.231252913242 3778.435159825033 0
1346.34579662486 3834.670200378548 0
218.9777555313616 4110.213549602741 0
969.4665674275485 4402.95561934581 0
2870.414998233438 3648.364984429646 0
3696.978956138485 -1673.196897347867 0
4452.050804642638 -704.8736321825761 0
4601.186371260767 -624.3716131985119 0
106.0633636771725 4055.684007136374 0
4407.12024584131 -867.348171423474 0
3796.288987774421 2356.702663923511 0
2235.889471347401 3464.971568195714 0
2967.24474046764 2873.121564292417 0
995.0015258249553 4013.593788531493 0
1648.215868882482 4182.161804065969 0
4423.078780881155 408.2449546963171 0
4034.283224275904 397.6748709621426 0
4318.558851288015 973.0215456966376 0
4643.312334420838 -245.6197263758781 0
2614.264179422309 3596.071343057607 0
2894.391892481701 3385.80180908095 0
4064.895878847201 -658.5308690502867 0
340.2640849703528 4502.51829467236 0
1552.641726332858 3754.887177124403 0
4128.976522072029 226.2026976883343 0
4450.807141269031 -426.3516362342345 0
4124.829621170977 73.24971260909216 0
4264.066709628493 -1052.739967857688 0
4286.421189102633 -842.3069037724538 0
4338.501025233176 1238.196488263199 0
4489.611015274392 -312.2219391307135 0
3937.89962884809 -1268.844321828628 0
2245.136714637199 3896.005004465995 0
3887.185826908952 -1713.718352396495 0
4528.447340047201 81.94832054160183 0
4513.016239341282 -49.45878197055786 0
4146.3348818065 1768.373003649921 0
3150.802926761669 2649.746763418773 0
4129.133670446456 -151.0588112375345 0
1063.994353437547 3986.458340569434 0
4008.360368695068 -989.1460861154444 0
4591.714021061215 748.0268253188881 0
860.7776595112638 4323.400031037787 0
4447.920068218701 664.1330768702203 0
4149.519477806168 1645.321577830315 0
3742.799359055548 1741.87364920044 0
4040.236742419059 -850.1935332831528 0
3504.040711246732 2055.426519374312 0
3957.287194282064 2073.214134391968 0
652.8021452531837 4466.560202170433 0
3304.892451262781 3020.547296866164 0
1957.948852644847 4018.979972961994 0
1875.00071122183 4101.871812924285 0
3552.727934657862 2764.645752904917 0
3951.27479335827 884.013433400577 0
3055.390164902034 3273.275453811461 0
3764.587266723824 2471.167822274905 0
2473.012699942256 3306.058054026582 0
3904.159053152439 -1072.977231676679 0
4385.864746434348 -1036.143850355995 0
1539.616934344396 4251.13219742472 0
2701.114654458376 3107.684524989259 0
4128.83019959139 147.0963739149146 0
4028.229686920728 -443.5828728504961 0
4116.945637111738 293.1255926450814 0
2181.499644857277 3493.534322804854 0
4043.986148321956 812.0882586111629 0
3889.269717220585 1346.752745264352 0
3293.656898048957 2353.677543636577 0
141.5984065492285 4659.618875460383 0
1814.149802305932 3704.769680610079 0
717.9678216083673 4058.427397109477 0
4011.684017714424 -914.7041335454855 0
1671.958717173318 3768.476780050082 0
3507.773443814872 2174.175592589856 0
1389.733397765149 3883.592817962789 0
4356.762049516881 -1267.299559035431 0
501.1646226960864 4099.738092717321 0
279.8796223200227 4109.912653156636 0
568.5723587749616 4081.157758670696 0
2739.593458757931 3601.930603724093 0
1931.946446934409 3637.71044007443 0
4084.661018026033 657.9093561310054 0
4258.647166050061 -1937.140009269878 0
3849.818433629967 1482.683017086391 0
3957.521608570009 1206.535360744449 0
3946.935128295042 2194.624400643966 0
3978.834021827136 -730.5485561464516 0
3744.21930675391 1559.886180691689 0
1318.95367311717 3917.788693063354 0
3555.26749674034 1936.796688051434 0
156.1394989701362 4339.606502510585 0
4658.134396971817 148.274752053625 0
4632.340863976707 285.9579337087063 0
3201.240004919273 2600.991002956059 0
4527.468173920473 462.2294025872755 0
2139.897383438431 3959.787893359192 0
789.1747825972915 4039.318269613912 0
3987.868709483702 1063.339789569766 0
4283.06240599348 1341.895809653988 0
3243.466108052979 2538.971718237046 0
3049.966650187494 2770.88222740632 0
4187.17115191922 102.6621998702666 0
4424.943260277631 917.1484173908282 0
3668.27425257996 -1720.015788298436 0
3760.57866207501 -1677.319371303766 0
2826.964725673093 3013.658885735372 0
51.76153035896056 4050.865190225987 0
1611.442500815027 3804.801785794736 0
2451.883160046593 3791.11518433259 0
4279.1367356275 1463.757242659144 0
3751.664982834794 1671.894822630723 0
3994.020659948619 -1329.356909958592 0
3922.454585345417 1286.243437381531 0
4110.762751571771 10.06238952813696 0
3904.038419367851 2307.772979482761 0
2758.922067885997 3071.433033212849 0
3406.425748572995 2313.116134566422 0
3786.774588840236 -1606.658941193001 0
3012.935808327662 3369.293085065945 0
1189.624534014072 4366.433628288685 0
3712.835857529027 1621.883711310445 0
2600.000886824535 3209.388802691329 0
806.5301132943515 3969.415233844009 0
4646.693687401465 421.7227169748746 0
3269.968244767356 3122.833849774748 0
4084.24289891209 -478.0613147638957 0
873.7504901704156 3956.254007922422 0
4540.031244802333 876.0735094306658 0
4416.397959312569 1033.733599312022 0
2071.465936763087 4028.59416561967 0
3584.204218797299 2037.792266060054 0
4123.163197811009 -56.21045718602946 0
223.4442228293143 4555.125665081126 0
3663.259341363735 2008.216798034821 0
4109.503772722166 -304.2396301699186 0
3836.518182155864 -1491.868043121894 0
435.4766613818128 4430.540209626643 0
4250.763224043988 1589.147684531278 0
4622.752341233429 -114.3302199767663 0
4023.819783480032 -381.3935744125185 0
1979.145010375031 3609.28700817324 0
4139.907992020596 350.4683258185134 0
2919.834758542874 2907.588261459314 0
859.1693211618036 4435.822750844667 0
782.399248731429 4526.894775857103 0
$EndNodes
$Elements
5 1410 1242 15922
1 31 1 47
1242 21 1212 
1243 1212 1213 
1244 1213 1214 
1245 1214 1215 
1246 1215 1216 
1247 1216 1217 
1248 1217 1218 
1249 1218 1219 
1250 1219 1220 
1251 1220 1221 
1252 1221 1222 
1253 1222 1223 
1254 1223 1224 
1255 1224 1225 
1256 1225 1226 
1257 1226 1227 
1258 1227 1228 
1259 1228 1229 
1260 1229 1230 
1261 1230 1231 
1262 1231 1232 
1263 1232 1233 
1264 1233 1234 
1265 1234 1235 
1266 1235 1236 
1267 1236 1237 
1268 1237 1238 
1269 1238 1239 
1270 1239 1240 
1271 1240 1241 
1272 1241 1242 
1273 1242 1243 
1274 1243 1244 
1275 1244 1245 
1276 1245 1246 
1277 1246 1247 
1278 1247 1248 
1279 1248 1249 
1280 1249 1250 
1281 1250 1251 
1282 1251 1252 
1283 1252 1253 
1284 1253 1254 
1285 1254 1255 
1286 1255 1256 
1287 1256 1257 
1288 1257 22 
1 32 1 7
1289 22 1258 
1290 1258 1259 
1291 1259 1260 
1292 1260 1261 
1293 1261 1262 
1294 1262 1263 
1295 1263 20 
1 33 1 116
1296 20 1264 
1297 1264 1265 
1298 1265 1266 
1299 1266 1267 
1300 1267 1268 
1301 1268 1269 
1302 1269 1270 
1303 1270 1271 
1304 1271 1272 
1305 1272 1273 
1306 1273 1274 
1307 1274 1275 
1308 1275 1276 
1309 1276 1277 
1310 1277 1278 
1311 1278 1279 
1312 1279 1280 
1313 1280 1281 
1314 1281 1282 
1315 1282 1283 
1316 1283 1284 
1317 1284 1285 
1318 1285 1286 
1319 1286 1287 
1320 1287 1288 
1321 1288 1289 
1322 1289 1290 
1323 1290 1291 
1324 1291 1292 
1325 1292 1293 
1326 1293 1294 
1327 1294 1295 
1328 1295 1296 
1329 1296 1297 
1330 1297 1298 
1331 1298 1299 
1332 1299 1300 
1333 1300 1301 
1334 1301 1302 
1335 1302 1303 
1336 1303 1304 
1337 1304 1305 
1338 1305 1306 
1339 1306 1307 
1340 1307 1308 
1341 1308 1309 
1342 1309 1310 
1343 1310 1311 
1344 1311 1312 
1345 1312 1313 
1346 1313 1314 
1347 1314 1315 
1348 1315 1316 
1349 1316 1317 
1350 1317 1318 
1351 1318 1319 
1352 1319 1320 
1353 1320 1321 
1354 1321 1322 
1355 1322 1323 
1356 1323 1324 
1357 1324 1325 
1358 1325 1326 
1359 1326 1327 
1360 1327 1328 
1361 1328 1329 
1362 1329 1330 
1363 1330 1331 
1364 1331 1332 
1365 1332 1333 
1366 1333 1334 
1367 1334 1335 
1368 1335 1336 
1369 1336 1337 
1370 1337 1338 
1371 1338 1339 
1372 1339 1340 
1373 1340 1341 
1374 1341 1342 
1375 1342 1343 
1376 1343 1344 
1377 1344 1345 
1378 1345 1346 
1379 1346 1347 
1380 1347 1348 
1381 1348 1349 
1382 1349 1350 
1383 1350 1351 
1384 1351 1352 
1385 1352 1353 
1386 1353 1354 
1387 1354 1355 
1388 1355 1356 
1389 1356 1357 
1390 1357 1358 
1391 1358 1359 
1392 1359 1360 
1393 1360 1361 
1394 1361 1362 
1395 1362 1363 
1396 1363 1364 
1397 1364 1365 
1398 1365 1366 
1399 1366 1367 
1400 1367 1368 
1401 1368 1369 
1402 1369 1370 
1403 1370 1371 
1404 1371 1372 
1405 1372 1373 
1406 1373 1374 
1407 1374 1375 
1408 1375 1376 
1409 1376 1377 
1410 1377 1378 
1411 1378 19 
1 34 1 7
1412 19 1379 
1413 1379 1380 
1414 1380 1381 
1415 1381 1382 
1416 1382 1383 
1417 1383 1384 
1418 1384 21 
2 9 2 1233
14690 7817 7837 7706 
14691 7478 7841 7599 
14692 7748 7779 7632 
14693 7595 7856 7521 
14694 7778 7898 7534 
14695 7743 7777 7617 
14696 7750 7781 7638 
14697 7467 7793 7731 
14698 7713 7811 7484 
14699 7720 7863 7677 
14700 7725 7832 7485 
14701 7511 7828 7714 
14702 7714 7715 7511 
14703 7497 7950 7831 
14704 7570 7887 7717 
14705 7514 7853 7721 
14706 7512 7849 7754 
14707 7480 7814 7736 
14708 7599 7870 7560 
14709 7726 7924 7754 
14710 7740 7741 7646 
14711 7771 7816 7506 
14712 7521 7856 1250 
14713 7507 7827 7718 
14714 7727 7801 7493 
14715 7534 7986 7778 
14716 7736 7814 7737 
14717 7638 7902 7750 
14718 7755 7957 7679 
14719 7723 7950 7641 
14720 7751 7937 7509 
14721 7617 7885 7743 
14722 7686 7724 7718 
14723 7493 7802 7727 
14724 7833 7887 7483 
14725 7498 7906 7737 
14726 7741 7904 7646 
14727 7517 7781 7750 
14728 7797 7862 7691 
14729 7706 7837 7787 
14730 7570 7717 7568 
14731 7541 7757 7546 
14732 7562 7858 7855 
14733 7763 7940 7704 
14734 7561 7599 7560 
14735 7703 7763 7704 
14736 7793 7794 7731 
14737 7658 7758 7635 
14738 7789 7870 7505 
14739 7533 7863 7720 
14740 7726 7754 7680 
14741 7734 7851 7705 
14742 7754 7849 7755 
14743 7658 7949 7758 
14744 7484 7931 7713 
14745 1227 7853 7514 
14746 7532 7777 7743 
14747 7775 7966 7710 
14748 7599 7975 7478 
14749 7709 7919 7672 
14750 7751 7933 7612 
14751 7713 7931 7586 
14752 7634 7775 7710 
14753 7708 7709 7674 
14754 7761 7984 7500 
14755 7522 7779 7748 
14756 7679 7957 7708 
14757 7485 7971 7725 
14758 7771 7966 7816 
14759 7521 7874 7595 
14760 7531 7908 7765 
14761 7499 7915 7769 
14762 7531 7925 7757 
14763 7625 7934 7605 
14764 7539 7760 7537 
14765 7586 7931 7594 
14766 7674 7709 7672 
14767 7504 7840 7739 
14768 7691 7862 7724 
14769 7765 7908 7876 
14770 7725 7971 7653 
14771 7559 7801 7727 
14772 7718 7827 7767 
14773 7831 7950 7723 
14774 7568 7717 7716 
14775 7653 7971 7711 
14776 7643 7723 7641 
14777 7725 7906 7832 
14778 7722 7723 7643 
14779 7543 7559 7542 
14780 7529 7979 7747 
14781 7520 7757 7541 
14782 7735 7954 7766 
14783 7794 7926 7700 
14784 7665 7736 7662 
14785 7614 7751 7612 
14786 7542 7545 7544 
14787 7632 7905 7748 
14788 7641 7950 7712 
14789 7534 7898 7729 
14790 7797 7976 7476 
14791 7541 7542 7540 
14792 7718 7888 7507 
14793 7520 7540 7539 
14794 7724 7888 7718 
14795 7605 7934 7739 
14796 7514 7741 1228 
14797 7592 7887 7570 
14798 7477 7966 7775 
14799 7734 7857 7513 
14800 7804 7889 7510 
14801 7737 7824 7498 
14802 7717 7887 7833 
14803 7665 7860 7736 
14804 7705 7753 7734 
14805 7543 7961 7559 
14806 7787 7914 7665 
14807 7768 7937 7751 
14808 7771 7923 7628 
14809 7531 7757 1254 
14810 7699 7770 7696 
14811 7629 7771 7628 
14812 7646 7974 7740 
14813 7564 7599 7561 
14814 1217 7752 7528 
14815 7628 7732 7707 
14816 7568 7716 7566 
14817 7685 7726 7682 
14818 7547 7548 7543 
14819 7652 7756 7649 
14820 7679 7708 7676 
14821 7691 7724 7688 
14822 7671 7706 7668 
14823 7620 7714 7619 
14824 7566 7598 7564 
14825 7767 7938 7685 
14826 7576 7593 7574 
14827 7545 7553 7544 
14828 7634 7710 7631 
14829 7648 7722 7645 
14830 7628 7707 7624 
14831 7719 7751 7614 
14832 7640 7658 7637 
14833 7713 7915 7811 
14834 7542 7544 7540 
14835 7588 7713 7586 
14836 7717 7984 7716 
14837 7619 7719 7616 
14838 1219 7742 7533 
14839 7871 7982 7763 
14840 7594 7807 7790 
14841 7624 7707 7622 
14842 7666 7787 7665 
14843 7653 7711 7652 
14844 7562 7877 7858 
14845 7641 7712 7640 
14846 7894 7960 7719 
14847 7545 7730 7553 
14848 7611 7625 7607 
14849 7616 7719 7614 
14850 7607 7625 7605 
14851 7676 7708 7674 
14852 7703 7871 7763 
14853 7645 7722 7643 
14854 7631 7710 7629 
14855 7699 7928 7770 
14856 7572 7592 7570 
14857 7700 7926 7699 
14858 7668 7706 7666 
14859 7501 7834 7758 
14860 7600 7713 7588 
14861 7559 7727 7545 
14862 1215 7994 7523 
14863 1242 7738 7519 
14864 7637 7658 7635 
14865 7682 7726 7680 
14866 7841 7870 7599 
14867 7790 7791 7582 
14868 7688 7724 7686 
14869 7692 7693 7691 
14870 7581 7593 7576 
14871 7685 7938 7726 
14872 7731 7794 7700 
14873 7686 7718 7685 
14874 7578 7581 7576 
14875 7649 7756 7648 
14876 7655 7725 7653 
14877 7586 7594 7584 
14878 7593 7951 7574 
14879 7551 7804 7549 
14880 7729 7994 1215 
14881 7533 7720 1220 
14882 7541 7543 7542 
14883 7660 7737 7659 
14884 7594 7810 7807 
14885 1236 7744 7532 
14886 1238 7743 7530 
14887 7526 7745 1252 
14888 7530 7746 1239 
14889 7529 7747 1222 
14890 1234 7748 7527 
14891 1225 7749 7518 
14892 7517 7750 1231 
14893 7547 7549 7548 
14894 7574 7597 7572 
14895 7481 7836 7770 
14896 7520 7541 7540 
14897 7566 7716 7598 
14898 7590 7600 7588 
14899 7702 7731 7700 
14900 7537 7932 7539 
14901 7749 7780 7518 
14902 7542 7559 7545 
14903 7796 7985 7466 
14904 7609 7611 7607 
14905 7598 7599 7564 
14906 7659 7725 7655 
14907 7489 7791 7790 
14908 7821 7846 7709 
14909 7737 7906 7659 
14910 7618 7619 7616 
14911 7710 7771 7629 
14912 7551 7889 7804 
14913 7651 7652 7649 
14914 7704 7705 7702 
14915 7633 7634 7631 
14916 7639 7640 7637 
14917 7784 7958 7524 
14918 7670 7671 7668 
14919 7572 7597 7592 
14920 7798 7976 7797 
14921 7627 7628 7624 
14922 7520 7539 1256 
14923 7657 7659 7655 
14924 7721 7869 7514 
14925 7664 7665 7662 
14926 7736 7860 7480 
14927 7920 7946 7694 
14928 7736 7737 7660 
14929 7684 7685 7682 
14930 7690 7691 7688 
14931 7647 7648 7645 
14932 7540 7760 7539 
14933 7698 7699 7696 
14934 7916 7962 7611 
14935 7678 7679 7676 
14936 7715 7786 7511 
14937 7739 7934 7504 
14938 7752 7969 7528 
14939 7584 7790 7582 
14940 7742 7785 7683 
14941 7514 7968 7741 
14942 7604 7878 7606 
14943 7578 7582 7581 
14944 7534 7729 1214 
14945 7619 7894 7719 
14946 7723 7861 7831 
14947 7677 7901 7720 
14948 7706 7787 7666 
14949 7560 7870 7789 
14950 7705 7731 7702 
14951 7496 7991 7791 
14952 7754 7755 7679 
14953 1221 7720 7529 
14954 7886 7943 7640 
14955 7694 7946 7693 
14956 7532 7743 1237 
14957 1253 7745 7531 
14958 7527 7744 1235 
14959 1240 7746 7525 
14960 1223 7747 7524 
14961 7522 7748 1233 
14962 7524 7749 1224 
14963 1232 7750 7522 
14964 7730 7735 7553 
14965 7716 7984 7761 
14966 7707 7983 7622 
14967 7640 7943 7658 
14968 7590 7601 7600 
14969 7689 7969 7752 
14970 7790 7807 7489 
14971 7766 7882 7735 
14972 7605 7739 7603 
14973 1382 7773 7488 
14974 7716 7761 7598 
14975 7731 7927 7467 
14976 7733 7857 7734 
14977 7611 7962 7625 
14978 7718 7767 7685 
14979 7548 7961 7543 
14980 7672 7845 7671 
14981 7648 7772 7722 
14982 1213 7534 1214 
14983 7742 7909 7533 
14984 7704 7753 7705 
14985 7672 7919 7845 
14986 7609 7612 7611 
14987 7767 7827 7820 
14988 7620 7715 7714 
14989 7963 7981 7597 
14990 7601 7769 7600 
14991 7730 7985 7796 
14992 7913 7991 7496 
14993 7525 7738 1241 
14994 1230 7740 7517 
14995 7652 7965 7756 
14996 7618 7620 7619 
14997 7744 7935 7532 
14998 7758 7834 7775 
14999 7662 7736 7660 
15000 7890 7892 7515 
15001 7756 7955 7648 
15002 1255 7520 1256 
15003 1244 7515 1245 
15004 1227 7514 1228 
15005 1219 7533 1220 
15006 1236 7532 1237 
15007 1253 7531 1254 
15008 1238 7530 1239 
15009 1221 7529 1222 
15010 1217 7528 1218 
15011 1234 7527 1235 
15012 1251 7526 1252 
15013 1240 7525 1241 
15014 1223 7524 1224 
15015 1215 7523 1216 
15016 1232 7522 1233 
15017 1249 7521 1250 
15018 1242 7519 1243 
15019 1225 7518 1226 
15020 1230 7517 1231 
15021 1247 7516 1248 
15022 7887 7981 7812 
15023 7627 7629 7628 
15024 7633 7635 7634 
15025 7635 7758 7634 
15026 7754 7924 7512 
15027 7639 7641 7640 
15028 7651 7653 7652 
15029 7670 7672 7671 
15030 7680 7754 7679 
15031 7698 7700 7699 
15032 7664 7666 7665 
15033 7657 7660 7659 
15034 7791 7865 7496 
15035 7769 7915 7600 
15036 7528 7742 1218 
15037 7748 7905 7527 
15038 7692 7694 7693 
15039 7537 7760 7759 
15040 1229 7741 7740 
15041 7727 7985 7545 
15042 7647 7649 7648 
15043 7684 7686 7685 
15044 7545 7985 7730 
15045 7738 7878 7610 
15046 7678 7680 7679 
15047 7690 7692 7691 
15048 7738 7978 7519 
15049 7760 7788 7759 
15050 7523 7752 1216 
15051 7610 7878 7604 
15052 7910 7965 7652 
15053 1213 7764 7534 
15054 7855 7858 7526 
15055 7743 7885 7530 
15056 7671 7990 7706 
15057 7574 7951 7597 
15058 7591 7892 7890 
15059 7758 7949 7501 
15060 7550 7551 7549 
15061 7769 7903 7499 
15062 7622 7715 7620 
15063 1255 7757 7520 
15064 7603 7783 7601 
15065 7494 7809 7772 
15066 7526 7858 7745 
15067 7581 7873 7593 
15068 7552 7554 7551 
15069 7804 7823 7803 
15070 7483 7887 7812 
15071 7747 7881 7524 
15072 7524 7958 7749 
15073 7750 7902 7522 
15074 7597 7981 7592 
15075 7546 7547 7543 
15076 7555 7557 7554 
15077 7683 7909 7742 
15078 7719 7768 7751 
15079 7558 7560 7557 
15080 1228 7741 1229 
15081 7549 7803 7548 
15082 7565 7566 7564 
15083 7708 7922 7709 
15084 1256 7539 1257 
15085 7530 7987 7746 
15086 7819 7895 7789 
15087 7706 7990 7817 
15088 7610 7978 7738 
15089 7693 7797 7691 
15090 7567 7568 7566 
15091 7560 7789 7557 
15092 1379 7733 1380 
15093 1260 7491 1261 
15094 1380 7536 1381 
15095 1250 7856 1251 
15096 7767 7820 7471 
15097 7500 7989 7761 
15098 7603 7947 7783 
15099 1382 7488 1383 
15100 7569 7570 7568 
15101 1262 7538 1263 
15102 7764 7982 7871 
15103 7696 7770 7694 
15104 7752 7852 7689 
15105 7918 7982 7764 
15106 1380 7733 7536 
15107 7571 7572 7570 
15108 7527 7964 7744 
15109 7594 7790 7584 
15110 7770 7928 7481 
15111 7612 7792 7611 
15112 7792 7847 7474 
15113 1220 7720 1221 
15114 7491 7766 1261 
15115 7563 7564 7561 
15116 1235 7744 1236 
15117 1237 7743 1238 
15118 1252 7745 1253 
15119 1239 7746 1240 
15120 1222 7747 1223 
15121 1233 7748 1234 
15122 1224 7749 1225 
15123 1231 7750 1232 
15124 7583 7584 7582 
15125 1214 7729 1215 
15126 7598 7975 7599 
15127 7573 7574 7572 
15128 7930 7990 7671 
15129 1261 7766 1262 
15130 7740 7974 7517 
15131 7509 7933 7751 
15132 7488 7940 7763 
15133 7532 7935 7897 
15134 7575 7576 7574 
15135 7517 7974 7899 
15136 7758 7775 7634 
15137 1258 7537 1259 
15138 7766 7954 7538 
15139 1229 7740 1230 
15140 1241 7738 1242 
15141 7528 7785 7742 
15142 1381 7773 1382 
15143 7554 7889 7551 
15144 7783 7815 7769 
15145 7733 7734 7536 
15146 7739 7947 7603 
15147 1212 7764 1213 
15148 1259 7759 1260 
15149 1262 7766 7538 
15150 7577 7578 7576 
15151 7871 7986 7534 
15152 7585 7586 7584 
15153 1218 7742 1219 
15154 7850 7938 7471 
15155 7648 7955 7772 
15156 7506 7923 7771 
15157 7602 7603 7601 
15158 7924 7938 7850 
15159 7803 7823 7468 
15160 7709 7922 7821 
15161 1384 7918 21 
15162 1260 7759 7491 
15163 1216 7752 1217 
15164 7544 7760 7540 
15165 7513 7851 7734 
15166 7489 7865 7791 
15167 7703 7704 7702 
15168 7600 7915 7713 
15169 1254 7757 1255 
15170 7587 7588 7586 
15171 7722 7861 7723 
15172 7714 7894 7619 
15173 7544 7788 7760 
15174 7814 7824 7737 
15175 7589 7590 7588 
15176 7613 7614 7612 
15177 7604 7605 7603 
15178 1246 7942 7941 
15179 7712 7886 7640 
15180 7510 7907 7804 
15181 7524 7881 7784 
15182 7701 7702 7700 
15183 7621 7622 7620 
15184 7515 7892 7774 
15185 7720 7901 7529 
15186 7606 7607 7605 
15187 7780 7868 7518 
15188 7745 7908 7531 
15189 7955 7965 7805 
15190 7711 7910 7652 
15191 7537 7759 1259 
15192 7765 7925 7531 
15193 7608 7609 7607 
15194 7615 7616 7614 
15195 7630 7631 7629 
15196 7642 7643 7641 
15197 7673 7674 7672 
15198 7479 7815 7783 
15199 7636 7637 7635 
15200 7547 7765 7550 
15201 7667 7668 7666 
15202 7654 7655 7653 
15203 7661 7662 7660 
15204 7582 7991 7581 
15205 7532 7897 7777 
15206 7617 7618 7616 
15207 7775 7917 7477 
15208 7787 7837 7503 
15209 7547 7550 7549 
15210 7623 7624 7622 
15211 7650 7651 7649 
15212 7732 7980 7707 
15213 7695 7696 7694 
15214 7626 7627 7624 
15215 7632 7633 7631 
15216 7681 7682 7680 
15217 7644 7645 7643 
15218 7656 7657 7655 
15219 7687 7688 7686 
15220 7638 7639 7637 
15221 7541 7546 7543 
15222 1251 7856 7526 
15223 7813 7886 7712 
15224 7757 7925 7546 
15225 7669 7670 7668 
15226 7663 7664 7662 
15227 7675 7676 7674 
15228 7697 7698 7696 
15229 7759 7788 7491 
15230 7646 7647 7645 
15231 7659 7906 7725 
15232 7822 7894 7714 
15233 7796 7967 7730 
15234 7549 7804 7803 
15235 7683 7684 7682 
15236 7677 7678 7676 
15237 7689 7690 7688 
15238 1226 7853 1227 
15239 7518 7853 1226 
15240 7525 7878 7738 
15241 7705 7927 7731 
15242 1212 7918 7764 
15243 7550 7552 7551 
15244 7539 7932 1257 
15245 7552 7555 7554 
15246 1383 7762 1384 
15247 7474 7916 7792 
15248 21 7918 1212 
15249 7712 7830 7813 
15250 7516 7988 1248 
15251 7934 7962 7839 
15252 7746 7959 7525 
15253 1248 7867 1249 
15254 7546 7765 7547 
15255 7555 7558 7557 
15256 7612 7933 7792 
15257 7628 7923 7732 
15258 7867 7879 7521 
15259 7772 7955 7494 
15260 7710 7966 7771 
15261 1243 7890 1244 
15262 7519 7977 1243 
15263 7523 7852 7752 
15264 7553 7788 7544 
15265 7747 7945 7881 
15266 1246 7941 1247 
15267 7557 7895 7554 
15268 7954 7967 7535 
15269 7601 7783 7769 
15270 7563 7565 7564 
15271 7471 7938 7767 
15272 7558 7561 7560 
15273 7789 7895 7557 
15274 7565 7567 7566 
15275 7505 7936 7789 
15276 7578 7583 7582 
15277 1375 7795 1376 
15278 7503 7914 7787 
15279 1248 7988 7867 
15280 7567 7569 7568 
15281 1376 7513 1377 
15282 1243 7977 7890 
15283 7667 7881 7669 
15284 7788 7882 7491 
15285 7569 7571 7570 
15286 7704 7940 7753 
15287 7580 7879 7867 
15288 7773 7940 7488 
15289 7517 7899 7781 
15290 7590 7602 7601 
15291 7730 7967 7735 
15292 7571 7573 7572 
15293 7833 7984 7717 
15294 7553 7882 7788 
15295 7784 7881 7667 
15296 1249 7867 7521 
15297 1257 7932 22 
15298 22 7932 1258 
15299 7573 7575 7574 
15300 1265 7535 1266 
15301 7556 7908 7858 
15302 7609 7613 7612 
15303 7594 7931 7810 
15304 7583 7585 7584 
15305 7786 7980 7472 
15306 7468 7880 7803 
15307 7575 7577 7576 
15308 7764 7871 7534 
15309 7698 7701 7700 
15310 7618 7621 7620 
15311 1266 7796 1267 
15312 20 7953 1264 
15313 1378 7956 19 
15314 1263 7953 20 
15315 19 7956 1379 
15316 1270 7800 1271 
15317 7693 7798 7797 
15318 7536 7773 1381 
15319 7627 7630 7629 
15320 1272 7823 1273 
15321 1296 7807 1297 
15322 1244 7890 7515 
15323 1338 7806 1339 
15324 1264 7854 1265 
15325 1287 7812 1288 
15326 1339 7825 1340 
15327 7585 7587 7586 
15328 1361 7820 1362 
15329 1329 7813 1330 
15330 7633 7636 7635 
15331 1314 7822 1315 
15332 1374 7467 1375 
15333 1334 7809 1335 
15334 1277 7819 1278 
15335 1267 7466 1268 
15336 7806 7910 7711 
15337 7466 7985 7802 
15338 7701 7703 7702 
15339 7639 7642 7641 
15340 1285 7833 1286 
15341 1369 7836 1370 
15342 1299 7811 1300 
15343 1332 7831 1333 
15344 1280 7841 1281 
15345 1327 7835 1328 
15346 1364 7843 1365 
15347 1359 7850 1360 
15348 7664 7667 7666 
15349 1275 7848 1276 
15350 7512 7924 7850 
15351 1362 7827 1363 
15352 7840 7947 7739 
15353 7602 7604 7603 
15354 1348 7837 1349 
15355 1353 7846 1354 
15356 1306 7839 1307 
15357 1315 7828 1316 
15358 7670 7673 7672 
15359 7587 7589 7588 
15360 7657 7661 7660 
15361 7651 7654 7653 
15362 7868 7929 7518 
15363 7647 7650 7649 
15364 7678 7681 7680 
15365 7604 7606 7605 
15366 7692 7695 7694 
15367 7786 7983 7980 
15368 1373 7793 1374 
15369 1268 7802 1269 
15370 7684 7687 7686 
15371 1377 7857 1378 
15372 7494 7955 7805 
15373 7613 7615 7614 
15374 7609 7776 7613 
15375 1372 7492 1373 
15376 1269 7493 1270 
15377 7606 7608 7607 
15378 7714 7828 7822 
15379 7504 7934 7839 
15380 1371 7799 1372 
15381 1337 7490 1338 
15382 1295 7489 1296 
15383 1291 7487 1292 
15384 1333 7486 1334 
15385 1340 7485 1341 
15386 1298 7484 1299 
15387 1286 7483 1287 
15388 1328 7482 1329 
15389 1370 7481 1371 
15390 1345 7480 1346 
15391 1303 7479 1304 
15392 1281 7478 1282 
15393 1323 7477 1324 
15394 1365 7476 1366 
15395 1350 7475 1351 
15396 1308 7474 1309 
15397 1276 7473 1277 
15398 1318 7472 1319 
15399 1360 7471 1361 
15400 1355 7470 1356 
15401 1313 7469 1314 
15402 1271 7468 1272 
15403 7559 7961 7801 
15404 7621 7623 7622 
15405 7608 7776 7609 
15406 7618 7777 7621 
15407 1376 7795 7513 
15408 1297 7810 1298 
15409 1302 7815 1303 
15410 7842 7923 7506 
15411 1349 7817 1350 
15412 1354 7821 1355 
15413 1294 7865 1295 
15414 1307 7818 1308 
15415 7615 7617 7616 
15416 1336 7805 1337 
15417 1292 7826 1293 
15418 1344 7814 1345 
15419 1293 7496 1294 
15420 1335 7494 1336 
15421 1341 7832 1342 
15422 1290 7808 1291 
15423 1322 7816 1323 
15424 1346 7838 1347 
15425 1351 7844 1352 
15426 1304 7840 1305 
15427 1309 7847 1310 
15428 1325 7834 1326 
15429 1320 7842 1321 
15430 1357 7849 1358 
15431 1288 7829 1289 
15432 7617 7777 7618 
15433 1330 7830 1331 
15434 1343 7824 1344 
15435 7513 7857 1377 
15436 1289 7495 1290 
15437 1331 7497 1332 
15438 1342 7498 1343 
15439 1300 7499 1301 
15440 1284 7500 1285 
15441 1326 7501 1327 
15442 1368 7502 1369 
15443 1347 7503 1348 
15444 1305 7504 1306 
15445 1279 7505 1280 
15446 1321 7506 1322 
15447 1363 7507 1364 
15448 1352 7508 1353 
15449 1310 7509 1311 
15450 1274 7510 1275 
15451 1316 7511 1317 
15452 1358 7512 1359 
15453 7642 7644 7643 
15454 7698 7778 7701 
15455 7630 7632 7631 
15456 7654 7656 7655 
15457 7476 7862 7797 
15458 7673 7675 7674 
15459 7515 7973 1245 
15460 7623 7626 7624 
15461 7636 7638 7637 
15462 7803 7880 7548 
15463 7661 7663 7662 
15464 7581 7913 7873 
15465 7804 7907 7823 
15466 7488 7763 7762 
15467 7578 7864 7583 
15468 7633 7779 7636 
15469 7667 7669 7668 
15470 1247 7941 7516 
15471 7644 7646 7645 
15472 7632 7779 7633 
15473 7639 7781 7642 
15474 7638 7781 7639 
15475 7711 7825 7806 
15476 7697 7778 7698 
15477 7695 7697 7696 
15478 7670 7782 7673 
15479 7663 7784 7664 
15480 7669 7782 7670 
15481 7753 7940 7773 
15482 7852 7891 7690 
15483 7664 7784 7667 
15484 7681 7683 7682 
15485 7675 7677 7676 
15486 7687 7689 7688 
15487 7554 7921 7889 
15488 7683 7785 7684 
15489 7689 7852 7690 
15490 7834 7917 7775 
15491 7846 7919 7709 
15492 7684 7785 7687 
15493 1356 7872 1357 
15494 1265 7854 7535 
15495 7734 7753 7536 
15496 7836 7920 7770 
15497 7590 7866 7602 
15498 7491 7882 7766 
15499 7815 7903 7769 
15500 7626 7859 7627 
15501 7467 7795 1375 
15502 7858 7877 7556 
15503 7802 7985 7727 
15504 7562 7563 7561 
15505 7677 7863 7678 
15506 7770 7920 7694 
15507 7592 7981 7887 
15508 7622 7983 7715 
15509 7535 7796 1266 
15510 7753 7773 7536 
15511 7657 7868 7661 
15512 1267 7796 7466 
15513 1319 7896 1320 
15514 7651 7869 7654 
15515 7579 7596 7577 
15516 7529 7901 7900 
15517 7646 7904 7647 
15518 7854 7954 7535 
15519 1301 7903 1302 
15520 7795 7851 7513 
15521 7488 7762 1383 
15522 1374 7793 7467 
15523 7466 7802 1268 
15524 7577 7864 7578 
15525 1273 7907 1274 
15526 7552 7556 7555 
15527 7589 7866 7590 
15528 7563 7595 7565 
15529 7558 7562 7561 
15530 7650 7869 7651 
15531 7806 7825 1339 
15532 7493 7800 1270 
15533 7569 7580 7571 
15534 7656 7868 7657 
15535 7492 7793 1373 
15536 7735 7882 7553 
15537 1269 7802 7493 
15538 7851 7927 7705 
15539 7627 7859 7630 
15540 7678 7863 7681 
15541 7583 7774 7585 
15542 7820 7827 1362 
15543 1271 7800 7468 
15544 7822 7828 1315 
15545 7575 7579 7577 
15546 7583 7864 7774 
15547 7587 7591 7589 
15548 7602 7610 7604 
15549 7695 7728 7697 
15550 7468 7823 1272 
15551 7792 7933 7847 
15552 7654 7721 7656 
15553 7810 7931 7484 
15554 7489 7807 1296 
15555 7490 7806 1338 
15556 7483 7812 1287 
15557 1340 7825 7485 
15558 7661 7780 7663 
15559 7471 7820 1361 
15560 7482 7813 1329 
15561 7469 7822 1314 
15562 7486 7809 1334 
15563 7473 7819 1277 
15564 7807 7810 1297 
15565 7783 7947 7479 
15566 1286 7833 7483 
15567 1370 7836 7481 
15568 7484 7811 1299 
15569 1333 7831 7486 
15570 1372 7799 7492 
15571 1328 7835 7482 
15572 1281 7841 7478 
15573 1365 7843 7476 
15574 1360 7850 7471 
15575 1276 7848 7473 
15576 1324 7917 1325 
15577 7869 7968 7514 
15578 7812 7829 1288 
15579 1335 7809 7494 
15580 7765 7876 7550 
15581 1349 7837 7817 
15582 7875 7951 7911 
15583 7690 7891 7692 
15584 1354 7846 7821 
15585 1307 7839 7818 
15586 7813 7830 1330 
15587 7481 7799 1371 
15588 7749 7958 7780 
15589 7472 7939 7786 
15590 7500 7833 1285 
15591 7502 7836 1369 
15592 1300 7811 7499 
15593 7497 7831 1332 
15594 7501 7835 1327 
15595 7505 7841 1280 
15596 7507 7843 1364 
15597 7512 7850 1359 
15598 7510 7848 1275 
15599 7562 7855 7563 
15600 1363 7827 7507 
15601 1298 7810 7484 
15602 7503 7837 1348 
15603 7508 7846 1353 
15604 7504 7839 1306 
15605 1316 7828 7511 
15606 1303 7815 7479 
15607 1350 7817 7475 
15608 1295 7865 7489 
15609 1355 7821 7470 
15610 1308 7818 7474 
15611 1337 7805 7490 
15612 7487 7826 1292 
15613 1345 7814 7480 
15614 1379 7956 7733 
15615 7485 7832 1341 
15616 1291 7808 7487 
15617 7480 7838 1346 
15618 7479 7840 1304 
15619 1323 7816 7477 
15620 7475 7844 1351 
15621 7474 7847 1309 
15622 7527 7905 7859 
15623 7786 7939 7511 
15624 7772 7992 7722 
15625 1245 7973 1246 
15626 7830 7950 7497 
15627 7496 7865 1294 
15628 7494 7805 1336 
15629 1293 7826 7496 
15630 7761 7975 7598 
15631 1344 7824 7814 
15632 7480 7860 7838 
15633 7602 7866 7610 
15634 1342 7832 7498 
15635 7495 7808 1290 
15636 1347 7838 7503 
15637 1305 7840 7504 
15638 7506 7816 1322 
15639 1352 7844 7508 
15640 1310 7847 7509 
15641 7538 7953 1263 
15642 1326 7834 7501 
15643 1321 7842 7506 
15644 1358 7849 7512 
15645 1289 7829 7495 
15646 7847 7933 7509 
15647 1331 7830 7497 
15648 7470 7872 1356 
15649 7498 7824 1343 
15650 7472 7980 7896 
15651 1282 7912 1283 
15652 1357 7872 7849 
15653 7526 7856 7855 
15654 7615 7885 7617 
15655 7823 7907 1273 
15656 7735 7967 7954 
15657 7596 7864 7577 
15658 7492 7794 7793 
15659 7472 7896 1319 
15660 1302 7903 7815 
15661 7493 7801 7800 
15662 1320 7896 7842 
15663 7893 7987 7530 
15664 7499 7903 1301 
15665 7880 7961 7548 
15666 7661 7868 7780 
15667 7654 7869 7721 
15668 7505 7870 7841 
15669 7647 7904 7650 
15670 7477 7917 1324 
15671 1274 7907 7510 
15672 7792 7916 7611 
15673 7842 7896 7732 
15674 7482 7886 7813 
15675 7487 7873 7826 
15676 1325 7917 7834 
15677 7831 7861 7486 
15678 7844 7845 7508 
15679 7495 7875 7808 
15680 7478 7912 1282 
15681 7712 7950 7830 
15682 7843 7862 7476 
15683 7469 7894 7822 
15684 7510 7889 7848 
15685 7500 7984 7833 
15686 7762 7918 1384 
15687 7565 7874 7567 
15688 7479 7947 7840 
15689 7819 7936 1278 
15690 7756 7965 7955 
15691 7853 7929 7721 
15692 7521 7879 7874 
15693 7563 7855 7595 
15694 7774 7944 7515 
15695 7692 7891 7695 
15696 7573 7883 7575 
15697 7555 7877 7558 
15698 7550 7876 7552 
15699 7855 7856 7595 
15700 1318 7939 7472 
15701 7469 7970 7960 
15702 1279 7936 7505 
15703 7473 7895 7819 
15704 7911 7951 7593 
15705 7885 7893 7530 
15706 7858 7908 7745 
15707 7567 7879 7569 
15708 7511 7939 1317 
15709 7732 7923 7842 
15710 1313 7970 7469 
15711 7522 7902 7779 
15712 7509 7937 1311 
15713 7476 7976 1366 
15714 1278 7936 1279 
15715 7571 7884 7573 
15716 7832 7906 7498 
15717 1368 7972 7502 
15718 7490 7910 7806 
15719 1284 7989 7500 
15720 7703 7986 7871 
15721 7878 7948 7606 
15722 7518 7929 7853 
15723 1317 7939 1318 
15724 7845 7930 7671 
15725 7818 7916 7474 
15726 7776 7893 7613 
15727 7912 7975 7761 
15728 1311 7937 1312 
15729 7777 7897 7621 
15730 7741 7968 7904 
15731 7585 7892 7587 
15732 7980 7983 7707 
15733 7800 7880 7468 
15734 7795 7927 7851 
15735 7613 7893 7615 
15736 7811 7915 7499 
15737 7625 7962 7934 
15738 7781 7899 7642 
15739 7779 7902 7636 
15740 1258 7932 7537 
15741 7719 7960 7768 
15742 7782 7900 7673 
15743 7595 7874 7565 
15744 7789 7936 7819 
15745 7502 7972 7946 
15746 7621 7897 7623 
15747 7556 7877 7555 
15748 7695 7891 7728 
15749 1246 7973 7942 
15750 7801 7961 7880 
15751 7642 7899 7644 
15752 7552 7876 7556 
15753 7558 7877 7562 
15754 7575 7883 7579 
15755 7825 7971 7485 
15756 7673 7900 7675 
15757 7636 7902 7638 
15758 7507 7888 7843 
15759 7569 7879 7580 
15760 7697 7898 7778 
15761 7791 7991 7582 
15762 7876 7908 7556 
15763 7900 7979 7529 
15764 7580 7884 7571 
15765 7546 7925 7765 
15766 7587 7892 7591 
15767 7675 7901 7677 
15768 7801 7880 7800 
15769 1312 7970 1313 
15770 7630 7905 7632 
15771 7896 7980 7732 
15772 7944 7973 7515 
15773 7821 7922 7470 
15774 7681 7909 7683 
15775 1367 7972 1368 
15776 7774 7892 7585 
15777 7883 7941 7579 
15778 7849 7872 7755 
15779 7701 7986 7703 
15780 7912 7989 1283 
15781 7615 7893 7885 
15782 7785 7969 7687 
15783 7467 7927 7795 
15784 7608 7959 7776 
15785 7728 7898 7697 
15786 1366 7976 1367 
15787 7843 7888 7862 
15788 7808 7911 7487 
15789 7874 7879 7567 
15790 7826 7913 7496 
15791 7721 7929 7656 
15792 7799 7926 7492 
15793 7838 7914 7503 
15794 7859 7905 7630 
15795 7623 7935 7626 
15796 7863 7909 7681 
15797 7502 7920 7836 
15798 7502 7946 7920 
15799 7573 7884 7883 
15800 7481 7928 7799 
15801 7860 7914 7838 
15802 1283 7989 1284 
15803 7492 7926 7794 
15804 7475 7930 7844 
15805 7591 7952 7589 
15806 7469 7960 7894 
15807 7711 7971 7825 
15808 7656 7929 7868 
15809 1264 7953 7854 
15810 7889 7921 7848 
15811 7525 7959 7948 
15812 7487 7911 7873 
15813 7780 7958 7663 
15814 7937 7970 1312 
15815 7782 7979 7900 
15816 7873 7913 7826 
15817 7875 7911 7808 
15818 7508 7919 7846 
15819 7470 7957 7872 
15820 7693 7946 7798 
15821 7844 7930 7845 
15822 7726 7938 7924 
15823 7857 7956 1378 
15824 7516 7941 7883 
15825 7848 7921 7473 
15826 7852 7993 7891 
15827 7809 7992 7772 
15828 7538 7954 7854 
15829 7845 7919 7508 
15830 7650 7968 7869 
15831 1367 7976 7972 
15832 7942 7973 7596 
15833 7663 7958 7784 
15834 7900 7901 7675 
15835 7495 7963 7875 
15836 7895 7921 7554 
15837 7482 7943 7886 
15838 7778 7986 7701 
15839 7867 7988 7580 
15840 7525 7948 7878 
15841 7897 7935 7623 
15842 7835 7943 7482 
15843 7722 7992 7861 
15844 7854 7953 7538 
15845 7473 7921 7895 
15846 7606 7948 7608 
15847 7626 7964 7859 
15848 7960 7970 7768 
15849 7687 7969 7689 
15850 7733 7956 7857 
15851 7935 7964 7626 
15852 7862 7888 7724 
15853 7535 7967 7796 
15854 7486 7992 7809 
15855 7501 7949 7835 
15856 7881 7945 7669 
15857 7799 7928 7926 
15858 7669 7945 7782 
15859 7579 7942 7596 
15860 7490 7965 7910 
15861 7644 7974 7646 
15862 7589 7952 7866 
15863 7816 7966 7477 
15864 7818 7962 7916 
15865 7829 7963 7495 
15866 7533 7909 7863 
15867 7839 7962 7818 
15868 7899 7974 7644 
15869 7805 7965 7490 
15870 7904 7968 7650 
15871 7890 7977 7591 
15872 7763 7982 7762 
15873 7523 7993 7852 
15874 7478 7975 7912 
15875 7946 7972 7798 
15876 7835 7949 7943 
15877 7597 7951 7875 
15878 7715 7983 7786 
15879 7665 7914 7860 
15880 7864 7944 7774 
15881 7761 7989 7912 
15882 7728 7994 7898 
15883 7872 7957 7755 
15884 7528 7969 7785 
15885 7812 7981 7829 
15886 7475 7990 7930 
15887 7861 7992 7486 
15888 7762 7982 7918 
15889 7883 7884 7516 
15890 7922 7957 7470 
15891 7873 7911 7593 
15892 7596 7944 7864 
15893 7959 7987 7776 
15894 7952 7978 7866 
15895 7859 7964 7527 
15896 7768 7970 7937 
15897 7580 7988 7884 
15898 7866 7978 7610 
15899 7817 7990 7475 
15900 7898 7994 7729 
15901 7948 7959 7608 
15902 7972 7976 7798 
15903 7941 7942 7579 
15904 7829 7981 7963 
15905 7708 7957 7922 
15906 7744 7964 7935 
15907 7875 7963 7597 
15908 7591 7977 7952 
15909 7581 7991 7913 
15910 7884 7988 7516 
15911 7926 7928 7699 
15912 7596 7973 7944 
15913 7891 7993 7728 
15914 7746 7987 7959 
15915 7945 7979 7782 
15916 7943 7949 7658 
15917 7519 7978 7952 
15918 7952 7977 7519 
15919 7776 7987 7893 
15920 7747 7979 7945 
15921 7993 7994 7728 
15922 7523 7994 7993 
$EndElements
