$MeshFormat
4.1 0 8
$EndMeshFormat
$PhysicalNames
15
1 1 "r1"
1 2 "ground"
1 3 "flare"
1 4 "pipewall"
1 5 "x2"
1 6 "symmetry"
1 7 "r2"
1 8 "symmetry2"
1 9 "ground2"
1 11 "r3"
1 12 "ground3"
1 14 "symmetry3"
2 7 "domain1"
2 10 "domain2"
2 15 "domain3"
$EndPhysicalNames
$Entities
24 38 9 0
1 0 488.8888888888888 0 0 
2 0 0 0 0 
3 457.3432961439855 -172.769948634498 0 0 
4 122.3606797749979 -5.278640450004204 0 0 
5 100 -50 0 0 
6 50 -50 0 0 
7 50 -150 0 0 
8 0 -150 0 0 
9 0 1222.222222222222 0 0 
10 1114.634330649659 -501.415465887335 0 0 
11 0 2100 0 0 
12 1900.125308262818 -894.1609546939143 0 0 
13 0 2666.666666666667 0 0 
14 2407.080556173249 -1147.63857864913 0 0 
15 0 3111.111111111111 0 0 
16 2804.663660498559 -1346.430130811784 0 0 
17 0 3600 0 0 
18 3241.987987399283 -1565.092294262146 0 0 
19 0 4000 0 0 
20 3599.78992435832 -1743.993262741665 0 0 
21 0 4800 0 0 
22 4315.378266508133 -2101.787433816572 0 0 
23 0 10000 0 0 
24 8966.520785676501 -4427.358693400755 0 0 
1 0 -172.769948634498 0 487.7544968055191 488.8888888888887 0 0 2 1 -3 
2 122.3606797749979 -172.769948634498 0 457.3432961439855 -5.278640450004218 0 0 2 3 -4 
3 49.99999999999999 -50.00000000000001 0 122.3606797749979 -0.00333442290281738 0 0 2 4 -6 
4 50 -150 0 50 -50 0 0 2 6 -7 
5 0 -150 0 50 -150 0 0 2 7 -8 
6 0 -150 0 0 488.8888888888888 0 0 2 8 -1 
7 0 -501.415465887335 0 1221.970940956613 1222.222222222222 0 0 2 9 -10 
8 0 488.8888888888888 0 0 1222.222222222222 0 0 2 1 -9 
9 457.3432961439855 -501.415465887335 0 1114.634330649659 -172.769948634498 0 0 2 10 -3 
10 -2.842170943040401e-14 -172.7699486344979 0 487.754496805519 488.8888888888887 0 0 2 3 -1 
11 0 -894.1609546939143 0 2099.94897105561 2100 0 1 11 2 11 -12 
12 1114.634330649659 -894.1609546939143 0 1900.125308262818 -501.415465887335 0 1 12 2 12 -10 
13 1.13686837721616e-13 -501.415465887335 0 1221.970940956613 1222.222222222223 0 1 7 2 10 -9 
14 0 1222.222222222222 0 0 2100 0 1 14 2 9 -11 
15 0 -1147.638578649129 0 2666.654383170227 2666.666666666667 0 0 2 13 -14 
16 1900.125308262818 -1147.63857864913 0 2407.080556173249 -894.1609546939143 0 0 2 14 -12 
17 1.591615728102624e-12 -894.1609546939146 0 2099.94897105561 2100 0 0 2 12 -11 
18 0 2100 0 0 2666.666666666667 0 0 2 11 -13 
19 0 -1346.430130811785 0 3111.109702544029 3111.111111111111 0 0 2 15 -16 
20 2407.080556173249 -1346.430130811784 0 2804.663660498559 -1147.63857864913 0 0 2 16 -14 
21 6.821210263296962e-13 -1147.63857864913 0 2666.654383170227 2666.666666666667 0 0 2 14 -13 
22 0 2666.666666666667 0 0 3111.111111111111 0 0 2 13 -15 
23 0 -1565.092294262146 0 3599.998997894867 3600 0 0 2 17 -18 
24 2804.663660498559 -1565.092294262146 0 3241.987987399283 -1346.430130811784 0 0 2 18 -16 
25 9.094947017729282e-13 -1346.430130811784 0 3111.10970254403 3111.111111111111 0 0 2 16 -15 
26 0 3111.111111111111 0 0 3600 0 0 2 15 -17 
27 0 -1743.993262741665 0 3999.993327934862 4000 0 0 2 19 -20 
28 3241.987987399283 -1743.993262741665 0 3599.78992435832 -1565.092294262146 0 0 2 20 -18 
29 2.273736754432321e-13 -1565.092294262146 0 3599.998997894867 3600 0 0 2 18 -17 
30 0 3600 0 0 4000 0 0 2 17 -19 
31 0 -2101.787433816573 0 4799.971484377824 4800 0 0 2 21 -22 
32 3599.78992435832 -2101.787433816572 0 4315.378266508133 -1743.993262741665 0 0 2 22 -20 
33 9.094947017729282e-13 -1743.993262741665 0 3999.99332793486 3999.999999999999 0 0 2 20 -19 
34 0 4000 0 0 4800 0 0 2 19 -21 
35 0 -4427.358693400756 0 9999.706619488945 10000 0 0 2 23 -24 
36 4315.378266508133 -4427.358693400755 0 8966.520785676501 -2101.787433816572 0 0 2 24 -22 
37 -4.547473508864641e-13 -2101.787433816573 0 4799.971484377825 4800 0 0 2 22 -21 
38 0 4800 0 0 10000 0 0 2 21 -23 
2 0 -172.769948634498 0 487.7544968055191 488.8888888888888 0 0 6 -2 -1 -6 -5 -4 -3 
3 0 -501.4154658873351 0 1221.970940956613 1222.222222222222 0 0 4 -10 -9 -7 -8 
4 0 -894.1609546939144 0 2099.94897105561 2100 0 1 15 4 -14 -13 -12 -11 
5 0 -1147.63857864913 0 2666.654383170227 2666.666666666667 0 0 4 -18 -17 -16 -15 
6 0 -1346.430130811785 0 3111.109702544029 3111.111111111111 0 0 4 -22 -21 -20 -19 
7 0 -1565.092294262146 0 3599.998997894867 3600 0 0 4 -26 -25 -24 -23 
8 0 -1743.993262741665 0 3999.993327934862 4000 0 0 4 -30 -29 -28 -27 
9 0 -2101.787433816573 0 4799.971484377824 4800 0 0 4 -34 -33 -32 -31 
10 0 -4427.358693400756 0 9999.706619488945 10000 0 0 4 -38 -37 -36 -35 
$EndEntities
$Nodes
9 980 9 4904
0 9 0 1
9
0 1222.222222222222 0
0 10 0 1
10
1114.634330649659 -501.415465887335 0
0 11 0 1
11
0 2100 0
0 12 0 1
12
1900.125308262818 -894.1609546939143 0
1 11 0 60
320
321
322
323
324
325
326
327
328
329
330
331
332
333
334
335
336
337
338
339
340
341
342
343
344
345
346
347
348
349
350
351
352
353
354
355
356
357
358
359
360
361
362
363
364
365
366
367
368
369
370
371
372
373
374
375
376
377
378
379
69.20595148961324 2098.859341708829 0
138.3367216846682 2095.438605980509 0
207.3172109972167 2089.741508901122 0
276.0724831026258 2081.774239458628 0
344.5278462775483 2071.545452829687 0
412.6089346663417 2059.066260962358 0
480.241788942788 2044.350220523145 0
547.3529367529433 2027.41331815393 0
613.8694725277821 2008.273953099642 0
679.719136577148 1986.952917250637 0
744.8303936982472 1963.473372527194 0
809.1325108390249 1937.860825731129 0
872.5556340201482 1910.143100801533 0
935.0308640947353 1880.350308636732 0
996.4903315012438 1848.514814445516 0
1056.86727034394 1814.671202415399 0
1116.096090735806 1778.856238217201 0
1174.112450020224 1741.108829082061 0
1230.853322509949 1701.469981652988 0
1286.257068284231 1659.982757226368 0
1340.263499967064 1616.692225086777 0
1392.813948128896 1571.645413538816 0
1443.851324921712 1524.891258917113 0
1493.320186483536 1476.480552069948 0
1541.166792901792 1426.465883383408 0
1587.339166218125 1374.901586074417 0
1631.787147562049 1321.843676480434 0
1674.462451303763 1267.349793535231 0
1715.318717443809 1211.47913625738 0
1754.311562149852 1154.292399224454 0
1791.398625727536 1095.851707003048 0
1826.539619055552 1036.220546032745 0
1859.696367153323 975.4636958886433 0
1890.832850382011 913.6471594200032 0
1919.915243957035 850.8380903681958 0
1946.911954482772 787.1047207913788 0
1971.793654299622 722.5162869193609 0
1994.533313387595 657.1429538442151 0
2015.106228735519 591.0557392592616 0
2033.490051126124 524.326436460221 0
2049.66480945847 457.0275362246488 0
2063.612932409823 389.2321481981317 0
2075.319267575082 321.0139212427179 0
2084.771097884612 252.4469635883746 0
2091.958155415452 183.6057624116886 0
2096.872632569022 114.565102815212 0
2099.509190558591 45.39998634371165 0
2099.864965175325 -23.81445000897751 0
2097.939569926266 -93.0030157446221 0
2093.735096447367 -162.090548473791 0
2087.256112232832 -231.0019955469675 0
2078.509655664911 -299.6624956642585 0
2067.505228388145 -367.9974600288476 0
2054.254784963755 -435.9326535756589 0
2038.772719882899 -503.3942755547455 0
2021.075851959992 -570.3090395778348 0
2001.183406037221 -636.6042533641016 0
1979.116992086956 -702.2078977287861 0
1954.900581770132 -767.0487047083765 0
1928.560482379022 -831.0562350442934 0
1 12 0 13
380
381
382
383
384
385
386
387
388
389
390
391
392
1838.022531983371 -863.1095665541908 0
1776.901766276458 -832.5491837007343 0
1716.747443011948 -802.4720220684794 0
1657.544331816624 -772.8704664708175 0
1599.277356702967 -743.7369789139889 0
1541.931718755809 -715.0641599404098 0
1485.492884008624 -686.8447425668174 0
1429.946453277267 -659.0715272011387 0
1375.278375382671 -631.7374882538406 0
1321.474730702796 -604.8356659139031 0
1268.521850341706 -578.3592257333582 0
1216.406283779007 -552.3014424520089 0
1165.114788840997 -526.6556949830036 0
1 13 0 44
393
394
395
396
397
398
399
400
401
402
403
404
405
406
407
408
409
410
411
412
413
414
415
416
417
418
419
420
421
422
423
424
425
426
427
428
429
430
431
432
433
434
435
436
1136.022872220494 -450.8649401824521 0
1155.120226001072 -399.4050875703248 0
1171.887875512605 -347.139694820946 0
1186.292002957419 -294.1741732598281 0
1198.303557313908 -240.6153466066966 0
1207.898313105513 -186.5712348961715 0
1215.05691916705 -132.1508368422373 0
1219.764937630451 -77.46391044356977 0
1222.012873138577 -22.62075103588182 0
1221.796191948526 32.26803114395136 0
1219.11533106482 87.09173357179787 0
1213.975697388027 141.739784976137 0
1206.387656781457 196.1019685244726 0
1196.366513191133 250.0686437934953 0
1183.932477734277 303.5309682055558 0
1169.110628035595 356.381116093492 0
1151.930857568606 408.5124965959848 0
1132.427815315406 459.819968676659 0
1110.640835969661 510.2000528914518 0
1086.613860627519 559.5511400989081 0
1060.39534804315 607.7736966521961 0
1032.038177133016 654.7704646926194 0
1001.599540107544 700.4466587472486 0
969.1408270754087 744.7101568995959 0
934.7275023433147 787.4716863842514 0
898.428972378427 828.6450036564946 0
860.3184459608897 868.1470682051906 0
820.4727863009559 905.8982103047639 0
778.9723560541104 941.8222916226483 0
735.900855434749 975.8468586126783 0
691.3451531477363 1007.903288869007 0
645.3951114611862 1037.92692931431 0
598.1434046244702 1065.857226835788 0
549.6853323935743 1091.637850134006 0
500.1186271964777 1115.216803686592 0
449.5432577064987 1136.546532238982 0
398.0612268785605 1155.584016915154 0
345.7763662420252 1172.290861963143 0
292.7941264793085 1186.633372189172 0
239.2213649135193 1198.582620874648 0
185.1661298095722 1208.114508175931 0
132.7718498846998 1214.989216566148 0
85.76506829470168 1219.209380522572 0
42.10406255367621 1221.496790176014 0
1 14 0 14
437
438
439
440
441
442
443
444
445
446
447
448
449
450
0 1264.376323626178 0
0 1309.729337284691 0
0 1360.574040629725 0
0 1416.981184462791 0
0 1474.41050618516 0
0 1532.729803780227 0
0 1591.952868769221 0
0 1652.093703981707 0
0 1713.166525154481 0
0 1775.185776214046 0
0 1838.166158008469 0
0 1902.122511413781 0
0 1967.069991601608 0
0 2033.02396319029 0
2 4 0 845
4060
4061
4062
4063
4064
4065
4066
4067
4068
4069
4070
4071
4072
4073
4074
4075
4076
4077
4078
4079
4080
4081
4082
4083
4084
4085
4086
4087
4088
4089
4090
4091
4092
4093
4094
4095
4096
4097
4098
4099
4100
4101
4102
4103
4104
4105
4106
4107
4108
4109
4110
4111
4112
4113
4114
4115
4116
4117
4118
4119
4120
4121
4122
4123
4124
4125
4126
4127
4128
4129
4130
4131
4132
4133
4134
4135
4136
4137
4138
4139
4140
4141
4142
4143
4144
4145
4146
4147
4148
4149
4150
4151
4152
4153
4154
4155
4156
4157
4158
4159
4160
4161
4162
4163
4164
4165
4166
4167
4168
4169
4170
4171
4172
4173
4174
4175
4176
4177
4178
4179
4180
4181
4182
4183
4184
4185
4186
4187
4188
4189
4190
4191
4192
4193
4194
4195
4196
4197
4198
4199
4200
4201
4202
4203
4204
4205
4206
4207
4208
4209
4210
4211
4212
4213
4214
4215
4216
4217
4218
4219
4220
4221
4222
4223
4224
4225
4226
4227
4228
4229
4230
4231
4232
4233
4234
4235
4236
4237
4238
4239
4240
4241
4242
4243
4244
4245
4246
4247
4248
4249
4250
4251
4252
4253
4254
4255
4256
4257
4258
4259
4260
4261
4262
4263
4264
4265
4266
4267
4268
4269
4270
4271
4272
4273
4274
4275
4276
4277
4278
4279
4280
4281
4282
4283
4284
4285
4286
4287
4288
4289
4290
4291
4292
4293
4294
4295
4296
4297
4298
4299
4300
4301
4302
4303
4304
4305
4306
4307
4308
4309
4310
4311
4312
4313
4314
4315
4316
4317
4318
4319
4320
4321
4322
4323
4324
4325
4326
4327
4328
4329
4330
4331
4332
4333
4334
4335
4336
4337
4338
4339
4340
4341
4342
4343
4344
4345
4346
4347
4348
4349
4350
4351
4352
4353
4354
4355
4356
4357
4358
4359
4360
4361
4362
4363
4364
4365
4366
4367
4368
4369
4370
4371
4372
4373
4374
4375
4376
4377
4378
4379
4380
4381
4382
4383
4384
4385
4386
4387
4388
4389
4390
4391
4392
4393
4394
4395
4396
4397
4398
4399
4400
4401
4402
4403
4404
4405
4406
4407
4408
4409
4410
4411
4412
4413
4414
4415
4416
4417
4418
4419
4420
4421
4422
4423
4424
4425
4426
4427
4428
4429
4430
4431
4432
4433
4434
4435
4436
4437
4438
4439
4440
4441
4442
4443
4444
4445
4446
4447
4448
4449
4450
4451
4452
4453
4454
4455
4456
4457
4458
4459
4460
4461
4462
4463
4464
4465
4466
4467
4468
4469
4470
4471
4472
4473
4474
4475
4476
4477
4478
4479
4480
4481
4482
4483
4484
4485
4486
4487
4488
4489
4490
4491
4492
4493
4494
4495
4496
4497
4498
4499
4500
4501
4502
4503
4504
4505
4506
4507
4508
4509
4510
4511
4512
4513
4514
4515
4516
4517
4518
4519
4520
4521
4522
4523
4524
4525
4526
4527
4528
4529
4530
4531
4532
4533
4534
4535
4536
4537
4538
4539
4540
4541
4542
4543
4544
4545
4546
4547
4548
4549
4550
4551
4552
4553
4554
4555
4556
4557
4558
4559
4560
4561
4562
4563
4564
4565
4566
4567
4568
4569
4570
4571
4572
4573
4574
4575
4576
4577
4578
4579
4580
4581
4582
4583
4584
4585
4586
4587
4588
4589
4590
4591
4592
4593
4594
4595
4596
4597
4598
4599
4600
4601
4602
4603
4604
4605
4606
4607
4608
4609
4610
4611
4612
4613
4614
4615
4616
4617
4618
4619
4620
4621
4622
4623
4624
4625
4626
4627
4628
4629
4630
4631
4632
4633
4634
4635
4636
4637
4638
4639
4640
4641
4642
4643
4644
4645
4646
4647
4648
4649
4650
4651
4652
4653
4654
4655
4656
4657
4658
4659
4660
4661
4662
4663
4664
4665
4666
4667
4668
4669
4670
4671
4672
4673
4674
4675
4676
4677
4678
4679
4680
4681
4682
4683
4684
4685
4686
4687
4688
4689
4690
4691
4692
4693
4694
4695
4696
4697
4698
4699
4700
4701
4702
4703
4704
4705
4706
4707
4708
4709
4710
4711
4712
4713
4714
4715
4716
4717
4718
4719
4720
4721
4722
4723
4724
4725
4726
4727
4728
4729
4730
4731
4732
4733
4734
4735
4736
4737
4738
4739
4740
4741
4742
4743
4744
4745
4746
4747
4748
4749
4750
4751
4752
4753
4754
4755
4756
4757
4758
4759
4760
4761
4762
4763
4764
4765
4766
4767
4768
4769
4770
4771
4772
4773
4774
4775
4776
4777
4778
4779
4780
4781
4782
4783
4784
4785
4786
4787
4788
4789
4790
4791
4792
4793
4794
4795
4796
4797
4798
4799
4800
4801
4802
4803
4804
4805
4806
4807
4808
4809
4810
4811
4812
4813
4814
4815
4816
4817
4818
4819
4820
4821
4822
4823
4824
4825
4826
4827
4828
4829
4830
4831
4832
4833
4834
4835
4836
4837
4838
4839
4840
4841
4842
4843
4844
4845
4846
4847
4848
4849
4850
4851
4852
4853
4854
4855
4856
4857
4858
4859
4860
4861
4862
4863
4864
4865
4866
4867
4868
4869
4870
4871
4872
4873
4874
4875
4876
4877
4878
4879
4880
4881
4882
4883
4884
4885
4886
4887
4888
4889
4890
4891
4892
4893
4894
4895
4896
4897
4898
4899
4900
4901
4902
4903
4904
327.8582219524711 1224.711229795923 0
493.1806100891762 1167.716054048019 0
643.5476695160937 1089.818500276823 0
783.8684492204671 999.6269174546142 0
914.9790757284105 877.6779808009089 0
1027.446659402697 748.436163334904 0
1109.978285105925 600.9299861236752 0
1189.762292288477 451.6336255719351 0
1236.181327744535 286.5424827427294 0
1262.48992007446 116.8152597152509 0
1267.584879950407 -46.79999669393759 0
1245.52518565019 -220.8603007189352 0
51.26217665542183 1622.454906008873 0
1483.510480521834 -629.8712876461219 0
1716.859553955334 1087.552372280169 0
1567.592300829078 1314.585864646477 0
1855.8263921654 854.0250127389213 0
1380.90806128161 1510.082267668904 0
1948.825793062489 606.8489282126753 0
1159.614053466867 1670.431000847605 0
2011.720436580019 351.0656896665733 0
944.5062286197406 1817.155174112751 0
2045.858197647885 77.53723298198602 0
695.3178007232124 1916.83367950129 0
2029.976134493393 -187.8297127838489 0
430.4805950067024 1985.576376028285 0
2001.407277558201 -456.5391729449227 0
52.16894106215354 1448.260668215828 0
56.02372733532248 1805.821540399651 0
1653.441709236937 -708.2419927381197 0
1319.566066680634 -542.2938593370848 0
218.6113875601832 1248.543989272791 0
1226.159955521219 -342.0108260082443 0
229.5600702734253 2027.733466045802 0
1935.788139195631 -657.18142959649 0
114.0597200716317 1259.65376957883 0
564.4584744345503 1968.748710960972 0
816.8398185144083 1869.075927424633 0
2036.353713941819 -61.8290046355266 0
1059.900584675713 1742.390647705663 0
2032.335619418364 204.6017723301607 0
1279.897085929635 1595.177286240261 0
1976.729464332372 479.8486940483983 0
1476.474682028635 1414.495336247147 0
1908.506296421203 730.4391983333289 0
1796.583672026015 974.4917675455223 0
1640.824833378158 1204.658719260992 0
2009.653479587312 -311.2784305514355 0
55.45521625296939 1933.992155036589 0
1766.684392597838 -765.4493100836718 0
40.93821242800102 1334.292106460504 0
1194.178338484232 -439.663533792362 0
108.2785452514179 2036.651577850763 0
1895.128660960188 -776.8348088606178 0
164.7381111127763 1254.770429702781 0
195.9020132163448 1298.741244519825 0
252.2853836178271 1292.141525013505 0
226.609025121041 1345.009900538815 0
284.7962136693718 1340.105394378966 0
257.1261128424982 1392.646165646746 0
315.3850829394872 1388.887700516597 0
288.4410919870417 1441.0221418622 0
347.7027021920807 1437.139348222478 0
320.9920205355771 1489.708133921076 0
380.9750490148747 1485.612824962734 0
354.2425776691471 1539.067027369239 0
414.5769221320166 1534.854462774971 0
440.8101760909804 1481.673749975909 0
474.7901130646011 1530.826586629981 0
500.7633088516002 1476.873960667792 0
534.9716719723192 1525.552263208296 0
558.8465016366467 1468.065614574778 0
595.7499912542017 1517.573745150197 0
622.9358265184256 1450.397425767347 0
658.5057988308923 1511.920633775673 0
689.4902188019025 1453.084856645175 0
387.9977298993571 1588.998381037558 0
721.0793904471402 1509.536659489129 0
750.1665414719773 1452.308504865057 0
569.2558412591281 1576.766870294136 0
782.9167803477578 1506.815569632251 0
810.9186484017882 1449.84111860243 0
778.5446971629041 1396.21328653274 0
838.4270944903885 1393.43851700458 0
872.4660936498973 1446.317053303104 0
899.2264194102355 1389.831727139094 0
865.4061438255749 1337.464931734188 0
925.7262201318722 1333.811654013935 0
960.0743762686685 1385.842904265728 0
986.5734428434308 1329.64407778958 0
951.9366445409635 1278.086748251734 0
1012.609414843079 1273.591741562887 0
1047.961185119044 1325.026439817819 0
1074.012912752337 1268.544246870544 0
1038.357505630976 1217.647161721102 0
1099.677163000313 1212.166911917549 0
1063.779063287113 1161.734414518435 0
1125.113209734529 1155.843864199038 0
1161.457167285722 1206.369457959065 0
1186.789403616996 1149.892223240985 0
1150.561059462923 1099.624005233492 0
1212.106560861699 1093.43873855101 0
1175.891059321874 1043.646935203554 0
1237.282327923871 1037.041173415465 0
1273.986390848669 1087.08997758442 0
1299.22993846788 1030.129043611671 0
1262.311137005689 980.7130793053894 0
1324.46804171745 973.2404289438559 0
1287.481759851764 924.2346948265872 0
1349.853028745863 916.264503290638 0
1312.578737341089 867.4623062333687 0
1375.043189279257 859.3592006697468 0
1337.62979810817 811.1710247146931 0
1400.047639217268 802.478254070119 0
1362.400312027174 755.0757170394834 0
1424.951124070978 745.6921628254693 0
1387.006017207729 698.8104822365485 0
1449.852828837346 688.9494850649739 0
1411.5339507227 642.9683059132242 0
1473.622500328676 633.05668974797 0
1435.697270115431 586.8698964906025 0
1495.639285611933 578.9672102612652 0
1461.029585482139 531.3002593577182 0
1519.159118596812 523.8214524507578 0
1485.834323761862 475.3785268145114 0
1544.161884546616 470.3582007008854 0
1510.239480784555 419.2840312511237 0
1569.428317955552 414.1876722174338 0
1532.26753023223 360.3496768273024 0
1594.091083400498 357.5563323156533 0
1558.176451757999 303.8862576356457 0
1619.722216718472 300.9476165147731 0
1583.853520273922 248.1195454062355 0
1645.496589733224 244.1582403671923 0
1609.241714005206 192.0245659030043 0
1671.254472521445 187.0091445678213 0
1634.407141786262 135.624802900678 0
1535.088015415376 623.3706144465889 0
1463.758487056917 792.3487750488905 0
1696.623943549997 130.0784220735729 0
1659.476721970456 79.03761204988177 0
1597.377598601405 84.76574525245908 0
1622.299774509965 28.43203913187875 0
1684.597895272359 22.02989813986056 0
1647.303041495368 -28.27434346595734 0
1603.183836049552 468.4617385314796 0
1387.656717464681 965.3726644337771 0
1709.81619876579 -35.13333239320141 0
1672.331413036717 -85.35571373588958 0
1610.340501407354 -78.39510972404786 0
1634.939533763877 -135.3658320712442 0
1573.357075587451 -128.3068343121709 0
1597.573389121265 -185.3981825132225 0
1659.412712204012 -192.6996419569958 0
1621.631344881213 -242.589023703917 0
1684.16159325031 -250.5354112569411 0
1646.164781183621 -300.432974996087 0
1583.93362716006 -292.5660871176504 0
1681.66775393892 296.4902044174435 0
1608.204528031192 -350.1001779956734 0
1670.644456619167 -358.4546243544455 0
1546.514102022715 -341.8886423414072 0
1522.858825697608 250.5785476468284 0
327.1539772471567 1592.916937185305 0
361.0081724083924 1644.075444219162 0
754.6199792204631 1564.335421215845 0
299.5782831634998 1647.695118306732 0
333.4605077968473 1699.681222704156 0
395.2669803011127 1696.15451326025 0
573.0619413183181 1412.350770939242 0
1632.344401084415 -408.0976039486692 0
1695.135901223046 -416.9922202021419 0
1114.917990359834 1049.927873077156 0
1276.507854311133 817.4689178978381 0
466.3400926938826 1430.03033384452 0
1549.137994162441 -71.793432633409 0
1512.574756402948 -121.5089196851192 0
1003.451117913484 1167.191529066717 0
1225.675369582489 932.103005662585 0
1110.282194049897 1319.889122394054 0
1223.468840791455 1200.58679413888 0
1336.508790563536 1080.446284504949 0
1451.701813005819 427.8843205870384 0
1735.246614133802 -92.72647907291078 0
1773.301651553635 -42.27534282409654 0
817.3445086643771 1560.780795940605 0
1733.831075822747 -366.7219706879433 0
1084.179348546394 1376.963131503715 0
1733.967516076085 181.0457033337119 0
1489.010858199861 -65.24284666714659 0
260.8145462673559 1493.627286548597 0
1350.222042002853 651.0950214406489 0
1147.032922737157 1371.685226485331 0
1398.477820518129 538.1332950847977 0
1453.202875835163 -114.3062692553488 0
367.7697020184631 1752.735575465802 0
305.1388985441822 1755.616905703837 0
430.0396023189804 1749.920764329303 0
1798.946476541569 -100.3319353650553 0
788.5866464810781 1618.312854981197 0
1758.529880394659 -425.6257149711129 0
1656.396372519921 -466.7231393698903 0
1121.181057576166 1429.568049152736 0
852.865108126196 1615.048442995013 0
1593.966502702062 -456.8718916629442 0
1797.584753195137 -374.361183035163 0
1522.378353382992 -285.1714593853694 0
1485.691642412183 -334.2047083714779 0
1460.781742015867 -278.636881108271 0
1426.860638140187 -327.4357386542276 0
1448.760543971144 -381.8434893402766 0
339.6710077465202 1808.765539839152 0
275.2889052417049 1811.741386334871 0
242.4974753678856 1758.290978454175 0
1390.976180188827 -375.33241773637 0
1837.473228314576 -49.3873900018925 0
1185.178711187569 1423.208330494546 0
1210.878662095814 1365.321482775618 0
1759.827450589975 123.6319461610156 0
1797.402309875144 175.1068541866137 0
726.2151956392996 1622.406225084547 0
1617.214464612382 -515.078702634158 0
1680.331635291102 -526.4215735584036 0
1823.554308977647 117.4441428410422 0
761.1873397107036 1676.681071606898 0
698.1911804964659 1680.407179700429 0
1430.738786982959 -58.42174329608999 0
1465.086447592965 -9.960845953626119 0
1407.668822926787 -3.695075677634732 0
1440.90133431553 44.56371991053294 0
309.2139141183623 1865.721118123485 0
243.7908938137775 1866.150591837724 0
198.8230189221284 1396.870284795983 0
1863.537907882218 -108.037978444071 0
1824.548999292332 -158.8568697762652 0
1393.622546873436 -274.1364762259303 0
1159.48487335699 1482.139162751263 0
1095.51515787308 1488.082260316109 0
1396.169523924716 -106.3612811846214 0
1412.626879939227 -426.7790862275419 0
1822.112570471858 -433.5687541802134 0
1353.907543950078 -418.2590942742312 0
1861.461181445137 169.0882804704639 0
1834.759691042984 227.4311225741298 0
733.2888964137442 1734.584915260394 0
669.6777673273783 1738.450112845831 0
456.3795179899065 1692.891945302473 0
491.3483214940829 1746.876594631602 0
466.393986383829 1806.623359097389 0
528.3233665586692 1802.070351027293 0
340.8809307420568 1337.531402664109 0
797.1286057959385 1730.057317075351 0
1861.712403684811 -382.1029833040091 0
1836.240419695315 -324.7408266027898 0
1383.356182778967 51.17928864454588 0
1417.18070429884 99.93074807311922 0
1887.539444412203 111.5790919384364 0
1555.500274491039 -504.8815005100351 0
1249.373856164316 1415.363255016451 0
1274.209356454295 1358.476736405463 0
1889.453307445086 -167.5460728685652 0
1028.96588313484 1111.501516154098 0
969.1361305423964 1117.062951184015 0
994.1092217517107 1061.3941661594 0
934.9761124650545 1067.908634089189 0
909.9286103551558 1122.595074874334 0
958.2598446266231 1012.195707356301 0
1140.045667752707 994.5461060366453 0
1079.80812471377 1000.523377827451 0
1104.823261139466 945.9750459808869 0
1046.099566475897 951.1625738921909 0
1071.208835774086 898.6159055924948 0
1129.066509153259 892.0775089533965 0
1094.34384537303 844.7947572851682 0
1152.317256176586 838.6163849467475 0
1117.466622821022 791.8552678665085 0
1476.438420407798 94.47632553727814 0
1452.513855675312 148.6550831965034 0
1395.583461504813 152.0884922643563 0
1429.294646995006 201.7544715008801 0
1372.26357228483 206.1916523519926 0
1404.77554337165 253.0130640968759 0
1175.752167055889 785.5592536809896 0
1142.119755469776 739.8772294252858 0
1199.149395424412 733.0373161392012 0
1038.232425071518 850.4850470152198 0
1902.321314007698 -56.33068604094169 0
1576.22217298252 -560.2459241347008 0
266.1252164608579 1596.333997638081 0
877.9055745570819 1073.687784777328 0
852.8502759923674 1128.297785899086 0
884.8042584306673 1176.632120126325 0
826.1877811672096 1179.360713494321 0
793.0576722619745 1123.9113023764 0
768.4103744233319 1184.148672892819 0
800.0508225682011 1233.943645958658 0
741.4541973154962 1239.53423075806 0
708.453598016714 1194.3789735657 0
682.6389075543127 1244.806170478893 0
647.1662155940118 1196.617434630745 0
625.3334319089361 1251.245142457994 0
658.1006137392701 1295.410227934989 0
601.0945921050617 1300.230500507966 0
238.1485854048224 1650.645192958062 0
205.0790636941067 1599.471810312585 0
176.2840000750064 1653.236306086054 0
636.1636502495757 1683.872858128704 0
880.7311036226698 1556.724330875672 0
917.0898981247543 1610.375771403131 0
944.6437483046171 1551.977846911751 0
981.7039199844803 1605.578850595235 0
953.5959305710528 1663.621290682264 0
1782.96635524454 -485.6938991878563 0
1846.644482727921 -492.9760726342131 0
1807.676868508759 -546.0812264225588 0
1311.108454184929 1137.94276082082 0
1374.279083913163 1131.719647744737 0
1348.691981698802 1189.633664926715 0
1412.458711209259 1183.970142806384 0
1438.026269961273 1125.123030758373 0
1386.515384826849 1242.335985597068 0
1475.998749329221 1177.689453768953 0
1502.39750023231 1119.364787059378 0
1464.013281416007 1066.382933802899 0
1528.448702729675 1059.421489607547 0
1489.890692820003 1007.387461524991 0
1554.248118796565 998.7398653119089 0
1515.867212355329 948.0060554888738 0
1580.894762796538 938.5755695647687 0
1617.247977727618 991.7121773972631 0
1642.954920309196 930.9023966751213 0
1606.558741097109 878.5904875327882 0
1669.234027194384 870.8636058895786 0
1632.342373938767 819.0370562564697 0
1696.143296489652 810.6343124155192 0
1658.158693597623 759.6307458076799 0
1721.804257002318 750.7737345087395 0
1684.14715109203 699.1422651707387 0
1747.588044484476 690.8196916292587 0
1710.384532377913 638.1542629330374 0
1773.405297269202 630.9721076968829 0
1736.415947186719 577.6860631070678 0
1800.128161256929 570.9361287500883 0
1763.222156731545 517.387857122117 0
1828.241192233593 511.7581288094611 0
1790.62691091465 457.2875135736596 0
1672.059670441025 584.496543594729 0
1593.330416087888 770.0614644131206 0
1857.074928303116 450.3927624297653 0
1817.877990086593 396.99722261021 0
1753.787886038906 403.1665130682605 0
1882.913111823008 388.1890103652904 0
1135.134920097128 1542.028070256673 0
1347.033732645369 258.0752723291474 0
1379.632382669256 302.1373482364841 0
375.0621031697221 1862.78626543689 0
1899.818398473239 221.5158106833674 0
1329.589359327487 -358.9057337416641 0
568.3016951370187 1253.81987420495 0
543.595071571283 1302.073425259285 0
1416.378016104066 -163.2572203749776 0
1360.71189122319 -153.5632117161296 0
773.614591914308 1289.112906612497 0
1311.224654940483 206.3079492960937 0
1294.897677131889 -413.1890508102512 0
1323.090458035272 1246.756423994405 0
1569.494247135999 1114.560617290181 0
705.4687096905818 1793.468359314736 0
1512.237661949362 144.7865713057908 0
346.1755930806894 1918.081323603237 0
508.3806340746956 1869.872333020395 0
568.1700753448557 1851.055579008199 0
1780.851577479295 344.0831951614266 0
1498.70202763392 -228.5634903466809 0
1470.463878078228 -437.459919870062 0
1427.839403478584 -486.9557353693031 0
1561.036153917836 34.03418482208627 0
1437.439350127334 298.4775183442727 0
1784.257655835647 743.5926176621608 0
516.6158464113198 1689.802706210892 0
1359.558904201651 1298.906987510949 0
1423.826937689647 1296.790008958432 0
1731.174547850897 863.8336314491135 0
1312.838009391792 1406.539126718808 0
1324.261972447604 311.7871983168999 0
1362.750338464431 361.1156436721226 0
1300.976136943699 365.8949070081433 0
1332.144480886102 409.6375659561994 0
1352.306165742905 1.650454063941365 0
1722.229462331545 -200.6834658885998 0
1289.7626994092 1462.600800713953 0
1278.334357081 417.0391281341702 0
1308.223829533236 463.176137294436 0
1747.280855450288 -258.7071959067384 0
1166.632727137119 688.0879132931748 0
1223.420207918269 679.892471066178 0
1260.163569071442 722.5197644042676 0
1198.46273115444 1257.133370375637 0
1872.216889555931 -552.1787136334276 0
1832.453524396843 -606.6927377741047 0
1768.636735819099 -597.4603757627829 0
1899.015518685617 -333.4278077583864 0
1835.340515801024 625.0124906225611 0
482.6172087258049 1637.151196309183 0
512.039008163964 1257.384746039514 0
486.5116728574499 1304.429494537331 0
454.7290364333866 1262.662716731824 0
145.8603323761201 1601.673334361067 0
173.4212833756275 1549.328068023975 0
115.7175237922899 1551.363247391786 0
142.3399937815955 1499.96971719181 0
1785.687981088102 66.19929862266979 0
1872.231997181159 279.3379762619113 0
1677.334850813678 983.5927664938804 0
1358.656368014136 454.3334073155829 0
431.0644003677676 1314.167348807409 0
1793.494805673913 -658.7143709114608 0
1875.998236605354 2.10873981528475 0
1940.439272544453 -3.787088086961629 0
518.6063199376654 1346.152967125114 0
1327.487654355908 53.59130127849217 0
1190.750432026231 635.7518263395452 0
1246.467623290112 626.6153236381318 0
1213.595800926829 582.6325365983992 0
1268.951689566591 572.5783171675178 0
1234.426821060556 527.9063018075401 0
1850.156836502256 -217.6886609249987 0
1915.534294568215 -227.5962536563308 0
1392.393604827241 1349.938053900042 0
1008.769080893859 1547.683597964158 0
1047.034717519829 1602.046037983253 0
970.87142422405 1495.017888126773 0
1939.027561695779 274.1082933501884 0
1110.123041262856 695.102956431626 0
1902.066572812795 508.361301992399 0
1342.512109510644 -97.9247522251909 0
1303.164173328421 -143.7461155335898 0
1327.222030962182 -200.3358676497344 0
1198.383771622535 1533.410808894996 0
635.0610759174206 1345.119477670177 0
690.1291646679088 1344.971774288568 0
1729.851422175611 -647.2170125284836 0
606.266167736842 1741.576905982573 0
1319.972392162658 -473.3324299504172 0
1238.48727182583 374.2054302346642 0
1923.623448178384 -388.984737721243 0
107.9391454335898 1653.200927702851 0
147.7790041640379 1707.54322265987 0
94.07080570245593 1710.991024985157 0
114.0273342229592 1768.037743807858 0
404.5750442752785 1262.688889129585 0
1254.216639275911 -456.5937981976464 0
1910.493908813292 -498.9342192776234 0
1183.404698581081 541.9170793489513 0
1515.760925508635 -546.2805880196656 0
1655.357569121536 1048.532902602388 0
410.328702250995 1918.223543465614 0
1298.785999811584 4.664217421125516 0
1939.503666228623 -557.520707590617 0
141.4445841439047 1304.148365911633 0
1864.117025037973 -671.5454970665822 0
1212.079570136634 830.593276280591 0
84.71704933139071 1307.760239624006 0
118.6860686364452 1354.023471782726 0
1956.803499587238 -176.7034017909496 0
1342.417543174628 509.4599573260257 0
665.2941868698483 1396.093776822911 0
201.2125252669573 1497.132682600512 0
85.3692014829257 1502.012557166942 0
169.2373544014259 1448.614885251169 0
1176.559757429324 1593.983564304767 0
65.9636990773633 1258.321156771636 0
1247.445154539166 471.3401744932695 0
1018.836574313146 1005.143161439873 0
980.5094590862716 949.8551497011557 0
920.4158382171236 968.3018545726 0
900.5058130910338 1021.2837477156 0
872.2677745045589 979.8332915004612 0
839.1848296824396 1025.825623594774 0
1239.478765489743 -401.771994489329 0
832.3474435056507 1285.346281584927 0
274.4237458828641 1239.361804352572 0
316.5809238770278 1284.766315931021 0
545.099917338938 1145.598283873115 0
438.5244268776666 1185.364351372073 0
692.437676920571 1061.918932396617 0
688.3524564214272 1114.183717598389 0
740.2708310587085 1088.759429410676 0
950.0418064920547 839.8144026707664 0
968.3760554897721 893.1590639812619 0
1258.883337871931 172.5155124257396 0
1307.334037715712 144.3771107653511 0
1251.346031168895 229.0734298137519 0
995.7934182698028 803.5323841876594 0
595.3944797198501 1117.801495739933 0
594.2117235361511 1170.339756687714 0
1451.490944584192 957.0044097941936 0
1477.249500916113 898.4015060009503 0
1238.681084609394 -277.7970711438512 0
1293.63988175561 -250.7418320804562 0
1282.938719279807 -315.4597033248631 0
1335.083700867812 -296.9560653218076 0
1967.611744287319 -63.20756537385218 0
739.1452400162159 1032.075774234734 0
787.5484515002962 1059.050884087786 0
1704.138710394736 -588.2456231815827 0
1054.332712034035 1055.706007641221 0
1211.544317283834 -495.5116146246437 0
43.00492784337036 1386.630001638133 0
89.99209618452825 1401.104608899168 0
1374.356869586483 596.1184625274014 0
1585.79968116737 -21.98328908476097 0
1431.556171281545 484.3495207078983 0
1058.432240837517 797.1755094804168 0
1084.391711651522 745.3835651898511 0
977.9347669774709 1222.601661883826 0
918.093726155547 1226.98713971888 0
1265.228345103112 -516.0941655188756 0
1371.154099410318 -512.1711361891712 0
1371.377832272823 -570.2374805698498 0
1200.831749134688 987.8492241935626 0
1375.261475750411 -51.76845113610945 0
1660.92085835116 -644.5061677616445 0
1536.275192441708 -178.4658596030932 0
1355.58540661839 109.6061370339869 0
1326.34705985199 705.5305378631467 0
523.9331545756987 1425.653155494285 0
1437.473746216212 -222.4281980296723 0
1567.496003447579 829.45456827799 0
1528.32334409669 781.4568642516565 0
1554.653382657352 721.9709833452555 0
1620.088388140236 709.3609514667617 0
1646.34922025735 646.7301629162373 0
1599.676531512294 590.0495344878308 0
1636.58881013345 528.0305366193456 0
1699.781152497146 522.8920133608495 0
1727.034025454758 462.5981533382921 0
1691.145434388896 407.8929357065163 0
1717.845408928489 349.4924273637217 0
1089.611653002212 1105.722946803906 0
1496.481453949043 304.454377693787 0
1465.132678939481 362.041199580519 0
1413.267712555419 387.5267393039306 0
1599.378469566111 -681.2738435881087 0
1541.878128442457 888.6063566742728 0
1548.105126591303 195.8745391047125 0
1572.79444287243 140.5367194035145 0
1488.004000641367 198.8403798138115 0
233.2647634249341 1546.396828743845 0
1807.925321335354 285.529962860564 0
1379.931696879287 -210.2504925139251 0
53.94827199782042 1557.58795119244 0
407.4012037260721 1432.239430046128 0
433.2517208877248 1377.053035801098 0
1560.018237196957 -235.3522267565904 0
1475.767769105669 -171.4216595491487 0
1269.804190663382 56.68782974843909 0
1525.046030096704 -15.95285102182236 0
664.3150871544619 1626.174815751989 0
1542.28651805501 -655.6893849268205 0
1570.321587616799 -399.0443196609113 0
1707.722549913017 -740.568221485753 0
1429.532852296335 -592.2138953598369 0
1493.387986117814 -493.4731185996422 0
1459.226435613085 -539.1865739513771 0
55.57544482050694 1869.838706469649 0
112.0722686451899 1901.693597845063 0
110.7583492667779 1966.693787637368 0
166.6675902280177 1934.327634186737 0
174.031530187838 1868.136541503881 0
167.8186849803957 1996.682799556487 0
805.8890809887063 1340.810852756817 0
1771.115843622206 233.3046574709779 0
211.4165057120881 1815.900248116515 0
1164.798247163775 939.5895992230099 0
1399.946020375889 1073.514779947382 0
1981.275049521065 -239.9507633933832 0
1995.482183962128 -121.7227570858578 0
639.1919119662755 1796.719454274717 0
674.105860814134 1852.611376816418 0
746.3089903357411 1850.176359682633 0
626.4007420490694 1900.96985937091 0
271.4736264621421 1702.822606172761 0
934.060777795969 1442.126144449 0
1058.569689860305 1434.172927018638 0
1538.496274329501 1173.251539152478 0
1514.175902099231 1230.92924544569 0
1579.058582437282 1222.835597005963 0
421.96997714585 1640.751592635327 0
1251.078823436138 875.4801512017273 0
372.9239305885806 1386.098409350221 0
109.875472925938 1837.297850405593 0
943.8914350624536 1172.178412809016 0
1236.775659267629 1307.398008412813 0
1722.288672445466 72.70096612517614 0
1136.13910055237 1263.032448444906 0
1697.426978978271 -142.9178921680034 0
715.4886650374513 1292.854083857496 0
575.3461358752276 1354.534328531814 0
1508.856771849406 -390.2614744759907 0
1248.834788874205 1143.987854553067 0
845.3648116885139 1503.252681259555 0
210.0180084956156 1705.006218909604 0
1362.245753229682 1022.995302287347 0
1590.508341132107 1050.705705394894 0
1703.582180960493 924.0580513545834 0
1022.106962497997 1381.557663521355 0
229.2757749479013 1444.985574450868 0
1929.201659528614 -115.5914102673729 0
541.2908304369597 1203.869013775897 0
1719.535922565145 -476.3706678416871 0
1709.062129872643 -308.5732765869628 0
1757.91543647697 803.8644786544106 0
889.0227350932629 1669.959137508561 0
924.1342215933633 1721.877556053953 0
993.308897243052 1719.147266673715 0
1809.715676164335 684.1093309544414 0
1884.805061213027 -440.2993971990002 0
1189.16929594148 884.7433210446762 0
1743.855390717601 -536.7674597607185 0
1225.038642087506 1474.201125589855 0
692.4725936575788 1567.807829836384 0
1862.529586344849 567.6137283329901 0
1236.734534167076 775.9971638014116 0
1925.334904079743 163.3555247398017 0
1950.123020388453 106.4179750785621 0
1986.492143748497 156.0644385778125 0
293.7655169341714 1543.00836856769 0
1451.831306280999 1237.659084642807 0
1923.565069327297 438.4378757216427 0
1946.710515381656 376.0508317316815 0
1955.28764959592 539.9368426228059 0
824.8716118703383 1674.139748424701 0
1707.955379937396 238.9003397845681 0
1018.640372633749 1658.559261483585 0
1088.095998080061 1677.736245017609 0
402.8126103500357 1807.205304146087 0
630.2635278360165 1572.189023994871 0
770.2388312862183 1788.267937008425 0
839.9653973086417 1797.899900479283 0
1302.00439839672 763.1342427427991 0
170.7809667358495 1349.845870117399 0
275.2949816577599 1926.801601689034 0
320.8906136898147 1973.114814924636 0
1640.926130714959 -575.3328354466329 0
501.833721043248 1980.136330831673 0
2043.874505771251 10.44919727927389 0
1225.056844966618 1634.445881271804 0
2009.909264554805 277.2995947916938 0
1330.923992755119 1553.842719006142 0
1428.826237980219 1463.311267229274 0
1931.292689438579 668.4112100360534 0
1521.249584254497 1362.177075588476 0
1498.028744534024 1294.244007146541 0
1883.067143231483 792.7063315855941 0
1826.900285645803 914.9486655690598 0
1762.612054802498 1033.453551062858 0
1687.122763790182 1150.366664478472 0
1912.933098962192 -714.4323920476602 0
1993.86821567246 -392.591877865639 0
1425.873901648408 1015.442925298432 0
1283.486598510545 668.7466672159715 0
1760.402138399673 -150.6762202823805 0
1304.931889789655 616.9235986073345 0
1772.343912401107 -316.6170033941698 0
1747.752193343937 15.3075040124261 0
603.032463841638 1629.905680458865 0
1173.261878309551 1314.076609814726 0
1532.082833475891 -446.998704129931 0
907.8117354445944 1499.037219203271 0
1285.897213171602 1195.044147204092 0
1413.27822143178 907.7261931288296 0
386.095882728252 1212.287722878321 0
448.4772736388737 1585.666029133514 0
858.8723593426903 1230.705706686849 0
1785.715351981184 -208.9338443799002 0
861.5796402738732 1734.692015492303 0
1326.36738597786 564.8147401238448 0
1438.721886096228 849.9477180666936 0
438.4783016004829 1864.813851409799 0
1966.244423659189 215.746908199289 0
1500.776785103175 39.45507971435223 0
1259.175044069207 -107.8210348021395 0
1812.397629552842 -720.1296149632431 0
1502.904558342664 840.0359647200755 0
1627.511572496044 1140.014063082747 0
221.592577016834 1963.527410144596 0
1811.648256292416 8.619393345161706 0
1289.992296947285 268.9191836571841 0
1268.607714465649 1528.175097845502 0
892.0637562503831 1282.067076998419 0
1000.587988690958 1784.408576700294 0
508.8597864818092 1581.601629375762 0
1287.920616354535 516.5774022298567 0
181.2020132554396 1758.653881330023 0
1536.776843808667 89.67577100591349 0
1844.947908465135 337.2939999688614 0
1260.388274400755 1251.436469473423 0
143.2243714511367 1400.283894184901 0
1994.952931926977 415.4804316819469 0
520.576757748884 1930.55705603129 0
1811.193212366878 -267.1530146583377 0
1489.243802998091 734.6054828079019 0
996.3985059681181 1438.024072822114 0
1849.854143602182 59.97197673221408 0
1744.560214206943 291.3001311764502 0
1514.25818552765 676.8926721079796 0
54.25779024267715 1996.814961348571 0
1113.057564283251 1605.408501266096 0
1455.575362803835 1353.894516283175 0
1984.466770332995 47.84187207963245 0
1583.891465149174 658.6300871475396 0
1908.125454781135 329.4704441486876 0
1595.298883877272 -620.0573237070653 0
1055.327295710461 699.3698827728045 0
363.6804758224558 2013.012607440269 0
1914.725334530397 53.98183723224089 0
37.29951046054769 1288.280492225667 0
1546.632309058316 568.0730137503688 0
1252.25563808935 -164.0184365816584 0
1832.034348203028 -790.057473183057 0
1577.126230131369 521.0157829400064 0
1196.324662164667 403.302121637515 0
1664.481548945861 466.8336167917597 0
747.2533082068303 1343.606933094478 0
1322.470666378621 -46.15283782703595 0
1360.171688894929 1448.626296987476 0
1629.487428940006 411.3765593460767 0
1033.544696937143 1491.258447410345 0
1655.659887719213 353.9593459440308 0
883.4920592871348 1844.045957312399 0
1875.380161489635 -276.3493437604624 0
877.8631817276688 925.1056664503365 0
1940.140687119526 -287.4894989619312 0
1160.757213381762 592.5813601429384 0
1298.036462373025 1303.04843492178 0
641.5628879490581 1141.222699775902 0
1072.176022934048 1546.084485866105 0
720.1463528635619 1397.713188708155 0
1017.088820744636 902.1591792852694 0
1975.913057682386 -505.2454512067166 0
1274.612895350029 -366.2674616748704 0
1333.404518690543 1351.54765609719 0
543.0466102301285 1633.646830679462 0
730.0421426145891 1143.798405445822 0
51.13463626108292 1746.355085920045 0
49.67155110028477 1679.399164180523 0
1463.142303463668 251.1863931827426 0
1820.175449324275 798.1151873621125 0
111.8267238264433 1451.244244262959 0
1344.181949896637 -247.7819810871064 0
1083.640416249484 650.5396214584041 0
762.4859028221268 1907.484032973376 0
1269.878400957225 321.5844757348037 0
822.3172930690386 963.2290282376166 0
158.1105712608526 1809.605253032774 0
1304.54024188557 96.21552770830402 0
1846.14444585249 737.7052010920372 0
1897.39054352586 -609.7081168627312 0
1792.834484663885 858.806159185172 0
2036.0515945036 -257.7418816355397 0
1870.928079616975 677.5779448900589 0
1954.9010154218 -342.1855590324079 0
1752.099288387014 -704.1789133242738 0
374.5941153515393 1302.052737965544 0
575.9148236231945 1686.83303828233 0
1764.629836413078 918.6385897375761 0
1375.22648507955 -326.5532863359999 0
1136.133714439476 644.2225672155383 0
1660.778866863185 1103.711397894657 0
550.4334560158804 1742.62900862454 0
477.8276323436064 1217.468928721489 0
2042.601980970095 140.360326389835 0
1612.429981566122 1266.426862900945 0
1201.11590435153 497.2706867234502 0
467.8917733736204 1924.172303292418 0
94.94549005104842 1597.256073331403 0
1197.895143693581 -384.3056535963795 0
1376.065991692336 410.5390975664527 0
829.7636867619715 1084.106257455518 0
585.3129418930773 1796.043995975944 0
569.8825703753377 1910.740205887253 0
1411.664623057073 -539.5872140242947 0
292.8727424034338 2027.475595354679 0
1166.748809477788 -482.2866035324058 0
633.3749868767893 1956.168096075625 0
1893.958147700741 619.2147306026396 0
1993.879428050176 -15.35138196318468 0
1962.92163414008 321.8425532141929 0
1219.908767321358 328.1526358295515 0
1418.061398671221 1405.096814164533 0
1531.900164980323 -598.861987344122 0
900.5075264722154 1780.141255033109 0
1735.45343790535 977.3775531767849 0
1134.393427001194 550.7512684515913 0
75.46767088474711 1356.762085680907 0
1120.588473316094 1723.354161259897 0
621.1968401982439 1847.824818105077 0
471.7043338641679 1346.363332752561 0
1156.883380194634 500.6099029411929 0
169.426923467457 2051.422315724491 0
1377.02477465215 -462.6673072479846 0
216.2663163097949 1912.045841472122 0
48.07538743924464 2050.774321168521 0
1229.701034882752 1577.038527711466 0
933.020092442709 921.7829699929173 0
392.9219430440622 1343.739538850919 0
992.5324666661099 856.6337235284626 0
36.50967291513888 1503.562660313326 0
31.8367837522318 1253.526268502731 0
378.2515136668391 1960.456667248224 0
1707.978032416342 1030.03059286629 0
1876.387537029462 -827.5819229699077 0
1944.224921651308 -444.7752922945562 0
1351.051949699581 164.1387247552511 0
2053.119335772654 -125.2968852900951 0
361.4134509131339 1257.418796488959 0
491.1160157962453 1386.958458668172 0
427.2018820604854 1227.816690361608 0
1232.332261104829 425.7779396914984 0
1385.69632146886 491.4609112052583 0
1411.644492551184 342.2596898274658 0
1298.373367505775 -86.73849839204468 0
1282.157204835953 -195.7960893710407 0
1699.818134427744 -690.1966242291568 0
1327.414640635207 1500.377205290763 0
680.9428650418364 1157.851556831198 0
1865.95591741729 -730.8321252104128 0
615.2537880754946 1391.606278449073 0
268.1552678994723 1983.869924348096 0
952.6089725238659 1764.545965714764 0
1254.185280298946 5.505183742671456 0
594.756010178089 1216.929612330691 0
1914.832221940532 569.8240815214995 0
1363.373844095145 1392.34958957361 0
539.3831787891352 1384.471335695705 0
1405.614994447505 442.1330956584366 0
1478.322008936669 -581.0274156303582 0
1551.949817780882 1263.672254460728 0
1959.98776952358 -608.590420509079 0
1616.704513174392 1092.497465054248 0
1043.975446961139 1698.608885981467 0
796.3346577592981 1825.321132277526 0
1589.852664742967 1174.129534344708 0
2002.046533730075 105.7503522103365 0
$EndNodes
$Elements
5 1958 330 8798
1 11 1 61
330 11 320 
331 320 321 
332 321 322 
333 322 323 
334 323 324 
335 324 325 
336 325 326 
337 326 327 
338 327 328 
339 328 329 
340 329 330 
341 330 331 
342 331 332 
343 332 333 
344 333 334 
345 334 335 
346 335 336 
347 336 337 
348 337 338 
349 338 339 
350 339 340 
351 340 341 
352 341 342 
353 342 343 
354 343 344 
355 344 345 
356 345 346 
357 346 347 
358 347 348 
359 348 349 
360 349 350 
361 350 351 
362 351 352 
363 352 353 
364 353 354 
365 354 355 
366 355 356 
367 356 357 
368 357 358 
369 358 359 
370 359 360 
371 360 361 
372 361 362 
373 362 363 
374 363 364 
375 364 365 
376 365 366 
377 366 367 
378 367 368 
379 368 369 
380 369 370 
381 370 371 
382 371 372 
383 372 373 
384 373 374 
385 374 375 
386 375 376 
387 376 377 
388 377 378 
389 378 379 
390 379 12 
1 12 1 14
391 12 380 
392 380 381 
393 381 382 
394 382 383 
395 383 384 
396 384 385 
397 385 386 
398 386 387 
399 387 388 
400 388 389 
401 389 390 
402 390 391 
403 391 392 
404 392 10 
1 13 1 45
405 10 393 
406 393 394 
407 394 395 
408 395 396 
409 396 397 
410 397 398 
411 398 399 
412 399 400 
413 400 401 
414 401 402 
415 402 403 
416 403 404 
417 404 405 
418 405 406 
419 406 407 
420 407 408 
421 408 409 
422 409 410 
423 410 411 
424 411 412 
425 412 413 
426 413 414 
427 414 415 
428 415 416 
429 416 417 
430 417 418 
431 418 419 
432 419 420 
433 420 421 
434 421 422 
435 422 423 
436 423 424 
437 424 425 
438 425 426 
439 426 427 
440 427 428 
441 428 429 
442 429 430 
443 430 431 
444 431 432 
445 432 433 
446 433 434 
447 434 435 
448 435 436 
449 436 9 
1 14 1 15
450 9 437 
451 437 438 
452 438 439 
453 439 440 
454 440 441 
455 441 442 
456 442 443 
457 443 444 
458 444 445 
459 445 446 
460 446 447 
461 447 448 
462 448 449 
463 449 450 
464 450 11 
2 4 2 1823
6976 4430 4835 4739 
6977 4503 4577 4090 
6978 4636 4793 4107 
6979 4253 4737 4525 
6980 4494 4689 4102 
6981 4102 4691 4494 
6982 4090 4578 4503 
6983 4133 4888 4526 
6984 4133 4526 4135 
6985 4135 4798 4138 
6986 4492 4740 4708 
6987 4107 4820 4636 
6988 4570 4737 4253 
6989 4490 4695 4694 
6990 4760 4835 4430 
6991 4601 4881 4437 
6992 4600 4601 4437 
6993 4553 4573 4345 
6994 4197 4771 4766 
6995 4509 4651 4088 
6996 4600 4807 4222 
6997 4490 4768 4695 
6998 4766 4771 4590 
6999 4758 4809 4569 
7000 4526 4798 4135 
7001 4529 4809 4758 
7002 4428 4607 4337 
7003 4794 4828 4066 
7004 4547 4564 4353 
7005 4481 4828 4794 
7006 4605 4607 4428 
7007 4689 4759 4102 
7008 4417 4561 4560 
7009 4792 4814 420 
7010 4593 4771 4197 
7011 4723 4737 4570 
7012 4251 4723 4570 
7013 4504 4782 408 
7014 4088 4805 4509 
7015 358 4691 359 
7016 4690 4759 4689 
7017 408 4849 4504 
7018 4197 4778 4593 
7019 4768 4797 4412 
7020 4092 4837 4539 
7021 4116 4542 4118 
7022 4539 4801 4092 
7023 4778 4781 4593 
7024 4437 4807 4600 
7025 4511 4539 4111 
7026 4111 4567 4511 
7027 4593 4781 4594 
7028 4110 4777 4522 
7029 4783 4787 4597 
7030 4708 4740 4100 
7031 4585 4721 4251 
7032 4295 4810 4561 
7033 4443 4786 4450 
7034 4205 4787 4783 
7035 4311 4699 4698 
7036 4721 4723 4251 
7037 4421 4610 4420 
7038 4118 4542 4310 
7039 4639 4640 4083 
7040 4564 4839 4353 
7041 4229 4888 4133 
7042 4537 4814 4792 
7043 4786 4885 4450 
7044 4800 4873 4512 
7045 4629 4633 4291 
7046 4506 4806 4072 
7047 4337 4607 4339 
7048 445 4806 4805 
7049 4561 4827 4295 
7050 4606 4755 4201 
7051 4086 4873 4800 
7052 4695 4768 4079 
7053 4420 4610 4587 
7054 4708 4848 4492 
7055 4585 4700 4456 
7056 4065 4573 4553 
7057 4146 4631 4540 
7058 4428 4606 4605 
7059 4540 4631 4422 
7060 324 4843 4775 
7061 4345 4867 4553 
7062 4627 4630 4112 
7063 4079 4768 4530 
7064 4640 4812 4083 
7065 4589 4762 4590 
7066 4688 4713 4441 
7067 4683 4700 4233 
7068 4490 4797 4768 
7069 4537 4792 4535 
7070 4560 4801 4417 
7071 4511 4577 4503 
7072 4538 4564 4063 
7073 4762 4766 4590 
7074 4456 4721 4585 
7075 4456 4700 4683 
7076 4423 4552 4550 
7077 4562 4637 4098 
7078 4738 4744 4557 
7079 4078 4691 358 
7080 359 4691 4102 
7081 4541 4542 4116 
7082 4311 4736 4699 
7083 4484 4753 4737 
7084 4431 4841 4430 
7085 4673 4736 4692 
7086 4542 4824 4310 
7087 4538 4814 4537 
7088 4792 4865 4535 
7089 4198 4744 4738 
7090 4497 4883 4559 
7091 4430 4841 4760 
7092 4205 4783 4594 
7093 4084 4637 4524 
7094 4522 4777 4531 
7095 4646 4713 4688 
7096 4739 4835 4516 
7097 4582 4603 4089 
7098 4775 4843 4703 
7099 4326 4534 4533 
7100 4562 4668 4637 
7101 4536 4538 4537 
7102 4589 4744 4198 
7103 4349 4536 4324 
7104 4423 4748 4552 
7105 4233 4649 4521 
7106 4497 4610 4421 
7107 4428 4755 4606 
7108 4505 4873 4719 
7109 388 4579 389 
7110 4326 4535 4534 
7111 4291 4862 4629 
7112 4805 4806 4508 
7113 4594 4781 4205 
7114 4326 4533 4323 
7115 4072 4836 4506 
7116 4218 4765 4598 
7117 4637 4668 4524 
7118 4349 4538 4536 
7119 4550 4551 4423 
7120 4587 4615 4420 
7121 4063 4814 4538 
7122 4584 4874 4551 
7123 4292 4667 4529 
7124 4534 4865 4549 
7125 4520 4718 4094 
7126 4413 4748 4423 
7127 4793 4822 4107 
7128 4542 4876 4824 
7129 4559 4810 4497 
7130 4070 4785 4517 
7131 4726 4825 4803 
7132 4250 4608 4527 
7133 4737 4753 4525 
7134 4569 4855 4523 
7135 4138 4798 4142 
7136 4254 4615 4236 
7137 4198 4762 4589 
7138 4469 4611 4528 
7139 4602 4881 4601 
7140 4530 4768 4412 
7141 4519 4522 4095 
7142 4549 4799 4534 
7143 4523 4758 4569 
7144 4114 4519 4095 
7145 4524 4636 4084 
7146 4317 4623 4514 
7147 4623 4624 4514 
7148 4121 4667 4119 
7149 375 4800 4518 
7150 390 4577 391 
7151 4063 4564 4563 
7152 4582 4773 4603 
7153 4551 4816 4584 
7154 4841 4845 4096 
7155 4521 4683 4233 
7156 4264 4728 4317 
7157 4142 4784 4631 
7158 406 4552 4068 
7159 4533 4566 4323 
7160 4598 4765 4432 
7161 4417 4827 4561 
7162 4433 4614 4583 
7163 4719 4873 4086 
7164 389 4579 4090 
7165 4540 4750 4146 
7166 4343 4574 4493 
7167 4532 4834 4067 
7168 4803 4825 4439 
7169 4509 4805 4508 
7170 4568 4569 4087 
7171 4556 4720 4206 
7172 4146 4750 4147 
7173 4630 4860 4112 
7174 4613 4866 4475 
7175 4090 4579 4578 
7176 4235 4617 4249 
7177 4641 4845 4841 
7178 4529 4758 4292 
7179 4142 4798 4784 
7180 4420 4615 4254 
7181 4324 4536 4326 
7182 4692 4736 4311 
7183 4475 4858 4613 
7184 4517 4891 4070 
7185 4335 4574 4343 
7186 4530 4707 4079 
7187 4527 4667 4250 
7188 4060 4541 431 
7189 4518 4899 375 
7190 388 4622 4579 
7191 4097 4812 4640 
7192 4238 4678 4649 
7193 4522 4855 4110 
7194 4556 4731 4557 
7195 435 4531 436 
7196 4565 4679 4282 
7197 4232 4566 4328 
7198 4060 4542 4541 
7199 4649 4678 4521 
7200 4399 4592 4406 
7201 4508 4806 4506 
7202 4780 4887 4743 
7203 4090 4577 390 
7204 4074 4829 4515 
7205 4509 4815 4651 
7206 4608 4687 4348 
7207 4405 4596 4410 
7208 4674 4736 4673 
7209 4597 4789 4598 
7210 4485 4753 4484 
7211 4592 4593 4406 
7212 4583 4615 4433 
7213 4067 4879 4532 
7214 4385 4720 4556 
7215 4435 4861 4578 
7216 4603 4773 4619 
7217 4369 4729 4491 
7218 4298 4581 4495 
7219 4317 4728 4623 
7220 4596 4597 4410 
7221 4565 4704 4582 
7222 4119 4667 4292 
7223 4250 4687 4608 
7224 4222 4807 4607 
7225 4249 4617 4287 
7226 4529 4667 4527 
7227 4236 4615 4583 
7228 4515 4871 4074 
7229 417 4553 4548 
7230 4065 4574 4573 
7231 4120 4650 4122 
7232 4170 4649 4233 
7233 4351 4652 4576 
7234 440 4568 4087 
7235 4731 4738 4557 
7236 391 4577 4567 
7237 4576 4652 4575 
7238 4685 4776 4770 
7239 4328 4566 4533 
7240 4545 4563 4547 
7241 4160 4599 4232 
7242 4787 4789 4597 
7243 4232 4599 4566 
7244 405 4552 406 
7245 4580 4634 4238 
7246 4109 4780 4743 
7247 4624 4842 4622 
7248 4563 4564 4547 
7249 4094 4818 4520 
7250 4436 4571 4202 
7251 4544 4732 429 
7252 4196 4606 4201 
7253 4532 4753 4485 
7254 4516 4835 4085 
7255 4460 4679 4565 
7256 399 4779 4742 
7257 4573 4574 4335 
7258 4157 4599 4160 
7259 4326 4536 4535 
7260 4286 4581 4298 
7261 4250 4667 4121 
7262 4591 4592 4397 
7263 4242 4602 4601 
7264 4583 4614 4212 
7265 4180 4570 4253 
7266 4327 4580 4162 
7267 4150 4576 4575 
7268 4595 4596 4403 
7269 4571 4617 4235 
7270 4253 4572 4182 
7271 4397 4592 4399 
7272 433 4114 434 
7273 4242 4601 4186 
7274 4201 4755 4436 
7275 4080 4759 4690 
7276 4395 4591 4397 
7277 4117 4701 4115 
7278 4310 4650 4120 
7279 4087 4809 4528 
7280 4403 4596 4405 
7281 4401 4595 4403 
7282 4433 4615 4587 
7283 4202 4571 4204 
7284 4634 4678 4238 
7285 4699 4790 4097 
7286 4560 4561 4559 
7287 4224 4648 4228 
7288 4150 4575 4151 
7289 4535 4865 4534 
7290 4101 4749 4709 
7291 4234 4586 4129 
7292 4085 4870 4516 
7293 4588 4589 4407 
7294 4079 4856 4695 
7295 4527 4608 4468 
7296 4091 4541 4116 
7297 4749 4885 4709 
7298 4266 4614 4433 
7299 4567 4577 4511 
7300 4162 4580 4163 
7301 4557 4604 4387 
7302 4480 4616 4517 
7303 4122 4650 4612 
7304 4268 4587 4295 
7305 4491 4729 4643 
7306 4338 4584 4315 
7307 4176 4585 4251 
7308 4522 4531 4095 
7309 4622 4842 4579 
7310 4555 4669 4543 
7311 4323 4566 4321 
7312 4091 4114 433 
7313 4217 4614 4266 
7314 4536 4537 4535 
7315 4393 4588 4407 
7316 4558 4560 4559 
7317 4468 4608 4364 
7318 4550 4552 405 
7319 4581 4785 4495 
7320 4618 4681 4280 
7321 4387 4604 4388 
7322 4190 4600 4222 
7323 4593 4594 4406 
7324 4658 4888 4229 
7325 4436 4617 4571 
7326 4091 4115 4114 
7327 4697 4726 4139 
7328 384 4603 385 
7329 386 4619 4073 
7330 4410 4598 4432 
7331 4333 4573 4335 
7332 4464 4669 4418 
7333 4610 4810 4295 
7334 385 4619 386 
7335 4597 4598 4410 
7336 4587 4610 4295 
7337 4221 4620 4219 
7338 4268 4295 4269 
7339 4480 4517 4448 
7340 4249 4286 4254 
7341 4286 4298 4254 
7342 4640 4902 4097 
7343 4436 4741 4617 
7344 4611 4868 4528 
7345 4495 4496 4421 
7346 4249 4254 4236 
7347 4322 4324 4323 
7348 4773 4851 4619 
7349 4328 4330 4329 
7350 4266 4268 4267 
7351 4235 4249 4236 
7352 4424 4539 4511 
7353 4136 4648 4224 
7354 4268 4269 4267 
7355 4237 4322 4321 
7356 4555 4796 4359 
7357 4274 4417 4301 
7358 4232 4328 4327 
7359 4417 4424 4301 
7360 438 4110 439 
7361 4298 4495 4421 
7362 428 4544 429 
7363 431 4541 432 
7364 4324 4326 4323 
7365 4235 4236 4211 
7366 4469 4470 4468 
7367 4314 4448 4288 
7368 4322 4323 4321 
7369 4331 4345 4333 
7370 4314 4480 4448 
7371 404 4550 405 
7372 416 4553 417 
7373 4413 4423 4340 
7374 4612 4613 4234 
7375 4266 4267 4221 
7376 4592 4771 4593 
7377 4160 4232 4162 
7378 4330 4331 4329 
7379 4209 4235 4211 
7380 4154 4237 4156 
7381 4343 4493 4454 
7382 4237 4321 4156 
7383 4451 4504 4446 
7384 4122 4612 4124 
7385 4328 4329 4327 
7386 4470 4529 4527 
7387 4345 4573 4333 
7388 4170 4233 4172 
7389 4217 4266 4221 
7390 4467 4468 4364 
7391 4483 4513 4485 
7392 4232 4327 4162 
7393 4533 4534 4330 
7394 4578 4842 4435 
7395 434 4114 4095 
7396 4166 4238 4168 
7397 4156 4599 4157 
7398 4469 4528 4470 
7399 4174 4585 4176 
7400 4589 4590 4407 
7401 4467 4469 4468 
7402 4176 4251 4178 
7403 4366 4618 4285 
7404 4348 4687 4223 
7405 4704 4773 4582 
7406 4222 4607 4605 
7407 4693 4765 4218 
7408 4637 4875 4098 
7409 4206 4731 4556 
7410 4180 4253 4182 
7411 4385 4556 4387 
7412 4112 4767 4627 
7413 4131 4586 4229 
7414 4143 4631 4146 
7415 4124 4612 4127 
7416 4127 4612 4234 
7417 4433 4587 4268 
7418 4129 4586 4131 
7419 4391 4588 4393 
7420 4282 4704 4565 
7421 4277 4727 4653 
7422 4325 4349 4324 
7423 4460 4565 4501 
7424 4393 4407 4395 
7425 4182 4572 4184 
7426 4565 4582 4501 
7427 4178 4570 4180 
7428 4186 4601 4188 
7429 4080 4848 4708 
7430 4184 4242 4186 
7431 4188 4601 4600 
7432 4327 4634 4580 
7433 4399 4406 4401 
7434 4194 4606 4196 
7435 4603 4619 385 
7436 4163 4580 4166 
7437 4184 4572 4242 
7438 4556 4557 4387 
7439 4285 4618 4280 
7440 320 4112 321 
7441 4298 4421 4420 
7442 4287 4288 4286 
7443 4388 4604 4391 
7444 4188 4600 4190 
7445 4201 4436 4202 
7446 4190 4222 4192 
7447 4618 4726 4697 
7448 4251 4570 4178 
7449 4405 4410 4409 
7450 4306 4463 4439 
7451 4142 4631 4143 
7452 4209 4211 4210 
7453 4358 4359 4357 
7454 4115 4701 4519 
7455 4151 4575 4154 
7456 4364 4608 4348 
7457 4435 4624 4623 
7458 4083 4641 4639 
7459 4127 4234 4129 
7460 4557 4744 4604 
7461 4204 4571 4209 
7462 4653 4727 4457 
7463 4288 4581 4286 
7464 4269 4274 4270 
7465 4554 4555 4543 
7466 4424 4511 4503 
7467 4196 4201 4200 
7468 4545 4546 4062 
7469 4548 4549 4064 
7470 4279 4632 4248 
7471 4131 4229 4133 
7472 4289 4314 4288 
7473 4154 4156 4155 
7474 4719 4822 4505 
7475 4274 4301 4299 
7476 4217 4221 4219 
7477 4212 4614 4214 
7478 4089 4603 384 
7479 322 4093 323 
7480 4352 4353 4350 
7481 4214 4614 4217 
7482 4391 4604 4588 
7483 4419 4464 4418 
7484 4219 4620 4230 
7485 4138 4142 4141 
7486 4317 4514 4347 
7487 4241 4635 4376 
7488 4356 4357 4354 
7489 4465 4466 4464 
7490 4272 4633 4273 
7491 4264 4317 4281 
7492 4204 4209 4208 
7493 4331 4333 4332 
7494 4605 4606 4194 
7495 4160 4162 4161 
7496 4143 4146 4145 
7497 4339 4340 4338 
7498 4328 4533 4330 
7499 4147 4150 4149 
7500 432 4091 433 
7501 4233 4700 4172 
7502 4166 4580 4238 
7503 4230 4620 4264 
7504 4168 4649 4170 
7505 4470 4527 4468 
7506 4214 4217 4216 
7507 4475 4510 4466 
7508 325 4085 326 
7509 4369 4491 4489 
7510 4365 4467 4364 
7511 4410 4432 4409 
7512 4363 4364 4348 
7513 4341 4413 4340 
7514 4362 4418 4360 
7515 4333 4335 4334 
7516 4222 4605 4192 
7517 4174 4700 4585 
7518 4414 4444 4413 
7519 4460 4501 4476 
7520 4151 4154 4153 
7521 391 4567 392 
7522 4273 4642 4256 
7523 4166 4168 4167 
7524 329 4083 330 
7525 369 4084 370 
7526 333 4081 334 
7527 365 4082 366 
7528 337 4079 338 
7529 361 4080 362 
7530 341 4077 342 
7531 357 4078 358 
7532 353 4076 354 
7533 345 4075 346 
7534 349 4074 350 
7535 327 4096 328 
7536 4303 4632 4279 
7537 4558 4559 4071 
7538 4192 4605 4194 
7539 4168 4170 4169 
7540 4335 4343 4342 
7541 4092 4560 4558 
7542 4337 4338 4315 
7543 4596 4783 4597 
7544 4322 4325 4324 
7545 331 4097 332 
7546 367 4098 368 
7547 335 4099 336 
7548 363 4100 364 
7549 339 4101 340 
7550 359 4102 360 
7551 343 4103 344 
7552 355 4104 356 
7553 351 4105 352 
7554 347 4106 348 
7555 4448 4581 4288 
7556 4445 4446 4444 
7557 4266 4433 4268 
7558 4230 4264 4261 
7559 4157 4160 4159 
7560 376 4094 377 
7561 373 4086 374 
7562 378 4113 379 
7563 4170 4172 4171 
7564 4305 4366 4285 
7565 4154 4575 4237 
7566 371 4107 372 
7567 4407 4591 4395 
7568 4406 4595 4401 
7569 4343 4454 4344 
7570 4552 4748 4068 
7571 4272 4273 4256 
7572 4447 4451 4446 
7573 4383 4385 4384 
7574 4211 4583 4212 
7575 4376 4635 4379 
7576 4226 4348 4223 
7577 381 4109 382 
7578 4385 4387 4386 
7579 4249 4287 4286 
7580 4454 4481 4455 
7581 4626 4629 4628 
7582 4374 4460 4459 
7583 4172 4174 4173 
7584 4163 4166 4165 
7585 389 4090 390 
7586 4566 4599 4321 
7587 4538 4839 4564 
7588 386 4073 387 
7589 4452 4532 4451 
7590 4625 4626 4108 
7591 4298 4420 4254 
7592 4209 4571 4235 
7593 383 4089 384 
7594 4325 4350 4349 
7595 427 4543 4061 
7596 4496 4497 4421 
7597 4099 4751 4675 
7598 4062 4554 425 
7599 418 4548 4064 
7600 424 4545 4062 
7601 4174 4176 4175 
7602 4228 4648 4306 
7603 4620 4728 4264 
7604 4472 4609 4303 
7605 403 4616 4069 
7606 4063 4563 422 
7607 4236 4583 4211 
7608 4201 4202 4200 
7609 426 4554 4543 
7610 4481 4483 4482 
7611 4115 4519 4114 
7612 4391 4393 4392 
7613 4282 4679 4670 
7614 423 4563 4545 
7615 4379 4383 4382 
7616 4109 4621 382 
7617 4609 4632 4303 
7618 4352 4354 4353 
7619 4176 4178 4177 
7620 4543 4669 4061 
7621 4393 4395 4394 
7622 4315 4584 4314 
7623 4495 4882 4496 
7624 4483 4485 4484 
7625 383 4621 4089 
7626 4142 4143 4141 
7627 4269 4270 4267 
7628 4073 4622 387 
7629 4178 4180 4179 
7630 4146 4147 4145 
7631 4395 4397 4396 
7632 382 4621 383 
7633 440 4087 441 
7634 387 4622 388 
7635 4209 4210 4208 
7636 4314 4584 4480 
7637 335 4751 4099 
7638 4358 4360 4359 
7639 4356 4358 4357 
7640 442 4611 443 
7641 4388 4391 4390 
7642 4150 4151 4149 
7643 4424 4503 4301 
7644 443 4072 444 
7645 4211 4212 4210 
7646 4379 4635 4383 
7647 4397 4399 4398 
7648 448 4625 4108 
7649 446 4088 447 
7650 4287 4289 4288 
7651 4180 4182 4181 
7652 4217 4219 4216 
7653 4770 4776 4478 
7654 4399 4401 4400 
7655 4182 4184 4183 
7656 4156 4157 4155 
7657 4444 4748 4413 
7658 4154 4155 4153 
7659 4317 4347 4281 
7660 4331 4332 4329 
7661 4289 4315 4314 
7662 4362 4419 4418 
7663 4419 4465 4464 
7664 4401 4403 4402 
7665 448 4108 449 
7666 4184 4186 4185 
7667 4575 4652 4237 
7668 4274 4299 4270 
7669 4264 4281 4261 
7670 4465 4475 4466 
7671 4559 4883 4071 
7672 397 4558 4071 
7673 4403 4405 4404 
7674 439 4568 440 
7675 4092 4558 396 
7676 4383 4720 4385 
7677 4321 4599 4156 
7678 4374 4679 4460 
7679 4186 4188 4187 
7680 4162 4163 4161 
7681 4088 4651 4625 
7682 4365 4506 4467 
7683 4160 4161 4159 
7684 4322 4652 4325 
7685 4588 4744 4589 
7686 4305 4502 4366 
7687 4337 4339 4338 
7688 4363 4365 4364 
7689 4206 4720 4663 
7690 4460 4476 4459 
7691 4670 4679 4372 
7692 443 4611 4072 
7693 4405 4409 4408 
7694 4221 4659 4620 
7695 4333 4334 4332 
7696 4339 4341 4340 
7697 4188 4190 4189 
7698 4226 4363 4348 
7699 4190 4192 4191 
7700 4341 4414 4413 
7701 4291 4633 4272 
7702 4166 4167 4165 
7703 4192 4194 4193 
7704 4168 4169 4167 
7705 399 4742 400 
7706 4335 4342 4334 
7707 4553 4867 4548 
7708 4625 4651 4626 
7709 4414 4445 4444 
7710 4594 4595 4406 
7711 4590 4591 4407 
7712 4170 4171 4169 
7713 4528 4868 4087 
7714 4383 4384 4382 
7715 4385 4386 4384 
7716 4306 4439 4307 
7717 4194 4196 4195 
7718 4262 4644 4247 
7719 4387 4388 4386 
7720 4294 4735 4486 
7721 4172 4173 4171 
7722 4343 4344 4342 
7723 4445 4447 4446 
7724 4447 4452 4451 
7725 4663 4720 4635 
7726 4127 4129 4128 
7727 4129 4131 4130 
7728 4454 4455 4344 
7729 4196 4200 4199 
7730 4436 4755 4741 
7731 4174 4175 4173 
7732 4131 4133 4132 
7733 4228 4306 4257 
7734 4325 4652 4351 
7735 4391 4392 4390 
7736 4124 4127 4126 
7737 4393 4394 4392 
7738 4133 4135 4134 
7739 4481 4482 4455 
7740 4176 4177 4175 
7741 4135 4138 4137 
7742 4732 4876 4060 
7743 430 4732 4060 
7744 4380 4425 4377 
7745 4297 4644 4262 
7746 4395 4396 4394 
7747 4178 4179 4177 
7748 4713 4769 4441 
7749 4270 4659 4267 
7750 4351 4352 4350 
7751 4138 4141 4140 
7752 4118 4310 4120 
7753 4397 4398 4396 
7754 4496 4882 4742 
7755 4278 4471 4283 
7756 4483 4484 4482 
7757 4202 4204 4203 
7758 4367 4369 4368 
7759 4695 4856 4099 
7760 4399 4400 4398 
7761 4180 4181 4179 
7762 4626 4651 4629 
7763 4143 4145 4144 
7764 4369 4489 4370 
7765 4306 4648 4463 
7766 4312 4313 4265 
7767 4355 4356 4354 
7768 4147 4149 4148 
7769 4212 4214 4213 
7770 4294 4486 4320 
7771 4219 4230 4220 
7772 447 4625 448 
7773 4245 4367 4263 
7774 4204 4208 4207 
7775 4401 4402 4400 
7776 4182 4183 4181 
7777 4712 4713 4075 
7778 4612 4650 4613 
7779 4296 4297 4262 
7780 4734 4750 4540 
7781 4238 4649 4168 
7782 4214 4216 4215 
7783 4258 4294 4293 
7784 4151 4153 4152 
7785 4618 4697 4681 
7786 4184 4185 4183 
7787 4403 4404 4402 
7788 4361 4362 4360 
7789 4230 4261 4231 
7790 4186 4187 4185 
7791 4405 4408 4404 
7792 4277 4319 4318 
7793 4346 4477 4275 
7794 4299 4435 4434 
7795 4372 4374 4373 
7796 4472 4756 4609 
7797 4305 4638 4502 
7798 4374 4459 4458 
7799 4260 4372 4300 
7800 4273 4662 4642 
7801 4157 4159 4158 
7802 4409 4411 4408 
7803 4252 4277 4276 
7804 4545 4547 4546 
7805 4237 4652 4322 
7806 4188 4189 4187 
7807 4147 4750 4150 
7808 4336 4337 4315 
7809 4329 4634 4327 
7810 4284 4285 4280 
7811 4226 4642 4363 
7812 4259 4280 4225 
7813 4304 4305 4285 
7814 4190 4191 4189 
7815 4507 4508 4506 
7816 4192 4193 4191 
7817 4434 4659 4270 
7818 430 4060 431 
7819 4302 4303 4279 
7820 4609 4756 4432 
7821 4163 4165 4164 
7822 4241 4663 4635 
7823 4416 4472 4303 
7824 4194 4195 4193 
7825 4353 4804 4547 
7826 427 4061 428 
7827 4376 4379 4378 
7828 4271 4272 4256 
7829 424 4062 425 
7830 418 4064 419 
7831 421 4063 422 
7832 400 4070 401 
7833 403 4069 404 
7834 406 4068 407 
7835 409 4067 410 
7836 415 4065 416 
7837 412 4066 413 
7838 4379 4382 4381 
7839 4224 4226 4223 
7840 4202 4203 4200 
7841 4292 4701 4117 
7842 426 4543 427 
7843 425 4554 426 
7844 417 4548 418 
7845 423 4545 424 
7846 434 4095 435 
7847 402 4616 403 
7848 4196 4199 4195 
7849 4380 4440 4425 
7850 422 4563 423 
7851 4255 4256 4227 
7852 4367 4729 4369 
7853 4123 4250 4121 
7854 4143 4144 4141 
7855 4306 4307 4257 
7856 4136 4223 4125 
7857 4388 4390 4389 
7858 4576 4734 4351 
7859 4147 4148 4145 
7860 4131 4132 4130 
7861 4129 4130 4128 
7862 4325 4351 4350 
7863 4352 4355 4354 
7864 4127 4128 4126 
7865 4151 4152 4149 
7866 4290 4291 4272 
7867 4095 4531 435 
7868 4212 4213 4210 
7869 4119 4292 4117 
7870 4219 4220 4216 
7871 4133 4134 4132 
7872 393 4111 394 
7873 4135 4137 4134 
7874 4267 4659 4221 
7875 4312 4461 4313 
7876 4633 4754 4273 
7877 4138 4140 4137 
7878 4476 4520 4459 
7879 4281 4282 4261 
7880 397 4071 398 
7881 4208 4243 4207 
7882 4061 4544 428 
7883 4278 4654 4471 
7884 395 4092 396 
7885 4486 4487 4320 
7886 4489 4490 4370 
7887 4157 4158 4155 
7888 4294 4320 4293 
7889 4204 4207 4203 
7890 4519 4523 4522 
7891 396 4558 397 
7892 4296 4412 4297 
7893 4358 4361 4360 
7894 4474 4525 4452 
7895 4369 4370 4368 
7896 4367 4368 4263 
7897 4230 4231 4220 
7898 4214 4215 4213 
7899 4229 4895 4658 
7900 4069 4550 404 
7901 4065 4553 416 
7902 4419 4479 4465 
7903 4200 4654 4199 
7904 4163 4164 4161 
7905 4289 4336 4315 
7906 4346 4478 4477 
7907 4644 4666 4247 
7908 4299 4434 4270 
7909 4374 4458 4373 
7910 4153 4239 4152 
7911 4365 4507 4506 
7912 4372 4373 4300 
7913 4473 4515 4389 
7914 4384 4426 4382 
7915 4319 4443 4318 
7916 4742 4779 4496 
7917 4145 4643 4144 
7918 4277 4318 4276 
7919 4388 4389 4386 
7920 4169 4206 4167 
7921 4355 4422 4356 
7922 4626 4628 4627 
7923 4332 4634 4329 
7924 4141 4661 4140 
7925 4277 4653 4319 
7926 4394 4442 4392 
7927 4088 4625 447 
7928 4159 4240 4158 
7929 4645 4646 4381 
7930 4216 4671 4215 
7931 4341 4437 4414 
7932 4458 4512 4373 
7933 4487 4524 4320 
7934 4302 4416 4303 
7935 4361 4499 4362 
7936 4435 4623 4434 
7937 4259 4284 4280 
7938 4416 4492 4472 
7939 4245 4661 4367 
7940 4175 4198 4173 
7941 4284 4304 4285 
7942 4304 4427 4305 
7943 4231 4246 4220 
7944 4243 4244 4207 
7945 4342 4521 4334 
7946 4398 4438 4396 
7947 4443 4450 4318 
7948 4215 4449 4213 
7949 4379 4381 4378 
7950 432 4541 4091 
7951 4261 4670 4231 
7952 4312 4505 4461 
7953 4165 4241 4164 
7954 4427 4638 4305 
7955 4402 4462 4400 
7956 4241 4375 4164 
7957 4632 4693 4248 
7958 4346 4562 4478 
7959 4808 4817 4714 
7960 4441 4488 4440 
7961 4656 4722 4243 
7962 4240 4457 4158 
7963 4578 4861 4503 
7964 4336 4428 4337 
7965 4382 4645 4381 
7966 4239 4247 4152 
7967 4408 4494 4404 
7968 4507 4509 4508 
7969 4181 4197 4179 
7970 4455 4456 4344 
7971 4296 4498 4412 
7972 4380 4441 4440 
7973 4284 4311 4304 
7974 4260 4265 4246 
7975 4487 4636 4524 
7976 4447 4474 4452 
7977 4378 4380 4377 
7978 4300 4312 4265 
7979 4148 4643 4145 
7980 4376 4377 4375 
7981 4243 4258 4244 
7982 4576 4750 4734 
7983 4187 4205 4185 
7984 4390 4473 4389 
7985 4370 4371 4368 
7986 4574 4774 4493 
7987 4431 4857 4641 
7988 4283 4316 4302 
7989 4085 4705 326 
7990 4193 4218 4191 
7991 4231 4260 4246 
7992 4258 4293 4275 
7993 4149 4666 4148 
7994 4458 4518 4512 
7995 4203 4654 4200 
7996 4498 4530 4412 
7997 4260 4300 4265 
7998 4256 4642 4227 
7999 4215 4453 4449 
8000 4224 4227 4226 
8001 4255 4271 4256 
8002 4258 4275 4244 
8003 4136 4224 4223 
8004 4199 4248 4195 
8005 4224 4228 4227 
8006 4309 4431 4430 
8007 4632 4765 4693 
8008 4293 4346 4275 
8009 4278 4283 4279 
8010 4276 4296 4262 
8011 4252 4262 4247 
8012 4124 4126 4125 
8013 4140 4225 4137 
8014 4427 4640 4639 
8015 4227 4642 4226 
8016 4415 4516 4429 
8017 4122 4124 4123 
8018 4199 4278 4248 
8019 4307 4309 4308 
8020 4132 4139 4130 
8021 4361 4500 4499 
8022 4626 4627 4108 
8023 4228 4257 4255 
8024 4260 4670 4372 
8025 4172 4700 4174 
8026 4239 4252 4247 
8027 4144 4661 4141 
8028 4252 4276 4262 
8029 4152 4666 4149 
8030 4645 4647 4646 
8031 327 4705 4096 
8032 4120 4122 4121 
8033 4376 4378 4377 
8034 4140 4245 4225 
8035 4355 4540 4422 
8036 4245 4263 4259 
8037 4241 4376 4375 
8038 4271 4290 4272 
8039 4546 4796 4062 
8040 4271 4415 4290 
8041 4283 4302 4279 
8042 4307 4308 4257 
8043 4554 4796 4555 
8044 4648 4733 4463 
8045 4082 4706 366 
8046 4080 4708 362 
8047 341 4709 4077 
8048 4077 4710 342 
8049 345 4712 4075 
8050 4076 4714 354 
8051 353 4715 4076 
8052 349 4717 4074 
8053 4079 4707 338 
8054 357 4711 4078 
8055 4074 4716 350 
8056 4372 4679 4374 
8057 4118 4120 4119 
8058 4278 4279 4248 
8059 4245 4259 4225 
8060 4208 4656 4243 
8061 4500 4526 4499 
8062 367 4706 4098 
8063 363 4708 4100 
8064 4101 4709 340 
8065 343 4710 4103 
8066 4103 4712 344 
8067 355 4714 4104 
8068 4105 4715 352 
8069 4106 4717 348 
8070 339 4707 4101 
8071 4104 4711 356 
8072 351 4716 4105 
8073 4280 4681 4225 
8074 4220 4671 4216 
8075 4426 4645 4382 
8076 4425 4730 4377 
8077 4309 4430 4308 
8078 4685 4686 4684 
8079 4371 4675 4674 
8080 4126 4136 4125 
8081 4124 4125 4123 
8082 4228 4255 4227 
8083 4069 4551 4550 
8084 4122 4123 4121 
8085 4641 4841 4431 
8086 4282 4670 4261 
8087 4258 4722 4294 
8088 4313 4724 4265 
8089 4094 4718 377 
8090 378 4718 4113 
8091 373 4719 4086 
8092 4155 4655 4153 
8093 4107 4719 372 
8094 4347 4704 4281 
8095 4210 4656 4208 
8096 4427 4639 4638 
8097 4120 4121 4119 
8098 4356 4657 4358 
8099 4699 4902 4698 
8100 4368 4673 4263 
8101 4349 4839 4538 
8102 4415 4429 4290 
8103 4215 4671 4453 
8104 4631 4784 4422 
8105 4362 4658 4419 
8106 4161 4660 4159 
8107 4116 4118 4117 
8108 4153 4655 4239 
8109 4118 4119 4117 
8110 4392 4665 4390 
8111 4628 4630 4627 
8112 4386 4664 4384 
8113 4223 4687 4125 
8114 4411 4690 4689 
8115 4422 4657 4356 
8116 4199 4654 4278 
8117 4167 4663 4165 
8118 4065 4774 4574 
8119 4363 4662 4365 
8120 4137 4681 4134 
8121 4231 4670 4260 
8122 4499 4658 4362 
8123 4396 4672 4394 
8124 4123 4687 4250 
8125 4714 4817 4104 
8126 4159 4660 4240 
8127 4590 4771 4591 
8128 4660 4730 4240 
8129 4400 4676 4398 
8130 4655 4727 4239 
8131 4695 4901 4694 
8132 4140 4661 4245 
8133 4213 4656 4210 
8134 4449 4722 4656 
8135 408 4782 409 
8136 4165 4663 4241 
8137 4247 4666 4152 
8138 4316 4685 4684 
8139 4642 4662 4363 
8140 4281 4704 4282 
8141 4485 4834 4532 
8142 4252 4727 4277 
8143 4158 4655 4155 
8144 4334 4678 4332 
8145 4390 4665 4473 
8146 4715 4819 4076 
8147 4630 4746 4093 
8148 4246 4671 4220 
8149 4432 4756 4409 
8150 4404 4682 4402 
8151 4472 4772 4756 
8152 4344 4683 4342 
8153 4358 4657 4361 
8154 4320 4668 4293 
8155 4164 4660 4161 
8156 4411 4689 4408 
8157 4515 4664 4389 
8158 4419 4658 4479 
8159 4384 4664 4426 
8160 4517 4785 4448 
8161 4206 4663 4167 
8162 4346 4668 4562 
8163 4389 4664 4386 
8164 4312 4677 4505 
8165 4442 4665 4392 
8166 4371 4673 4368 
8167 4293 4668 4346 
8168 4300 4677 4312 
8169 4449 4656 4213 
8170 4524 4668 4320 
8171 4365 4662 4507 
8172 4373 4677 4300 
8173 326 4705 327 
8174 4482 4721 4455 
8175 4394 4672 4442 
8176 4512 4677 4373 
8177 4296 4680 4498 
8178 4380 4688 4441 
8179 4617 4741 4287 
8180 4646 4688 4381 
8181 419 4792 420 
8182 4457 4655 4158 
8183 4316 4684 4302 
8184 4438 4672 4396 
8185 4318 4680 4276 
8186 4378 4688 4380 
8187 4375 4660 4164 
8188 4462 4676 4400 
8189 4276 4680 4296 
8190 4116 4117 4115 
8191 366 4706 367 
8192 362 4708 363 
8193 340 4709 341 
8194 342 4710 343 
8195 344 4712 345 
8196 354 4714 355 
8197 352 4715 353 
8198 348 4717 349 
8199 338 4707 339 
8200 356 4711 357 
8201 350 4716 351 
8202 4398 4676 4438 
8203 4452 4753 4532 
8204 4351 4734 4352 
8205 4225 4681 4137 
8206 4195 4693 4193 
8207 4371 4674 4673 
8208 4450 4680 4318 
8209 4290 4702 4291 
8210 377 4718 378 
8211 4539 4837 4111 
8212 372 4719 373 
8213 4402 4682 4462 
8214 4302 4684 4416 
8215 4381 4688 4378 
8216 4494 4682 4404 
8217 4263 4692 4259 
8218 4594 4783 4595 
8219 4408 4689 4494 
8220 4671 4724 4453 
8221 4521 4678 4334 
8222 4284 4692 4311 
8223 4366 4726 4618 
8224 415 4774 4065 
8225 4259 4692 4284 
8226 4332 4678 4634 
8227 4342 4683 4521 
8228 4375 4730 4660 
8229 4371 4694 4675 
8230 4490 4694 4370 
8231 4125 4687 4123 
8232 4361 4657 4500 
8233 4534 4799 4330 
8234 4308 4696 4257 
8235 4635 4720 4383 
8236 4851 4897 4073 
8237 4457 4727 4655 
8238 4134 4697 4132 
8239 4673 4692 4263 
8240 4456 4683 4344 
8241 4257 4696 4255 
8242 4427 4698 4640 
8243 4193 4693 4218 
8244 4715 4826 4819 
8245 4370 4694 4371 
8246 4551 4874 4423 
8247 4359 4892 4555 
8248 4311 4698 4304 
8249 4248 4693 4195 
8250 4455 4721 4456 
8251 4271 4696 4415 
8252 4246 4724 4671 
8253 4484 4723 4482 
8254 4304 4698 4427 
8255 4091 4116 4115 
8256 4255 4696 4271 
8257 4132 4697 4139 
8258 4357 4886 4804 
8259 4244 4725 4207 
8260 4169 4731 4206 
8261 4071 4779 398 
8262 4331 4799 4345 
8263 429 4732 430 
8264 4477 4747 4275 
8265 4681 4697 4134 
8266 4097 4902 4699 
8267 4764 4776 4316 
8268 4429 4702 4290 
8269 4136 4733 4648 
8270 4735 4761 4486 
8271 4243 4722 4258 
8272 4429 4703 4702 
8273 449 4767 450 
8274 4203 4725 4654 
8275 438 4777 4110 
8276 4099 4901 4695 
8277 4450 4885 4749 
8278 4287 4741 4289 
8279 4308 4739 4696 
8280 4207 4725 4203 
8281 4481 4794 4483 
8282 4144 4729 4661 
8283 4126 4733 4136 
8284 4171 4731 4169 
8285 4244 4747 4725 
8286 361 4759 4080 
8287 4198 4738 4173 
8288 4265 4724 4246 
8289 4470 4809 4529 
8290 4482 4723 4721 
8291 4338 4874 4584 
8292 4102 4759 360 
8293 4733 4752 4463 
8294 4510 4876 4732 
8295 4654 4725 4471 
8296 4492 4772 4472 
8297 4355 4734 4540 
8298 4417 4801 4424 
8299 380 4780 381 
8300 4643 4729 4144 
8301 4616 4816 4069 
8302 4239 4727 4252 
8303 4696 4739 4415 
8304 4092 4801 4560 
8305 4416 4740 4492 
8306 4661 4729 4367 
8307 445 4805 446 
8308 4377 4730 4375 
8309 4659 4728 4620 
8310 4128 4733 4126 
8311 4504 4813 4446 
8312 4173 4738 4171 
8313 4519 4701 4523 
8314 4352 4734 4355 
8315 4569 4809 4087 
8316 420 4814 421 
8317 4598 4789 4218 
8318 334 4751 335 
8319 4415 4739 4516 
8320 4464 4831 4669 
8321 4434 4728 4659 
8322 4623 4728 4434 
8323 4523 4855 4522 
8324 4627 4767 4108 
8325 4292 4758 4701 
8326 4076 4808 4714 
8327 4725 4747 4471 
8328 4357 4804 4354 
8329 4139 4752 4130 
8330 11 4863 320 
8331 4283 4764 4316 
8332 4171 4738 4731 
8333 4295 4827 4269 
8334 4313 4791 4761 
8335 4175 4762 4198 
8336 4607 4807 4339 
8337 450 4863 11 
8338 4484 4737 4723 
8339 4274 4827 4417 
8340 4242 4896 4602 
8341 4480 4816 4616 
8342 4604 4744 4588 
8343 4453 4735 4449 
8344 4148 4763 4643 
8345 4686 4740 4684 
8346 4430 4739 4308 
8347 4093 4860 4630 
8348 4602 4838 4445 
8349 400 4742 4070 
8350 4066 4811 413 
8351 4722 4735 4294 
8352 4432 4765 4609 
8353 4150 4750 4576 
8354 333 4790 4081 
8355 4197 4766 4179 
8356 4097 4790 332 
8357 4662 4754 4507 
8358 4289 4741 4336 
8359 4454 4828 4481 
8360 4761 4791 4486 
8361 4457 4757 4653 
8362 444 4806 445 
8363 324 4775 325 
8364 4628 4746 4630 
8365 4643 4763 4491 
8366 4644 4788 4763 
8367 4081 4751 334 
8368 4273 4754 4662 
8369 4310 4866 4650 
8370 4240 4757 4457 
8371 4476 4743 4520 
8372 4619 4851 4073 
8373 4684 4740 4416 
8374 4449 4735 4722 
8375 4113 4887 4780 
8376 4100 4740 4686 
8377 4128 4752 4733 
8378 4181 4778 4197 
8379 4445 4881 4602 
8380 4205 4781 4185 
8381 407 4849 408 
8382 4130 4752 4128 
8383 392 4844 10 
8384 4275 4747 4244 
8385 4525 4753 4452 
8386 4451 4879 4504 
8387 4477 4776 4764 
8388 4463 4803 4439 
8389 10 4844 393 
8390 4609 4765 4632 
8391 4218 4789 4191 
8392 4187 4787 4205 
8393 4423 4874 4340 
8394 4746 4862 4702 
8395 4353 4839 4350 
8396 4313 4761 4724 
8397 4425 4757 4730 
8398 4763 4788 4491 
8399 4507 4754 4509 
8400 4644 4763 4666 
8401 4409 4756 4411 
8402 4501 4823 4476 
8403 4568 4855 4569 
8404 360 4759 361 
8405 4336 4755 4428 
8406 4712 4769 4713 
8407 4177 4762 4175 
8408 4616 4891 4517 
8409 4477 4764 4747 
8410 4741 4755 4336 
8411 4106 4745 4717 
8412 374 4800 375 
8413 4084 4875 4637 
8414 4083 4812 330 
8415 4804 4886 4546 
8416 331 4812 4097 
8417 4111 4837 394 
8418 4506 4836 4467 
8419 4076 4819 4808 
8420 395 4837 4092 
8421 4425 4795 4757 
8422 4774 4811 4493 
8423 412 4854 4066 
8424 4103 4769 4712 
8425 4106 4833 4647 
8426 4110 4568 439 
8427 4757 4795 4653 
8428 4067 4859 410 
8429 4680 4749 4498 
8430 4666 4763 4148 
8431 4471 4764 4283 
8432 4339 4807 4341 
8433 4084 4820 370 
8434 4591 4771 4592 
8435 437 4777 438 
8436 4450 4749 4680 
8437 4453 4761 4735 
8438 371 4820 4107 
8439 4669 4831 4061 
8440 4104 4821 4711 
8441 4070 4891 401 
8442 4360 4892 4359 
8443 4108 4767 449 
8444 402 4891 4616 
8445 4629 4815 4633 
8446 4179 4766 4177 
8447 4636 4820 4084 
8448 4705 4760 4096 
8449 442 4868 4611 
8450 4105 4826 4715 
8451 4730 4757 4240 
8452 9 4869 437 
8453 436 4869 9 
8454 4756 4772 4411 
8455 4177 4766 4762 
8456 4724 4761 4453 
8457 4520 4818 4459 
8458 4518 4800 4512 
8459 365 4832 4082 
8460 4366 4825 4726 
8461 4100 4832 364 
8462 4075 4833 346 
8463 4112 4860 321 
8464 4422 4784 4657 
8465 347 4833 4106 
8466 4690 4848 4080 
8467 4555 4892 4669 
8468 4629 4862 4628 
8469 4691 4893 4494 
8470 325 4775 4085 
8471 4458 4818 4518 
8472 4503 4861 4301 
8473 4083 4845 4641 
8474 322 4860 4093 
8475 4316 4776 4685 
8476 414 4774 415 
8477 4299 4861 4435 
8478 329 4845 4083 
8479 4096 4845 328 
8480 4686 4832 4100 
8481 4747 4764 4471 
8482 4701 4758 4523 
8483 337 4856 4079 
8484 4817 4821 4104 
8485 4441 4769 4488 
8486 4099 4856 336 
8487 4087 4868 441 
8488 4595 4783 4596 
8489 4497 4810 4610 
8490 4466 4878 4831 
8491 398 4779 399 
8492 12 4872 380 
8493 4716 4853 4105 
8494 4491 4788 4489 
8495 4411 4772 4690 
8496 4082 4770 4706 
8497 323 4843 324 
8498 369 4875 4084 
8499 4098 4875 368 
8500 381 4780 4109 
8501 4465 4858 4475 
8502 4062 4796 4554 
8503 4347 4773 4704 
8504 4183 4778 4181 
8505 414 4811 4774 
8506 4445 4838 4447 
8507 4602 4896 4838 
8508 4478 4776 4477 
8509 4448 4785 4581 
8510 4799 4867 4345 
8511 4525 4880 4253 
8512 4831 4878 4544 
8513 4185 4781 4183 
8514 4469 4836 4611 
8515 375 4899 376 
8516 4504 4849 4813 
8517 4790 4852 4081 
8518 4788 4797 4489 
8519 379 4872 12 
8520 4504 4879 4782 
8521 409 4782 4067 
8522 4494 4893 4682 
8523 4499 4888 4658 
8524 4107 4822 4719 
8525 4414 4881 4445 
8526 4183 4781 4778 
8527 4716 4871 4853 
8528 4189 4787 4187 
8529 332 4790 333 
8530 4483 4794 4513 
8531 4440 4795 4425 
8532 4191 4789 4189 
8533 4486 4791 4487 
8534 4098 4847 4562 
8535 4330 4799 4331 
8536 4702 4862 4291 
8537 4297 4788 4644 
8538 4297 4797 4788 
8539 4426 4903 4645 
8540 4461 4791 4313 
8541 4791 4793 4487 
8542 4105 4853 4826 
8543 4066 4828 4811 
8544 4139 4803 4752 
8545 4064 4792 419 
8546 4514 4897 4851 
8547 4440 4802 4795 
8548 4489 4797 4490 
8549 4189 4789 4787 
8550 4077 4786 4710 
8551 4461 4793 4791 
8552 4824 4866 4310 
8553 4501 4884 4823 
8554 4682 4846 4462 
8555 4429 4870 4703 
8556 4657 4784 4500 
8557 4424 4801 4539 
8558 4086 4800 374 
8559 4784 4798 4500 
8560 4834 4859 4067 
8561 4487 4793 4636 
8562 4646 4898 4713 
8563 4412 4797 4297 
8564 4488 4802 4440 
8565 4500 4798 4526 
8566 4795 4802 4319 
8567 4770 4904 4685 
8568 4066 4854 4794 
8569 4769 4850 4488 
8570 4818 4899 4518 
8571 4103 4850 4769 
8572 4611 4836 4072 
8573 4745 4903 4426 
8574 4653 4795 4319 
8575 446 4805 4088 
8576 4651 4815 4629 
8577 4354 4804 4353 
8578 4319 4802 4443 
8579 4547 4804 4546 
8580 4633 4815 4754 
8581 4702 4889 4746 
8582 4072 4806 444 
8583 4622 4897 4624 
8584 4669 4892 4418 
8585 4752 4803 4463 
8586 4613 4877 4234 
8587 4528 4809 4470 
8588 4466 4831 4464 
8589 4075 4898 4833 
8590 4512 4873 4677 
8591 4347 4851 4773 
8592 4699 4852 4790 
8593 4531 4869 436 
8594 4726 4803 4139 
8595 4748 4813 4068 
8596 4446 4813 4444 
8597 4515 4900 4664 
8598 4561 4810 4559 
8599 4785 4882 4495 
8600 4307 4830 4309 
8601 4341 4807 4437 
8602 4674 4852 4736 
8603 4439 4830 4307 
8604 4077 4885 4786 
8605 4717 4829 4074 
8606 413 4811 414 
8607 4064 4865 4792 
8608 4109 4823 4621 
8609 4085 4835 4705 
8610 330 4812 331 
8611 4496 4883 4497 
8612 4089 4884 4582 
8613 4438 4808 4672 
8614 4520 4887 4718 
8615 4703 4870 4775 
8616 4435 4842 4624 
8617 4584 4816 4480 
8618 421 4814 4063 
8619 4830 4840 4309 
8620 4444 4813 4748 
8621 4309 4840 4431 
8622 4713 4898 4075 
8623 4854 4859 4513 
8624 4269 4827 4274 
8625 4647 4903 4106 
8626 4544 4878 4732 
8627 370 4820 371 
8628 4111 4844 4567 
8629 4438 4817 4808 
8630 4074 4871 4716 
8631 4475 4824 4510 
8632 4459 4818 4458 
8633 4502 4825 4366 
8634 4493 4828 4454 
8635 4069 4816 4551 
8636 4840 4857 4431 
8637 4754 4815 4509 
8638 4582 4884 4501 
8639 4698 4902 4640 
8640 4505 4822 4461 
8641 4549 4867 4799 
8642 4676 4817 4438 
8643 4546 4886 4796 
8644 4706 4847 4098 
8645 4672 4819 4442 
8646 4808 4819 4672 
8647 4530 4864 4707 
8648 4462 4821 4676 
8649 4819 4826 4442 
8650 4675 4901 4099 
8651 4082 4904 4770 
8652 4234 4877 4586 
8653 4513 4834 4485 
8654 4442 4826 4665 
8655 364 4832 365 
8656 4579 4842 4578 
8657 4586 4895 4229 
8658 4832 4904 4082 
8659 4467 4836 4469 
8660 4743 4823 4109 
8661 346 4833 347 
8662 4676 4821 4817 
8663 4073 4897 4622 
8664 4350 4839 4349 
8665 4061 4831 4544 
8666 4253 4880 4572 
8667 411 4859 4854 
8668 4703 4889 4702 
8669 4498 4864 4530 
8670 4093 4843 323 
8671 4567 4844 392 
8672 4094 4899 4818 
8673 4711 4846 4078 
8674 4492 4848 4772 
8675 394 4837 395 
8676 4101 4864 4749 
8677 4749 4864 4498 
8678 4476 4823 4743 
8679 4502 4840 4830 
8680 380 4872 4780 
8681 328 4845 329 
8682 4638 4840 4502 
8683 4514 4851 4347 
8684 320 4863 4112 
8685 4641 4857 4639 
8686 4461 4822 4793 
8687 4447 4838 4474 
8688 4823 4884 4621 
8689 4786 4850 4710 
8690 4813 4849 4068 
8691 4675 4890 4674 
8692 4474 4896 4880 
8693 4638 4857 4840 
8694 336 4856 337 
8695 4779 4883 4496 
8696 4106 4903 4745 
8697 393 4844 4111 
8698 4359 4886 4357 
8699 4068 4849 407 
8700 411 4854 412 
8701 4562 4847 4478 
8702 4826 4853 4665 
8703 4071 4883 4779 
8704 4301 4861 4299 
8705 321 4860 322 
8706 441 4868 442 
8707 4782 4879 4067 
8708 4829 4900 4515 
8709 4710 4850 4103 
8710 4340 4874 4338 
8711 410 4859 411 
8712 4479 4858 4465 
8713 4639 4857 4638 
8714 4674 4890 4852 
8715 4745 4829 4717 
8716 4510 4878 4466 
8717 4113 4872 379 
8718 4549 4865 4064 
8719 4682 4893 4846 
8720 4665 4853 4473 
8721 4880 4896 4572 
8722 4694 4901 4675 
8723 4775 4870 4085 
8724 4743 4887 4520 
8725 4532 4879 4451 
8726 4572 4896 4242 
8727 4060 4876 4542 
8728 4548 4867 4549 
8729 4811 4828 4493 
8730 4418 4892 4360 
8731 368 4875 369 
8732 4650 4866 4613 
8733 4078 4893 4691 
8734 4853 4871 4473 
8735 4767 4863 450 
8736 4621 4884 4089 
8737 4707 4864 4101 
8738 376 4899 4094 
8739 4825 4830 4439 
8740 4751 4890 4675 
8741 4794 4854 4513 
8742 4478 4847 4770 
8743 4833 4898 4647 
8744 4772 4848 4690 
8745 4736 4852 4699 
8746 4516 4870 4429 
8747 4624 4897 4514 
8748 4473 4871 4515 
8749 4705 4835 4760 
8750 4858 4877 4613 
8751 4877 4895 4586 
8752 4770 4847 4706 
8753 401 4891 402 
8754 4110 4855 4568 
8755 4437 4881 4414 
8756 4760 4841 4096 
8757 4677 4873 4505 
8758 4628 4862 4746 
8759 4526 4888 4499 
8760 4474 4880 4525 
8761 4709 4885 4077 
8762 4645 4903 4647 
8763 4647 4898 4646 
8764 4718 4887 4113 
8765 4685 4904 4686 
8766 4780 4872 4113 
8767 4658 4895 4479 
8768 4479 4895 4877 
8769 4664 4900 4426 
8770 4824 4876 4510 
8771 4732 4878 4510 
8772 4426 4900 4745 
8773 4746 4889 4093 
8774 4742 4882 4070 
8775 4821 4846 4711 
8776 437 4869 4777 
8777 4786 4894 4850 
8778 4502 4830 4825 
8779 4112 4863 4767 
8780 4443 4894 4786 
8781 4081 4890 4751 
8782 4070 4882 4785 
8783 4513 4859 4834 
8784 4462 4846 4821 
8785 4686 4904 4832 
8786 4777 4869 4531 
8787 4796 4886 4359 
8788 4802 4894 4443 
8789 4852 4890 4081 
8790 4475 4866 4824 
8791 4488 4894 4802 
8792 4846 4893 4078 
8793 4850 4894 4488 
8794 4093 4889 4843 
8795 4838 4896 4474 
8796 4745 4900 4829 
8797 4479 4877 4858 
8798 4843 4889 4703 
$EndElements
