$MeshFormat
4.1 0 8
$EndMeshFormat
$PhysicalNames
19
1 1 "r1"
1 2 "ground"
1 3 "flare"
1 4 "pipewall"
1 5 "x2"
1 6 "symmetry"
1 7 "r2"
1 8 "symmetry2"
1 9 "ground2"
1 11 "r3"
1 12 "ground3"
1 14 "symmetry3"
1 15 "r4"
1 16 "ground4"
1 18 "symmetry4"
2 7 "domain1"
2 10 "domain2"
2 15 "domain3"
2 19 "domain4"
$EndPhysicalNames
$Entities
24 38 9 0
1 0 488.8888888888888 0 0 
2 0 0 0 0 
3 457.3432961439855 -172.769948634498 0 0 
4 122.3606797749979 -5.278640450004204 0 0 
5 100 -50 0 0 
6 50 -50 0 0 
7 50 -150 0 0 
8 0 -150 0 0 
9 0 1222.222222222222 0 0 
10 1114.634330649659 -501.415465887335 0 0 
11 0 2100 0 0 
12 1900.125308262818 -894.1609546939143 0 0 
13 0 2666.666666666667 0 0 
14 2407.080556173249 -1147.63857864913 0 0 
15 0 3111.111111111111 0 0 
16 2804.663660498559 -1346.430130811784 0 0 
17 0 3600 0 0 
18 3241.987987399283 -1565.092294262146 0 0 
19 0 4000 0 0 
20 3599.78992435832 -1743.993262741665 0 0 
21 0 4800 0 0 
22 4315.378266508133 -2101.787433816572 0 0 
23 0 10000 0 0 
24 8966.520785676501 -4427.358693400755 0 0 
1 0 -172.769948634498 0 487.7544968055191 488.8888888888887 0 0 2 1 -3 
2 122.3606797749979 -172.769948634498 0 457.3432961439855 -5.278640450004218 0 0 2 3 -4 
3 49.99999999999999 -50.00000000000001 0 122.3606797749979 -0.00333442290281738 0 0 2 4 -6 
4 50 -150 0 50 -50 0 0 2 6 -7 
5 0 -150 0 50 -150 0 0 2 7 -8 
6 0 -150 0 0 488.8888888888888 0 0 2 8 -1 
7 0 -501.415465887335 0 1221.970940956613 1222.222222222222 0 0 2 9 -10 
8 0 488.8888888888888 0 0 1222.222222222222 0 0 2 1 -9 
9 457.3432961439855 -501.415465887335 0 1114.634330649659 -172.769948634498 0 0 2 10 -3 
10 -2.842170943040401e-14 -172.7699486344979 0 487.754496805519 488.8888888888887 0 0 2 3 -1 
11 0 -894.1609546939143 0 2099.94897105561 2100 0 0 2 11 -12 
12 1114.634330649659 -894.1609546939143 0 1900.125308262818 -501.415465887335 0 0 2 12 -10 
13 1.13686837721616e-13 -501.415465887335 0 1221.970940956613 1222.222222222223 0 0 2 10 -9 
14 0 1222.222222222222 0 0 2100 0 0 2 9 -11 
15 0 -1147.638578649129 0 2666.654383170227 2666.666666666667 0 1 15 2 13 -14 
16 1900.125308262818 -1147.63857864913 0 2407.080556173249 -894.1609546939143 0 1 16 2 14 -12 
17 1.591615728102624e-12 -894.1609546939146 0 2099.94897105561 2100 0 1 11 2 12 -11 
18 0 2100 0 0 2666.666666666667 0 1 18 2 11 -13 
19 0 -1346.430130811785 0 3111.109702544029 3111.111111111111 0 0 2 15 -16 
20 2407.080556173249 -1346.430130811784 0 2804.663660498559 -1147.63857864913 0 0 2 16 -14 
21 6.821210263296962e-13 -1147.63857864913 0 2666.654383170227 2666.666666666667 0 0 2 14 -13 
22 0 2666.666666666667 0 0 3111.111111111111 0 0 2 13 -15 
23 0 -1565.092294262146 0 3599.998997894867 3600 0 0 2 17 -18 
24 2804.663660498559 -1565.092294262146 0 3241.987987399283 -1346.430130811784 0 0 2 18 -16 
25 9.094947017729282e-13 -1346.430130811784 0 3111.10970254403 3111.111111111111 0 0 2 16 -15 
26 0 3111.111111111111 0 0 3600 0 0 2 15 -17 
27 0 -1743.993262741665 0 3999.993327934862 4000 0 0 2 19 -20 
28 3241.987987399283 -1743.993262741665 0 3599.78992435832 -1565.092294262146 0 0 2 20 -18 
29 2.273736754432321e-13 -1565.092294262146 0 3599.998997894867 3600 0 0 2 18 -17 
30 0 3600 0 0 4000 0 0 2 17 -19 
31 0 -2101.787433816573 0 4799.971484377824 4800 0 0 2 21 -22 
32 3599.78992435832 -2101.787433816572 0 4315.378266508133 -1743.993262741665 0 0 2 22 -20 
33 9.094947017729282e-13 -1743.993262741665 0 3999.99332793486 3999.999999999999 0 0 2 20 -19 
34 0 4000 0 0 4800 0 0 2 19 -21 
35 0 -4427.358693400756 0 9999.706619488945 10000 0 0 2 23 -24 
36 4315.378266508133 -4427.358693400755 0 8966.520785676501 -2101.787433816572 0 0 2 24 -22 
37 -4.547473508864641e-13 -2101.787433816573 0 4799.971484377825 4800 0 0 2 22 -21 
38 0 4800 0 0 10000 0 0 2 21 -23 
2 0 -172.769948634498 0 487.7544968055191 488.8888888888888 0 0 6 -2 -1 -6 -5 -4 -3 
3 0 -501.4154658873351 0 1221.970940956613 1222.222222222222 0 0 4 -10 -9 -7 -8 
4 0 -894.1609546939144 0 2099.94897105561 2100 0 0 4 -14 -13 -12 -11 
5 0 -1147.63857864913 0 2666.654383170227 2666.666666666667 0 1 19 4 -18 -17 -16 -15 
6 0 -1346.430130811785 0 3111.109702544029 3111.111111111111 0 0 4 -22 -21 -20 -19 
7 0 -1565.092294262146 0 3599.998997894867 3600 0 0 4 -26 -25 -24 -23 
8 0 -1743.993262741665 0 3999.993327934862 4000 0 0 4 -30 -29 -28 -27 
9 0 -2101.787433816573 0 4799.971484377824 4800 0 0 4 -34 -33 -32 -31 
10 0 -4427.358693400756 0 9999.706619488945 10000 0 0 4 -38 -37 -36 -35 
$EndEntities
$Nodes
9 766 11 5514
0 11 0 1
11
0 2100 0
0 12 0 1
12
1900.125308262818 -894.1609546939143 0
0 13 0 1
13
0 2666.666666666667 0
0 14 0 1
14
2407.080556173249 -1147.63857864913 0
1 15 0 76
451
452
453
454
455
456
457
458
459
460
461
462
463
464
465
466
467
468
469
470
471
472
473
474
475
476
477
478
479
480
481
482
483
484
485
486
487
488
489
490
491
492
493
494
495
496
497
498
499
500
501
502
503
504
505
506
507
508
509
510
511
512
513
514
515
516
517
518
519
520
521
522
523
524
525
526
69.79957179000962 2665.753013857256 0
139.5513141217422 2663.012681501537 0
209.2074303660338 2658.447547383764 0
278.7201894067885 2652.060739713205 0
348.0419583449286 2643.856634982793 0
417.1252352360165 2633.84085495696 0
485.9226813640823 2622.020262859738 0
554.3871540113926 2608.4029586278 0
622.4717386483995 2592.998273369103 0
690.1297809950585 2575.81676298894 0
757.3149190803131 2556.870200938931 0
823.9811150318086 2536.171570139143 0
890.0826864468802 2513.735054137292 0
955.5743379570852 2489.576027308463 0
1020.411192084374 2463.711044375955 0
1084.548820059948 2436.15782904509 0
1147.943272219155 2406.935261879283 0
1210.551108117777 2376.063367367531 0
1272.329426406324 2343.563300150364 0
1333.235894155113 2309.457330553549 0
1393.228775925879 2273.768829288322 0
1452.266962148161 2236.522251569177 0
1510.309997660298 2197.743120129935 0
1567.31810885264 2157.458008113645 0
1623.252231615885 2115.694520403444 0
1678.074037672947 2072.481274993606 0
1731.7459608636 2027.847883383691 0
1784.231223135642 1981.824930083129 0
1835.493859577057 1934.443951776848 0
1885.498742892504 1885.737415883213 0
1934.21160774742 1835.738698063058 0
1981.599074294774 1784.482059272439 0
2027.628670628909 1732.00262273322 0
2072.268855471181 1678.336349411306 0
2115.489039594943 1623.520013570752 0
2157.259606849707 1567.591177496786 0
2197.551934431514 1510.588165777629 0
2236.338412350555 1452.550039260785 0
2273.592462374708 1393.516568306248 0
2309.288556669067 1333.528204856729 0
2343.402235004522 1272.626055087245 0
2375.910121340502 1210.851851558592 0
2406.789939960157 1148.24792445608 0
2436.020530764657 1084.857172536638 0
2463.581863915763 1020.723033391745 0
2489.455053206475 955.8894544746568 0
2513.622369339001 890.4008622354861 0
2536.067251927697 824.3021319947003 0
2556.774320808503 757.6385573380782 0
2575.729386682178 690.4558187842003 0
2592.919460815339 622.799952501765 0
2608.332763867857 554.7173190414866 0
2621.958734028391 486.2545713547051 0
2633.788034248439 417.4586228129132 0
2643.812558633338 348.3766150644329 0
2652.025437977686 279.0558858550935 0
2658.421044490859 209.5439364888443 0
2662.994995648119 139.8883993195531 0
2665.74415719664 70.13700509063528 0
2666.66664530289 0.337550208601032 0
2665.761827841377 -69.46213598006317 0
2663.030324828485 -139.2142239679624 0
2658.474007998402 -208.8709168554244 0
2652.095999520138 -278.3844831171266 0
2643.900669858225 -347.7072893028569 0
2633.893634769842 -416.7918327295072 0
2622.081751479145 -485.5907738736104 0
2608.47311395351 -554.0569689957774 0
2593.077047383615 -622.1435022913797 0
2575.904101756108 -689.8037182178485 0
2556.966044622563 -756.9912534226253 0
2536.275853133071 -823.6600681866404 0
2513.847705001677 -889.7644784823196 0
2489.696968872048 -955.2591869751614 0
2463.840193808138 -1020.099314031035 0
2436.295097927139 -1084.240428561535 0
1 16 0 8
527
528
529
530
531
532
533
534
2350.752195294232 -1119.474398209621 0
2294.423834415409 -1091.31021777021 0
2238.095473536439 -1063.146037330725 0
2181.767112657943 -1034.981856891476 0
2125.438751779315 -1006.817676452162 0
2069.110390900138 -978.6534960125741 0
2012.782030021058 -950.4893155730342 0
1956.45366914187 -922.3251351334404 0
1 17 0 60
535
536
537
538
539
540
541
542
543
544
545
546
547
548
549
550
551
552
553
554
555
556
557
558
559
560
561
562
563
564
565
566
567
568
569
570
571
572
573
574
575
576
577
578
579
580
581
582
583
584
585
586
587
588
589
590
591
592
593
594
1928.560482378595 -831.0562350452828 0
1954.900582078012 -767.0487039237144 0
1979.116992625495 -702.2078962109556 0
2001.183406426307 -636.6042521410001 0
2021.075852418779 -570.3090379519737 0
2038.772720464995 -503.3942731972256 0
2054.254785631726 -435.9326504279632 0
2067.505228846102 -367.9974574559247 0
2078.509656106264 -299.6624926029644 0
2087.256112647566 -231.0019917995714 0
2093.735096799682 -162.0905439229175 0
2097.939570111911 -93.00301155688385 0
2099.864965231886 -23.81444502167915 0
2099.509190432842 45.39999215896034 0
2096.87263224001 114.5651088370738 0
2091.958154942262 183.6057678031048 0
2084.771097138683 252.4469697484416 0
2075.319266514311 321.0139281004823 0
2063.612931031938 389.232155503335 0
2049.664807772733 457.0275437847977 0
2033.490049010225 524.3264446662931 0
2015.106226130449 591.0557481408174 0
1994.533310694764 657.1429620173878 0
1971.793651396346 722.5162948425921 0
1946.911951005977 787.1047293912685 0
1919.915239931183 850.838099452528 0
1890.83284607215 913.6471683394499 0
1859.696362123306 975.4637054782426 0
1826.53961342657 1036.220555954916 0
1791.398619575491 1095.851717059852 0
1754.311556110061 1154.292408403823 0
1715.318711767894 1211.47914429384 0
1674.462445074823 1267.349801765103 0
1631.78714096357 1321.843684626113 0
1587.339159889254 1374.901593381169 0
1541.166785992844 1426.465890847899 0
1493.320179413388 1476.480559220733 0
1443.851318271817 1524.891265213602 0
1392.81394203216 1571.645418941829 0
1340.263494155789 1616.692229904417 0
1286.257061967511 1659.982762120953 0
1230.853316414504 1701.469986062469 0
1174.112444046695 1741.108833110296 0
1116.096084437125 1778.856242169142 0
1056.867264458746 1814.671205842945 0
996.4903263705528 1848.51481721135 0
935.0308598369872 1880.350310753958 0
872.5556297137514 1910.143102768701 0
809.1325061055147 1937.860827707555 0
744.8303898605006 1963.473373983018 0
679.7191323800668 1986.952918686422 0
613.8694679787149 2008.273954490156 0
547.3529332502908 2027.413319099562 0
480.2417864041637 2044.350221119498 0
412.6089331554167 2059.066261265128 0
344.5278458696197 2071.545452897532 0
276.0724831471105 2081.774239452729 0
207.3172090423149 2089.741509095062 0
138.336719467886 2095.438606126857 0
69.20595037272767 2098.859341745656 0
1 18 0 8
595
596
597
598
599
600
601
602
0 2162.962962963269 0
0 2225.925925925738 0
0 2288.888888888208 0
0 2351.851851850678 0
0 2414.814814813424 0
0 2477.777777776712 0
0 2540.74074074004 0
0 2603.703703703378 0
2 5 0 610
4905
4906
4907
4908
4909
4910
4911
4912
4913
4914
4915
4916
4917
4918
4919
4920
4921
4922
4923
4924
4925
4926
4927
4928
4929
4930
4931
4932
4933
4934
4935
4936
4937
4938
4939
4940
4941
4942
4943
4944
4945
4946
4947
4948
4949
4950
4951
4952
4953
4954
4955
4956
4957
4958
4959
4960
4961
4962
4963
4964
4965
4966
4967
4968
4969
4970
4971
4972
4973
4974
4975
4976
4977
4978
4979
4980
4981
4982
4983
4984
4985
4986
4987
4988
4989
4990
4991
4992
4993
4994
4995
4996
4997
4998
4999
5000
5001
5002
5003
5004
5005
5006
5007
5008
5009
5010
5011
5012
5013
5014
5015
5016
5017
5018
5019
5020
5021
5022
5023
5024
5025
5026
5027
5028
5029
5030
5031
5032
5033
5034
5035
5036
5037
5038
5039
5040
5041
5042
5043
5044
5045
5046
5047
5048
5049
5050
5051
5052
5053
5054
5055
5056
5057
5058
5059
5060
5061
5062
5063
5064
5065
5066
5067
5068
5069
5070
5071
5072
5073
5074
5075
5076
5077
5078
5079
5080
5081
5082
5083
5084
5085
5086
5087
5088
5089
5090
5091
5092
5093
5094
5095
5096
5097
5098
5099
5100
5101
5102
5103
5104
5105
5106
5107
5108
5109
5110
5111
5112
5113
5114
5115
5116
5117
5118
5119
5120
5121
5122
5123
5124
5125
5126
5127
5128
5129
5130
5131
5132
5133
5134
5135
5136
5137
5138
5139
5140
5141
5142
5143
5144
5145
5146
5147
5148
5149
5150
5151
5152
5153
5154
5155
5156
5157
5158
5159
5160
5161
5162
5163
5164
5165
5166
5167
5168
5169
5170
5171
5172
5173
5174
5175
5176
5177
5178
5179
5180
5181
5182
5183
5184
5185
5186
5187
5188
5189
5190
5191
5192
5193
5194
5195
5196
5197
5198
5199
5200
5201
5202
5203
5204
5205
5206
5207
5208
5209
5210
5211
5212
5213
5214
5215
5216
5217
5218
5219
5220
5221
5222
5223
5224
5225
5226
5227
5228
5229
5230
5231
5232
5233
5234
5235
5236
5237
5238
5239
5240
5241
5242
5243
5244
5245
5246
5247
5248
5249
5250
5251
5252
5253
5254
5255
5256
5257
5258
5259
5260
5261
5262
5263
5264
5265
5266
5267
5268
5269
5270
5271
5272
5273
5274
5275
5276
5277
5278
5279
5280
5281
5282
5283
5284
5285
5286
5287
5288
5289
5290
5291
5292
5293
5294
5295
5296
5297
5298
5299
5300
5301
5302
5303
5304
5305
5306
5307
5308
5309
5310
5311
5312
5313
5314
5315
5316
5317
5318
5319
5320
5321
5322
5323
5324
5325
5326
5327
5328
5329
5330
5331
5332
5333
5334
5335
5336
5337
5338
5339
5340
5341
5342
5343
5344
5345
5346
5347
5348
5349
5350
5351
5352
5353
5354
5355
5356
5357
5358
5359
5360
5361
5362
5363
5364
5365
5366
5367
5368
5369
5370
5371
5372
5373
5374
5375
5376
5377
5378
5379
5380
5381
5382
5383
5384
5385
5386
5387
5388
5389
5390
5391
5392
5393
5394
5395
5396
5397
5398
5399
5400
5401
5402
5403
5404
5405
5406
5407
5408
5409
5410
5411
5412
5413
5414
5415
5416
5417
5418
5419
5420
5421
5422
5423
5424
5425
5426
5427
5428
5429
5430
5431
5432
5433
5434
5435
5436
5437
5438
5439
5440
5441
5442
5443
5444
5445
5446
5447
5448
5449
5450
5451
5452
5453
5454
5455
5456
5457
5458
5459
5460
5461
5462
5463
5464
5465
5466
5467
5468
5469
5470
5471
5472
5473
5474
5475
5476
5477
5478
5479
5480
5481
5482
5483
5484
5485
5486
5487
5488
5489
5490
5491
5492
5493
5494
5495
5496
5497
5498
5499
5500
5501
5502
5503
5504
5505
5506
5507
5508
5509
5510
5511
5512
5513
5514
2046.677338993355 -688.9631440940191 0
306.7626883734808 2597.249814676759 0
2127.687357187416 364.2400985373199 0
1051.289856491427 1880.582482387309 0
799.5389494439371 2004.473859526971 0
2062.549485916862 636.2568026737509 0
2156.539432816912 79.83819385324365 0
1295.034269976007 1730.04942660383 0
526.3461056441926 2096.450431440072 0
1961.852525387354 913.3835824539688 0
2148.726111787246 -201.4050915068835 0
1514.001097756958 1543.352771426915 0
1822.85199388238 1156.771427660329 0
2105.393236340529 -484.1364492830421 0
1699.910460294294 1330.597629896047 0
1966.168200072915 1722.338029326863 0
2570.42858380329 -438.4312663583937 0
2276.505257588951 1280.380045174217 0
1707.972384914349 1960.325171647693 0
2598.178193391555 -110.5190156903776 0
2416.347868313085 965.9420392613589 0
769.8473110997635 2489.583221637669 0
1458.639969164132 2162.448236010612 0
2590.534005611565 243.6652801710018 0
2529.667473123144 644.0312652812546 0
1090.938560622724 2366.645339460559 0
513.1873883750264 2561.407318637805 0
2517.218018910567 -708.8972404049988 0
2128.039714454571 1504.195492412615 0
2171.945308811774 -975.394875457415 0
320.1841668432189 2138.095822910776 0
1271.884980440152 2273.836216294377 0
2566.282081321753 446.2808295115266 0
58.12195272764355 2379.987508907629 0
1610.418740790804 1438.639452176993 0
2131.476820546216 -343.0354231033771 0
1894.131158848787 1034.906226775382 0
2157.379128817874 -61.3405276948158 0
1407.998617649632 1639.538034973349 0
665.8556513785119 2051.016716467444 0
2149.231199471459 220.3243030513258 0
2013.222619212131 779.6730800128305 0
1177.502402721897 1807.192158867884 0
2100.396156579704 505.9255313685985 0
928.0394646351882 1950.762000954478 0
2447.427901528744 -907.9357485966799 0
175.6218090760207 2158.138221059519 0
2541.058390704313 -573.1537651216456 0
641.587675834679 2530.494401308549 0
959.5291731540007 2416.407178689293 0
2478.712330388496 779.5990154477396 0
2608.410981685945 102.3522253779787 0
1554.970114421614 2084.721609881541 0
2377.681158499683 1081.332988434066 0
2603.196216750457 -230.9880868911625 0
1821.968249260174 1858.937661694573 0
2203.840951944514 1390.770350133165 0
2051.766967427501 1616.531301540608 0
170.589648147455 2592.978416384564 0
2063.363252713982 -924.8739232935992 0
2292.181130316009 -1033.765206888927 0
59.69096913454865 2261.408473517858 0
53.4475053211689 2514.324125041853 0
1998.78785570189 -825.7752151740791 0
2400.776724766581 -1037.503551762134 0
2023.381339576868 -756.357451998288 0
2091.401589809331 -742.6932978042695 0
2113.144862711122 -676.6444288978115 0
2158.423986836107 -730.4832473912933 0
2180.613167411129 -664.9370164493054 0
2225.435498653725 -719.2573324826603 0
2248.47715260411 -654.1480541747843 0
2292.364900759115 -708.2071253912309 0
2268.805181438654 -772.4682351788505 0
2316.668695492223 -644.0457356857802 0
2271.317495828482 -588.4567517920124 0
2339.974937717216 -578.7553247214042 0
2294.322062342439 -523.665637176024 0
2364.369941152092 -514.2829419791695 0
2320.196446587406 -460.6896270739185 0
2389.155752916806 -450.0165258176878 0
2346.578968588255 -397.147702527355 0
2413.742478280841 -385.6903696928504 0
2371.828344191082 -332.7207994083407 0
2334.762580792626 -760.8018952998787 0
2310.157395569109 -823.3021782719297 0
2439.803843557128 -320.896297685674 0
2396.412665833751 -267.3518754605782 0
2329.651058845245 -280.0278313924295 0
2355.152020151128 -214.8188127792425 0
2421.571495768407 -201.9984589199593 0
2379.325690281906 -149.2239461439983 0
2315.773403555444 -163.2049809965411 0
2334.834574975287 -95.71386123168999 0
2402.09519059159 -83.52124833782034 0
2357.088472707852 -31.34832614750017 0
2425.895531141674 -18.40862468219566 0
2381.824115074623 35.20547029714776 0
2449.21704245612 46.69229575436756 0
2405.721941216628 100.5983345938337 0
2337.922817332925 89.84520215518495 0
2360.469987272826 155.7799669685064 0
2429.353520371988 166.0584301601561 0
2386.5542879025 220.2524954096404 0
2320.313732551494 209.6668262750642 0
2344.469943128257 274.3834468107004 0
2410.890538047256 284.7895357392137 0
2367.308420105446 338.4596902659038 0
2301.625594697097 327.6663542103661 0
2322.850472796976 392.5910753782103 0
2390.325409280576 402.9288426427147 0
2347.987865569328 457.2243688654846 0
2281.868527097049 447.6880677371603 0
2305.211502556156 510.8216060189815 0
2371.89981209046 521.8890207436052 0
2327.395525915742 575.3583079205085 0
2260.544893558163 563.3473541930732 0
2281.137521539838 627.7251387083865 0
2350.364354231031 640.2208261356055 0
2305.679344422125 693.5240420340767 0
2235.399582498251 681.5918942887193 0
2261.523212241026 747.6196444510828 0
2192.871772426998 737.0150343209234 0
2217.953849749013 801.7775758033914 0
2286.658971595523 813.2613981105828 0
2242.70213150129 867.3482798817951 0
2174.645743957644 855.615354890465 0
2198.607703144592 920.9738774620802 0
2131.371462130576 908.9208008222985 0
2154.038337665439 974.1849373512579 0
2222.378068228869 986.8082397716237 0
2177.614128932908 1039.950206807124 0
2108.319422661261 1027.768798384003 0
2133.434236352559 1092.960887756284 0
2066.178235714027 1082.983586887409 0
2090.643361103687 1148.401829153534 0
2026.498657505501 1144.634522607732 0
2046.887203971907 1201.749620405041 0
2201.379767436362 1104.801498266652 0
2113.634113533682 1210.857729567643 0
2069.193878054039 1264.654514772089 0
2000.45174690063 1253.108976709716 0
2024.441840273782 1317.499025247972 0
1955.283515757565 1302.880899097812 0
1980.234901105275 1371.073027817004 0
1910.850564942506 1358.84215448587 0
1935.146198610502 1424.838079130662 0
1865.618690351874 1413.545727792905 0
1889.869444676527 1478.390238934886 0
1820.976592194322 1467.895719181858 0
1844.997461277572 1531.621219023521 0
1777.326262523087 1521.736030378368 0
1800.857273736598 1584.558260575852 0
1733.990924699589 1574.276531669065 0
1757.798646203787 1637.835322183289 0
1693.922712230652 1626.596320921108 0
1714.18284326764 1691.422496684454 0
1642.084639479234 1676.440991790276 0
1670.271666163263 1745.800082718723 0
1603.269727029591 1736.769104834808 0
1624.624357691031 1800.525585498606 0
1558.350536938454 1789.082591714661 0
1579.611252153105 1853.243570621392 0
1513.33696656503 1842.922422028721 0
1535.365359011189 1906.144081150524 0
1468.49004571073 1896.055772773536 0
1780.401017246584 1702.507648413626 0
1445.493231520009 1832.392919387484 0
1400.852894932334 1885.602095489552 0
1424.106135102979 1949.414603057207 0
1357.111242954945 1938.757025173705 0
1379.535418585394 2002.581781508616 0
1312.192227111439 1991.433497709057 0
1334.915868491581 2056.11999166139 0
1267.502418376057 2044.311922283163 0
1245.291021100637 1978.593205086103 0
1199.625473040256 2032.803844911572 0
1222.723446061321 2097.723146306574 0
1154.932933160249 2086.820925877812 0
1179.243534650527 2152.599432169131 0
1110.129675394353 2140.68258691108 0
1086.512787207185 2075.543660033057 0
1041.687800255658 2128.823158860047 0
1064.819348608476 2194.020621679826 0
996.8719639536462 2182.116895206816 0
974.3811859665407 2118.099204350926 0
928.7687785144187 2169.356978362483 0
951.8502087936795 2234.881351223692 0
883.8307095562861 2223.641005436828 0
860.5171990642835 2160.088915570503 0
814.0543001097685 2212.047039894905 0
838.9901379927792 2276.975472160509 0
770.3006943693824 2265.93724101108 0
746.0373923332751 2203.134966747351 0
701.9129320769289 2255.19764188081 0
726.1925603094689 2318.402321943807 0
657.839586918371 2307.219617118873 0
633.6927910262117 2243.588860258554 0
589.2799798196138 2295.593849968942 0
613.1448877836558 2359.641052956593 0
544.3983102119047 2347.899304679734 0
520.9460014490426 2283.688816570057 0
476.1910215546955 2336.005278717018 0
452.4574152301827 2271.736927365396 0
408.1503562758195 2324.593718556456 0
431.9541293343195 2388.063007138952 0
364.174736914339 2376.944602899104 0
340.4233048056179 2313.624883029071 0
296.3467819900239 2365.452717481794 0
273.4166425057142 2302.533089750258 0
227.528744068717 2353.293110935564 0
250.7237465757311 2416.8442452463 0
388.1006409650263 2439.896101050917 0
2245.865744012876 -834.2420484691474 0
1334.613126218576 1875.82520862996 0
2279.329014710028 -408.5255498803159 0
205.639256970235 2290.492441855522 0
1884.104671761628 1288.581340516107 0
1534.891907067541 1720.661748641173 0
1957.531902893288 1489.335566023228 0
1866.946175049529 1593.928447986297 0
175.450567527229 2405.783922957854 0
2137.654809355195 -794.1592851133408 0
2493.885635480328 -6.976546368253245 0
568.0094560080615 2411.888704833666 0
2285.930566663993 -883.6462696291222 0
2051.077424879138 1383.064213691428 0
1177.734306075649 1968.385609249857 0
2384.265185915872 -633.0703693349848 0
208.5188251192809 2468.756235622571 0
1751.560295757481 1458.199810967756 0
2311.922352670292 879.6853391917135 0
2355.38379895294 824.5380403197996 0
1665.962115226643 1562.749894785179 0
2224.439482190016 -530.8407102815884 0
1690.678068366113 1813.570755471764 0
2134.372868711218 -608.9922923820909 0
2282.837897796324 -47.50420108394339 0
2032.885073959227 1015.558620849519 0
2138.28124702068 1273.111629774322 0
1447.88651357453 2014.90806416637 0
2374.56970954486 704.6825954903301 0
248.0783369120373 2243.179594934105 0
2433.863752391246 -503.9590541938176 0
497.6929838305517 2219.246091074001 0
428.0121009061718 2206.609609169795 0
1600.527774327428 1915.460458914883 0
1246.949807336687 2161.147478736342 0
275.2122597597107 2478.748920735013 0
455.8635051399419 2450.32677070954 0
412.7611946578182 2503.928918735668 0
1223.705441790228 1907.879752189931 0
1557.482646904247 1968.327743647539 0
2181.025220549133 1219.284899455571 0
2376.496697234859 -811.9795743410692 0
2400.987198806205 -750.1034455196967 0
2166.787668438441 674.0813988629874 0
2125.702578654579 726.8347465946672 0
2108.269647595417 844.9450056705866 0
152.6431199467123 2461.798118978923 0
637.35104816173 2422.65745165311 0
2479.069949959122 -375.0676368381124 0
2509.756872714359 -310.5432097960265 0
2416.960414662639 652.4191029657583 0
2067.564027593683 897.3265332554211 0
1210.726017502933 2226.281924679648 0
1627.822200971318 1978.935786687999 0
1152.626693929144 1909.534530233028 0
1112.369263982006 1960.350003035588 0
228.1877045290156 2532.256231270117 0
2513.803819179228 59.39127649229354 0
2555.738918128141 11.63466522270327 0
2225.001073372166 -892.764041572682 0
2451.463923601744 -800.4430882092828 0
2262.466118108631 -938.5776115753101 0
2321.686765362081 -934.3585059416788 0
2381.889332553516 891.6520653905355 0
2337.678113558143 947.8237868753976 0
2424.741981546923 834.1708127352532 0
2357.648479140558 1015.71662165436 0
475.4590869332094 2153.913341196514 0
399.337843576082 2131.676826521577 0
2543.531818685097 -371.6633166456963 0
2540.529723943546 -55.56958072080968 0
182.9909358981479 2227.796524713371 0
137.7059339794311 2276.385361648979 0
118.3376720570587 2213.818900280832 0
96.46184450829954 2325.309739405563 0
120.1927635814999 2375.173255704356 0
2071.343142202956 -807.4191114928717 0
2120.781669327735 -855.4627400234464 0
248.9526175759616 2142.274873922677 0
543.5070542790472 2168.100111804402 0
585.7117987664332 2126.541654648922 0
1742.663939780987 1274.329573713671 0
1769.286182881014 1338.518581861454 0
1812.466172451646 1281.002776925608 0
1655.629679459499 1385.084171259357 0
1680.546501355376 1448.80294941958 0
2086.941370263631 -554.350942636631 0
2154.792406229719 -536.5650992571337 0
2180.056464663709 -462.739949363995 0
1859.641311166573 1095.823846108648 0
1893.002187836267 1157.531086010732 0
1854.835050017738 1220.71394942754 0
1934.823407774271 1224.690111245818 0
1929.594639136305 1092.740855992217 0
1963.974383438331 1033.83776316859 0
2152.929047094391 -132.1192816232478 0
2198.712739751359 -170.438638130113 0
2213.798357886434 -236.9881748047285 0
2221.081635298274 -104.4378769278732 0
1564.017108941666 1492.399130371977 0
1591.14445673597 1565.464796262782 0
1530.14329926833 1608.989112995604 0
1982.851650380955 841.0230639349197 0
2154.046527448233 149.4949190070181 0
2217.001391813806 114.4881119909141 0
2212.615541475593 43.81879570466099 0
2212.476274700027 184.1429467666928 0
2209.664487678318 259.0863046306838 0
2139.760599316761 292.2459494005191 0
2191.890187910377 336.3640923348619 0
2179.85978293322 408.6860492131443 0
1236.871862993077 1770.78753798966 0
1302.401557504074 1809.459601220207 0
1361.835908422623 1753.832258857457 0
1233.622914081979 1838.487986003329 0
2081.942004677599 572.5371603802855 0
2149.561989214095 557.378055831173 0
2173.965966657333 485.207642153685 0
864.5859871851236 1978.327529509688 0
855.1227031433511 2048.006694590649 0
789.469235376725 2070.351619295096 0
917.0825448970273 2021.686960452092 0
988.8151409417042 1996.149655440176 0
2051.535639722144 710.2176609070847 0
2119.713610163697 -413.4402743769994 0
2183.072394854217 -386.4688301684553 0
2196.863160967418 -317.9536396263845 0
1461.859262365568 1592.291738276231 0
1482.347299214514 1665.333826106087 0
1418.267849398969 1706.52228497845 0
733.9859735751352 2028.513395606071 0
724.4706411057119 2094.732298518281 0
1783.897535544519 1216.341608534053 0
1925.184853179307 974.9723328686558 0
990.8901773444738 1917.601946879798 0
2290.986034348097 1000.47256163717 0
358.2274958007771 2195.208517774754 0
1588.634086113771 1635.55684303238 0
2182.280404143751 -845.119506077423 0
2245.396754241599 -468.7629337949981 0
2067.232616587401 -622.6440163505874 0
2142.771703323524 -271.6744689073182 0
2157.191340699486 9.956071393735748 0
1352.445335006425 1684.744014246329 0
1839.649879988986 1347.318057973365 0
2442.441101537137 713.6933167183062 0
2202.917244061785 -782.9800782516965 0
2161.628926411499 -910.735437687445 0
383.8864589954348 2260.315832391298 0
2215.003490521851 -24.65548116918257 0
2150.248501166348 790.8507001598992 0
1492.404293466397 1779.636399039647 0
2204.296040634794 609.3955727388532 0
2086.268557014203 961.0241311771489 0
2023.542852636868 942.3841718316152 0
1291.486338989642 1927.653217413508 0
2315.081632754352 21.85099006786189 0
344.0513002623414 2491.134700580682 0
56.11594014035791 2193.086031537743 0
1132.278263338137 2022.447511358806 0
1062.494816563473 2010.78102504495 0
1019.125368695817 2064.833589573265 0
2305.243873169317 -345.5400256695256 0
2289.103295358507 -227.3688551850562 0
2282.979179518527 148.3817763035668 0
905.1018976478678 2097.218133539228 0
784.6297723810474 2142.435133016797 0
677.4200294099012 2193.138946471003 0
2446.666767338181 -136.0960390743932 0
2491.819447722175 -189.923405191331 0
565.8554254110271 2231.85375305289 0
2454.053764088279 231.1968944942799 0
2478.870142683238 295.8342691026331 0
2495.5954391536 178.1217724571215 0
1019.264968803038 2248.022914294751 0
974.2661604017832 2298.85869261392 0
1085.640828048697 2259.372700460764 0
2416.852613466883 467.1664042915945 0
2439.731376121907 532.9734122771762 0
2457.153336244457 413.0841609458507 0
794.7169289478749 2329.761826710537 0
863.0542578264478 2341.122852745354 0
750.6336888282423 2381.159950698346 0
2523.058656371092 242.1248640969146 0
2544.633166212628 303.1897625419814 0
1041.880032228351 2319.122715827241 0
2494.034714530328 474.8946440493769 0
2502.430490639966 538.4476386340478 0
819.278266413323 2392.543829546983 0
886.2411722607158 2403.397163613049 0
839.197247806339 2461.321003737572 0
2330.822551489495 758.8208460376064 0
2267.37906724188 933.8520141366299 0
1291.02639235672 2109.435141496873 0
1314.855433281515 2173.795115961566 0
1491.688845040242 1960.149752118459 0
1133.907158224943 2207.355098745448 0
2472.896689546509 112.7359728082626 0
2157.264482279375 1157.246531277106 0
2465.861247624918 -255.860441759526 0
2094.553073335787 1328.160863992908 0
2123.022914517107 1391.819524169551 0
2080.328002798856 1453.036279451502 0
2004.352454627563 1436.955504422653 0
1911.839488845326 1541.637213857307 0
1931.291377448238 1602.75043416984 0
1886.414290240598 1653.678620336425 0
1822.710197884973 1646.602128485091 0
1738.061571708025 1758.4724198379 0
1809.585439418196 1771.571128289468 0
2434.237118341051 348.764226307039 0
2396.208092467185 587.0413603998228 0
906.9294967631911 2287.67735271498 0
1644.435003667534 1864.767132776572 0
1706.668834631729 1883.699116270433 0
682.968506580402 2371.581093466661 0
1401.704678744627 2066.108570373642 0
1472.549200880169 2088.020698893609 0
2471.322741152257 -70.56488706134179 0
1358.381841645342 2122.535630547895 0
2456.045135226868 -438.4754799731895 0
2508.367209563547 -492.0844321637156 0
2401.111912243308 769.250771124839 0
2500.888900195408 357.4588665738269 0
1516.802369937779 2026.04824791558 0
929.5417840011655 2350.526982480211 0
2470.897071781334 599.3874923562837 0
1760.006976335098 1828.160195728351 0
1873.984538263632 1812.94259392146 0
1870.801336311771 1754.299217170369 0
712.6492674809447 2440.40616642924 0
1149.714612501438 2275.314520695915 0
2518.863598418227 -122.8172831845786 0
2561.05166314098 -177.6041316085142 0
1976.107567449553 1551.051527171694 0
2021.697523527385 1500.36855989237 0
2348.45038389137 -873.5813812169534 0
2408.376737525891 -568.4603569765605 0
2452.188958162563 -622.0388083524599 0
2224.096984626272 1167.545790740706 0
2270.158002096665 1119.094534492624 0
2294.651447751264 1181.042350342306 0
499.7184027775614 2399.213123973213 0
522.0498319691974 2460.910262916532 0
1795.394299421471 1403.302498525793 0
2572.701789386869 370.737939939959 0
316.0824088449108 2251.025253402129 0
2203.472770959102 -598.7139065651415 0
54.30089377063013 2451.831869949056 0
2261.669949548318 -292.9854190814568 0
319.902095539553 2428.396596068178 0
2420.982332269283 -974.6234551313878 0
2008.154669423274 -893.9613027578816 0
2207.3374283224 1278.925162383744 0
2426.76015496826 -686.1793483207888 0
162.4850930660025 2516.279261474884 0
107.6377732750961 2551.132121221331 0
2359.30145278905 -697.0679865920598 0
2246.176114346802 1053.342721124271 0
591.7359662738241 2480.577783793696 0
2242.070616280982 499.1367257856809 0
1633.813209106186 1504.182977781976 0
2115.398737049203 437.4157805316644 0
367.257533434173 2565.226183509136 0
2451.199429701622 896.7610089395877 0
2168.168396264832 1448.971920397429 0
2093.01583680808 1562.770213788503 0
2530.507228887621 -642.8448362157493 0
707.7991580115465 2509.87931432199 0
2009.918706862362 1670.283115456144 0
1030.829185660174 2393.420165138241 0
2602.566764575428 169.0604278535648 0
1329.417421810042 2240.564379121119 0
1388.911076159575 2190.586115095346 0
446.1987625553916 2565.989916685357 0
1152.448351061748 2340.549294752647 0
1725.274155355154 1394.337093377422 0
2249.836638332806 381.5619417691624 0
2589.785250029249 -306.0908920515018 0
1211.374525799525 2305.898264911851 0
2082.047414614437 778.9164836793616 0
100.6836351189223 2150.51310760562 0
1375.315271137434 1821.181355690757 0
2508.938627596963 708.025652350202 0
576.5671737489807 2547.969994752198 0
2475.59764981636 -558.6556432775282 0
1707.19988477806 1511.65803250032 0
2164.1084224674 1336.660146267564 0
2543.688374901491 125.5537273918031 0
243.6066535882526 2597.033883489292 0
1119.407505363661 1851.464981111219 0
1622.281431241233 2048.646285321739 0
2280.638649924203 266.1923821013986 0
1963.091932436218 1150.279483899817 0
2235.866104998608 -995.5399274229967 0
1770.323185115817 1911.568071378327 0
2130.668500269353 618.5523582081396 0
2536.90191404234 -245.1640766010149 0
51.05956672197845 2572.222222221712 0
2558.052862491768 513.1812195386811 0
610.0285283142431 2181.037167363292 0
163.3919468795756 2338.454060183361 0
2314.540685037913 1068.92928577043 0
1512.253631176543 2137.441800738783 0
1427.88570568566 1769.49135940178 0
653.9840709928386 2122.999677943981 0
2345.836271329759 -1061.27554276129 0
285.9305911113196 2193.816466635525 0
2606.449697018839 -31.13523824797724 0
2270.752660323126 71.65995463588816 0
2242.712775932829 1336.015805537673 0
2570.081809900761 -508.6634413026285 0
1657.485239702472 1920.637533259516 0
2503.824066580198 -764.5346475840881 0
1050.830197208959 1945.381058292766 0
2349.985090723317 -995.0605153159812 0
2118.010998958613 -951.2627309946001 0
2611.826023427128 36.77940697747176 0
106.9881069574118 2489.496410759399 0
2340.145513795433 1135.163107472247 0
2242.405903132979 -361.8328517272559 0
2044.212859837532 838.3050480238793 0
1922.378227578256 1771.502269174944 0
1544.358045607156 1663.440542518839 0
481.0156336746564 2509.417070076856 0
2001.636525357302 1082.352913751895 0
2246.324636097745 313.733821361658 0
456.345275524161 2097.298780436544 0
1272.993568723605 2215.386463117511 0
2248.563507539659 1226.914874828753 0
2555.278390562313 578.4923146409449 0
98.80859768282683 2613.440032204168 0
2282.620498757961 -117.4097664591974 0
2481.139973250732 842.5108195402363 0
838.968161522655 2103.620099202454 0
594.7080208543912 2064.253263414775 0
299.208135504185 2534.647323022352 0
2383.361550193524 -925.0772825612321 0
2517.743046931521 413.1281804425348 0
1474.467413021687 1723.267353064065 0
2511.488539447585 -423.1444263958215 0
960.9012276297914 2059.597508671137 0
987.2092670890949 2355.667146949781 0
2110.900417565897 670.1832565290036 0
1181.372991577382 1862.911881681078 0
2474.241901300741 665.0263610541327 0
1676.512129171196 2016.015968750317 0
2601.764738164994 309.2727026324977 0
906.802582356014 2458.403374849515 0
109.5137813644716 2427.372884029684 0
2206.087901269073 542.8930701404931 0
2062.104936982475 -868.9184658071694 0
778.1421591876287 2432.851074259138 0
660.9472452908136 2475.649158497523 0
1104.16802710987 2312.439014200745 0
2413.268408531715 -862.6696577997394 0
2551.35118511459 193.3589983722084 0
1415.587129141956 2124.468363168737 0
2472.409994740045 -857.0008718732187 0
2258.915399043559 11.57485159314022 0
2225.197223467542 444.5573703276481 0
1948.837526180706 1661.838352480806 0
1958.41639698169 -873.4557685609195 0
2410.941802299381 1035.083818714641 0
718.8792479684568 2153.007743353938 0
224.4101861418965 2193.413793247829 0
2261.856917486909 213.0762827028738 0
2457.196492633043 -732.6815876968934 0
46.4837195994828 2143.737544883117 0
1992.311007557123 1610.239468775942 0
2307.80651384498 1234.363035398222 0
1841.58959878712 1705.056536595 0
2035.943899974382 1558.982081836563 0
46.39254002157752 2621.800103579198 0
40.65563829695819 2320.97069495235 0
2016.004783167278 886.4844798999607 0
1992.996177007661 1199.727413790509 0
2227.571049823005 -418.9552851861701 0
2387.721362541851 -1089.722054771579 0
1572.194405753593 2022.919259156397 0
1980.84729471422 977.9270126888706 0
2600.642744256354 -376.7061244015007 0
2618.974725878228 -172.6944587206181 0
1638.241097730864 1612.360312879408 0
2292.43704190173 -979.4603534289788 0
2211.576429849059 -942.9845270645434 0
1278.454445592705 1872.712317439654 0
2478.922345223743 -666.5104535861045 0
2567.945741230319 67.35023421288963 0
2075.921313420671 1512.850400448583 0
1099.121927930672 1906.821236968777 0
2258.574982164476 -176.1879120559391 0
536.2616906379883 2513.449138351824 0
2110.19903252501 -906.0185021011373 0
1906.031529861894 1711.452170847401 0
1585.773636371624 1686.661181818954 0
2498.74645261395 -601.6267548907177 0
$EndNodes
$Elements
5 1530 465 10172
1 15 1 77
465 13 451 
466 451 452 
467 452 453 
468 453 454 
469 454 455 
470 455 456 
471 456 457 
472 457 458 
473 458 459 
474 459 460 
475 460 461 
476 461 462 
477 462 463 
478 463 464 
479 464 465 
480 465 466 
481 466 467 
482 467 468 
483 468 469 
484 469 470 
485 470 471 
486 471 472 
487 472 473 
488 473 474 
489 474 475 
490 475 476 
491 476 477 
492 477 478 
493 478 479 
494 479 480 
495 480 481 
496 481 482 
497 482 483 
498 483 484 
499 484 485 
500 485 486 
501 486 487 
502 487 488 
503 488 489 
504 489 490 
505 490 491 
506 491 492 
507 492 493 
508 493 494 
509 494 495 
510 495 496 
511 496 497 
512 497 498 
513 498 499 
514 499 500 
515 500 501 
516 501 502 
517 502 503 
518 503 504 
519 504 505 
520 505 506 
521 506 507 
522 507 508 
523 508 509 
524 509 510 
525 510 511 
526 511 512 
527 512 513 
528 513 514 
529 514 515 
530 515 516 
531 516 517 
532 517 518 
533 518 519 
534 519 520 
535 520 521 
536 521 522 
537 522 523 
538 523 524 
539 524 525 
540 525 526 
541 526 14 
1 16 1 9
542 14 527 
543 527 528 
544 528 529 
545 529 530 
546 530 531 
547 531 532 
548 532 533 
549 533 534 
550 534 12 
1 17 1 61
551 12 535 
552 535 536 
553 536 537 
554 537 538 
555 538 539 
556 539 540 
557 540 541 
558 541 542 
559 542 543 
560 543 544 
561 544 545 
562 545 546 
563 546 547 
564 547 548 
565 548 549 
566 549 550 
567 550 551 
568 551 552 
569 552 553 
570 553 554 
571 554 555 
572 555 556 
573 556 557 
574 557 558 
575 558 559 
576 559 560 
577 560 561 
578 561 562 
579 562 563 
580 563 564 
581 564 565 
582 565 566 
583 566 567 
584 567 568 
585 568 569 
586 569 570 
587 570 571 
588 571 572 
589 572 573 
590 573 574 
591 574 575 
592 575 576 
593 576 577 
594 577 578 
595 578 579 
596 579 580 
597 580 581 
598 581 582 
599 582 583 
600 583 584 
601 584 585 
602 585 586 
603 586 587 
604 587 588 
605 588 589 
606 589 590 
607 590 591 
608 591 592 
609 592 593 
610 593 594 
611 594 11 
1 18 1 9
612 11 595 
613 595 596 
614 596 597 
615 597 598 
616 598 599 
617 599 600 
618 600 601 
619 601 602 
620 602 13 
2 5 2 1374
8799 4936 5397 5170 
8800 5327 5346 4960 
8801 5211 5443 5411 
8802 5183 5340 4955 
8803 4960 5345 5327 
8804 5122 5210 5048 
8805 5411 5443 5041 
8806 590 5186 4935 
8807 4963 5373 5174 
8808 455 5381 456 
8809 5190 5192 4966 
8810 4966 5191 5190 
8811 589 5186 590 
8812 5320 5383 4933 
8813 5048 5210 5046 
8814 5319 5383 5320 
8815 5139 5206 5205 
8816 5420 5437 5358 
8817 5142 5267 5216 
8818 5188 5350 4924 
8819 4925 5182 5181 
8820 5344 5448 4929 
8821 5190 5419 5192 
8822 5350 5351 4924 
8823 5369 5455 5433 
8824 5139 5257 5206 
8825 4937 5417 5304 
8826 5141 5365 5205 
8827 5222 5282 5224 
8828 5189 5191 4951 
8829 5337 5391 5312 
8830 5270 5414 5234 
8831 5192 5419 5193 
8832 5305 5448 5344 
8833 4958 5437 5420 
8834 5174 5407 4963 
8835 4960 5413 5345 
8836 5287 5415 5351 
8837 5345 5413 5332 
8838 5216 5450 5142 
8839 5304 5456 4937 
8840 5337 5475 5391 
8841 5209 5210 5122 
8842 5191 5399 4951 
8843 5201 5209 5122 
8844 5174 5454 5407 
8845 5381 5392 456 
8846 5396 5415 5167 
8847 4925 5184 5182 
8848 5407 5454 4906 
8849 5239 5283 5237 
8850 5126 5467 5193 
8851 5170 5397 5349 
8852 5205 5365 5139 
8853 5164 5467 5126 
8854 5141 5205 5204 
8855 5171 5430 4923 
8856 4923 5464 5171 
8857 5238 5284 5249 
8858 5366 5467 5436 
8859 5162 5398 5241 
8860 5282 5484 5224 
8861 4955 5340 5263 
8862 5170 5446 4936 
8863 5178 5476 522 
8864 522 5431 5178 
8865 5234 5468 5270 
8866 5335 5421 4927 
8867 5369 5433 4969 
8868 5339 5403 4952 
8869 5225 5227 5226 
8870 4927 5475 5335 
8871 5218 5379 5138 
8872 5335 5342 4957 
8873 4955 5451 5183 
8874 5246 5441 5123 
8875 5433 5455 5180 
8876 4952 5429 5339 
8877 5287 5351 5350 
8878 4984 5257 4982 
8879 4906 5381 455 
8880 4961 5383 5319 
8881 5186 5254 4935 
8882 5138 5501 5218 
8883 5225 5444 5227 
8884 4963 5374 5373 
8885 5351 5415 4959 
8886 5203 5404 5379 
8887 5239 5459 5283 
8888 5241 5461 5162 
8889 4959 5415 5396 
8890 5319 5405 4961 
8891 5181 5382 4925 
8892 5201 5250 5209 
8893 4926 5386 5348 
8894 4930 5388 5303 
8895 5123 5457 5246 
8896 5366 5436 4967 
8897 5405 5428 4961 
8898 5379 5404 5138 
8899 5278 5279 5240 
8900 4957 5421 5335 
8901 5204 5258 5141 
8902 5423 5453 4944 
8903 4928 5302 5301 
8904 5216 5509 5450 
8905 5371 5428 5405 
8906 551 5226 552 
8907 5214 5509 5216 
8908 5230 5400 5119 
8909 5418 5423 5285 
8910 5359 5437 492 
8911 5284 5482 5249 
8912 4913 5197 5185 
8913 492 5488 5359 
8914 5391 5475 4927 
8915 5241 5398 4946 
8916 552 5226 4907 
8917 5227 5395 5228 
8918 5307 5343 4954 
8919 4982 5257 5139 
8920 5120 5257 4984 
8921 5281 5509 5215 
8922 5215 5259 5244 
8923 5216 5267 4942 
8924 5231 5261 5247 
8925 5388 5460 5303 
8926 4926 5308 462 
8927 504 5363 505 
8928 5198 5453 5423 
8929 5161 5414 5270 
8930 4971 5194 5127 
8931 5312 5391 5390 
8932 5206 5243 5242 
8933 5348 5470 4926 
8934 5119 5504 5230 
8935 5219 5246 5245 
8936 5238 5249 5248 
8937 5219 5441 5246 
8938 5187 5396 5167 
8939 5203 5394 5135 
8940 5332 5413 4923 
8941 5436 5467 5164 
8942 5244 5367 5215 
8943 5339 5429 4921 
8944 5215 5367 5281 
8945 510 5435 5426 
8946 4966 5276 5191 
8947 5260 5267 5223 
8948 4923 5430 5332 
8949 4921 5458 5339 
8950 5213 5216 4942 
8951 5229 5232 4947 
8952 5221 5224 4945 
8953 5304 5417 5305 
8954 5395 5478 5228 
8955 4928 5465 5302 
8956 5215 5509 5214 
8957 4924 5426 5188 
8958 4970 5194 4971 
8959 5194 5195 5127 
8960 5185 5445 4913 
8961 589 5445 5186 
8962 5122 5262 5201 
8963 462 5308 463 
8964 5358 5437 5359 
8965 4960 5346 480 
8966 4970 4971 4905 
8967 480 5346 481 
8968 5224 5225 4945 
8969 537 4970 4905 
8970 5374 5416 4967 
8971 4945 5226 551 
8972 5195 5256 5127 
8973 4958 5420 5184 
8974 5184 5253 5182 
8975 5226 5227 4907 
8976 5192 5193 4938 
8977 5193 5419 5126 
8978 4937 5363 504 
8979 5279 5459 5240 
8980 4907 5380 553 
8981 4935 5196 591 
8982 539 5258 5204 
8983 5222 5427 5282 
8984 5198 5423 5418 
8985 5362 5394 5200 
8986 5135 5404 5203 
8987 5035 5310 5253 
8988 4915 5259 5215 
8989 4911 5260 5223 
8990 4912 5261 5231 
8991 5206 5242 4918 
8992 5219 5245 4916 
8993 5238 5248 4909 
8994 5209 5250 4917 
8995 5199 5250 5201 
8996 4941 5251 5212 
8997 4949 5252 5240 
8998 5231 5400 5230 
8999 5235 5380 5228 
9000 544 5259 4915 
9001 548 5260 4911 
9002 575 5261 4912 
9003 546 5213 4942 
9004 569 5202 4939 
9005 550 5221 4945 
9006 577 5229 4947 
9007 558 5241 4946 
9008 5202 5203 4939 
9009 5155 5392 5381 
9010 5202 5394 5203 
9011 5240 5432 5278 
9012 5256 5264 5127 
9013 5389 5406 4956 
9014 5232 5504 5156 
9015 5253 5310 5182 
9016 5141 5258 4972 
9017 5207 5211 5208 
9018 5236 5239 5237 
9019 5228 5380 4907 
9020 5230 5504 5232 
9021 5201 5262 5200 
9022 5203 5379 4939 
9023 5211 5411 5208 
9024 4978 5264 5118 
9025 5327 5347 5346 
9026 5150 5266 5254 
9027 4913 5198 5197 
9028 4972 5258 4905 
9029 5210 5494 5046 
9030 5218 5501 5255 
9031 5150 5254 5186 
9032 595 5276 596 
9033 5195 5265 5256 
9034 4914 5498 5251 
9035 5217 5379 5218 
9036 5272 5498 4914 
9037 4967 5436 5374 
9038 5187 5458 4921 
9039 5143 5443 5212 
9040 5204 5205 4918 
9041 5135 5394 5362 
9042 5233 5414 4910 
9043 5242 5243 4940 
9044 5118 5264 5256 
9045 5199 5200 4919 
9046 5207 5208 4917 
9047 5217 5218 4916 
9048 5236 5237 4909 
9049 5245 5246 4943 
9050 4941 5211 5207 
9051 4949 5239 5236 
9052 4948 5234 5233 
9053 5248 5249 4944 
9054 5050 5262 5122 
9055 5247 5422 5231 
9056 5256 5265 5177 
9057 5052 5262 5050 
9058 4910 5461 5241 
9059 536 4970 537 
9060 4947 5462 5408 
9061 5262 5362 5200 
9062 4975 5264 4978 
9063 4954 5466 5307 
9064 5426 5435 5176 
9065 5225 5226 4945 
9066 5118 5177 5130 
9067 591 5196 592 
9068 525 4969 526 
9069 4971 4972 4905 
9070 540 5204 4918 
9071 4978 5118 4990 
9072 538 5258 539 
9073 5212 5443 5211 
9074 5177 5179 5130 
9075 5244 5259 4940 
9076 543 5259 544 
9077 547 5260 548 
9078 574 5261 575 
9079 5247 5261 4943 
9080 545 5213 546 
9081 568 5202 569 
9082 549 5221 550 
9083 576 5229 577 
9084 557 5241 558 
9085 4968 5194 4970 
9086 4918 5242 541 
9087 542 5242 4940 
9088 535 4968 536 
9089 567 5199 4919 
9090 596 5276 4966 
9091 4916 5245 572 
9092 4909 5248 584 
9093 4917 5250 565 
9094 4914 5251 561 
9095 4908 5252 580 
9096 564 5207 4917 
9097 583 5236 4909 
9098 571 5217 4916 
9099 560 5220 4914 
9100 556 5233 4910 
9101 566 5250 5199 
9102 573 5245 4943 
9103 585 5248 4944 
9104 562 5251 4941 
9105 581 5252 4949 
9106 4941 5207 563 
9107 4939 5217 570 
9108 4949 5236 582 
9109 4946 5220 559 
9110 4948 5233 555 
9111 5118 5130 4990 
9112 5227 5228 4907 
9113 4968 4970 536 
9114 5121 5190 5189 
9115 5156 5462 5232 
9116 5253 5376 5035 
9117 5113 5115 5114 
9118 5190 5191 5189 
9119 5127 5264 4973 
9120 4971 5127 4973 
9121 5108 5266 5150 
9122 5052 5362 5262 
9123 452 4963 453 
9124 5275 5368 5117 
9125 4973 5264 4975 
9126 523 4950 524 
9127 5116 5126 5115 
9128 5188 5426 5176 
9129 5111 5113 5112 
9130 4921 5499 5187 
9131 592 4951 593 
9132 5153 5368 5275 
9133 5115 5121 5114 
9134 5134 5164 5126 
9135 5118 5256 5177 
9136 5266 5364 5254 
9137 5200 5394 4919 
9138 5110 5111 5109 
9139 4948 5380 5235 
9140 4975 4978 4977 
9141 553 5380 554 
9142 592 5196 4951 
9143 5107 5109 5108 
9144 5113 5114 5112 
9145 4978 4990 4989 
9146 5054 5362 5052 
9147 454 4906 455 
9148 5113 5116 5115 
9149 525 5369 4969 
9150 5107 5110 5109 
9151 5243 5244 4940 
9152 537 4905 538 
9153 5218 5219 4916 
9154 5237 5238 4909 
9155 5208 5209 4917 
9156 5199 5201 5200 
9157 4941 5212 5211 
9158 4948 5235 5234 
9159 5246 5247 4943 
9160 4949 5240 5239 
9161 5205 5206 4918 
9162 4971 4973 4972 
9163 5090 5279 5087 
9164 5111 5112 5109 
9165 5184 5481 4958 
9166 5109 5266 5108 
9167 4905 5258 538 
9168 5075 5273 5119 
9169 5027 5268 5162 
9170 5143 5272 5271 
9171 5033 5271 5169 
9172 5066 5269 5123 
9173 5087 5279 5086 
9174 5271 5272 5169 
9175 5105 5107 5106 
9176 5077 5273 5075 
9177 5022 5270 5021 
9178 5000 5274 5142 
9179 5103 5288 5102 
9180 5028 5268 5027 
9181 5034 5271 5033 
9182 5105 5106 5103 
9183 4986 5280 5120 
9184 5107 5108 5106 
9185 5086 5278 5277 
9186 5113 5368 5116 
9187 5086 5277 5083 
9188 5132 5172 5156 
9189 539 5204 540 
9190 5027 5161 5025 
9191 5033 5163 5031 
9192 5027 5162 5161 
9193 5039 5143 5037 
9194 5033 5169 5163 
9195 5050 5122 5048 
9196 5094 5283 5091 
9197 5009 5282 5006 
9198 5132 5156 5080 
9199 5056 5135 5054 
9200 5005 5274 5002 
9201 4988 5280 4986 
9202 5068 5269 5066 
9203 5098 5284 5095 
9204 5060 5138 5058 
9205 5002 5274 5000 
9206 5081 5132 5080 
9207 5102 5285 5099 
9208 4997 5281 4994 
9209 5072 5269 5068 
9210 5066 5123 5064 
9211 4993 5280 4988 
9212 5070 5072 5068 
9213 5075 5119 5073 
9214 5006 5282 5005 
9215 5086 5279 5278 
9216 5091 5283 5090 
9217 5108 5150 5149 
9218 5037 5271 5034 
9219 5095 5284 5094 
9220 4994 5281 4993 
9221 5079 5080 5077 
9222 5031 5268 5028 
9223 5277 5278 5173 
9224 5099 5285 5098 
9225 5025 5270 5022 
9226 4978 4989 4977 
9227 5132 5277 5173 
9228 5004 5005 5002 
9229 5000 5142 4998 
9230 5085 5086 5083 
9231 4996 4997 4994 
9232 5089 5090 5087 
9233 5008 5009 5006 
9234 5150 5186 5185 
9235 5093 5094 5091 
9236 5026 5027 5025 
9237 5012 5013 5010 
9238 4992 4993 4988 
9239 5143 5271 5037 
9240 5097 5098 5095 
9241 5016 5017 5014 
9242 5032 5033 5031 
9243 5101 5102 5099 
9244 5020 5021 5018 
9245 5070 5073 5072 
9246 5132 5173 5172 
9247 5104 5105 5103 
9248 5163 5268 5031 
9249 5024 5025 5022 
9250 469 4936 470 
9251 503 4937 504 
9252 486 4933 487 
9253 520 4932 521 
9254 457 4931 458 
9255 466 4930 467 
9256 500 4929 501 
9257 506 4928 507 
9258 472 4927 473 
9259 461 4926 462 
9260 495 4925 496 
9261 511 4924 512 
9262 477 4923 478 
9263 490 4922 491 
9264 516 4921 517 
9265 482 4920 483 
9266 5108 5149 5106 
9267 5150 5185 5149 
9268 488 4961 489 
9269 459 4953 460 
9270 518 4952 519 
9271 484 4962 485 
9272 5038 5039 5037 
9273 5081 5277 5132 
9274 5161 5270 5025 
9275 5040 5041 5039 
9276 464 4954 465 
9277 498 4955 499 
9278 508 4956 509 
9279 474 4957 475 
9280 493 4958 494 
9281 513 4959 514 
9282 479 4960 480 
9283 5110 5117 5111 
9284 5080 5273 5077 
9285 5079 5081 5080 
9286 5030 5031 5028 
9287 5208 5210 5209 
9288 5218 5255 5219 
9289 5389 5474 5406 
9290 4996 4998 4997 
9291 5036 5037 5034 
9292 5047 5048 5046 
9293 5085 5087 5086 
9294 5004 5006 5005 
9295 5049 5050 5048 
9296 5008 5010 5009 
9297 4992 4994 4993 
9298 5051 5052 5050 
9299 5089 5091 5090 
9300 5093 5095 5094 
9301 5053 5054 5052 
9302 5045 5046 5042 
9303 5012 5014 5013 
9304 5055 5056 5054 
9305 5101 5103 5102 
9306 5097 5099 5098 
9307 4986 5120 4984 
9308 5016 5018 5017 
9309 5057 5058 5056 
9310 5059 5060 5058 
9311 590 4935 591 
9312 5020 5022 5021 
9313 5061 5062 5060 
9314 5083 5277 5081 
9315 5184 5420 5253 
9316 5024 5026 5025 
9317 5156 5273 5080 
9318 5063 5064 5062 
9319 5121 5189 5147 
9320 5026 5028 5027 
9321 5065 5066 5064 
9322 5067 5068 5066 
9323 5032 5034 5033 
9324 5030 5032 5031 
9325 5069 5070 5068 
9326 5074 5075 5073 
9327 5076 5077 5075 
9328 5038 5040 5039 
9329 5078 5079 5077 
9330 5036 5038 5037 
9331 5104 5129 5105 
9332 5040 5042 5041 
9333 5082 5083 5081 
9334 4999 5000 4998 
9335 4995 4996 4994 
9336 5045 5047 5046 
9337 5084 5085 5083 
9338 5047 5049 5048 
9339 5088 5089 5087 
9340 5049 5051 5050 
9341 5001 5002 5000 
9342 5003 5004 5002 
9343 5107 5360 5110 
9344 5007 5008 5006 
9345 5185 5197 5149 
9346 5051 5053 5052 
9347 5106 5288 5103 
9348 5011 5012 5010 
9349 5092 5093 5091 
9350 5053 5055 5054 
9351 5015 5016 5014 
9352 5096 5097 5095 
9353 5055 5057 5056 
9354 5057 5059 5058 
9355 5100 5101 5099 
9356 541 5242 542 
9357 5019 5020 5018 
9358 5059 5061 5060 
9359 4991 4992 4988 
9360 5061 5063 5062 
9361 5070 5074 5073 
9362 5063 5065 5064 
9363 5023 5024 5022 
9364 5065 5067 5066 
9365 5067 5069 5068 
9366 5079 5082 5081 
9367 5029 5030 5028 
9368 4996 4999 4998 
9369 5074 5076 5075 
9370 5128 5188 5176 
9371 5035 5036 5034 
9372 5085 5088 5087 
9373 5076 5078 5077 
9374 5181 5182 5136 
9375 540 4918 541 
9376 567 4919 568 
9377 544 4915 545 
9378 564 4917 565 
9379 571 4916 572 
9380 560 4914 561 
9381 548 4911 549 
9382 587 4913 588 
9383 575 4912 576 
9384 556 4910 557 
9385 583 4909 584 
9386 579 4908 580 
9387 552 4907 553 
9388 4992 4995 4994 
9389 5004 5007 5006 
9390 566 5199 567 
9391 5182 5310 5136 
9392 572 5245 573 
9393 584 5248 585 
9394 565 5250 566 
9395 4939 5379 5217 
9396 561 5251 562 
9397 580 5252 581 
9398 563 5207 564 
9399 582 5236 583 
9400 570 5217 571 
9401 559 5220 560 
9402 555 5233 556 
9403 5008 5011 5010 
9404 569 4939 570 
9405 542 4940 543 
9406 562 4941 563 
9407 546 4942 547 
9408 573 4943 574 
9409 558 4946 559 
9410 585 4944 586 
9411 577 4947 578 
9412 550 4945 551 
9413 581 4949 582 
9414 554 4948 555 
9415 5089 5092 5091 
9416 5082 5084 5083 
9417 5012 5015 5014 
9418 5093 5096 5095 
9419 5044 5045 5042 
9420 5097 5100 5099 
9421 5101 5104 5103 
9422 5016 5019 5018 
9423 4999 5001 5000 
9424 4995 5286 4996 
9425 4940 5259 543 
9426 5001 5003 5002 
9427 5020 5023 5022 
9428 4987 4988 4986 
9429 4942 5260 547 
9430 4943 5261 574 
9431 4915 5213 545 
9432 4919 5202 568 
9433 4911 5221 549 
9434 4912 5229 576 
9435 4910 5241 557 
9436 4915 5215 5214 
9437 5007 5289 5008 
9438 5088 5292 5089 
9439 5026 5029 5028 
9440 4996 5286 4999 
9441 5070 5313 5074 
9442 5032 5035 5034 
9443 5015 5295 5016 
9444 4911 5223 5222 
9445 5096 5298 5097 
9446 4912 5231 5230 
9447 5214 5216 5213 
9448 5135 5362 5054 
9449 5036 5043 5038 
9450 5040 5044 5042 
9451 5079 5311 5082 
9452 5023 5146 5024 
9453 5319 5320 5131 
9454 5008 5289 5011 
9455 5230 5232 5229 
9456 4982 5139 4980 
9457 5222 5224 5221 
9458 5089 5292 5092 
9459 5044 5158 5144 
9460 5047 5131 5049 
9461 5029 5136 5030 
9462 5151 5157 5069 
9463 4992 5317 4995 
9464 5085 5314 5088 
9465 5051 5124 5053 
9466 5004 5315 5007 
9467 5078 5311 5079 
9468 5069 5313 5070 
9469 5289 5290 5011 
9470 5055 5125 5057 
9471 5128 5336 5188 
9472 5097 5298 5100 
9473 5016 5295 5019 
9474 5029 5137 5136 
9475 5023 5168 5146 
9476 5084 5314 5085 
9477 5019 5329 5020 
9478 5292 5293 5092 
9479 5323 5324 5125 
9480 5003 5315 5004 
9481 5059 5071 5061 
9482 5011 5328 5012 
9483 5063 5140 5065 
9484 5067 5151 5069 
9485 5149 5288 5106 
9486 5152 5170 5084 
9487 5074 5145 5076 
9488 5082 5152 5084 
9489 5044 5144 5045 
9490 5015 5297 5295 
9491 5137 5183 5181 
9492 5110 5360 5154 
9493 4991 5317 4992 
9494 5088 5294 5292 
9495 5298 5300 5100 
9496 5096 5299 5298 
9497 5128 5175 5003 
9498 5001 5128 5003 
9499 5007 5291 5289 
9500 5295 5296 5019 
9501 4987 4991 4988 
9502 4915 5214 5213 
9503 4985 4986 4984 
9504 5168 5263 5146 
9505 4942 5267 5260 
9506 5137 5181 5136 
9507 5093 5330 5096 
9508 5151 5171 5157 
9509 4911 5222 5221 
9510 4912 5230 5229 
9511 4995 5287 5286 
9512 5197 5288 5149 
9513 5128 5176 5175 
9514 5092 5330 5093 
9515 5307 5308 5306 
9516 5074 5313 5145 
9517 5101 5333 5104 
9518 5024 5309 5026 
9519 5082 5311 5152 
9520 5100 5333 5101 
9521 5301 5302 5290 
9522 5030 5310 5032 
9523 5020 5329 5023 
9524 5012 5328 5015 
9525 5290 5328 5011 
9526 5146 5309 5024 
9527 5088 5314 5294 
9528 5166 5167 4991 
9529 5038 5316 5040 
9530 5096 5330 5299 
9531 5289 5301 5290 
9532 5007 5315 5291 
9533 5045 5318 5047 
9534 5136 5310 5030 
9535 4987 5166 4991 
9536 5049 5321 5051 
9537 5104 5165 5129 
9538 5292 5303 5293 
9539 5053 5322 5055 
9540 4995 5317 5287 
9541 5291 5301 5289 
9542 5157 5313 5069 
9543 5299 5307 5306 
9544 5294 5303 5292 
9545 5304 5305 5296 
9546 5166 5187 5167 
9547 5296 5329 5019 
9548 4985 4987 4986 
9549 5320 5321 5131 
9550 5057 5325 5059 
9551 5297 5304 5295 
9552 5026 5309 5029 
9553 5298 5306 5300 
9554 5144 5318 5045 
9555 5299 5306 5298 
9556 5295 5304 5296 
9557 5170 5314 5084 
9558 5061 5326 5063 
9559 5146 5340 5309 
9560 5175 5315 5003 
9561 5032 5310 5035 
9562 5129 5360 5105 
9563 5065 5331 5067 
9564 5311 5312 5152 
9565 4983 4984 4982 
9566 5023 5329 5168 
9567 5167 5317 4991 
9568 5043 5316 5038 
9569 5040 5316 5044 
9570 5324 5325 5125 
9571 5047 5318 5131 
9572 5104 5333 5165 
9573 5015 5328 5297 
9574 5044 5316 5158 
9575 5293 5330 5092 
9576 5076 5334 5078 
9577 5131 5321 5049 
9578 5318 5319 5131 
9579 5051 5321 5124 
9580 5300 5333 5100 
9581 5124 5322 5053 
9582 5055 5322 5125 
9583 5029 5309 5137 
9584 5116 5134 5126 
9585 5125 5325 5057 
9586 5358 5359 5357 
9587 5059 5325 5071 
9588 5322 5323 5125 
9589 5071 5326 5061 
9590 5063 5326 5140 
9591 5140 5332 5331 
9592 5071 5327 5326 
9593 5145 5335 5334 
9594 5140 5331 5065 
9595 4983 4985 4984 
9596 5067 5331 5151 
9597 5145 5334 5076 
9598 4999 5336 5001 
9599 5286 5336 4999 
9600 5078 5337 5311 
9601 5309 5340 5137 
9602 5001 5336 5128 
9603 5290 5341 5328 
9604 4983 5148 4985 
9605 5330 5343 5299 
9606 5328 5341 5297 
9607 5311 5337 5312 
9608 5155 5275 5117 
9609 5334 5337 5078 
9610 5293 5343 5330 
9611 4993 5367 5280 
9612 5296 5344 5329 
9613 5336 5350 5188 
9614 5133 5375 5372 
9615 5327 5345 5326 
9616 5329 5344 5168 
9617 4950 5369 524 
9618 5313 5342 5145 
9619 5326 5345 5140 
9620 5263 5340 5146 
9621 5157 5342 5313 
9622 5129 5361 5360 
9623 5137 5340 5183 
9624 5165 5377 5129 
9625 5286 5350 5336 
9626 5302 5341 5290 
9627 4981 4983 4982 
9628 5299 5343 5307 
9629 5321 5353 5124 
9630 5145 5342 5335 
9631 5305 5344 5296 
9632 5320 5353 5321 
9633 4987 5338 5166 
9634 4981 4982 4980 
9635 5206 5495 5243 
9636 4973 4975 4974 
9637 5140 5345 5332 
9638 5148 5339 5338 
9639 5112 5266 5109 
9640 4985 5338 4987 
9641 4979 4980 4976 
9642 5287 5350 5286 
9643 4973 4974 4972 
9644 5116 5368 5153 
9645 5148 5338 4985 
9646 4975 4977 4976 
9647 4979 5133 4981 
9648 5333 5348 5165 
9649 5043 5358 5357 
9650 5314 5349 5294 
9651 4990 5159 4989 
9652 5300 5348 5333 
9653 5170 5349 5314 
9654 5322 5352 5323 
9655 5111 5368 5113 
9656 5124 5352 5322 
9657 4979 4981 4980 
9658 5134 5373 5164 
9659 4977 4979 4976 
9660 4975 4976 4974 
9661 4983 5355 5148 
9662 5124 5353 5352 
9663 5105 5360 5107 
9664 5154 5155 5117 
9665 579 5408 4908 
9666 4974 5141 4972 
9667 5139 5365 4980 
9668 4947 5408 578 
9669 4990 5354 5159 
9670 5372 5375 5160 
9671 5360 5361 5154 
9672 5117 5368 5111 
9673 5043 5357 5316 
9674 5133 5356 5355 
9675 4981 5355 4983 
9676 5316 5357 5158 
9677 5179 5180 5130 
9678 4976 5365 4974 
9679 5110 5154 5117 
9680 4974 5365 5141 
9681 5133 5355 4981 
9682 5252 5432 5240 
9683 5183 5382 5181 
9684 5121 5147 5114 
9685 4951 5399 593 
9686 5281 5367 4993 
9687 5159 5178 5160 
9688 5408 5462 5172 
9689 5035 5376 5036 
9690 5043 5376 5358 
9691 5302 5363 5341 
9692 5018 5378 5017 
9693 4980 5365 4976 
9694 5158 5371 5144 
9695 4979 5375 5133 
9696 5159 5160 4989 
9697 4989 5375 4977 
9698 5114 5364 5112 
9699 598 4938 599 
9700 530 4934 531 
9701 5160 5375 4989 
9702 5133 5372 5356 
9703 5153 5174 5134 
9704 5112 5364 5266 
9705 5130 5354 4990 
9706 4977 5375 4979 
9707 532 4964 533 
9708 5363 5465 505 
9709 5116 5153 5134 
9710 528 4965 529 
9711 5014 5395 5013 
9712 5263 5401 4955 
9713 5147 5364 5114 
9714 524 5369 525 
9715 5036 5376 5043 
9716 5163 5398 5268 
9717 599 5366 600 
9718 596 4966 597 
9719 5129 5377 5361 
9720 5212 5498 5143 
9721 5370 5469 4968 
9722 5073 5400 5072 
9723 5021 5378 5018 
9724 600 4967 601 
9725 533 5370 534 
9726 5174 5373 5134 
9727 5056 5404 5135 
9728 5138 5404 5058 
9729 5148 5403 5339 
9730 554 5380 4948 
9731 5180 5354 5130 
9732 4926 5470 5308 
9733 5126 5419 5115 
9734 5318 5405 5319 
9735 5175 5406 5315 
9736 4963 5407 453 
9737 5013 5410 5010 
9738 5121 5419 5190 
9739 4925 5382 496 
9740 4938 5366 599 
9741 496 5382 497 
9742 457 5392 4931 
9743 5371 5405 5144 
9744 5155 5381 5275 
9745 456 5392 457 
9746 5356 5403 5355 
9747 4936 5390 470 
9748 4930 5393 467 
9749 472 5391 4927 
9750 4933 5383 487 
9751 486 5384 4933 
9752 520 5385 4932 
9753 461 5386 4926 
9754 4920 5387 483 
9755 466 5388 4930 
9756 4928 5389 507 
9757 488 5383 4961 
9758 4952 5385 519 
9759 4962 5384 485 
9760 4953 5386 460 
9761 484 5387 4962 
9762 4954 5388 465 
9763 508 5389 4956 
9764 470 5390 471 
9765 467 5393 468 
9766 471 5391 472 
9767 487 5383 488 
9768 485 5384 486 
9769 519 5385 520 
9770 460 5386 461 
9771 483 5387 484 
9772 465 5388 466 
9773 507 5389 508 
9774 4934 5503 5265 
9775 454 5407 4906 
9776 5017 5395 5014 
9777 4919 5394 5202 
9778 514 5396 515 
9779 4959 5396 514 
9780 4968 5469 5194 
9781 4963 5449 5374 
9782 468 5397 469 
9783 5240 5459 5239 
9784 4964 5370 533 
9785 469 5397 4936 
9786 5395 5444 5013 
9787 5198 5418 5197 
9788 5265 5503 5177 
9789 600 5366 4967 
9790 5268 5398 5162 
9791 4931 5402 458 
9792 459 5402 4953 
9793 500 5401 4929 
9794 4955 5401 499 
9795 5167 5415 5317 
9796 5276 5399 5191 
9797 5119 5400 5073 
9798 5102 5418 5285 
9799 4935 5425 5196 
9800 5349 5397 5393 
9801 475 5409 476 
9802 5422 5457 5269 
9803 5197 5418 5288 
9804 5393 5397 468 
9805 499 5401 500 
9806 458 5402 459 
9807 4953 5402 5377 
9808 5355 5403 5148 
9809 593 5399 594 
9810 5390 5391 471 
9811 5058 5404 5056 
9812 4923 5413 478 
9813 479 5413 4960 
9814 5144 5405 5318 
9815 4925 5481 5184 
9816 530 5412 4934 
9817 4938 5492 5192 
9818 5227 5444 5395 
9819 5315 5406 5291 
9820 5005 5427 5274 
9821 4965 5412 529 
9822 5224 5484 5225 
9823 4929 5463 5344 
9824 578 5408 579 
9825 4957 5409 475 
9826 5423 5482 5285 
9827 5192 5492 4966 
9828 453 5407 454 
9829 5010 5410 5009 
9830 4951 5483 5189 
9831 5343 5460 4954 
9832 5254 5425 4935 
9833 502 5417 503 
9834 5228 5478 5235 
9835 5208 5411 5210 
9836 4913 5453 5198 
9837 5255 5501 5062 
9838 4933 5507 5320 
9839 5324 5512 5489 
9840 5072 5422 5269 
9841 4913 5445 588 
9842 5367 5438 5280 
9843 4927 5421 473 
9844 474 5421 4957 
9845 5234 5414 5233 
9846 529 5412 530 
9847 5169 5439 5163 
9848 587 5453 4913 
9849 4944 5453 586 
9850 5151 5430 5171 
9851 510 5426 511 
9852 5244 5438 5367 
9853 5332 5430 5331 
9854 478 5413 479 
9855 4908 5432 5252 
9856 5265 5434 4934 
9857 4967 5416 601 
9858 5223 5427 5222 
9859 490 5428 4922 
9860 4961 5428 489 
9861 5169 5493 5439 
9862 5165 5471 5377 
9863 5317 5415 5287 
9864 5351 5500 4924 
9865 4921 5429 517 
9866 518 5429 4952 
9867 4959 5500 5351 
9868 5364 5425 5254 
9869 4922 5428 5371 
9870 5400 5422 5072 
9871 528 5424 4965 
9872 5039 5443 5143 
9873 452 5449 4963 
9874 5427 5477 5274 
9875 4965 5502 5412 
9876 5247 5457 5422 
9877 5267 5477 5223 
9878 502 5448 5417 
9879 5381 5454 5275 
9880 521 5431 522 
9881 5159 5473 5178 
9882 509 5435 510 
9883 5142 5450 4998 
9884 601 5416 602 
9885 5152 5446 5170 
9886 4934 5434 531 
9887 4906 5454 5381 
9888 5283 5459 5090 
9889 532 5434 4964 
9890 5283 5452 5237 
9891 5346 5440 481 
9892 492 5437 493 
9893 5377 5471 4953 
9894 482 5440 4920 
9895 5257 5495 5206 
9896 5166 5458 5187 
9897 5297 5456 5304 
9898 5361 5442 5154 
9899 5270 5468 5021 
9900 5158 5447 5371 
9901 5359 5447 5357 
9902 5288 5418 5102 
9903 503 5417 4937 
9904 5371 5447 4922 
9905 5303 5460 5293 
9906 5225 5484 5410 
9907 5327 5489 5347 
9908 5232 5462 4947 
9909 5376 5420 5358 
9910 5308 5470 5306 
9911 5339 5458 5338 
9912 5363 5456 5341 
9913 5156 5504 5273 
9914 4937 5456 5363 
9915 5123 5513 5064 
9916 5098 5482 5284 
9917 5302 5465 5363 
9918 5300 5470 5348 
9919 5115 5419 5121 
9920 5335 5475 5334 
9921 5062 5501 5060 
9922 5183 5451 5382 
9923 5042 5494 5041 
9924 5235 5468 5234 
9925 5231 5422 5400 
9926 4929 5448 501 
9927 5071 5489 5327 
9928 5171 5497 5157 
9929 498 5451 4955 
9930 5374 5436 5373 
9931 5009 5484 5282 
9932 5324 5489 5325 
9933 5017 5478 5395 
9934 12 5480 535 
9935 5342 5497 4957 
9936 473 5421 474 
9937 477 5464 4923 
9938 506 5465 4928 
9939 464 5466 4954 
9940 522 5476 523 
9941 5249 5423 4944 
9942 5243 5438 5244 
9943 5473 5476 5178 
9944 5412 5502 5179 
9945 527 5424 528 
9946 5378 5468 5235 
9947 5193 5467 4938 
9948 5186 5445 5185 
9949 5374 5449 5416 
9950 5347 5440 5346 
9951 5417 5448 5305 
9952 495 5481 4925 
9953 5253 5420 5376 
9954 4958 5481 494 
9955 5409 5464 476 
9956 13 5491 451 
9957 511 5426 4924 
9958 491 5488 492 
9959 4924 5500 512 
9960 516 5499 4921 
9961 513 5500 4959 
9962 5282 5427 5005 
9963 594 5486 11 
9964 5238 5452 5284 
9965 5153 5454 5174 
9966 526 5496 14 
9967 598 5492 4938 
9968 5352 5490 5487 
9969 5147 5425 5364 
9970 5178 5485 5160 
9971 5487 5490 4962 
9972 5382 5451 497 
9973 4966 5492 597 
9974 5155 5442 5392 
9975 489 5428 490 
9976 534 5480 12 
9977 5171 5464 5409 
9978 5041 5494 5411 
9979 5409 5497 5171 
9980 5406 5474 5291 
9981 4950 5455 5369 
9982 5235 5478 5378 
9983 517 5429 518 
9984 5349 5472 5294 
9985 5187 5499 5396 
9986 5396 5499 515 
9987 4938 5467 5366 
9988 602 5491 13 
9989 5223 5477 5427 
9990 5344 5463 5168 
9991 11 5486 595 
9992 5284 5452 5094 
9993 4954 5460 5388 
9994 5143 5498 5272 
9995 5359 5488 5447 
9996 14 5496 527 
9997 4946 5439 5220 
9998 5393 5472 5349 
9999 5489 5512 5347 
10000 4908 5508 5432 
10001 5331 5430 5151 
10002 5308 5466 463 
10003 5392 5442 4931 
10004 5439 5493 5220 
10005 4950 5473 5455 
10006 5414 5461 4910 
10007 4932 5431 521 
10008 5278 5432 5173 
10009 531 5434 532 
10010 5441 5513 5123 
10011 5249 5482 5423 
10012 4956 5435 509 
10013 5163 5439 5398 
10014 5301 5474 4928 
10015 5390 5446 5312 
10016 4936 5446 5390 
10017 493 5437 4958 
10018 5307 5466 5308 
10019 5373 5436 5164 
10020 5280 5438 5120 
10021 4968 5480 5370 
10022 481 5440 482 
10023 5094 5452 5283 
10024 5194 5469 5195 
10025 5425 5483 5196 
10026 5255 5441 5219 
10027 5449 5491 5416 
10028 535 5480 4968 
10029 5469 5511 5195 
10030 4964 5511 5469 
10031 5424 5433 4965 
10032 5386 5471 5348 
10033 5251 5498 5212 
10034 5398 5439 4946 
10035 5062 5513 5255 
10036 5147 5483 5425 
10037 5408 5508 4908 
10038 5303 5472 4930 
10039 5276 5486 5399 
10040 5013 5444 5410 
10041 5411 5494 5210 
10042 4914 5493 5272 
10043 5431 5485 5178 
10044 5041 5443 5039 
10045 5246 5457 5247 
10046 5440 5512 4920 
10047 5361 5510 5442 
10048 5154 5442 5155 
10049 5196 5483 4951 
10050 5168 5463 5263 
10051 588 5445 589 
10052 5142 5477 5267 
10053 5377 5510 5361 
10054 5312 5446 5152 
10055 5399 5486 594 
10056 5432 5508 5173 
10057 5274 5477 5142 
10058 501 5448 502 
10059 5275 5454 5153 
10060 5357 5447 5158 
10061 451 5449 452 
10062 4998 5450 4997 
10063 4969 5496 526 
10064 497 5451 498 
10065 5237 5452 5238 
10066 5162 5461 5161 
10067 4928 5474 5389 
10068 586 5453 587 
10069 5294 5472 5303 
10070 5269 5457 5123 
10071 5090 5459 5279 
10072 5176 5506 5175 
10073 5341 5456 5297 
10074 5175 5506 5406 
10075 5402 5510 5377 
10076 5272 5493 5169 
10077 5320 5507 5353 
10078 5338 5458 5166 
10079 5352 5487 5323 
10080 5293 5460 5343 
10081 5172 5462 5156 
10082 5410 5444 5225 
10083 4957 5497 5409 
10084 5220 5493 4914 
10085 5263 5463 5401 
10086 476 5464 477 
10087 505 5465 506 
10088 463 5466 464 
10089 5180 5455 5354 
10090 5412 5503 4934 
10091 523 5476 4950 
10092 5354 5473 5159 
10093 5306 5470 5300 
10094 5348 5471 5165 
10095 5291 5474 5301 
10096 5450 5509 4997 
10097 4932 5505 5485 
10098 5334 5475 5337 
10099 5243 5495 5438 
10100 5455 5473 5354 
10101 5378 5478 5017 
10102 5120 5495 5257 
10103 5385 5514 5505 
10104 5021 5468 5378 
10105 5323 5479 5324 
10106 5401 5463 4929 
10107 4962 5490 5384 
10108 5406 5506 4956 
10109 595 5486 5276 
10110 494 5481 495 
10111 5177 5503 5179 
10112 5172 5508 5408 
10113 5285 5482 5098 
10114 4953 5471 5386 
10115 4969 5433 5424 
10116 5195 5511 5265 
10117 4964 5469 5370 
10118 5189 5483 5147 
10119 4930 5472 5393 
10120 5447 5488 4922 
10121 4922 5488 491 
10122 5161 5461 5414 
10123 5505 5514 5356 
10124 4920 5479 5387 
10125 5325 5489 5071 
10126 5160 5485 5372 
10127 5046 5494 5042 
10128 5353 5490 5352 
10129 5485 5505 5372 
10130 597 5492 598 
10131 5179 5502 5180 
10132 5370 5480 534 
10133 4950 5476 5473 
10134 5273 5504 5119 
10135 5157 5497 5342 
10136 515 5499 516 
10137 5179 5503 5412 
10138 5060 5501 5138 
10139 512 5500 513 
10140 5385 5505 4932 
10141 5173 5508 5172 
10142 4997 5509 5281 
10143 5064 5513 5062 
10144 5347 5512 5440 
10145 5387 5487 4962 
10146 5372 5505 5356 
10147 5356 5514 5403 
10148 5434 5511 4964 
10149 5410 5484 5009 
10150 5442 5510 4931 
10151 5384 5507 4933 
10152 4952 5514 5385 
10153 4931 5510 5402 
10154 5438 5495 5120 
10155 5435 5506 5176 
10156 5180 5502 5433 
10157 5424 5496 4969 
10158 4932 5485 5431 
10159 5403 5514 4952 
10160 5416 5491 602 
10161 5323 5487 5479 
10162 5479 5487 5387 
10163 527 5496 5424 
10164 5255 5513 5441 
10165 4920 5512 5479 
10166 5479 5512 5324 
10167 451 5491 5449 
10168 5433 5502 4965 
10169 4956 5506 5435 
10170 5353 5507 5490 
10171 5490 5507 5384 
10172 5265 5511 5434 
$EndElements
