$MeshFormat
4.1 0 8
$EndMeshFormat
$PhysicalNames
27
1 1 "r1"
1 2 "ground"
1 3 "flare"
1 4 "pipewall"
1 5 "x2"
1 6 "symmetry"
1 7 "r2"
1 8 "symmetry2"
1 9 "ground2"
1 11 "r3"
1 12 "ground3"
1 14 "symmetry3"
1 15 "r4"
1 16 "ground4"
1 18 "symmetry4"
1 19 "r5"
1 20 "ground5"
1 22 "symmetry5"
1 23 "r6"
1 24 "ground6"
1 26 "symmetry6"
2 7 "domain1"
2 10 "domain2"
2 15 "domain3"
2 19 "domain4"
2 23 "domain5"
2 27 "domain6"
$EndPhysicalNames
$Entities
24 38 9 0
1 0 488.8888888888888 0 0 
2 0 0 0 0 
3 457.3432961439855 -172.769948634498 0 0 
4 122.3606797749979 -5.278640450004204 0 0 
5 100 -50 0 0 
6 50 -50 0 0 
7 50 -150 0 0 
8 0 -150 0 0 
9 0 1222.222222222222 0 0 
10 1114.634330649659 -501.415465887335 0 0 
11 0 2100 0 0 
12 1900.125308262818 -894.1609546939143 0 0 
13 0 2666.666666666667 0 0 
14 2407.080556173249 -1147.63857864913 0 0 
15 0 3111.111111111111 0 0 
16 2804.663660498559 -1346.430130811784 0 0 
17 0 3600 0 0 
18 3241.987987399283 -1565.092294262146 0 0 
19 0 4000 0 0 
20 3599.78992435832 -1743.993262741665 0 0 
21 0 4800 0 0 
22 4315.378266508133 -2101.787433816572 0 0 
23 0 10000 0 0 
24 8966.520785676501 -4427.358693400755 0 0 
1 0 -172.769948634498 0 487.7544968055191 488.8888888888887 0 0 2 1 -3 
2 122.3606797749979 -172.769948634498 0 457.3432961439855 -5.278640450004218 0 0 2 3 -4 
3 49.99999999999999 -50.00000000000001 0 122.3606797749979 -0.00333442290281738 0 0 2 4 -6 
4 50 -150 0 50 -50 0 0 2 6 -7 
5 0 -150 0 50 -150 0 0 2 7 -8 
6 0 -150 0 0 488.8888888888888 0 0 2 8 -1 
7 0 -501.415465887335 0 1221.970940956613 1222.222222222222 0 0 2 9 -10 
8 0 488.8888888888888 0 0 1222.222222222222 0 0 2 1 -9 
9 457.3432961439855 -501.415465887335 0 1114.634330649659 -172.769948634498 0 0 2 10 -3 
10 -2.842170943040401e-14 -172.7699486344979 0 487.754496805519 488.8888888888887 0 0 2 3 -1 
11 0 -894.1609546939143 0 2099.94897105561 2100 0 0 2 11 -12 
12 1114.634330649659 -894.1609546939143 0 1900.125308262818 -501.415465887335 0 0 2 12 -10 
13 1.13686837721616e-13 -501.415465887335 0 1221.970940956613 1222.222222222223 0 0 2 10 -9 
14 0 1222.222222222222 0 0 2100 0 0 2 9 -11 
15 0 -1147.638578649129 0 2666.654383170227 2666.666666666667 0 0 2 13 -14 
16 1900.125308262818 -1147.63857864913 0 2407.080556173249 -894.1609546939143 0 0 2 14 -12 
17 1.591615728102624e-12 -894.1609546939146 0 2099.94897105561 2100 0 0 2 12 -11 
18 0 2100 0 0 2666.666666666667 0 0 2 11 -13 
19 0 -1346.430130811785 0 3111.109702544029 3111.111111111111 0 0 2 15 -16 
20 2407.080556173249 -1346.430130811784 0 2804.663660498559 -1147.63857864913 0 0 2 16 -14 
21 6.821210263296962e-13 -1147.63857864913 0 2666.654383170227 2666.666666666667 0 0 2 14 -13 
22 0 2666.666666666667 0 0 3111.111111111111 0 0 2 13 -15 
23 0 -1565.092294262146 0 3599.998997894867 3600 0 1 23 2 17 -18 
24 2804.663660498559 -1565.092294262146 0 3241.987987399283 -1346.430130811784 0 1 24 2 18 -16 
25 9.094947017729282e-13 -1346.430130811784 0 3111.10970254403 3111.111111111111 0 1 19 2 16 -15 
26 0 3111.111111111111 0 0 3600 0 1 26 2 15 -17 
27 0 -1743.993262741665 0 3999.993327934862 4000 0 0 2 19 -20 
28 3241.987987399283 -1743.993262741665 0 3599.78992435832 -1565.092294262146 0 0 2 20 -18 
29 2.273736754432321e-13 -1565.092294262146 0 3599.998997894867 3600 0 0 2 18 -17 
30 0 3600 0 0 4000 0 0 2 17 -19 
31 0 -2101.787433816573 0 4799.971484377824 4800 0 0 2 21 -22 
32 3599.78992435832 -2101.787433816572 0 4315.378266508133 -1743.993262741665 0 0 2 22 -20 
33 9.094947017729282e-13 -1743.993262741665 0 3999.99332793486 3999.999999999999 0 0 2 20 -19 
34 0 4000 0 0 4800 0 0 2 19 -21 
35 0 -4427.358693400756 0 9999.706619488945 10000 0 0 2 23 -24 
36 4315.378266508133 -4427.358693400755 0 8966.520785676501 -2101.787433816572 0 0 2 24 -22 
37 -4.547473508864641e-13 -2101.787433816573 0 4799.971484377825 4800 0 0 2 22 -21 
38 0 4800 0 0 10000 0 0 2 21 -23 
2 0 -172.769948634498 0 487.7544968055191 488.8888888888888 0 0 6 -2 -1 -6 -5 -4 -3 
3 0 -501.4154658873351 0 1221.970940956613 1222.222222222222 0 0 4 -10 -9 -7 -8 
4 0 -894.1609546939144 0 2099.94897105561 2100 0 0 4 -14 -13 -12 -11 
5 0 -1147.63857864913 0 2666.654383170227 2666.666666666667 0 0 4 -18 -17 -16 -15 
6 0 -1346.430130811785 0 3111.109702544029 3111.111111111111 0 0 4 -22 -21 -20 -19 
7 0 -1565.092294262146 0 3599.998997894867 3600 0 1 27 4 -26 -25 -24 -23 
8 0 -1743.993262741665 0 3999.993327934862 4000 0 0 4 -30 -29 -28 -27 
9 0 -2101.787433816573 0 4799.971484377824 4800 0 0 4 -34 -33 -32 -31 
10 0 -4427.358693400756 0 9999.706619488945 10000 0 0 4 -38 -37 -36 -35 
$EndEntities
$Nodes
9 929 15 6799
0 15 0 1
15
0 3111.111111111111 0
0 16 0 1
16
2804.663660498559 -1346.430130811784 0
0 17 0 1
17
0 3600 0
0 18 0 1
18
3241.987987399283 -1565.092294262146 0
1 23 0 103
780
781
782
783
784
785
786
787
788
789
790
791
792
793
794
795
796
797
798
799
800
801
802
803
804
805
806
807
808
809
810
811
812
813
814
815
816
817
818
819
820
821
822
823
824
825
826
827
828
829
830
831
832
833
834
835
836
837
838
839
840
841
842
843
844
845
846
847
848
849
850
851
852
853
854
855
856
857
858
859
860
861
862
863
864
865
866
867
868
869
870
871
872
873
874
875
876
877
878
879
880
881
882
69.93787479662899 3599.320587787219 0
139.8493514565122 3597.282607593848 0
209.7080418091288 3593.886828657878 0
279.487577605805 3589.134532720115 0
349.1616204690017 3583.027513540952 0
418.7038718641576 3575.568076220331 0
488.0880829870368 3566.759036330607 0
557.2880646857247 3556.603718852979 0
626.2776973279473 3545.105956925632 0
695.0309406789611 3532.270090394974 0
763.5218437610833 3518.100964170823 0
831.7245545595039 3502.603926415717 0
899.6133298132894 3485.784826523612 0
967.162544946165 3467.650012854996 0
1034.346703378211 3448.206330429 0
1101.140446390987 3427.461118280098 0
1167.518562624482 3405.422206706132 0
1233.455997570571 3382.097914321404 0
1298.927862939536 3357.497044954668 0
1363.909446406496 3331.628884195106 0
1428.376220587221 3304.503196013126 0
1492.303852370267 3276.130219054313 0
1555.668212273267 3246.520662697605 0
1618.445383307978 3215.685703119802 0
1680.611670100691 3183.636979041638 0
1742.143608018126 3150.386587236809 0
1803.017971637463 3115.947078169385 0
1863.211783932435 3080.331451031741 0
1922.702324685038 3043.553148977483 0
1981.467139017786 3005.626054084684 0
2039.484046111678 2966.564481964945 0
2096.731147496418 2926.383176400239 0
2153.186835093003 2885.097303936589 0
2208.829799712436 2842.722447918952 0
2263.639038862083 2799.274602774717 0
2317.593864652897 2754.770168003721 0
2370.673911786478 2709.225941846675 0
2422.859145115966 2662.659115044194 0
2474.12986720084 2615.087264361317 0
2524.466726013254 2566.528345694222 0
2573.850721738052 2517.000687764807 0
2622.263214341993 2466.522984832859 0
2669.68593046021 2415.114289780672 0
2716.100970400935 2362.794006803619 0
2761.490814607655 2309.581884419244 0
2805.838330762694 2255.498007452638 0
2849.126779776241 2200.562790006654 0
2891.339822319409 2144.796967516964 0
2932.461525137548 2088.22158871801 0
2972.476366711358 2030.858008168579 0
3011.369243420117 1972.727877783288 0
3049.125475166216 1913.853138747171 0
3085.730810648112 1854.256013666113 0
3121.171433211167 1793.95899744296 0
3155.43396573017 1732.98484930376 0
3188.505475842725 1671.356583892544 0
3220.373480693546 1609.097462817505 0
3251.025951544011 1546.230986103745 0
3280.451318667572 1482.780882616237 0
3308.638475464902 1418.771101578154 0
3335.576782626021 1354.22580362591 0
3361.256072210326 1289.169351570697 0
3385.666651596904 1223.626300904246 0
3408.799306995943 1157.621390880446 0
3430.645306850677 1091.179535449333 0
3451.196405439843 1024.325812951674 0
3470.44484577153 957.0854572387066 0
3488.383362405862 889.4838485829678 0
3505.005184468883 821.5465031550256 0
3520.304038052105 753.299063900946 0
3534.274148548573 684.7672910567951 0
3546.910242934081 615.9770519827048 0
3558.207551704586 546.9543116133707 0
3568.161810690547 477.7251225648055 0
3576.769262615529 408.3156156807649 0
3584.026658601824 338.751989560861 0
3589.931259339727 269.0605010317999 0
3594.48083612003 199.2674553605086 0
3597.67367170645 129.3991959411936 0
3599.508560960246 59.48209456553603 0
3599.984811296486 -10.45745832445902 0
3599.102242956612 -80.39306403344943 0
3596.861189064531 -150.29832534427 0
3593.262495511444 -220.1468563274668 0
3588.307520630008 -289.9122925819549 0
3581.998134674756 -359.5683011425931 0
3574.33671913171 -429.088590231389 0
3565.326165825203 -498.4469192222568 0
3554.969875790322 -567.6171088183838 0
3543.271757999954 -636.5730507647265 0
3530.236227964648 -705.2887173108149 0
3515.868205936134 -773.7381717916173 0
3500.173115132369 -841.8955779100908 0
3483.156879722036 -909.7352094126333 0
3464.825922471394 -977.2314602847453 0
3445.187162421695 -1044.358853979202 0
3424.248012279427 -1111.092053072288 0
3402.016375537548 -1177.405869092881 0
3378.50064355503 -1243.275271811616 0
3353.709692335194 -1308.675398843037 0
3327.652879280969 -1373.581564747094 0
3300.340039586353 -1437.969270569838 0
3271.781482443147 -1501.81421325746 0
1 24 0 6
883
884
885
886
887
888
3179.513083556353 -1533.854842340681 0
3117.038179713674 -1502.617390419342 0
3054.563275870901 -1471.379938497956 0
2992.088372028007 -1440.142486576508 0
2929.613468184736 -1408.905034654873 0
2867.138564341689 -1377.66758273335 0
1 25 0 89
889
890
891
892
893
894
895
896
897
898
899
900
901
902
903
904
905
906
907
908
909
910
911
912
913
914
915
916
917
918
919
920
921
922
923
924
925
926
927
928
929
930
931
932
933
934
935
936
937
938
939
940
941
942
943
944
945
946
947
948
949
950
951
952
953
954
955
956
957
958
959
960
961
962
963
964
965
966
967
968
969
970
971
972
973
974
975
976
977
2834.151386509321 -1283.198450757447 0
2862.213760409791 -1219.321424153558 0
2888.836669038211 -1154.831176102912 0
2914.006723176169 -1089.760140105658 0
2937.711264337915 -1024.141041586144 0
2959.938370986382 -958.0068818341031 0
2980.676864689102 -891.3909209691103 0
2999.916315629729 -824.3266615229495 0
3017.647047861245 -756.8478316103805 0
3033.860144280433 -688.9883675547276 0
3048.547450990975 -620.7823972499898 0
3061.701581424234 -552.2642229796957 0
3073.315920122177 -483.4683038241413 0
3083.384625988152 -414.4292387114087 0
3091.902635277213 -345.1817487134091 0
3098.865664110611 -275.76065976734 0
3104.270210637478 -206.2008851284763 0
3108.113556795455 -136.5374078533939 0
3110.393769683858 -66.80526319725232 0
3111.109702540616 2.960479126534665 0
3110.260995311672 72.72473253209751 0
3107.848074830068 142.4524111907549 0
3103.872154601819 212.1084476546851 0
3098.335234189308 281.6578105789129 0
3091.240098222451 351.0655221189784 0
3082.590315008716 420.2966755679661 0
3072.390234700264 489.3164532257986 0
3060.644987099543 558.0901438132153 0
3047.36047914951 626.5831595220895 0
3032.543391855287 694.7610540278217 0
3016.201177075389 762.5895390628305 0
2998.342053637113 830.0345023372219 0
2978.975003266425 897.0620243845023 0
2958.109766003423 963.6383958488739 0
2935.756835439858 1029.730133990051 0
2911.927453256768 1095.304000106168 0
2886.63360375276 1160.327015700477 0
2859.888007767803 1224.76647925428 0
2831.704116191747 1288.589982896706 0
2802.096103242277 1351.76542856868 0
2771.078859365325 1414.261044099564 0
2738.667983924382 1476.045398863659 0
2704.879776795937 1537.087420662658 0
2669.731230784425 1597.35641015188 0
2633.240022925679 1656.822056631728 0
2595.424505476829 1715.454453504779 0
2556.303696454762 1773.224113633338 0
2515.897270637724 1830.101983299475 0
2474.225549108818 1886.059457656675 0
2431.309489466508 1941.068394495445 0
2387.170675045039 1995.101128736093 0
2341.831304174002 2048.130486192155 0
2295.31417883711 2100.129797443087 0
2247.642693603057 2151.072910798659 0
2198.840823332044 2200.934206042397 0
2148.933111585393 2249.688606810049 0
2097.944657838975 2297.311593651137 0
2045.901105097413 2343.779216103813 0
1992.82862718886 2389.068104582953 0
1938.75391554615 2433.15548221512 0
1883.704165349818 2476.019176646814 0
1827.707062201752 2517.637630886713 0
1770.790768083477 2557.989914239177 0
1712.98390743162 2597.055732663302 0
1654.315552490629 2634.815439165834 0
1594.81520875966 2671.250043628994 0
1534.512800087034 2706.341222397514 0
1473.438653870008 2740.071327349118 0
1411.623485583182 2772.423394907244 0
1349.098383236892 2803.381154610736 0
1285.894792042492 2832.929037141068 0
1222.044498300725 2861.052182301461 0
1157.579613543779 2887.73644642077 0
1092.532558589718 2912.968409389368 0
1026.936046941074 2936.735381537135 0
960.8230683805041 2959.025409986689 0
894.226872389708 2979.827284655126 0
827.180951588737 2999.130543842293 0
759.7190249795932 3016.925479484549 0
691.8750201227117 3033.203142258892 0
623.6830572704273 3047.955345760963 0
555.177431575965 3061.174670800041 0
486.392595953616 3072.854469102063 0
417.3631436361852 3082.98886667032 0
348.123790900803 3091.572766714035 0
278.7093596064593 3098.601852214443 0
209.1547597795141 3104.072588091424 0
139.4949719115393 3107.982223001029 0
69.7650291281866 3110.32879072129 0
1 26 0 6
978
979
980
981
982
983
0 3180.952380952343 0
0 3250.793650793131 0
0 3320.634920634172 0
0 3390.476190475519 0
0 3460.317460316903 0
0 3530.158730158654 0
2 7 0 721
6079
6080
6081
6082
6083
6084
6085
6086
6087
6088
6089
6090
6091
6092
6093
6094
6095
6096
6097
6098
6099
6100
6101
6102
6103
6104
6105
6106
6107
6108
6109
6110
6111
6112
6113
6114
6115
6116
6117
6118
6119
6120
6121
6122
6123
6124
6125
6126
6127
6128
6129
6130
6131
6132
6133
6134
6135
6136
6137
6138
6139
6140
6141
6142
6143
6144
6145
6146
6147
6148
6149
6150
6151
6152
6153
6154
6155
6156
6157
6158
6159
6160
6161
6162
6163
6164
6165
6166
6167
6168
6169
6170
6171
6172
6173
6174
6175
6176
6177
6178
6179
6180
6181
6182
6183
6184
6185
6186
6187
6188
6189
6190
6191
6192
6193
6194
6195
6196
6197
6198
6199
6200
6201
6202
6203
6204
6205
6206
6207
6208
6209
6210
6211
6212
6213
6214
6215
6216
6217
6218
6219
6220
6221
6222
6223
6224
6225
6226
6227
6228
6229
6230
6231
6232
6233
6234
6235
6236
6237
6238
6239
6240
6241
6242
6243
6244
6245
6246
6247
6248
6249
6250
6251
6252
6253
6254
6255
6256
6257
6258
6259
6260
6261
6262
6263
6264
6265
6266
6267
6268
6269
6270
6271
6272
6273
6274
6275
6276
6277
6278
6279
6280
6281
6282
6283
6284
6285
6286
6287
6288
6289
6290
6291
6292
6293
6294
6295
6296
6297
6298
6299
6300
6301
6302
6303
6304
6305
6306
6307
6308
6309
6310
6311
6312
6313
6314
6315
6316
6317
6318
6319
6320
6321
6322
6323
6324
6325
6326
6327
6328
6329
6330
6331
6332
6333
6334
6335
6336
6337
6338
6339
6340
6341
6342
6343
6344
6345
6346
6347
6348
6349
6350
6351
6352
6353
6354
6355
6356
6357
6358
6359
6360
6361
6362
6363
6364
6365
6366
6367
6368
6369
6370
6371
6372
6373
6374
6375
6376
6377
6378
6379
6380
6381
6382
6383
6384
6385
6386
6387
6388
6389
6390
6391
6392
6393
6394
6395
6396
6397
6398
6399
6400
6401
6402
6403
6404
6405
6406
6407
6408
6409
6410
6411
6412
6413
6414
6415
6416
6417
6418
6419
6420
6421
6422
6423
6424
6425
6426
6427
6428
6429
6430
6431
6432
6433
6434
6435
6436
6437
6438
6439
6440
6441
6442
6443
6444
6445
6446
6447
6448
6449
6450
6451
6452
6453
6454
6455
6456
6457
6458
6459
6460
6461
6462
6463
6464
6465
6466
6467
6468
6469
6470
6471
6472
6473
6474
6475
6476
6477
6478
6479
6480
6481
6482
6483
6484
6485
6486
6487
6488
6489
6490
6491
6492
6493
6494
6495
6496
6497
6498
6499
6500
6501
6502
6503
6504
6505
6506
6507
6508
6509
6510
6511
6512
6513
6514
6515
6516
6517
6518
6519
6520
6521
6522
6523
6524
6525
6526
6527
6528
6529
6530
6531
6532
6533
6534
6535
6536
6537
6538
6539
6540
6541
6542
6543
6544
6545
6546
6547
6548
6549
6550
6551
6552
6553
6554
6555
6556
6557
6558
6559
6560
6561
6562
6563
6564
6565
6566
6567
6568
6569
6570
6571
6572
6573
6574
6575
6576
6577
6578
6579
6580
6581
6582
6583
6584
6585
6586
6587
6588
6589
6590
6591
6592
6593
6594
6595
6596
6597
6598
6599
6600
6601
6602
6603
6604
6605
6606
6607
6608
6609
6610
6611
6612
6613
6614
6615
6616
6617
6618
6619
6620
6621
6622
6623
6624
6625
6626
6627
6628
6629
6630
6631
6632
6633
6634
6635
6636
6637
6638
6639
6640
6641
6642
6643
6644
6645
6646
6647
6648
6649
6650
6651
6652
6653
6654
6655
6656
6657
6658
6659
6660
6661
6662
6663
6664
6665
6666
6667
6668
6669
6670
6671
6672
6673
6674
6675
6676
6677
6678
6679
6680
6681
6682
6683
6684
6685
6686
6687
6688
6689
6690
6691
6692
6693
6694
6695
6696
6697
6698
6699
6700
6701
6702
6703
6704
6705
6706
6707
6708
6709
6710
6711
6712
6713
6714
6715
6716
6717
6718
6719
6720
6721
6722
6723
6724
6725
6726
6727
6728
6729
6730
6731
6732
6733
6734
6735
6736
6737
6738
6739
6740
6741
6742
6743
6744
6745
6746
6747
6748
6749
6750
6751
6752
6753
6754
6755
6756
6757
6758
6759
6760
6761
6762
6763
6764
6765
6766
6767
6768
6769
6770
6771
6772
6773
6774
6775
6776
6777
6778
6779
6780
6781
6782
6783
6784
6785
6786
6787
6788
6789
6790
6791
6792
6793
6794
6795
6796
6797
6798
6799
459.5431966653659 3141.140927930644 0
1341.816193954596 2872.30264979034 0
2114.725324657715 2372.483599437796 0
2703.28738613305 1655.763883637861 0
3057.454037830763 813.2757293899842 0
3169.238720991439 -104.3235307366425 0
3002.977387146974 -1013.841643199308 0
3113.623470845485 -528.1857655238592 0
3139.978577046521 395.8053370328578 0
2898.962211220628 1279.014029179643 0
2413.309411299451 2066.369608855703 0
1716.612922671398 2667.894963829329 0
875.0151349602784 3049.521745303026 0
1084.499745519234 2988.372127066696 0
1890.229935875167 2540.125323660566 0
2543.522004171296 1894.169489921485 0
2981.068748043265 1079.081801049845 0
3166.184011817078 180.7236773435992 0
3082.026692179787 -734.9356672625528 0
248.1716431823112 3161.788029546026 0
673.3295734514383 3095.07145052879 0
1533.303301201218 2775.164848142437 0
2268.836269080768 2219.505849361648 0
2803.395876911371 1472.402057371791 0
3125.884263247115 603.6964305613907 0
3153.599873022888 -311.6045631378765 0
3400.089303229483 -998.4658120511026 0
3544.750941795432 24.62242817892735 0
3394.416118281333 1032.873472754838 0
2937.934520294708 1970.319657568009 0
3050.186400590924 -1406.622085102986 0
2254.883900771801 2737.125604972871 0
1369.111414621039 3264.480499708036 0
3314.633694924111 -1254.981421760641 0
857.8019092688437 3433.381770797798 0
1807.56025559109 3048.2310619793 0
2594.174620911732 2399.976571308413 0
3184.850057238939 1559.691613918558 0
3495.889577965791 569.9683226781724 0
3512.028723624494 -447.1366493540617 0
3533.070108413327 -243.9937869616912 0
3458.550449740006 771.9901402718715 0
3082.757288062618 1731.328334963856 0
2458.297516689662 2542.77488839546 0
1614.660258303452 3146.907827918474 0
653.7960293535557 3481.837990919695 0
377.7048821464633 3513.60164456345 0
3464.250192091168 -724.8898565222502 0
3530.705090610425 307.3857929529215 0
3279.37454210809 1295.742852939005 0
2779.907261435618 2190.541502222481 0
2041.161672061335 2891.79079584271 0
1115.010523293714 3353.344138222769 0
72.46615586084597 3353.190365847728 0
3044.976255436062 -866.7742481783173 0
3172.464276088785 38.85130560647971 0
2636.676732819283 1780.499086934601 0
2012.112372591877 2457.197943555825 0
2957.774866331384 -1144.093564402386 0
3025.291674575197 947.0699197414293 0
1217.65783830248 2928.256061094961 0
983.7652607620626 3411.856104885279 0
2151.093901788969 2817.248253927026 0
1916.890561317802 2976.716302863982 0
2695.687532994586 2295.753241441715 0
3506.44158722245 428.7148099920577 0
3540.952533493701 159.5516754143389 0
516.5232380679904 3497.653758936359 0
245.3654156636756 3531.179627193889 0
2356.823729586569 2643.853947907571 0
3010.432624086735 1849.676910459582 0
3417.082089889237 909.6475790187014 0
3487.470454358821 -591.1660765956727 0
3239.644493558578 1436.659423421546 0
1248.46458305925 3317.422529969948 0
1499.068498059806 3203.713830243113 0
2863.938529754504 2086.133545681732 0
3341.269152422885 1159.782087780833 0
3541.570674434825 -109.9078642106562 0
3443.877046341818 -864.4132526703406 0
3354.269090670029 -1127.16082114936 0
3257.746487220302 -1381.466697249316 0
2908.535249244223 -1274.647100105569 0
105.1949047795354 3176.514817957288 0
53.55846336809447 3494.784311144218 0
3173.293825856279 -1466.2906145209 0
178.2986758952803 3167.833041779687 0
217.6338784356465 3225.164454486561 0
287.1641863806682 3219.638611674815 0
256.0656928819756 3282.605643897671 0
325.7486287195388 3277.916655245934 0
294.3886828328456 3340.38544911683 0
364.1613027336146 3335.587682611282 0
224.7131606873044 3345.125089286356 0
395.542551871523 3272.845550034356 0
433.9126632590525 3330.211203434818 0
465.2013385194865 3267.131918052564 0
503.4720038080271 3326.500027111999 0
534.7764428750576 3264.009310037688 0
573.182422017991 3323.445862473862 0
603.5507886200699 3263.386429103974 0
642.2610822214347 3319.892440150624 0
671.8718637326244 3261.580173382909 0
711.6290480397704 3317.247226060679 0
740.3293610052469 3256.999855327475 0
780.3731939152387 3314.126737822183 0
809.4999171332595 3250.801145480706 0
850.1645439766194 3307.845416435169 0
880.2123431516417 3243.663988690488 0
765.7055716920182 3195.574247365022 0
565.8473849300331 3203.008816488164 0
748.7423780448038 3378.065886045584 0
263.0368675307374 3404.096619982046 0
193.1835871397746 3407.257205876068 0
402.965161283895 3392.077115312072 0
542.0699051052775 3381.855402434469 0
921.1891434407038 3300.739743597833 0
951.4730437613903 3238.286092169154 0
907.7354660923411 3177.694771303421 0
981.7561938784025 3176.220866965366 0
1023.389609649466 3234.83706686308 0
1053.133241586665 3172.42223288868 0
1012.447507627272 3113.519779676794 0
1084.917925372344 3111.489976108456 0
1123.853961747413 3168.315077724859 0
1154.879923408541 3108.24220621094 0
1193.48344969861 3163.335651814587 0
1224.432671867722 3102.992255366674 0
1263.270760133955 3159.381022660627 0
1294.092453546582 3097.839286717671 0
1164.015530254017 3223.338663115319 0
1332.719522932255 3154.195932363524 0
1363.444000646856 3092.868306722491 0
1323.468248472044 3037.674807441317 0
1395.210068093817 3034.498146023548 0
1432.735064894596 3088.09577562355 0
1464.443772770576 3029.16581800292 0
1426.489605111455 2973.945817927237 0
1494.84098943658 2967.97291548084 0
1534.765491909253 3025.433596200602 0
1564.80993943934 2960.706592945758 0
1603.990118903351 3019.680052206483 0
1635.360501053516 2954.992347869264 0
1455.206513580663 2912.626742613946 0
1594.727500346814 2888.07471797943 0
1669.282023085662 2893.672460271124 0
1705.451358088488 2951.586616573639 0
1736.883999471193 2890.221945160256 0
1699.849457880321 2835.577299367084 0
1768.067651587915 2830.621045073481 0
1806.795020775884 2884.520686573784 0
1834.969179019071 2821.59961308466 0
1788.239007812905 2762.096044761406 0
1866.749710688712 2759.526586084338 0
1829.773167932637 2701.356885397724 0
1899.359624027392 2697.973429866968 0
1937.029196291499 2754.872046917894 0
1969.339644152767 2694.047832174871 0
2004.903005427251 2752.087589977294 0
2038.639439010769 2688.717622806952 0
2001.788466090941 2632.40978403505 0
2071.643811379492 2627.401939357609 0
2106.755710358616 2684.897975503329 0
2139.848889955559 2621.255535916492 0
2102.944085700469 2565.463260753757 0
2171.202851593217 2559.174105600546 0
2131.616899821435 2502.678213325554 0
2201.587725166888 2496.628308862973 0
2242.371151308488 2554.355664339887 0
2272.06005177548 2491.057772611956 0
2232.726829592336 2433.737244962595 0
2302.64317290996 2428.018021964221 0
2263.826465553464 2370.95557317458 0
2332.47100415937 2362.614744448814 0
2372.788082465253 2423.68247274908 0
2403.64373403141 2360.581711869567 0
2444.043534192064 2417.141290894531 0
2474.302088591764 2356.283697391131 0
2436.22343845969 2297.337122621476 0
2504.516957791855 2295.48369653112 0
2468.468283392204 2236.186600797873 0
2534.272578190524 2232.935327493335 0
2498.795515514682 2175.407679634332 0
2565.6955047687 2171.090556918524 0
2528.326492067572 2113.827783842283 0
2597.375664163671 2108.82653742821 0
2559.489240277922 2052.663360101313 0
2628.169022593816 2045.844538044982 0
2636.011326328588 2167.364924094372 0
2435.018335778202 2179.369455503966 0
2567.964350896993 2290.507813781039 0
1185.17602876592 3050.636922070018 0
1874.547285596539 2875.587137370144 0
2589.975971018433 1990.269575007558 0
2657.584951066262 1981.341999654747 0
2697.224251350608 2038.632629109936 0
2728.203420588123 1976.077038797453 0
2689.888583928998 1917.830184592751 0
2760.483359071296 1914.534000052391 0
2723.964827557318 1855.837105323865 0
2792.487596985711 1850.815013474295 0
2752.174170282397 1786.173714425439 0
2826.312202099058 1787.600382972969 0
2862.012667796342 1848.893380112093 0
2893.693155337427 1786.657701805761 0
2861.313767575738 1727.756956414049 0
2927.105743354949 1723.212670239623 0
2890.308202549114 1666.853421613512 0
2951.511198920911 1659.886741467648 0
2918.679551308073 1603.161664240444 0
2982.116403574302 1597.087706088291 0
2954.121864029175 1541.604653584937 0
3016.681593691821 1537.214965786849 0
2984.825154433282 1480.728234648651 0
3048.554818079888 1474.192879236165 0
3015.926880574541 1419.881201398026 0
3080.686162506248 1412.871170443517 0
3047.28010891221 1360.961241568734 0
3112.139085883399 1351.894396533318 0
3075.437218568416 1299.680424695569 0
3142.652981663503 1289.810742701202 0
3104.579074954214 1236.300933584935 0
3172.993069141408 1227.206217749792 0
3134.271563594679 1172.33353546689 0
3036.436935669605 1248.956276303195 0
2848.304077077913 1609.859076486754 0
2946.075424304706 1422.968677592628 0
3052.247646448258 1599.943187369427 0
3203.271259880865 1164.24052709194 0
3164.5691121513 1107.298285484911 0
3233.589686107744 1099.895414134672 0
3195.418258355782 1041.567922335018 0
3126.062664453184 1048.83269162407 0
3157.08171368398 982.7026784518891 0
3226.541834472843 978.0019574358784 0
3190.752075794452 918.6026634734715 0
3258.59622358865 914.9044172374031 0
3221.823804611097 855.5223934088451 0
3290.716026539732 851.5605349981442 0
3251.727297295574 792.6460764561925 0
3321.805176771416 787.9873784304524 0
3280.947119404191 730.5585903868969 0
3211.681093191105 733.1933202804535 0
3241.011075445455 670.4463272580074 0
3311.404227807698 667.7821774536555 0
3272.453364960871 608.8377487047371 0
3346.270557756266 604.7049166649535 0
3305.702692042406 546.3177161048709 0
3236.322802555255 550.4492426829582 0
3266.542605652229 489.6268229225228 0
3336.304883005864 483.6761716516828 0
3298.767373893993 426.8341892720735 0
3366.564697871022 421.7610993857793 0
3328.910201090738 364.6134408156552 0
3397.593732077497 359.1419617073962 0
3358.087276398193 302.1424884357644 0
3290.213783575924 307.6793777795111 0
3318.730788392408 245.6194003808183 0
3386.660144851318 240.0070245015485 0
3346.485376299525 182.142874566021 0
3385.536190126869 664.4274954125746 0
2797.797610036946 1971.967165979149 0
3403.223734539578 476.7015538927307 0
3193.348062186497 493.553746535479 0
3416.835433974879 178.9048489797669 0
3377.855521327597 119.4417672821121 0
3299.170817965351 119.0237835972888 0
3343.867743404746 60.92935004689949 0
3411.080390590223 58.49895936125667 0
3374.470015497798 -1.062833137343261 0
3307.244357655156 2.609711925495489 0
3338.770664871131 -58.53101748697004 0
3406.020199586799 -64.66423738334829 0
3367.712091710275 -122.1651588945551 0
3292.709625729952 -114.9219435441207 0
3329.774139169948 -181.0194096543995 0
3398.118903772908 -187.9264637392988 0
3358.330826633787 -246.3557528936852 0
3284.003711509359 -245.1904317382258 0
3322.837973996259 -304.4040442046067 0
3388.451105057426 -308.6394880717444 0
3351.802234769957 -365.3189863978648 0
3285.151428330892 -362.4944831781114 0
3313.293207048742 -423.2004889353132 0
3244.043786363896 -419.0742822442432 0
3275.289459628586 -481.5959566564767 0
3342.950251373477 -484.6259755326724 0
3306.143355498657 -543.6298613056013 0
3417.192296440175 -370.7259318156294 0
3374.371825564989 -546.8009723599098 0
3338.157585768804 -606.4260155963439 0
3267.630417875534 -601.9362224717759 0
3298.136151658672 -663.8926914687149 0
3228.197089724146 -659.3313304660737 0
3258.766581461044 -721.5453813771367 0
3328.582763782405 -726.104607055193 0
3289.487719324699 -783.8520831714737 0
3218.11576264707 -779.5899388389863 0
3250.251211848451 -842.4667043534556 0
3180.461689651343 -839.2813799926528 0
3212.680810206845 -901.444723090132 0
3279.344574944377 -903.5540192488443 0
3241.990781231172 -961.3795771411712 0
3175.309773253105 -959.5059706907296 0
3204.751009553776 -1021.046186035538 0
3137.795392510214 -1016.211231898954 0
3167.876018124854 -1078.66795808497 0
3100.337717573257 -1073.223486289638 0
3129.093815091971 -1136.674151936813 0
3198.4639524662 -1141.857683176183 0
3157.525461498531 -1199.493875014015 0
3088.27333538735 -1194.574104734688 0
3119.037996831523 -1257.278253192929 0
3049.637114960031 -1253.097228872334 0
3272.300692921706 -1020.542701468399 0
3186.667837677135 -1261.74644667889 0
3148.556612243912 -1319.249477399773 0
3295.297934267941 974.6654304532842 0
3251.109007552366 251.6761910219344 0
3221.961435330836 313.0614531299162 0
2310.930337354346 2547.770082599549 0
3113.849036529871 1467.211627592125 0
1971.285018284116 2811.542944622252 0
3179.746984339873 1344.249284691265 0
3360.593836811815 -787.8260721573267 0
2523.750848664111 1999.146917601532 0
3408.252767851318 -486.0595836207047 0
3124.893339531683 922.191790874273 0
1862.860843425629 2642.968180667373 0
2040.130939404207 2816.726927407757 0
3109.378985163973 -955.2297288720906 0
3198.404629309418 -598.9346483274458 0
3161.256070288388 -657.43340630981 0
3241.969515453833 1220.571815620729 0
152.9600750083873 3349.406368934926 0
3169.141884638213 671.6929817383029 0
3143.751456940038 735.8564426818607 0
123.5464628253955 3412.543211016291 0
118.7930558820605 3290.462878443104 0
162.2177395028334 3469.966803346494 0
2287.519220709069 2293.872904027198 0
2225.468352145595 2320.2513926428 0
2515.607934142143 2410.239521484741 0
3000.440428106177 1713.859104373904 0
3206.452235767977 -479.273765006866 0
3170.725427829749 -419.0978314898174 0
3454.910454142464 235.0581207262733 0
3453.562827676425 -314.5671133085054 0
2657.063119993142 1853.694630899132 0
2173.437383109345 2678.604795722693 0
2288.126066027706 2615.276834953635 0
3415.500818814466 -614.3775909568551 0
3482.358211123136 -378.0394962873141 0
1303.618957086976 3220.226435349225 0
3364.381112318558 846.3283342571336 0
1850.769706274727 2943.567604411493 0
2934.500222119715 1848.274086345683 0
3428.430091863841 599.998286871317 0
3456.099328841576 668.3907354804278 0
427.4596378753859 3207.226571613772 0
1572.49670853822 3083.011858829309 0
888.5683588127954 3363.388199826661 0
1786.508782162364 2637.794049201189 0
2413.638560373093 2480.27631005784 0
1048.610428814974 3054.969188968033 0
986.5256288798541 3059.734246265888 0
3011.280738531236 -1185.992041479009 0
2980.095999213814 -1250.913139486843 0
3016.384278222198 -1307.175512905924 0
3139.7302725519 -773.8227629171897 0
150.571836755373 3231.403322943036 0
3109.80782242955 -847.8479863369218 0
2063.35709493235 2510.84857366496 0
2089.791250179187 2446.074086994524 0
2003.04588570924 2521.312129454104 0
3177.133892583546 252.1636550073164 0
1642.037860422616 3077.875561449243 0
1537.244590769386 3142.286280498481 0
2901.010988177076 1909.919465523974 0
2144.085361787521 2746.764431869617 0
2835.342414104643 1407.314996897462 0
2875.754339627616 1466.430764780511 0
2830.280234522161 1535.047484762445 0
3099.854849678785 674.1288098957739 0
3201.991325593969 610.08243902506 0
3126.497539535907 532.0424617469916 0
3160.854535418696 -244.7296033969287 0
3216.614002020997 -279.7260052242394 0
3165.726513166883 -174.5198308789628 0
3229.299842001792 -141.681296860857 0
3229.649166789503 -73.07253633730582 0
740.4303232294793 3080.989402221929 0
1595.881140932113 2741.325147272403 0
1592.540712297409 2811.259240083659 0
1533.313536217449 2841.528906344973 0
2954.625095686498 1145.560284007208 0
3024.304580044031 1130.588326456201 0
3054.033730170288 1062.243593750073 0
2927.562415502491 1211.683792830502 0
2968.030045201668 1264.581947558539 0
2938.727313696518 1340.845236869762 0
2312.755972248604 2167.189285774491 0
2334.675422857931 2234.366286092542 0
607.7007239394921 3109.523090066734 0
655.4372318637143 3153.81170925178 0
538.8566110777923 3135.973289579075 0
1151.75124003124 2952.851648305003 0
1657.326478015717 2704.63592436142 0
1719.838661480655 2733.126868637636 0
3036.937600848607 -942.3765347514454 0
2736.613352976805 1595.931782317235 0
2778.315221273318 1652.383513980933 0
2734.962721467296 1717.690413857595 0
3037.467884813424 879.3049952440715 0
1415.160028203266 2848.808261080181 0
1279.781322267197 2902.219947646432 0
1330.478716352173 2929.460921300333 0
1282.114280552598 2973.035369915013 0
389.3790267284968 3148.461639274223 0
318.1484400920286 3155.752329345233 0
808.1119141573861 3065.357843005328 0
858.8346478026419 3118.940618582297 0
2357.976965663904 2115.241470508619 0
3169.77920444249 109.5034162547917 0
3231.732188750172 78.37966166845285 0
3229.647366561 144.6139111346725 0
3240.225097679101 3.309537358774387 0
2975.821360647285 -1078.188953270541 0
1474.844471788617 2806.571884043265 0
2768.632452831904 1534.280514804049 0
2667.090013865686 1713.990519397214 0
2867.756003392793 1343.699607138723 0
3121.798188428096 -594.7153342238707 0
2587.223661952974 1842.038813896956 0
3172.18012229555 -33.18000136323531 0
3005.79131534263 1011.160596959964 0
1501.741380974026 3084.986589986373 0
497.5529764937158 3201.467958415468 0
2366.1226144614 2297.675222158817 0
1662.632328830542 2779.429408643527 0
1255.708112032585 3039.447562550297 0
3189.997101044985 -716.5713212220098 0
835.1336311357738 3186.418321592461 0
936.9867844291271 3102.847144460398 0
3146.203187415274 -901.003803415656 0
2462.430232425324 2120.899838097625 0
2490.328773166036 2058.813698600116 0
3261.591451973369 369.2822022899255 0
3238.583426360587 -540.4799186848516 0
2194.464800719828 2375.698865739548 0
2160.818805022898 2437.883386553831 0
3184.246518497348 795.8475949237101 0
3156.294570316871 858.2578703294703 0
3061.907254912514 -1131.293519128317 0
2611.720792074135 1918.946416677422 0
1117.817341969582 3053.655509891644 0
3232.705639596989 431.8305775038858 0
3080.487137823749 985.1997373795152 0
1931.367728339115 2640.605684946911 0
3080.273220568321 -1309.575575446513 0
993.7420944359867 3296.539800130448 0
1066.566856293264 3295.062598162624 0
1402.340620137862 3144.667096313121 0
3445.053456137982 119.5624320849702 0
3441.33980176514 -5.685115225039945 0
3479.716339616217 -71.0649018148509 0
3307.466445973948 -961.7873425380395 0
3344.339651323812 -907.5548300976916 0
3113.049351365426 -1435.279822053211 0
3178.563366051077 -1391.777765518249 0
3223.615831537008 -1204.832610364585 0
3275.803405163789 -1148.467947106704 0
2766.24176807463 2032.156253395743 0
2735.888547474595 2093.462647090211 0
1903.86798692673 2815.335937012796 0
3380.038375163289 -426.8173857554153 0
2210.234361401407 2615.927071326885 0
1673.994100281585 3016.428451910562 0
1708.118806407297 3078.284889775004 0
3367.32518862939 -668.0150720446139 0
3318.170143365689 -845.7809742778318 0
2342.062617135693 2485.336459494548 0
2543.058154653017 2353.949558814586 0
3263.73384696161 1037.827773140432 0
3300.60166480046 1098.174359797189 0
2600.475060672778 2230.247921819699 0
2669.031334201502 2229.957894603477 0
3434.879123897381 -128.7023888745642 0
3471.748970484859 -198.2327726026855 0
3236.846706939542 -1082.871893415606 0
3424.602069683649 296.2655898398702 0
3472.484188534031 351.5755364920817 0
2667.075216332203 2102.692807070859 0
3351.912055384138 725.4672123950832 0
3377.332636401093 539.8035462550388 0
1094.148518606997 3230.340672481193 0
1775.084158170354 2944.948493246628 0
2965.867714755689 1784.042279373758 0
3039.16888186819 1785.631240041877 0
3060.351093723693 1670.01235747864 0
3117.953914562189 1636.671896952092 0
2830.295724606113 1911.402891447794 0
3081.170212494299 1529.480529774783 0
3147.114859920152 1406.041159896067 0
681.1903520018348 3375.797753796833 0
713.3580635574632 3434.595807011687 0
472.2016811738918 3386.984753386155 0
442.9727095363993 3455.999952699837 0
3210.812330523524 1281.677739876322 0
2072.663406180349 2747.01248498757 0
611.3618101860609 3377.783014140855 0
581.3425162746418 3442.934789045419 0
819.5374712522625 3374.25615026639 0
3426.110212339044 -251.1629706425369 0
3327.503626461028 910.6284630540299 0
3364.406624350251 971.9174715867108 0
1231.61530555482 3217.453628168697 0
3434.427372861512 417.9112512929804 0
2484.422228531073 2470.958370000028 0
2380.315497936025 2541.214096984642 0
332.9189012040544 3397.080882490948 0
303.8515588332223 3470.023233932503 0
1137.81578096282 3285.613774718143 0
1036.056083788804 3369.226812738702 0
2713.980873618262 2166.80682448326 0
1938.266600394369 2868.664083219582 0
2867.025821211795 1969.954626486786 0
720.3507931205431 3143.477756895453 0
2974.062178877428 1910.795189404618 0
186.7418519004106 3287.404632915853 0
3437.528224558095 836.7317605646746 0
1749.012756582234 3016.257578337661 0
3272.15775231112 1158.552071482101 0
357.3426337534339 3214.451076647858 0
3218.418910035713 -1322.818026025708 0
3313.514072755943 1225.393167233854 0
3222.582213156441 -213.6462612974787 0
3211.882662638453 -354.5441874915034 0
1184.42348088762 3336.359577953006 0
1975.207800870731 2927.530378101091 0
3265.467260249208 1371.205527221279 0
3477.481731612701 -658.8244183993449 0
3504.490405025306 -523.062871808774 0
3505.61135856316 503.306275881313 0
3211.657596797378 1499.562202721389 0
2650.220487202434 2350.662237233244 0
1861.808852471437 3011.558696991026 0
2825.747365901023 2141.050071894634 0
3524.039300740463 233.4513391376676 0
3437.890158181869 -796.0450024181398 0
1309.510446639699 3289.528899236085 0
1434.139707081173 3239.649963593136 0
2305.845886738579 2687.782056840555 0
3543.704782507181 91.89336496417184 0
3543.144858190462 -43.53757725206705 0
3376.666006601766 -1064.648743670617 0
3334.472534154788 -1190.424676422242 0
3538.177378492088 -176.6625799140557 0
2921.329347301221 -1342.942063385603 0
3135.578702093204 463.3911562766742 0
3278.050095705279 190.4962256255686 0
3414.822270723132 -925.4311731128055 0
227.9809863056304 3466.119975200085 0
3154.478003078915 328.3921642302147 0
179.0121287561872 3533.304911846318 0
3397.124314347324 -730.5936148380076 0
785.6371047148227 3452.918682871381 0
3287.369694195435 -1317.21107300466 0
2738.996985689314 2245.913567669294 0
50.88056266936229 3215.359584991048 0
58.03114820601881 3428.309282189571 0
310.1470974572684 3537.48442764884 0
2901.395906346592 2028.52737302288 0
3392.194124393251 781.4886047558834 0
2096.771592093762 2855.03628316438 0
2987.479673813343 -1365.547190769448 0
3527.658420864896 -317.1803489771692 0
3483.653751422848 57.91540084109837 0
3446.370791598719 -431.2840182311504 0
2934.789547128109 -1204.966407621713 0
3305.383260422985 -1081.652356981782 0
371.7568762133205 3446.331351572162 0
2167.009752859185 2311.614976854175 0
2693.7163961355 1806.953034665935 0
2402.637601422147 2237.087562458303 0
3420.185017316374 721.3000070386689 0
3442.72019582021 -541.2456007052657 0
2202.68927660817 2777.836129693426 0
107.8134819733193 3530.209723195954 0
922.8263568623443 3420.725498183488 0
3366.875466076946 1095.325236387164 0
3095.786515143229 -667.0813097029782 0
3077.979192984852 743.6101031544997 0
3070.702392195113 -1009.589496614353 0
1836.8262806518 2582.384893366349 0
448.7985569204095 3521.916493750116 0
3445.123949376326 526.5584219777347 0
3094.734555368127 1117.38348701726 0
788.0944801896403 3131.793031610415 0
3234.182885225926 -1445.109592307638 0
3136.79488025808 -477.130082338235 0
1005.4739844367 3003.336342256386 0
1390.235074924673 2917.149374493107 0
1522.763253177524 2906.085885424212 0
1468.762656962127 3141.926210763385 0
2238.864759964351 2676.831210523277 0
3104.702766113787 -1369.480220672919 0
2553.961519159875 2461.646385672432 0
2832.917225233748 2028.732390615531 0
3534.085357516852 366.9487489357373 0
1946.172784816539 2498.551255884994 0
511.0220100316401 3433.085731300448 0
1957.552059990148 2571.781008902494 0
2039.769009028243 2571.80195500952 0
3057.898592610406 -803.4932023414426 0
3252.070518923807 -1261.671015728755 0
1768.704154447406 2699.941768946595 0
3065.076615613994 1183.713787863378 0
1209.41768429575 2991.554206932498 0
1204.560396509834 3274.061877702983 0
2629.792716841106 2289.678851998079 0
2454.666414261839 1999.974683102245 0
1677.514440650437 3127.418369084234 0
2409.249315621311 2600.497227913028 0
2797.995727274234 1724.71212733791 0
3331.005449773263 1034.712500265253 0
1377.744307858488 3201.717487366408 0
3036.320044135888 -1071.907639070455 0
586.5173765045652 3505.525412659956 0
2050.837049770817 2401.375972094119 0
3198.100224223377 378.5312051991062 0
3480.327936651599 178.3780733389647 0
3119.898534797053 800.2581628700046 0
3337.350723319935 -1014.452766069033 0
3166.413072955387 1610.67017467349 0
2219.2146279587 2258.971812894084 0
3477.882596499727 719.9494475497419 0
2496.589477599479 1944.865820349471 0
697.710063730377 3203.275681154508 0
3424.160938447152 -680.6512182457503 0
958.3905233449276 3355.048126529604 0
2375.399618635263 2177.548836258175 0
2799.28084115121 2086.510752405015 0
3270.676320345698 -182.1207059597096 0
54.4098755924477 3279.822491387884 0
2835.147079663644 1676.414380083729 0
3286.283430355919 57.28271188559197 0
2996.132984053313 1196.720168351791 0
3383.344396612456 -848.9584710373456 0
3220.325143330213 201.8801043370033 0
936.634267030398 3025.168785692435 0
1643.419321673645 2841.581834677074 0
3133.221191240544 -707.8649301465548 0
3458.965600512605 470.6384626073633 0
3177.941953996837 554.3548033576112 0
1808.866528630582 2992.932365099614 0
3120.382436439532 1576.533315786753 0
648.2097542747114 3422.589870982898 0
2792.42906773642 1585.500474470284 0
100.9663571787044 3467.165858178235 0
3173.267600994945 -538.3255894733173 0
3282.026905017285 -47.69302957464212 0
3009.396233732466 1314.202121542142 0
2872.528002393535 -1322.791798000115 0
3141.030249809124 -369.2653155838013 0
51.09366101873926 3161.654655652721 0
3281.717145173443 -1208.436516538048 0
3119.977925736317 1691.523461141996 0
2552.062559924304 1948.775979319442 0
3492.550833043544 -137.3958740375645 0
1911.210432625022 2918.497800490979 0
50.95504325102306 3548.574184129613 0
3493.622088814856 625.875046245091 0
1358.288042145955 2982.634082439257 0
2962.681125829802 -1308.093674050265 0
2595.377535078343 2340.944003109303 0
3498.52113855802 -7.549953054386432 0
3218.253402512373 -1496.542139551679 0
632.3665501438628 3207.950983938625 0
3171.222975613969 1455.495945869091 0
2991.191074559029 1371.319097640771 0
3094.373747758062 865.9858486658902 0
3142.750784161201 1516.514364399158 0
2892.119049699227 1395.193598943907 0
2892.88290871416 1541.081612907488 0
2930.731938221788 1490.562788702843 0
1729.570529533938 2788.499546105415 0
2347.475127891393 2588.343578305257 0
3266.067799834709 -308.8051986951049 0
2520.984306629605 2513.671823495163 0
3462.772576784009 -485.7577447439913 0
1893.329477440465 2597.694141225099 0
1481.361602403448 2862.143405001345 0
3200.594722343426 1392.141725410838 0
1261.027698340477 3264.183092292786 0
2770.847639898015 2137.91577909404 0
3479.41225322287 -261.7343633138277 0
1764.014088906243 3081.391169778879 0
2100.949040250961 2796.55767627127 0
3089.580043786833 -902.7130315114089 0
3006.135618662623 -1125.394735331345 0
3536.904052054123 -387.0461025120503 0
1566.081717501477 3192.258044779292 0
1993.210406202951 2863.251025838678 0
721.545773765487 3487.817165186461 0
1148.81999993648 3008.222638925723 0
2200.660961737272 2726.270899323025 0
3228.974545394235 1329.692256352224 0
3479.584602278723 284.2018844240381 0
3422.36745719702 979.780279888894 0
3043.320555038479 -1351.172759635197 0
3177.883674555586 433.2266857362184 0
3007.049468384179 1647.614842689064 0
599.8495784623633 3162.489638298329 0
2409.333413840795 2132.038957211134 0
2698.948714371983 1757.713221816721 0
3500.567702860746 124.2355427066229 0
1438.645418386435 3186.368148044 0
3362.198630769722 -959.6196397042609 0
96.76865363930486 3241.040112075725 0
3070.234119258582 922.6265432875376 0
$EndNodes
$Elements
5 1856 802 13127
1 23 1 104
802 17 780 
803 780 781 
804 781 782 
805 782 783 
806 783 784 
807 784 785 
808 785 786 
809 786 787 
810 787 788 
811 788 789 
812 789 790 
813 790 791 
814 791 792 
815 792 793 
816 793 794 
817 794 795 
818 795 796 
819 796 797 
820 797 798 
821 798 799 
822 799 800 
823 800 801 
824 801 802 
825 802 803 
826 803 804 
827 804 805 
828 805 806 
829 806 807 
830 807 808 
831 808 809 
832 809 810 
833 810 811 
834 811 812 
835 812 813 
836 813 814 
837 814 815 
838 815 816 
839 816 817 
840 817 818 
841 818 819 
842 819 820 
843 820 821 
844 821 822 
845 822 823 
846 823 824 
847 824 825 
848 825 826 
849 826 827 
850 827 828 
851 828 829 
852 829 830 
853 830 831 
854 831 832 
855 832 833 
856 833 834 
857 834 835 
858 835 836 
859 836 837 
860 837 838 
861 838 839 
862 839 840 
863 840 841 
864 841 842 
865 842 843 
866 843 844 
867 844 845 
868 845 846 
869 846 847 
870 847 848 
871 848 849 
872 849 850 
873 850 851 
874 851 852 
875 852 853 
876 853 854 
877 854 855 
878 855 856 
879 856 857 
880 857 858 
881 858 859 
882 859 860 
883 860 861 
884 861 862 
885 862 863 
886 863 864 
887 864 865 
888 865 866 
889 866 867 
890 867 868 
891 868 869 
892 869 870 
893 870 871 
894 871 872 
895 872 873 
896 873 874 
897 874 875 
898 875 876 
899 876 877 
900 877 878 
901 878 879 
902 879 880 
903 880 881 
904 881 882 
905 882 18 
1 24 1 7
906 18 883 
907 883 884 
908 884 885 
909 885 886 
910 886 887 
911 887 888 
912 888 16 
1 25 1 90
913 16 889 
914 889 890 
915 890 891 
916 891 892 
917 892 893 
918 893 894 
919 894 895 
920 895 896 
921 896 897 
922 897 898 
923 898 899 
924 899 900 
925 900 901 
926 901 902 
927 902 903 
928 903 904 
929 904 905 
930 905 906 
931 906 907 
932 907 908 
933 908 909 
934 909 910 
935 910 911 
936 911 912 
937 912 913 
938 913 914 
939 914 915 
940 915 916 
941 916 917 
942 917 918 
943 918 919 
944 919 920 
945 920 921 
946 921 922 
947 922 923 
948 923 924 
949 924 925 
950 925 926 
951 926 927 
952 927 928 
953 928 929 
954 929 930 
955 930 931 
956 931 932 
957 932 933 
958 933 934 
959 934 935 
960 935 936 
961 936 937 
962 937 938 
963 938 939 
964 939 940 
965 940 941 
966 941 942 
967 942 943 
968 943 944 
969 944 945 
970 945 946 
971 946 947 
972 947 948 
973 948 949 
974 949 950 
975 950 951 
976 951 952 
977 952 953 
978 953 954 
979 954 955 
980 955 956 
981 956 957 
982 957 958 
983 958 959 
984 959 960 
985 960 961 
986 961 962 
987 962 963 
988 963 964 
989 964 965 
990 965 966 
991 966 967 
992 967 968 
993 968 969 
994 969 970 
995 970 971 
996 971 972 
997 972 973 
998 973 974 
999 974 975 
1000 975 976 
1001 976 977 
1002 977 15 
1 26 1 7
1003 15 978 
1004 978 979 
1005 979 980 
1006 980 981 
1007 981 982 
1008 982 983 
1009 983 17 
2 7 2 1648
11480 6345 6504 6503 
11481 6419 6714 6101 
11482 6512 6533 6094 
11483 6101 6481 6419 
11484 6514 6536 6476 
11485 6413 6416 6132 
11486 6097 6693 6448 
11487 6150 6593 6433 
11488 6128 6587 6412 
11489 6132 6417 6413 
11490 6448 6693 6450 
11491 951 6441 952 
11492 6591 6645 6190 
11493 6103 6463 6414 
11494 832 6577 833 
11495 6476 6536 6311 
11496 6503 6725 6345 
11497 6414 6462 6103 
11498 6322 6463 6324 
11499 6427 6533 6512 
11500 6422 6578 6121 
11501 911 6454 912 
11502 6150 6594 6593 
11503 6600 6660 6125 
11504 6125 6650 6600 
11505 6137 6658 6445 
11506 6641 6643 6418 
11507 6121 6577 6422 
11508 6147 6643 6641 
11509 6412 6614 6128 
11510 6550 6635 6159 
11511 6628 6644 6403 
11512 6435 6576 6149 
11513 6430 6620 6151 
11514 6528 6529 6081 
11515 6160 6613 6548 
11516 6403 6727 6628 
11517 6640 6727 6546 
11518 952 6441 6090 
11519 794 6602 795 
11520 6158 6727 6640 
11521 6144 6596 6570 
11522 6129 6647 6603 
11523 6136 6452 6451 
11524 6679 6739 6423 
11525 6147 6641 6600 
11526 6689 6691 6093 
11527 6081 6529 6452 
11528 6445 6658 6446 
11529 6086 6739 6679 
11530 6421 6561 6115 
11531 6198 6522 6201 
11532 6600 6650 6147 
11533 6223 6473 6472 
11534 6563 6704 6669 
11535 6125 6660 6586 
11536 6159 6659 6550 
11537 6113 6645 6591 
11538 6420 6714 6419 
11539 6586 6674 6125 
11540 6669 6704 6107 
11541 6548 6678 6160 
11542 944 6714 6661 
11543 6136 6708 6452 
11544 6570 6688 6144 
11545 6115 6686 6421 
11546 6603 6647 6565 
11547 902 6679 6424 
11548 6091 6729 6522 
11549 6576 6577 6149 
11550 6427 6512 6135 
11551 6096 6454 911 
11552 6414 6463 6322 
11553 6324 6463 6327 
11554 6454 6642 912 
11555 6667 6738 6418 
11556 6424 6743 902 
11557 6602 6719 6539 
11558 6643 6667 6418 
11559 833 6577 6121 
11560 6149 6577 832 
11561 6696 6726 6475 
11562 6189 6516 6484 
11563 6500 6522 6197 
11564 6154 6683 6456 
11565 6490 6737 6304 
11566 6303 6726 6696 
11567 6138 6536 6514 
11568 6304 6724 6490 
11569 6408 6653 6130 
11570 6197 6521 6500 
11571 6548 6613 6395 
11572 6216 6752 6681 
11573 6135 6662 6427 
11574 6117 6751 6436 
11575 951 6673 6441 
11576 6417 6608 6413 
11577 6496 6752 6212 
11578 6119 6636 6567 
11579 6148 6631 6429 
11580 6661 6714 6420 
11581 830 6607 831 
11582 6449 6608 6417 
11583 6357 6615 6466 
11584 795 6602 6131 
11585 6140 6602 794 
11586 6130 6782 6408 
11587 6430 6718 6620 
11588 6433 6609 6150 
11589 6146 6690 6590 
11590 6190 6645 6584 
11591 6146 6674 6586 
11592 847 6609 848 
11593 6440 6719 6668 
11594 6201 6522 6444 
11595 6197 6522 6198 
11596 6586 6690 6146 
11597 6149 6607 6435 
11598 6131 6602 6540 
11599 6453 6691 6689 
11600 6590 6707 6146 
11601 6681 6752 6495 
11602 6263 6525 6265 
11603 6521 6677 6500 
11604 6410 6739 6511 
11605 6091 6522 6500 
11606 6540 6601 6131 
11607 6218 6515 6215 
11608 6611 6614 6412 
11609 6522 6729 6444 
11610 6481 6517 6419 
11611 6345 6639 6504 
11612 6680 6729 964 
11613 6123 6456 6439 
11614 6156 6614 6611 
11615 6156 6611 6563 
11616 6567 6775 6119 
11617 6540 6602 6539 
11618 6431 6657 6118 
11619 6416 6649 6132 
11620 6151 6665 6430 
11621 6628 6727 6158 
11622 6111 6629 6432 
11623 6472 6730 6223 
11624 6436 6675 6117 
11625 6668 6719 6140 
11626 6140 6719 6602 
11627 6484 6516 6079 
11628 6438 6497 6079 
11629 6460 6763 6461 
11630 6460 6764 6763 
11631 6175 6516 6177 
11632 6410 6511 6411 
11633 6092 6534 6443 
11634 6439 6455 6123 
11635 6495 6752 6496 
11636 6466 6767 6357 
11637 6113 6591 6440 
11638 6593 6594 6396 
11639 6563 6669 6156 
11640 6079 6516 6438 
11641 6415 6462 6414 
11642 6437 6751 850 
11643 6212 6519 6496 
11644 6353 6469 6468 
11645 6456 6683 6515 
11646 6122 6598 6442 
11647 850 6715 6437 
11648 841 6614 842 
11649 6126 6644 6628 
11650 6305 6762 6479 
11651 6594 6704 6396 
11652 6444 6729 6680 
11653 6103 6733 6463 
11654 6464 6638 6342 
11655 6142 6625 6434 
11656 6118 6780 6431 
11657 6560 6598 6399 
11658 6487 6695 6231 
11659 6252 6517 6254 
11660 6464 6733 6103 
11661 6442 6597 6122 
11662 6108 6607 830 
11663 831 6607 6149 
11664 6446 6658 6161 
11665 6421 6686 6597 
11666 6488 6672 6409 
11667 6222 6681 6493 
11668 6081 6661 6528 
11669 6188 6677 6521 
11670 6265 6525 6404 
11671 6524 6525 6263 
11672 6432 6705 6111 
11673 6215 6515 6214 
11674 6439 6515 6218 
11675 848 6609 6120 
11676 6150 6609 847 
11677 6438 6612 6497 
11678 6493 6771 6222 
11679 6223 6682 6473 
11680 6579 6713 835 
11681 6415 6671 6462 
11682 6533 6747 6094 
11683 6511 6739 6086 
11684 6231 6765 6487 
11685 6127 6688 6570 
11686 6442 6598 6560 
11687 6311 6676 6476 
11688 6436 6751 6437 
11689 835 6746 6579 
11690 805 6701 6557 
11691 6479 6759 6305 
11692 6505 6513 6469 
11693 6634 6659 6159 
11694 6164 6678 6548 
11695 6557 6776 805 
11696 6438 6516 6175 
11697 6177 6516 6189 
11698 6440 6668 6113 
11699 6124 6736 6584 
11700 6451 6453 6136 
11701 6490 6703 6491 
11702 6497 6612 6498 
11703 6306 6579 6578 
11704 6686 6768 6597 
11705 6476 6676 6475 
11706 6570 6787 6127 
11707 6422 6577 6576 
11708 6484 6792 6189 
11709 6584 6783 6124 
11710 6128 6786 6587 
11711 6502 6504 6096 
11712 6494 6496 6139 
11713 6429 6766 6148 
11714 6443 6680 6092 
11715 6490 6724 6703 
11716 6419 6517 6252 
11717 6254 6517 6257 
11718 974 6498 6098 
11719 971 6484 6079 
11720 926 6477 6088 
11721 906 6467 6084 
11722 6098 6498 6167 
11723 6128 6614 841 
11724 842 6614 6156 
11725 6108 6605 6457 
11726 6107 6704 6594 
11727 6467 6615 6468 
11728 6478 6741 6479 
11729 6477 6478 6088 
11730 6467 6468 6084 
11731 6634 6712 6659 
11732 6089 6525 6524 
11733 6676 6696 6475 
11734 6157 6633 6544 
11735 6452 6708 6081 
11736 6741 6759 6479 
11737 6085 6672 6488 
11738 6434 6749 6142 
11739 6353 6740 6469 
11740 6304 6737 6461 
11741 6456 6515 6439 
11742 6487 6518 6486 
11743 6095 6514 6476 
11744 6134 6513 6505 
11745 6165 6449 6162 
11746 6473 6507 6100 
11747 6461 6508 6102 
11748 6491 6509 6082 
11749 6479 6510 6088 
11750 954 6486 6471 
11751 923 6514 6095 
11752 910 6502 6096 
11753 893 6506 6085 
11754 908 6513 6134 
11755 960 6494 6139 
11756 921 6492 6138 
11757 895 6488 6133 
11758 6691 6692 6239 
11759 6398 6642 6454 
11760 6460 6762 6305 
11761 6572 6664 6652 
11762 6457 6607 6108 
11763 6471 6518 6472 
11764 973 6498 974 
11765 970 6484 971 
11766 925 6477 926 
11767 905 6467 906 
11768 6486 6518 6471 
11769 6139 6697 6485 
11770 6470 6606 6099 
11771 6498 6612 6167 
11772 6491 6703 6280 
11773 6497 6498 973 
11774 6482 6484 970 
11775 6474 6477 925 
11776 6465 6467 905 
11777 6098 6166 6165 
11778 6489 6490 6082 
11779 6459 6460 6102 
11780 6471 6472 6100 
11781 6091 6500 6499 
11782 6480 6481 6101 
11783 6654 6753 6637 
11784 6565 6647 6143 
11785 6478 6726 6303 
11786 6468 6469 6084 
11787 6478 6479 6088 
11788 6450 6693 6133 
11789 6469 6513 6084 
11790 972 6497 973 
11791 922 6514 923 
11792 969 6482 970 
11793 924 6474 925 
11794 917 6462 918 
11795 904 6465 905 
11796 909 6502 910 
11797 953 6486 954 
11798 899 6511 900 
11799 892 6506 893 
11800 907 6513 908 
11801 959 6494 960 
11802 920 6492 921 
11803 894 6488 895 
11804 976 6165 6162 
11805 6098 6165 975 
11806 968 6470 6099 
11807 932 6489 6082 
11808 929 6459 6102 
11809 916 6464 6103 
11810 6100 6507 956 
11811 955 6471 6100 
11812 942 6480 6101 
11813 958 6493 6080 
11814 6102 6508 930 
11815 6091 6499 966 
11816 6088 6510 927 
11817 6082 6509 933 
11818 6089 6501 940 
11819 936 6512 6094 
11820 967 6499 6470 
11821 931 6508 6489 
11822 957 6507 6493 
11823 928 6510 6459 
11824 962 6485 6092 
11825 941 6501 6480 
11826 934 6509 6135 
11827 6135 6512 935 
11828 6139 6485 961 
11829 6470 6677 6606 
11830 6305 6764 6460 
11831 6511 6670 6411 
11832 6435 6607 6457 
11833 6550 6745 6635 
11834 6349 6725 6505 
11835 6461 6737 6508 
11836 6161 6753 6446 
11837 6691 6770 6093 
11838 6166 6449 6165 
11839 6098 6167 6166 
11840 6466 6615 6465 
11841 6472 6473 6100 
11842 6460 6461 6102 
11843 6490 6491 6082 
11844 6631 6684 6429 
11845 6206 6519 6208 
11846 6270 6519 6206 
11847 6208 6519 6212 
11848 6124 6707 6590 
11849 6132 6723 6417 
11850 6452 6529 6245 
11851 6411 6520 6372 
11852 6423 6527 6364 
11853 6167 6168 6166 
11854 6450 6523 6378 
11855 6188 6521 6185 
11856 6623 6761 6758 
11857 6335 6526 6398 
11858 6406 6531 6314 
11859 6321 6530 6415 
11860 6364 6527 6366 
11861 6443 6534 6202 
11862 6372 6520 6373 
11863 6245 6529 6246 
11864 6342 6535 6328 
11865 6378 6523 6379 
11866 6251 6528 6420 
11867 6386 6532 6387 
11868 6447 6753 6654 
11869 6272 6533 6273 
11870 6318 6530 6321 
11871 6407 6537 6234 
11872 6332 6526 6335 
11873 6312 6536 6406 
11874 6261 6524 6263 
11875 6398 6454 6397 
11876 6451 6452 6245 
11877 6251 6420 6419 
11878 6363 6424 6423 
11879 6249 6528 6251 
11880 6376 6448 6378 
11881 6370 6410 6372 
11882 6233 6441 6407 
11883 6259 6268 6261 
11884 6410 6411 6372 
11885 6382 6409 6384 
11886 6243 6451 6245 
11887 6265 6404 6272 
11888 6311 6536 6312 
11889 6390 6445 6392 
11890 6448 6450 6378 
11891 6335 6398 6397 
11892 6276 6427 6278 
11893 6286 6304 6288 
11894 6321 6414 6322 
11895 6268 6524 6261 
11896 6201 6443 6202 
11897 6201 6444 6443 
11898 6292 6305 6294 
11899 6327 6342 6328 
11900 6321 6415 6414 
11901 6185 6521 6187 
11902 6330 6535 6526 
11903 6202 6534 6204 
11904 6328 6535 6330 
11905 6298 6303 6300 
11906 6204 6534 6270 
11907 6314 6531 6316 
11908 6173 6438 6175 
11909 6177 6189 6179 
11910 6445 6446 6392 
11911 6187 6521 6197 
11912 6335 6397 6336 
11913 6312 6406 6314 
11914 6308 6311 6310 
11915 6316 6531 6530 
11916 6216 6222 6217 
11917 6183 6188 6185 
11918 6387 6532 6390 
11919 6273 6533 6276 
11920 6316 6530 6318 
11921 6187 6197 6196 
11922 6318 6321 6320 
11923 6198 6201 6200 
11924 6324 6327 6326 
11925 6379 6523 6382 
11926 6204 6270 6206 
11927 6233 6407 6234 
11928 6231 6233 6232 
11929 6373 6520 6376 
11930 6208 6212 6211 
11931 6330 6526 6332 
11932 6234 6537 6236 
11933 6213 6216 6215 
11934 6246 6529 6249 
11935 6332 6335 6334 
11936 6366 6527 6370 
11937 6363 6423 6364 
11938 6361 6363 6362 
11939 6236 6537 6239 
11940 6338 6345 6344 
11941 6219 6223 6221 
11942 6346 6349 6348 
11943 6243 6245 6244 
11944 6350 6353 6352 
11945 6276 6533 6427 
11946 6224 6227 6226 
11947 6390 6532 6445 
11948 6370 6372 6371 
11949 6228 6231 6230 
11950 6311 6312 6310 
11951 6251 6419 6252 
11952 6354 6357 6356 
11953 6249 6251 6250 
11954 6376 6378 6377 
11955 6358 6361 6360 
11956 782 6147 783 
11957 6236 6239 6238 
11958 6321 6322 6320 
11959 6197 6198 6196 
11960 6382 6384 6383 
11961 6382 6523 6409 
11962 6257 6259 6258 
11963 6259 6261 6260 
11964 6384 6386 6385 
11965 6240 6243 6242 
11966 6201 6202 6200 
11967 6261 6263 6262 
11968 6366 6370 6369 
11969 795 6131 796 
11970 810 6130 811 
11971 825 6129 826 
11972 840 6128 841 
11973 855 6127 856 
11974 870 6126 871 
11975 784 6125 785 
11976 788 6124 789 
11977 803 6123 804 
11978 818 6122 819 
11979 833 6121 834 
11980 848 6120 849 
11981 863 6119 864 
11982 866 6118 867 
11983 851 6117 852 
11984 836 6116 837 
11985 821 6115 822 
11986 806 6114 807 
11987 791 6113 792 
11988 799 6111 800 
11989 814 6110 815 
11990 829 6108 830 
11991 844 6107 845 
11992 859 6106 860 
11993 874 6105 875 
11994 6376 6520 6448 
11995 6327 6328 6326 
11996 6246 6249 6248 
11997 786 6146 787 
11998 868 6151 869 
11999 808 6142 809 
12000 823 6143 824 
12001 793 6140 794 
12002 853 6144 854 
12003 838 6152 839 
12004 812 6141 813 
12005 797 6153 798 
12006 827 6155 828 
12007 842 6156 843 
12008 857 6145 858 
12009 872 6158 873 
12010 816 6148 817 
12011 801 6154 802 
12012 831 6149 832 
12013 846 6150 847 
12014 861 6157 862 
12015 6249 6529 6528 
12016 6263 6265 6264 
12017 878 6112 879 
12018 880 6160 881 
12019 6265 6272 6266 
12020 876 6159 877 
12021 6373 6376 6375 
12022 6370 6527 6410 
12023 6390 6392 6391 
12024 6212 6213 6211 
12025 6379 6382 6381 
12026 6254 6257 6256 
12027 6216 6217 6215 
12028 6335 6336 6334 
12029 6276 6278 6277 
12030 6278 6280 6279 
12031 6192 6413 6172 
12032 6345 6346 6344 
12033 6284 6286 6285 
12034 6349 6350 6348 
12035 6387 6390 6389 
12036 6223 6224 6221 
12037 6286 6288 6287 
12038 6227 6228 6226 
12039 6273 6276 6275 
12040 6288 6290 6289 
12041 6353 6354 6352 
12042 6233 6234 6232 
12043 6290 6292 6291 
12044 6231 6232 6230 
12045 6357 6358 6356 
12046 6292 6294 6293 
12047 6294 6296 6295 
12048 6281 6284 6283 
12049 6363 6364 6362 
12050 6361 6362 6360 
12051 6296 6298 6297 
12052 6239 6240 6238 
12053 6298 6300 6299 
12054 6245 6246 6244 
12055 6243 6244 6242 
12056 6173 6175 6174 
12057 6300 6302 6301 
12058 6175 6177 6176 
12059 6372 6373 6371 
12060 6177 6179 6178 
12061 6302 6308 6307 
12062 6370 6371 6369 
12063 980 6132 981 
12064 6312 6314 6313 
12065 6308 6310 6309 
12066 6179 6181 6180 
12067 6251 6252 6250 
12068 6249 6250 6248 
12069 6181 6183 6182 
12070 6376 6377 6375 
12071 6183 6185 6184 
12072 6378 6379 6377 
12073 6314 6316 6315 
12074 6169 6173 6171 
12075 6185 6187 6186 
12076 6198 6200 6199 
12077 6384 6385 6383 
12078 6316 6318 6317 
12079 6259 6260 6258 
12080 6187 6196 6195 
12081 6318 6320 6319 
12082 6261 6262 6260 
12083 6192 6416 6413 
12084 6382 6383 6381 
12085 6257 6258 6256 
12086 6446 6447 6392 
12087 6322 6324 6323 
12088 6263 6264 6262 
12089 6202 6204 6203 
12090 6386 6387 6385 
12091 6265 6266 6264 
12092 6324 6326 6325 
12093 6272 6273 6266 
12094 6167 6169 6168 
12095 6328 6330 6329 
12096 6204 6206 6205 
12097 6206 6208 6207 
12098 6390 6391 6389 
12099 6208 6211 6210 
12100 6330 6332 6331 
12101 6391 6538 6395 
12102 6213 6215 6214 
12103 6278 6279 6277 
12104 6332 6334 6333 
12105 6217 6219 6218 
12106 6280 6281 6279 
12107 6276 6277 6275 
12108 6336 6338 6337 
12109 6338 6344 6343 
12110 6346 6348 6347 
12111 6286 6287 6285 
12112 6284 6285 6283 
12113 6219 6221 6220 
12114 6288 6289 6287 
12115 6224 6226 6225 
12116 6350 6352 6351 
12117 6290 6291 6289 
12118 6228 6230 6229 
12119 6354 6356 6355 
12120 6292 6293 6291 
12121 6294 6295 6293 
12122 6358 6360 6359 
12123 6312 6313 6310 
12124 6234 6236 6235 
12125 885 6109 886 
12126 6296 6297 6295 
12127 6298 6299 6297 
12128 6300 6301 6299 
12129 6364 6366 6365 
12130 6240 6242 6241 
12131 6236 6238 6237 
12132 6175 6176 6174 
12133 6198 6199 6196 
12134 6177 6178 6176 
12135 6322 6323 6320 
12136 6302 6307 6301 
12137 6179 6180 6178 
12138 6173 6174 6171 
12139 6308 6309 6307 
12140 6202 6203 6200 
12141 6366 6369 6368 
12142 6246 6248 6247 
12143 6181 6182 6180 
12144 6183 6184 6182 
12145 6314 6315 6313 
12146 6373 6375 6374 
12147 6328 6329 6326 
12148 6392 6538 6391 
12149 6185 6186 6184 
12150 6252 6254 6253 
12151 6316 6317 6315 
12152 6187 6195 6186 
12153 884 6547 885 
12154 6318 6319 6317 
12155 6213 6214 6211 
12156 6379 6381 6380 
12157 6217 6218 6215 
12158 6336 6337 6334 
12159 6391 6395 6394 
12160 6254 6256 6255 
12161 976 6162 977 
12162 903 6104 904 
12163 942 6101 943 
12164 916 6103 917 
12165 929 6102 930 
12166 955 6100 956 
12167 974 6098 975 
12168 968 6099 969 
12169 923 6095 924 
12170 897 6097 898 
12171 910 6096 911 
12172 936 6094 937 
12173 949 6093 950 
12174 962 6092 963 
12175 965 6091 966 
12176 952 6090 953 
12177 939 6089 940 
12178 926 6088 927 
12179 913 6087 914 
12180 900 6086 901 
12181 893 6085 894 
12182 906 6084 907 
12183 919 6083 920 
12184 932 6082 933 
12185 945 6081 946 
12186 958 6080 959 
12187 971 6079 972 
12188 6346 6347 6344 
12189 6324 6325 6323 
12190 975 6165 976 
12191 967 6470 968 
12192 931 6489 932 
12193 928 6459 929 
12194 915 6464 916 
12195 956 6507 957 
12196 954 6471 955 
12197 957 6493 958 
12198 941 6480 942 
12199 930 6508 931 
12200 966 6499 967 
12201 927 6510 928 
12202 933 6509 934 
12203 940 6501 941 
12204 935 6512 936 
12205 6191 6192 6172 
12206 6204 6205 6203 
12207 961 6485 962 
12208 895 6133 896 
12209 908 6134 909 
12210 921 6138 922 
12211 934 6135 935 
12212 947 6136 948 
12213 960 6139 961 
12214 6224 6225 6221 
12215 6350 6351 6348 
12216 6206 6207 6205 
12217 891 6137 892 
12218 6208 6210 6207 
12219 6387 6389 6388 
12220 6228 6229 6226 
12221 6330 6331 6329 
12222 6332 6333 6331 
12223 6354 6355 6352 
12224 6273 6275 6274 
12225 6170 6172 6168 
12226 6358 6359 6356 
12227 6234 6235 6232 
12228 883 6164 884 
12229 6338 6343 6337 
12230 6219 6220 6218 
12231 889 6161 890 
12232 6281 6283 6282 
12233 6364 6365 6362 
12234 6240 6241 6238 
12235 6079 6497 972 
12236 6099 6482 969 
12237 6095 6474 924 
12238 6103 6462 917 
12239 6104 6465 904 
12240 6090 6486 953 
12241 900 6511 6086 
12242 6084 6513 907 
12243 6138 6514 922 
12244 6080 6494 959 
12245 6083 6492 920 
12246 6085 6488 894 
12247 6313 6562 6310 
12248 6134 6502 909 
12249 6196 6539 6195 
12250 6246 6247 6244 
12251 6137 6506 892 
12252 6373 6374 6371 
12253 982 6163 983 
12254 6252 6253 6250 
12255 6230 6271 6229 
12256 6211 6541 6210 
12257 6379 6380 6377 
12258 6344 6542 6343 
12259 885 6547 6109 
12260 6360 6367 6359 
12261 6348 6543 6347 
12262 6221 6556 6220 
12263 6323 6572 6320 
12264 6447 6538 6392 
12265 6236 6237 6235 
12266 6260 6269 6258 
12267 6383 6393 6381 
12268 6192 6418 6416 
12269 6134 6505 6503 
12270 6095 6476 6475 
12271 6503 6504 6502 
12272 6169 6171 6170 
12273 6203 6574 6200 
12274 6264 6267 6262 
12275 6242 6428 6241 
12276 6366 6368 6365 
12277 6387 6388 6385 
12278 6495 6496 6494 
12279 6329 6573 6326 
12280 6369 6430 6368 
12281 6435 6457 6282 
12282 6391 6394 6389 
12283 6273 6274 6266 
12284 6352 6566 6351 
12285 6248 6399 6247 
12286 6281 6282 6279 
12287 6277 6340 6275 
12288 6375 6403 6374 
12289 6169 6170 6168 
12290 6254 6255 6253 
12291 6337 6569 6334 
12292 6287 6422 6285 
12293 6310 6562 6309 
12294 6199 6540 6539 
12295 6256 6421 6255 
12296 6551 6552 6274 
12297 6549 6550 6388 
12298 6291 6306 6289 
12299 6295 6400 6293 
12300 6320 6572 6319 
12301 6200 6574 6199 
12302 6255 6442 6253 
12303 6325 6436 6339 
12304 6326 6573 6325 
12305 6381 6545 6380 
12306 6334 6569 6333 
12307 6299 6402 6297 
12308 6199 6539 6196 
12309 6307 6412 6301 
12310 6351 6543 6348 
12311 6347 6542 6344 
12312 6225 6556 6221 
12313 6399 6429 6247 
12314 6545 6546 6380 
12315 6214 6541 6211 
12316 6178 6194 6176 
12317 6389 6549 6388 
12318 6184 6190 6182 
12319 6315 6396 6313 
12320 6226 6575 6225 
12321 6428 6458 6241 
12322 6368 6405 6365 
12323 6237 6401 6235 
12324 6174 6193 6171 
12325 6195 6440 6186 
12326 6367 6426 6359 
12327 6319 6433 6317 
12328 6343 6425 6337 
12329 6220 6439 6218 
12330 6210 6432 6207 
12331 6325 6339 6323 
12332 6271 6434 6229 
12333 6205 6209 6203 
12334 6229 6575 6226 
12335 6170 6191 6172 
12336 6331 6341 6329 
12337 6220 6455 6439 
12338 6283 6435 6282 
12339 6351 6544 6543 
12340 6275 6551 6274 
12341 6164 6548 6547 
12342 6396 6562 6313 
12343 6099 6483 6482 
12344 6095 6475 6474 
12345 6080 6495 6494 
12346 6104 6466 6465 
12347 6367 6431 6426 
12348 6090 6487 6486 
12349 6237 6408 6401 
12350 6355 6566 6352 
12351 6134 6503 6502 
12352 6232 6553 6230 
12353 6436 6437 6339 
12354 6355 6567 6566 
12355 6164 6547 884 
12356 6359 6592 6356 
12357 6230 6553 6271 
12358 6362 6554 6360 
12359 6241 6588 6238 
12360 6244 6555 6242 
12361 6393 6545 6381 
12362 6339 6572 6323 
12363 6356 6592 6355 
12364 6238 6588 6237 
12365 6371 6558 6369 
12366 6394 6549 6389 
12367 6360 6554 6367 
12368 6209 6574 6203 
12369 6250 6560 6248 
12370 6377 6559 6375 
12371 6341 6573 6329 
12372 6258 6561 6256 
12373 6569 6570 6333 
12374 6242 6555 6428 
12375 6369 6558 6430 
12376 6340 6551 6275 
12377 6425 6569 6337 
12378 6262 6564 6260 
12379 6385 6568 6383 
12380 6248 6560 6399 
12381 6266 6571 6264 
12382 899 6670 6511 
12383 6426 6592 6359 
12384 6220 6556 6455 
12385 6285 6576 6283 
12386 6458 6588 6241 
12387 6235 6553 6232 
12388 6279 6580 6277 
12389 6375 6559 6403 
12390 6256 6561 6421 
12391 6182 6583 6180 
12392 6562 6563 6309 
12393 6293 6581 6291 
12394 6434 6575 6229 
12395 6365 6554 6362 
12396 6351 6566 6544 
12397 6297 6582 6295 
12398 6247 6555 6244 
12399 6325 6573 6436 
12400 6199 6574 6540 
12401 6374 6558 6371 
12402 6301 6587 6299 
12403 6176 6585 6174 
12404 6253 6560 6250 
12405 6380 6559 6377 
12406 6283 6576 6435 
12407 6180 6589 6178 
12408 6269 6561 6258 
12409 6556 6557 6455 
12410 6383 6568 6393 
12411 6260 6564 6269 
12412 6186 6591 6184 
12413 6267 6564 6262 
12414 6388 6568 6385 
12415 6317 6593 6315 
12416 6264 6571 6267 
12417 6274 6571 6266 
12418 6267 6565 6564 
12419 6457 6580 6282 
12420 6422 6576 6285 
12421 6277 6580 6340 
12422 6282 6580 6279 
12423 6401 6553 6235 
12424 6237 6588 6408 
12425 6552 6571 6274 
12426 6442 6560 6253 
12427 6291 6581 6306 
12428 6550 6568 6388 
12429 6355 6592 6567 
12430 6429 6555 6247 
12431 6546 6559 6380 
12432 6400 6581 6293 
12433 6405 6554 6365 
12434 6190 6583 6182 
12435 6207 6595 6205 
12436 6295 6582 6400 
12437 6402 6582 6297 
12438 6333 6596 6331 
12439 6193 6599 6171 
12440 6299 6587 6402 
12441 6412 6587 6301 
12442 6174 6585 6193 
12443 6194 6585 6176 
12444 6190 6584 6583 
12445 6585 6586 6193 
12446 6178 6589 6194 
12447 6589 6590 6194 
12448 6171 6599 6170 
12449 6184 6591 6190 
12450 6440 6591 6186 
12451 6315 6593 6396 
12452 6433 6593 6317 
12453 6255 6597 6442 
12454 6432 6595 6207 
12455 6205 6595 6209 
12456 6331 6596 6341 
12457 6087 6638 914 
12458 915 6638 6464 
12459 6570 6596 6333 
12460 6421 6597 6255 
12461 6583 6589 6180 
12462 6599 6600 6191 
12463 6170 6599 6191 
12464 6571 6603 6267 
12465 6552 6603 6571 
12466 6267 6603 6565 
12467 6209 6601 6574 
12468 6574 6601 6540 
12469 6553 6604 6271 
12470 6462 6671 918 
12471 6401 6604 6553 
12472 6479 6762 6510 
12473 6580 6605 6340 
12474 6606 6677 6188 
12475 6457 6605 6580 
12476 6342 6733 6464 
12477 6590 6736 6124 
12478 6509 6794 6135 
12479 6099 6606 6483 
12480 6166 6608 6449 
12481 6409 6778 6488 
12482 6413 6608 6172 
12483 6168 6608 6166 
12484 913 6642 6087 
12485 6108 6651 6605 
12486 6575 6610 6225 
12487 6556 6610 6557 
12488 6173 6612 6438 
12489 6578 6746 6121 
12490 6167 6612 6169 
12491 6307 6611 6412 
12492 6563 6611 6309 
12493 6116 6761 6623 
12494 6172 6608 6168 
12495 6507 6771 6493 
12496 6652 6664 6120 
12497 6361 6616 6363 
12498 6477 6726 6478 
12499 6225 6610 6556 
12500 6603 6774 6129 
12501 6601 6617 6131 
12502 6458 6666 6141 
12503 6309 6611 6307 
12504 6169 6612 6173 
12505 6469 6740 6505 
12506 6465 6615 6467 
12507 796 6617 797 
12508 6338 6639 6345 
12509 6397 6639 6336 
12510 6395 6613 6394 
12511 6500 6677 6499 
12512 6104 6616 6466 
12513 6441 6673 6407 
12514 6117 6675 6622 
12515 6386 6706 6532 
12516 6192 6641 6418 
12517 6600 6641 6191 
12518 6441 6695 6090 
12519 6131 6617 796 
12520 797 6617 6153 
12521 891 6658 6137 
12522 6161 6658 890 
12523 6143 6699 6565 
12524 6544 6748 6157 
12525 6493 6681 6080 
12526 6461 6763 6304 
12527 6374 6644 6558 
12528 6363 6616 6424 
12529 6425 6710 6627 
12530 6453 6692 6691 
12531 6627 6787 6425 
12532 840 6619 6128 
12533 870 6620 6126 
12534 6118 6621 867 
12535 6117 6622 852 
12536 810 6618 6130 
12537 6116 6623 837 
12538 6129 6626 826 
12539 6127 6627 856 
12540 6115 6624 822 
12541 6114 6625 807 
12542 6126 6628 871 
12543 6111 6630 800 
12544 859 6632 6106 
12545 6106 6633 860 
12546 799 6629 6111 
12547 6110 6631 815 
12548 6105 6634 875 
12549 6152 6619 839 
12550 6151 6620 869 
12551 868 6621 6151 
12552 853 6622 6144 
12553 838 6623 6152 
12554 6142 6618 809 
12555 823 6624 6143 
12556 808 6625 6142 
12557 827 6626 6155 
12558 857 6627 6145 
12559 872 6628 6158 
12560 6145 6632 858 
12561 801 6630 6154 
12562 861 6633 6157 
12563 6153 6629 798 
12564 816 6631 6148 
12565 876 6634 6159 
12566 878 6635 6112 
12567 6159 6635 877 
12568 839 6619 840 
12569 869 6620 870 
12570 867 6621 868 
12571 852 6622 853 
12572 837 6623 838 
12573 809 6618 810 
12574 822 6624 823 
12575 807 6625 808 
12576 826 6626 827 
12577 856 6627 857 
12578 871 6628 872 
12579 800 6630 801 
12580 858 6632 859 
12581 860 6633 861 
12582 798 6629 799 
12583 815 6631 816 
12584 875 6634 876 
12585 877 6635 878 
12586 6132 6649 981 
12587 982 6649 6163 
12588 6487 6765 6518 
12589 863 6636 6119 
12590 6157 6636 862 
12591 6706 6779 6532 
12592 6448 6731 6097 
12593 6505 6725 6503 
12594 944 6661 945 
12595 862 6636 863 
12596 887 6637 888 
12597 874 6640 6105 
12598 6158 6640 873 
12599 6092 6784 6534 
12600 6319 6652 6433 
12601 914 6638 915 
12602 782 6643 6147 
12603 6109 6654 886 
12604 6135 6794 6662 
12605 6336 6639 6338 
12606 6133 6778 6450 
12607 6097 6670 898 
12608 6525 6700 6404 
12609 919 6671 6083 
12610 790 6645 791 
12611 6367 6657 6431 
12612 6543 6656 6347 
12613 6112 6646 879 
12614 880 6646 6160 
12615 6405 6657 6554 
12616 6093 6673 950 
12617 6456 6781 6154 
12618 6586 6660 6193 
12619 6453 6689 6136 
12620 6433 6652 6609 
12621 6550 6659 6568 
12622 873 6640 874 
12623 6599 6660 6600 
12624 825 6647 6129 
12625 6143 6647 824 
12626 901 6679 902 
12627 6147 6650 783 
12628 784 6650 6125 
12629 6092 6680 963 
12630 6632 6656 6106 
12631 6427 6662 6278 
12632 829 6651 6108 
12633 6155 6651 828 
12634 6395 6685 6548 
12635 6191 6641 6192 
12636 6501 6720 6480 
12637 6130 6653 811 
12638 812 6653 6141 
12639 912 6642 913 
12640 781 6643 782 
12641 6424 6679 6423 
12642 6160 6646 6613 
12643 6339 6664 6572 
12644 6430 6665 6368 
12645 6403 6644 6374 
12646 6700 6716 6404 
12647 791 6645 6113 
12648 6697 6784 6485 
12649 879 6646 880 
12650 864 6655 865 
12651 6422 6791 6578 
12652 6578 6791 6306 
12653 887 6654 6637 
12654 6579 6746 6578 
12655 6384 6672 6386 
12656 6572 6652 6319 
12657 6308 6676 6311 
12658 6604 6782 6618 
12659 824 6647 825 
12660 978 6648 979 
12661 6618 6782 6130 
12662 981 6649 982 
12663 6488 6778 6133 
12664 783 6650 784 
12665 6573 6675 6436 
12666 6451 6692 6453 
12667 949 6689 6093 
12668 6136 6689 948 
12669 6259 6663 6268 
12670 6505 6740 6349 
12671 6303 6741 6478 
12672 828 6651 829 
12673 6089 6700 6525 
12674 897 6693 6097 
12675 6133 6693 896 
12676 6111 6705 6630 
12677 814 6666 6110 
12678 6141 6666 813 
12679 811 6653 812 
12680 6219 6682 6223 
12681 6222 6682 6217 
12682 6113 6668 792 
12683 793 6668 6140 
12684 780 6667 781 
12685 6431 6655 6426 
12686 844 6669 6107 
12687 6156 6669 843 
12688 6609 6652 6120 
12689 6489 6737 6490 
12690 6125 6674 785 
12691 786 6674 6146 
12692 6459 6762 6460 
12693 6144 6732 6596 
12694 881 6678 882 
12695 6122 6702 6598 
12696 6517 6663 6257 
12697 6141 6777 6458 
12698 939 6700 6089 
12699 6675 6732 6622 
12700 6280 6794 6491 
12701 6340 6687 6551 
12702 6445 6779 6137 
12703 6558 6718 6430 
12704 6127 6787 6627 
12705 886 6654 887 
12706 6257 6663 6259 
12707 6735 6761 6116 
12708 6243 6692 6451 
12709 6590 6690 6194 
12710 6518 6765 6227 
12711 6239 6692 6240 
12712 6585 6690 6586 
12713 6594 6788 6107 
12714 6150 6788 6594 
12715 6758 6772 6152 
12716 6623 6758 6152 
12717 6081 6708 946 
12718 947 6708 6136 
12719 6119 6655 864 
12720 6347 6656 6542 
12721 6163 6738 6667 
12722 6554 6657 6367 
12723 943 6714 944 
12724 890 6658 891 
12725 6231 6695 6233 
12726 6094 6716 937 
12727 6568 6659 6393 
12728 6627 6710 6145 
12729 6303 6696 6300 
12730 6193 6660 6599 
12731 945 6661 6081 
12732 6475 6726 6474 
12733 6417 6798 6449 
12734 821 6686 6115 
12735 6481 6663 6517 
12736 855 6688 6127 
12737 6144 6688 854 
12738 6565 6699 6564 
12739 964 6729 965 
12740 6671 6711 6083 
12741 6547 6685 6109 
12742 6280 6703 6281 
12743 6528 6661 6420 
12744 6610 6776 6557 
12745 6278 6662 6280 
12746 6562 6704 6563 
12747 6123 6781 6456 
12748 6468 6722 6353 
12749 6210 6705 6432 
12750 6482 6792 6484 
12751 6444 6680 6443 
12752 6535 6709 6526 
12753 6449 6798 6162 
12754 902 6743 903 
12755 6114 6776 6610 
12756 6555 6684 6428 
12757 6531 6711 6530 
12758 6394 6694 6549 
12759 6542 6710 6343 
12760 6485 6784 6092 
12761 6518 6730 6472 
12762 6183 6717 6188 
12763 6195 6719 6440 
12764 6597 6768 6122 
12765 6361 6767 6616 
12766 6286 6724 6304 
12767 6188 6717 6606 
12768 980 6723 6132 
12769 6345 6725 6346 
12770 818 6702 6122 
12771 6148 6702 817 
12772 6437 6664 6339 
12773 6772 6786 6619 
12774 6546 6727 6559 
12775 6223 6730 6224 
12776 6524 6793 6089 
12777 6368 6665 6405 
12778 6606 6717 6483 
12779 6499 6677 6470 
12780 6632 6795 6656 
12781 813 6666 814 
12782 788 6707 6124 
12783 6146 6707 787 
12784 6423 6739 6527 
12785 6152 6772 6619 
12786 6350 6740 6353 
12787 792 6668 793 
12788 6584 6736 6583 
12789 6589 6736 6590 
12790 6298 6741 6303 
12791 6096 6728 6454 
12792 835 6713 836 
12793 6272 6747 6533 
12794 6616 6767 6466 
12795 843 6669 844 
12796 888 6742 16 
12797 16 6742 889 
12798 6104 6743 6616 
12799 6213 6752 6216 
12800 6621 6665 6151 
12801 6189 6757 6179 
12802 6271 6749 6434 
12803 6305 6759 6294 
12804 17 6750 780 
12805 6406 6799 6760 
12806 983 6750 17 
12807 6566 6748 6544 
12808 6304 6763 6288 
12809 6292 6764 6305 
12810 6450 6778 6523 
12811 882 6756 18 
12812 6228 6765 6231 
12813 18 6756 883 
12814 898 6670 899 
12815 6357 6767 6358 
12816 6287 6791 6422 
12817 6306 6791 6289 
12818 6569 6787 6570 
12819 6408 6782 6401 
12820 15 6744 978 
12821 6655 6780 865 
12822 977 6744 15 
12823 6458 6777 6588 
12824 6592 6775 6567 
12825 918 6671 919 
12826 6216 6681 6222 
12827 6551 6721 6552 
12828 6155 6687 6651 
12829 6409 6672 6384 
12830 6399 6766 6429 
12831 6616 6743 6424 
12832 950 6673 951 
12833 785 6674 786 
12834 6705 6796 6630 
12835 6501 6793 6720 
12836 6341 6675 6573 
12837 6624 6699 6143 
12838 6302 6676 6308 
12839 6160 6678 881 
12840 6496 6697 6139 
12841 6105 6712 6634 
12842 6353 6722 6354 
12843 6684 6785 6428 
12844 6086 6679 901 
12845 963 6680 964 
12846 834 6746 835 
12847 850 6751 851 
12848 6080 6681 6495 
12849 6122 6768 819 
12850 6107 6788 845 
12851 846 6788 6150 
12852 866 6780 6118 
12853 6124 6783 789 
12854 803 6781 6123 
12855 6154 6781 802 
12856 805 6776 806 
12857 6713 6735 6116 
12858 6406 6760 6531 
12859 6520 6731 6448 
12860 781 6667 6643 
12861 6717 6757 6483 
12862 6615 6722 6468 
12863 6655 6775 6426 
12864 790 6783 6645 
12865 6595 6698 6209 
12866 6651 6687 6605 
12867 6227 6730 6518 
12868 804 6701 805 
12869 6648 6723 979 
12870 6455 6701 6123 
12871 6694 6745 6549 
12872 6535 6790 6709 
12873 6431 6780 6655 
12874 6089 6793 6501 
12875 6217 6682 6219 
12876 6429 6684 6555 
12877 6575 6734 6610 
12878 6645 6783 6584 
12879 6119 6775 6655 
12880 6659 6712 6393 
12881 6548 6685 6547 
12882 6515 6683 6214 
12883 6656 6795 6542 
12884 6610 6734 6114 
12885 6162 6798 6648 
12886 6642 6709 6087 
12887 6687 6721 6551 
12888 6120 6715 849 
12889 6209 6698 6601 
12890 6302 6696 6676 
12891 6624 6754 6699 
12892 6685 6789 6109 
12893 6214 6683 6541 
12894 6538 6685 6395 
12895 820 6686 821 
12896 6105 6797 6712 
12897 6605 6687 6340 
12898 854 6688 855 
12899 948 6689 949 
12900 6148 6766 6702 
12901 6415 6711 6671 
12902 6537 6691 6239 
12903 6194 6690 6585 
12904 6601 6698 6617 
12905 6240 6692 6243 
12906 6504 6728 6096 
12907 6506 6706 6085 
12908 6519 6697 6496 
12909 6270 6697 6519 
12910 6561 6754 6115 
12911 6454 6728 6397 
12912 6110 6785 6684 
12913 6123 6701 804 
12914 6543 6755 6656 
12915 6110 6684 6631 
12916 896 6693 897 
12917 6189 6792 6757 
12918 6094 6747 6716 
12919 6598 6766 6399 
12920 6090 6695 6487 
12921 6648 6798 6723 
12922 6552 6774 6603 
12923 6613 6694 6394 
12924 6531 6760 6711 
12925 6397 6728 6639 
12926 6619 6786 6128 
12927 6341 6732 6675 
12928 6233 6695 6441 
12929 6300 6696 6302 
12930 6093 6770 6673 
12931 6506 6779 6706 
12932 6112 6694 6646 
12933 6564 6699 6269 
12934 6595 6773 6698 
12935 6398 6709 6642 
12936 6138 6799 6536 
12937 6646 6694 6613 
12938 938 6716 6700 
12939 6532 6779 6445 
12940 6721 6774 6552 
12941 938 6700 939 
12942 6222 6771 6682 
12943 849 6715 850 
12944 6557 6701 6455 
12945 817 6702 818 
12946 6639 6728 6504 
12947 6618 6749 6604 
12948 6281 6703 6284 
12949 6142 6749 6618 
12950 6396 6704 6562 
12951 6664 6715 6120 
12952 6617 6698 6153 
12953 6541 6705 6210 
12954 6463 6733 6327 
12955 6672 6706 6386 
12956 6649 6738 6163 
12957 6112 6745 6694 
12958 6663 6720 6268 
12959 787 6707 788 
12960 946 6708 947 
12961 6656 6755 6106 
12962 6526 6709 6398 
12963 6703 6724 6284 
12964 6538 6789 6685 
12965 6760 6799 6492 
12966 6354 6722 6357 
12967 6537 6770 6691 
12968 6549 6745 6550 
12969 6343 6710 6425 
12970 6530 6711 6415 
12971 6621 6769 6665 
12972 6097 6731 6670 
12973 836 6713 6116 
12974 6393 6712 6545 
12975 6620 6718 6126 
12976 6480 6720 6481 
12977 6101 6714 943 
12978 6625 6734 6434 
12979 6154 6796 6683 
12980 937 6716 938 
12981 6306 6735 6579 
12982 6536 6799 6406 
12983 6665 6769 6405 
12984 6181 6717 6183 
12985 820 6768 6686 
12986 6492 6799 6138 
12987 6644 6718 6558 
12988 6539 6719 6195 
12989 6622 6732 6144 
12990 6544 6755 6543 
12991 6491 6794 6509 
12992 6357 6722 6615 
12993 6699 6754 6269 
12994 6473 6771 6507 
12995 6474 6726 6477 
12996 6411 6731 6520 
12997 979 6723 980 
12998 6342 6790 6535 
12999 6653 6777 6141 
13000 6284 6724 6286 
13001 6157 6748 6636 
13002 6346 6725 6349 
13003 6629 6773 6432 
13004 6126 6718 6644 
13005 6636 6748 6567 
13006 6508 6737 6489 
13007 6327 6733 6342 
13008 6559 6727 6403 
13009 6434 6734 6575 
13010 6155 6721 6687 
13011 6416 6738 6649 
13012 6633 6755 6544 
13013 965 6729 6091 
13014 6698 6773 6153 
13015 6709 6790 6087 
13016 6224 6730 6227 
13017 6481 6720 6663 
13018 6626 6721 6155 
13019 6581 6735 6306 
13020 6109 6789 6654 
13021 6542 6795 6710 
13022 6181 6757 6717 
13023 6408 6777 6653 
13024 6638 6790 6342 
13025 6510 6762 6459 
13026 6405 6769 6657 
13027 6270 6784 6697 
13028 6712 6797 6545 
13029 6702 6766 6598 
13030 6596 6732 6341 
13031 6662 6794 6280 
13032 6432 6773 6595 
13033 889 6742 6161 
13034 6583 6736 6589 
13035 6640 6797 6105 
13036 6630 6796 6154 
13037 6527 6739 6410 
13038 6418 6738 6416 
13039 6349 6740 6350 
13040 6162 6744 977 
13041 6637 6753 6161 
13042 6296 6741 6298 
13043 6541 6796 6705 
13044 6115 6754 6624 
13045 6087 6790 6638 
13046 6546 6797 6640 
13047 903 6743 6104 
13048 6121 6746 834 
13049 6296 6759 6741 
13050 6404 6747 6272 
13051 6567 6748 6566 
13052 6682 6771 6473 
13053 851 6751 6117 
13054 6604 6749 6271 
13055 6163 6750 983 
13056 6114 6734 6625 
13057 6212 6752 6213 
13058 6678 6756 882 
13059 6446 6753 6447 
13060 6269 6754 6561 
13061 6085 6706 6672 
13062 6179 6757 6181 
13063 883 6756 6164 
13064 6161 6742 6637 
13065 780 6750 6667 
13066 6582 6758 6400 
13067 6294 6759 6296 
13068 6673 6770 6407 
13069 6428 6785 6458 
13070 6758 6761 6400 
13071 6083 6760 6492 
13072 6400 6761 6581 
13073 6288 6763 6290 
13074 6763 6764 6290 
13075 6290 6764 6292 
13076 6720 6793 6268 
13077 6227 6765 6228 
13078 6358 6767 6361 
13079 6437 6715 6664 
13080 6582 6772 6758 
13081 819 6768 820 
13082 6637 6742 888 
13083 6407 6770 6537 
13084 6635 6745 6112 
13085 6402 6772 6582 
13086 806 6776 6114 
13087 6523 6778 6409 
13088 6426 6775 6592 
13089 6588 6777 6408 
13090 6137 6779 6506 
13091 865 6780 866 
13092 802 6781 803 
13093 789 6783 790 
13094 6402 6786 6772 
13095 6534 6784 6270 
13096 6723 6798 6417 
13097 6401 6782 6604 
13098 6581 6761 6735 
13099 6654 6789 6447 
13100 6587 6786 6402 
13101 845 6788 846 
13102 6425 6787 6569 
13103 6447 6789 6538 
13104 6106 6755 6633 
13105 6289 6791 6287 
13106 6483 6792 6482 
13107 6268 6793 6524 
13108 6648 6744 6162 
13109 6545 6797 6546 
13110 6670 6731 6411 
13111 6657 6769 6118 
13112 978 6744 6648 
13113 6118 6769 6621 
13114 6666 6785 6110 
13115 6153 6773 6629 
13116 6129 6774 6626 
13117 6711 6760 6083 
13118 6626 6774 6721 
13119 6145 6795 6632 
13120 6667 6750 6163 
13121 6716 6747 6404 
13122 6164 6756 6678 
13123 6458 6785 6666 
13124 6757 6792 6483 
13125 6579 6735 6713 
13126 6710 6795 6145 
13127 6683 6796 6541 
$EndElements
