$MeshFormat
4.1 0 8
$EndMeshFormat
$PhysicalNames
23
1 1 "r1"
1 2 "ground"
1 3 "flare"
1 4 "pipewall"
1 5 "x2"
1 6 "symmetry"
1 7 "r2"
1 8 "symmetry2"
1 9 "ground2"
1 11 "r3"
1 12 "ground3"
1 14 "symmetry3"
1 15 "r4"
1 16 "ground4"
1 18 "symmetry4"
1 19 "r5"
1 20 "ground5"
1 22 "symmetry5"
2 7 "domain1"
2 10 "domain2"
2 15 "domain3"
2 19 "domain4"
2 23 "domain5"
$EndPhysicalNames
$Entities
24 38 9 0
1 0 488.8888888888888 0 0 
2 0 0 0 0 
3 457.3432961439855 -172.769948634498 0 0 
4 122.3606797749979 -5.278640450004204 0 0 
5 100 -50 0 0 
6 50 -50 0 0 
7 50 -150 0 0 
8 0 -150 0 0 
9 0 1222.222222222222 0 0 
10 1114.634330649659 -501.415465887335 0 0 
11 0 2100 0 0 
12 1900.125308262818 -894.1609546939143 0 0 
13 0 2666.666666666667 0 0 
14 2407.080556173249 -1147.63857864913 0 0 
15 0 3111.111111111111 0 0 
16 2804.663660498559 -1346.430130811784 0 0 
17 0 3600 0 0 
18 3241.987987399283 -1565.092294262146 0 0 
19 0 4000 0 0 
20 3599.78992435832 -1743.993262741665 0 0 
21 0 4800 0 0 
22 4315.378266508133 -2101.787433816572 0 0 
23 0 10000 0 0 
24 8966.520785676501 -4427.358693400755 0 0 
1 0 -172.769948634498 0 487.7544968055191 488.8888888888887 0 0 2 1 -3 
2 122.3606797749979 -172.769948634498 0 457.3432961439855 -5.278640450004218 0 0 2 3 -4 
3 49.99999999999999 -50.00000000000001 0 122.3606797749979 -0.00333442290281738 0 0 2 4 -6 
4 50 -150 0 50 -50 0 0 2 6 -7 
5 0 -150 0 50 -150 0 0 2 7 -8 
6 0 -150 0 0 488.8888888888888 0 0 2 8 -1 
7 0 -501.415465887335 0 1221.970940956613 1222.222222222222 0 0 2 9 -10 
8 0 488.8888888888888 0 0 1222.222222222222 0 0 2 1 -9 
9 457.3432961439855 -501.415465887335 0 1114.634330649659 -172.769948634498 0 0 2 10 -3 
10 -2.842170943040401e-14 -172.7699486344979 0 487.754496805519 488.8888888888887 0 0 2 3 -1 
11 0 -894.1609546939143 0 2099.94897105561 2100 0 0 2 11 -12 
12 1114.634330649659 -894.1609546939143 0 1900.125308262818 -501.415465887335 0 0 2 12 -10 
13 1.13686837721616e-13 -501.415465887335 0 1221.970940956613 1222.222222222223 0 0 2 10 -9 
14 0 1222.222222222222 0 0 2100 0 0 2 9 -11 
15 0 -1147.638578649129 0 2666.654383170227 2666.666666666667 0 0 2 13 -14 
16 1900.125308262818 -1147.63857864913 0 2407.080556173249 -894.1609546939143 0 0 2 14 -12 
17 1.591615728102624e-12 -894.1609546939146 0 2099.94897105561 2100 0 0 2 12 -11 
18 0 2100 0 0 2666.666666666667 0 0 2 11 -13 
19 0 -1346.430130811785 0 3111.109702544029 3111.111111111111 0 1 19 2 15 -16 
20 2407.080556173249 -1346.430130811784 0 2804.663660498559 -1147.63857864913 0 1 20 2 16 -14 
21 6.821210263296962e-13 -1147.63857864913 0 2666.654383170227 2666.666666666667 0 1 15 2 14 -13 
22 0 2666.666666666667 0 0 3111.111111111111 0 1 22 2 13 -15 
23 0 -1565.092294262146 0 3599.998997894867 3600 0 0 2 17 -18 
24 2804.663660498559 -1565.092294262146 0 3241.987987399283 -1346.430130811784 0 0 2 18 -16 
25 9.094947017729282e-13 -1346.430130811784 0 3111.10970254403 3111.111111111111 0 0 2 16 -15 
26 0 3111.111111111111 0 0 3600 0 0 2 15 -17 
27 0 -1743.993262741665 0 3999.993327934862 4000 0 0 2 19 -20 
28 3241.987987399283 -1743.993262741665 0 3599.78992435832 -1565.092294262146 0 0 2 20 -18 
29 2.273736754432321e-13 -1565.092294262146 0 3599.998997894867 3600 0 0 2 18 -17 
30 0 3600 0 0 4000 0 0 2 17 -19 
31 0 -2101.787433816573 0 4799.971484377824 4800 0 0 2 21 -22 
32 3599.78992435832 -2101.787433816572 0 4315.378266508133 -1743.993262741665 0 0 2 22 -20 
33 9.094947017729282e-13 -1743.993262741665 0 3999.99332793486 3999.999999999999 0 0 2 20 -19 
34 0 4000 0 0 4800 0 0 2 19 -21 
35 0 -4427.358693400756 0 9999.706619488945 10000 0 0 2 23 -24 
36 4315.378266508133 -4427.358693400755 0 8966.520785676501 -2101.787433816572 0 0 2 24 -22 
37 -4.547473508864641e-13 -2101.787433816573 0 4799.971484377825 4800 0 0 2 22 -21 
38 0 4800 0 0 10000 0 0 2 21 -23 
2 0 -172.769948634498 0 487.7544968055191 488.8888888888888 0 0 6 -2 -1 -6 -5 -4 -3 
3 0 -501.4154658873351 0 1221.970940956613 1222.222222222222 0 0 4 -10 -9 -7 -8 
4 0 -894.1609546939144 0 2099.94897105561 2100 0 0 4 -14 -13 -12 -11 
5 0 -1147.63857864913 0 2666.654383170227 2666.666666666667 0 0 4 -18 -17 -16 -15 
6 0 -1346.430130811785 0 3111.109702544029 3111.111111111111 0 1 23 4 -22 -21 -20 -19 
7 0 -1565.092294262146 0 3599.998997894867 3600 0 0 4 -26 -25 -24 -23 
8 0 -1743.993262741665 0 3999.993327934862 4000 0 0 4 -30 -29 -28 -27 
9 0 -2101.787433816573 0 4799.971484377824 4800 0 0 4 -34 -33 -32 -31 
10 0 -4427.358693400756 0 9999.706619488945 10000 0 0 4 -38 -37 -36 -35 
$EndEntities
$Nodes
9 745 13 6078
0 13 0 1
13
0 2666.666666666667 0
0 14 0 1
14
2407.080556173249 -1147.63857864913 0
0 15 0 1
15
0 3111.111111111111 0
0 16 0 1
16
2804.663660498559 -1346.430130811784 0
1 19 0 89
603
604
605
606
607
608
609
610
611
612
613
614
615
616
617
618
619
620
621
622
623
624
625
626
627
628
629
630
631
632
633
634
635
636
637
638
639
640
641
642
643
644
645
646
647
648
649
650
651
652
653
654
655
656
657
658
659
660
661
662
663
664
665
666
667
668
669
670
671
672
673
674
675
676
677
678
679
680
681
682
683
684
685
686
687
688
689
690
691
69.7650294129671 3110.328790714902 0
139.4949725665168 3107.982222971631 0
209.1547608700726 3104.072588017941 0
278.7093610166731 3098.601852087598 0
348.123792575052 3091.572766525507 0
417.3631456281655 3082.988866400652 0
486.3925983194516 3072.854468727581 0
555.1774343601847 3061.17467029509 0
623.6830604017997 3047.95534512021 0
691.8750236146991 3033.203141462367 0
759.7190288665279 3016.925478505744 0
827.1809559883519 2999.130542628848 0
894.2268770451643 2979.827283258052 0
960.823073339762 2959.025408376371 0
1026.936052265431 2936.735379675279 0
1092.532564221553 2912.968407277101 0
1157.57961947205 2887.736444044358 0
1222.044504523764 2861.052179643405 0
1285.894798641206 2832.929034145844 0
1349.09839019763 2803.381151260951 0
1411.623492859055 2772.423391202616 0
1473.4386614064 2740.071323296518 0
1534.512807767623 2706.34121804257 0
1594.8152166077 2671.250038943481 0
1654.315560659006 2634.815434037172 0
1712.983915837001 2597.055727119222 0
1770.790776614219 2557.989908333695 0
1827.707070897773 2517.637624573738 0
1883.704174205659 2476.019169909472 0
1938.753924578779 2433.155475017862 0
1992.828636339736 2389.068096949797 0
2045.901114232767 2343.779208129497 0
2097.9446670099 2297.311585276088 0
2148.933120966202 2249.688597849372 0
2198.840832852011 2200.934196531484 0
2247.642703205734 2151.07290076488 0
2295.314188534212 2100.129786844743 0
2341.831313881688 2048.13047509239 0
2387.17068481558 1995.101117045482 0
2431.309499186749 1941.068382320235 0
2474.225558771627 1886.059444980525 0
2515.897280267872 1830.101970060613 0
2556.303706018492 1773.224099846136 0
2595.424514895205 1715.454439255093 0
2633.240032119408 1656.82204201984 0
2669.731239431787 1597.356395699165 0
2704.879784884347 1537.087406429128 0
2738.66799148542 1476.045384834839 0
2771.078866504034 1414.261030112098 0
2802.096109808155 1351.765414958164 0
2831.704122295565 1288.589969483434 0
2859.888013450875 1224.766465984035 0
2886.633608974919 1160.327002708913 0
2911.927458017736 1095.303987448863 0
2935.756839771023 1029.730121641912 0
2958.109769949521 963.6383837354148 0
2978.975006829129 897.0620125534275 0
2998.34205684893 830.0344907351374 0
3016.201179933581 762.5895277580753 0
3032.543394362957 694.7610430821559 0
3047.360481310544 626.5831490119891 0
3060.644988962446 558.0901335967903 0
3072.390236279472 489.3164433100384 0
3082.590316330129 420.2966658762909 0
3091.240099282621 351.065512783844 0
3098.335234995317 281.6578017125135 0
3103.872155176683 212.1084392424574 0
3107.848075195738 142.4524032129968 0
3110.260995489921 72.72472490879805 0
3111.109702547524 2.960471866564458 0
3110.393769536613 -66.8052700528096 0
3108.113556514612 -136.5374142464297 0
3104.270210247311 -206.2008910022597 0
3098.865663628914 -275.7606651804094 0
3091.902634716512 -345.1817537357766 0
3083.384625360853 -414.4292433785593 0
3073.315919438322 -483.468308171274 0
3061.701580708347 -552.2642269484975 0
3048.547450245913 -620.7824009088496 0
3033.860143543091 -688.9883708015001 0
3017.64704713768 -756.8478344953201 0
2999.916314925899 -824.3266640843476 0
2980.676864057546 -891.3909230809402 0
2959.938370420012 -958.0068835840053 0
2937.711263845254 -1024.141042999319 0
2914.006722795578 -1089.760141123351 0
2888.836668744971 -1154.831176836456 0
2862.21376019903 -1219.321424648292 0
2834.151386397683 -1283.198451004015 0
1 20 0 6
692
693
694
695
696
697
2747.86607416625 -1318.03133764563 0
2691.068487834261 -1289.632544479635 0
2634.270901502307 -1261.233751313659 0
2577.473315170069 -1232.83495814754 0
2520.67572883776 -1204.436164981385 0
2463.878142505451 -1176.037371815231 0
1 21 0 76
698
699
700
701
702
703
704
705
706
707
708
709
710
711
712
713
714
715
716
717
718
719
720
721
722
723
724
725
726
727
728
729
730
731
732
733
734
735
736
737
738
739
740
741
742
743
744
745
746
747
748
749
750
751
752
753
754
755
756
757
758
759
760
761
762
763
764
765
766
767
768
769
770
771
772
773
2436.295098192046 -1084.24042796629 0
2463.840194342544 -1020.099312740289 0
2489.696969574794 -955.2591851435925 0
2513.847705842287 -889.7644761073467 0
2536.275854117788 -823.6600651544289 0
2556.966045762556 -756.9912495719564 0
2575.904102982781 -689.8037136371383 0
2593.077048691065 -622.1434968419655 0
2608.473115284432 -554.0569627298601 0
2622.081752776 -485.5907668708862 0
2633.893635979899 -416.7918250826191 0
2643.900670967765 -347.7072808661255 0
2652.096000492436 -278.384473854305 0
2658.474008794843 -208.8709067184568 0
2663.030325400758 -139.214213020966 0
2665.761828147327 -69.46212423854513 0
2666.666645301309 0.3375626977820048 0
2665.74415684888 70.13701830820958 0
2662.994994919261 139.8884131945209 0
2658.42104334252 209.5439510574827 0
2652.025436367787 279.0559011548784 0
2643.81255651756 348.3766311209704 0
2633.788031577277 417.4586396655446 0
2621.958730748227 486.2545890418498 0
2608.332759956502 554.7173374330516 0
2592.91945626854 622.7999714315764 0
2575.729381457317 690.4558382754251 0
2556.774314842156 757.6385774724878 0
2536.067245222654 824.3021526235963 0
2513.622361853093 890.4008833683812 0
2489.45504489014 955.88947613317 0
2463.581854739296 1020.723055539749 0
2436.020520691861 1084.857195154859 0
2406.789928899601 1148.247947639604 0
2375.910109382899 1210.851875021571 0
2343.402222165248 1272.62607872937 0
2309.288542792752 1333.528228886529 0
2273.592447455513 1393.516592647667 0
2236.338396830461 1452.550063155441 0
2197.551918777858 1510.588188550032 0
2157.259591041677 1567.591199251199 0
2115.489023600232 1623.52003441228 0
2072.268839396434 1678.336369259056 0
2027.62865457881 1732.002641522824 0
1981.599058312359 1784.4820770203 0
1934.211591909397 1835.738714750667 0
1885.498727165153 1885.737431608574 0
1835.493844061645 1934.443966498621 0
1784.231207894883 1981.824943804341 0
1731.745945713128 2027.847896321925 0
1678.074022685262 2072.481287129034 0
1623.252216931313 2115.694531670082 0
1567.31809447979 2157.45801855502 0
1510.309983745417 2197.743129692375 0
1452.266948696784 2236.522260303717 0
1393.22876288009 2273.768837281998 0
1333.23588156771 2309.457337820182 0
1272.32941420857 2343.563306772572 0
1210.551096325727 2376.063373375317 0
1147.943260925161 2406.935267265745 0
1084.54880930306 2436.15783383393 0
1020.411181918926 2463.711048586245 0
955.5743284322838 2489.57603096437 0
890.0826775736393 2513.735057279198 0
823.9811067982232 2536.171572814168 0
757.3149114778431 2556.870203190694 0
690.1297740546916 2575.81676484845 0
622.4717324024786 2592.998274868491 0
554.3871484970391 2608.402959799815 0
485.9226765716355 2622.020263747893 0
417.1252311701375 2633.840855600879 0
348.0419550148486 2643.856635421171 0
278.7201867077248 2652.060739996866 0
209.2074282932083 2658.447547546886 0
139.5513127458688 2663.012681573638 0
69.79957114365766 2665.75301387418 0
1 22 0 6
774
775
776
777
778
779
0 2730.158730158679 0
0 2793.650793650375 0
0 2857.142857142184 0
0 2920.634920634349 0
0 2984.126984126515 0
0 3047.619047618718 0
2 6 0 564
5515
5516
5517
5518
5519
5520
5521
5522
5523
5524
5525
5526
5527
5528
5529
5530
5531
5532
5533
5534
5535
5536
5537
5538
5539
5540
5541
5542
5543
5544
5545
5546
5547
5548
5549
5550
5551
5552
5553
5554
5555
5556
5557
5558
5559
5560
5561
5562
5563
5564
5565
5566
5567
5568
5569
5570
5571
5572
5573
5574
5575
5576
5577
5578
5579
5580
5581
5582
5583
5584
5585
5586
5587
5588
5589
5590
5591
5592
5593
5594
5595
5596
5597
5598
5599
5600
5601
5602
5603
5604
5605
5606
5607
5608
5609
5610
5611
5612
5613
5614
5615
5616
5617
5618
5619
5620
5621
5622
5623
5624
5625
5626
5627
5628
5629
5630
5631
5632
5633
5634
5635
5636
5637
5638
5639
5640
5641
5642
5643
5644
5645
5646
5647
5648
5649
5650
5651
5652
5653
5654
5655
5656
5657
5658
5659
5660
5661
5662
5663
5664
5665
5666
5667
5668
5669
5670
5671
5672
5673
5674
5675
5676
5677
5678
5679
5680
5681
5682
5683
5684
5685
5686
5687
5688
5689
5690
5691
5692
5693
5694
5695
5696
5697
5698
5699
5700
5701
5702
5703
5704
5705
5706
5707
5708
5709
5710
5711
5712
5713
5714
5715
5716
5717
5718
5719
5720
5721
5722
5723
5724
5725
5726
5727
5728
5729
5730
5731
5732
5733
5734
5735
5736
5737
5738
5739
5740
5741
5742
5743
5744
5745
5746
5747
5748
5749
5750
5751
5752
5753
5754
5755
5756
5757
5758
5759
5760
5761
5762
5763
5764
5765
5766
5767
5768
5769
5770
5771
5772
5773
5774
5775
5776
5777
5778
5779
5780
5781
5782
5783
5784
5785
5786
5787
5788
5789
5790
5791
5792
5793
5794
5795
5796
5797
5798
5799
5800
5801
5802
5803
5804
5805
5806
5807
5808
5809
5810
5811
5812
5813
5814
5815
5816
5817
5818
5819
5820
5821
5822
5823
5824
5825
5826
5827
5828
5829
5830
5831
5832
5833
5834
5835
5836
5837
5838
5839
5840
5841
5842
5843
5844
5845
5846
5847
5848
5849
5850
5851
5852
5853
5854
5855
5856
5857
5858
5859
5860
5861
5862
5863
5864
5865
5866
5867
5868
5869
5870
5871
5872
5873
5874
5875
5876
5877
5878
5879
5880
5881
5882
5883
5884
5885
5886
5887
5888
5889
5890
5891
5892
5893
5894
5895
5896
5897
5898
5899
5900
5901
5902
5903
5904
5905
5906
5907
5908
5909
5910
5911
5912
5913
5914
5915
5916
5917
5918
5919
5920
5921
5922
5923
5924
5925
5926
5927
5928
5929
5930
5931
5932
5933
5934
5935
5936
5937
5938
5939
5940
5941
5942
5943
5944
5945
5946
5947
5948
5949
5950
5951
5952
5953
5954
5955
5956
5957
5958
5959
5960
5961
5962
5963
5964
5965
5966
5967
5968
5969
5970
5971
5972
5973
5974
5975
5976
5977
5978
5979
5980
5981
5982
5983
5984
5985
5986
5987
5988
5989
5990
5991
5992
5993
5994
5995
5996
5997
5998
5999
6000
6001
6002
6003
6004
6005
6006
6007
6008
6009
6010
6011
6012
6013
6014
6015
6016
6017
6018
6019
6020
6021
6022
6023
6024
6025
6026
6027
6028
6029
6030
6031
6032
6033
6034
6035
6036
6037
6038
6039
6040
6041
6042
6043
6044
6045
6046
6047
6048
6049
6050
6051
6052
6053
6054
6055
6056
6057
6058
6059
6060
6061
6062
6063
6064
6065
6066
6067
6068
6069
6070
6071
6072
6073
6074
6075
6076
6077
6078
54.98573992275544 2888.888888888267 0
2626.88109301973 -1188.240323689939 0
2914.766761106614 -904.7225553543935 0
3020.98575586298 -445.2561484737748 0
3045.434252485666 44.80098513065516 0
3009.515361959292 519.0060892407619 0
2895.194940081788 992.4187674226736 0
2707.465280509265 1413.115157377879 0
2446.35822397838 1823.600430342248 0
2134.476459713907 2187.463158465117 0
1764.914042848364 2495.059700506053 0
1357.107582280615 2732.717727374567 0
908.2099745271795 2905.304587579974 0
448.3054377560646 3013.661446157538 0
2635.545995909909 -670.2840176123234 0
2716.789341242694 -249.1355173717156 0
2722.356636058102 172.0218416474846 0
2660.648613240587 593.8375217371973 0
2526.519441417295 1010.087148426833 0
2343.832460135912 1387.606508671696 0
2089.562801980268 1756.321976823524 0
1793.676883238456 2043.360091012431 0
1449.393227200562 2309.781940624774 0
1078.878157195854 2514.445734499951 0
671.0053144085097 2642.674129684109 0
2558.820127822391 -948.1362352107485 0
249.0671275613915 2714.725723349529 0
2984.1093516704 -647.5011711815953 0
3048.576434414325 -169.8080979057316 0
3034.678826148609 310.2170894793151 0
2950.652186195252 777.1861405893283 0
2801.494643408767 1227.354734363238 0
2555.269307077559 1652.247596495844 0
2276.285318872928 2040.16378345924 0
1931.168129360996 2354.725461114791 0
1534.764189699924 2632.502082009675 0
1103.204570708368 2844.020023394284 0
651.9916907840679 2981.051388988205 0
2690.794326972094 -464.6780166785556 0
2735.159848860658 -42.47985059469625 0
2692.343879441093 392.1981766636367 0
2603.689283311327 810.8292598757785 0
2439.857347382369 1201.259117462214 0
2227.173401376416 1574.464609333563 0
1964.361702186439 1903.82640387926 0
1628.062971054441 2183.667630542938 0
1265.400467225457 2408.189770071442 0
875.2359129182049 2576.027247259743 0
457.4417057817905 2689.868397548326 0
2605.835763431313 -800.0565479877782 0
232.5904601342024 3039.939365191562 0
2849.567459972659 -1110.58922968664 0
2844.877897123259 1108.579276684781 0
2641.689763418972 1535.68472440969 0
2036.67392653946 2273.884006220322 0
2954.133409938755 -774.139565034522 0
3041.051545174952 174.4251782714807 0
3036.288257532457 -299.7762629423836 0
2362.438200449845 1923.046610225728 0
1656.826009445582 2568.266556921951 0
1226.755932929496 2795.571597898334 0
2988.438815218364 647.3136153037964 0
776.9922834007024 2962.741488465372 0
2496.136991099398 -1075.075774526756 0
98.87288094920284 2724.573092571144 0
114.1472515213127 3042.504355754572 0
2797.720190373091 -1222.083625439798 0
176.7939390169398 2720.337203405781 0
218.5135304741378 2777.583915956588 0
288.7695894335906 2771.991590802007 0
259.1383855033754 2836.574643017948 0
329.1557038551871 2831.454997976479 0
300.8896261174498 2899.528951718819 0
229.345443683329 2899.347758278144 0
369.9902687987651 2892.384248187415 0
398.3759417816466 2824.218716531977 0
438.118024176473 2883.665018778512 0
467.032965184244 2815.907311074724 0
506.4500686625267 2874.478040327601 0
535.3922635484205 2809.076053713636 0
344.2579468049219 2961.912061698182 0
575.2184899932524 2867.832808054332 0
602.8871362366034 2806.221198733118 0
643.3131565808319 2862.125847147407 0
672.106366192914 2803.035116517327 0
564.8965110844354 2741.96531091153 0
545.2881678310895 2934.055751785461 0
713.7013463254696 2854.6020537344 0
743.4940245980272 2796.207182343204 0
786.4647940912705 2848.519321812986 0
814.1837071487515 2787.208016194598 0
769.6647757539699 2736.112321000455 0
842.5906836848166 2724.471788994951 0
885.4264923896502 2780.701385629668 0
913.1908272130509 2715.607796004405 0
954.9021171886756 2772.711297010634 0
982.5978016660432 2710.785204159018 0
792.1221590473818 2672.101056168199 0
1023.66049727505 2767.051541548668 0
1054.26971452444 2706.821788809015 0
1013.912673876315 2649.186014431209 0
1081.896622628856 2642.441214644276 0
1124.734058476867 2699.99248006322 0
1152.510675453442 2635.888430719054 0
1196.148826856274 2687.255506884654 0
1222.666281468029 2627.156870968154 0
1181.792949810882 2575.575295736657 0
1251.502922967816 2567.674097973547 0
1290.748339653727 2619.945817455062 0
1321.144203310811 2561.393163442605 0
1358.336735592274 2615.48411321972 0
1389.299394334284 2554.88539255677 0
1351.978177001622 2500.313161577562 0
1420.044250927646 2493.394792050981 0
1381.641772255351 2437.450812972724 0
1450.374169584409 2431.31985377615 0
1489.192156128056 2488.586610907103 0
1518.468508868001 2423.722085633673 0
1558.012513867973 2480.364999791425 0
1587.808485405684 2417.199082430706 0
1548.743133527517 2364.970624258337 0
1617.58604248412 2358.671649089762 0
1658.247888083395 2410.865080192807 0
1687.37660093862 2351.685515938037 0
1577.668813324909 2299.440721682179 0
1210.206694565817 2509.79120242155 0
997.3492349636041 2825.227467821375 0
1425.471136601947 2610.528583251471 0
1725.484248510821 2400.95815294959 0
1754.066609886122 2340.765964259528 0
1706.626970991138 2280.456798024269 0
1784.646449217268 2278.330284320751 0
1750.814860228231 2219.96921540466 0
1816.937815496288 2216.433328361005 0
1853.225217456652 2272.324828245277 0
1884.465804766159 2211.997603352716 0
1791.008057039695 2393.929612660208 0
1848.628630024416 2156.216244413725 0
1915.548635481622 2149.412829724722 0
1924.244041696738 2277.169695928626 0
1530.653568656638 2555.376359271094 0
1879.512612598847 2095.273303406355 0
1945.817607597836 2088.018386890803 0
1983.626210909405 2142.84390724957 0
2014.405615694267 2079.707030092818 0
1907.289352195251 2025.906744616923 0
2049.618631260721 2133.546002914979 0
2081.005420380634 2070.11924214336 0
2035.064132068873 2008.479801934332 0
2112.34060442669 2006.059606882116 0
2073.393606137173 1951.021528125161 0
2142.879086694844 1942.046951403595 0
2104.288372251642 1886.366182038386 0
2173.017455147918 1879.260293130297 0
2160.015498454807 2064.855939595642 0
2212.352539084807 1933.788799798276 0
2242.921557752062 1872.561131599538 0
2204.852943117656 1814.896783570166 0
2273.623509086799 1808.999051146407 0
2237.964282097375 1752.300989250939 0
2304.386747203788 1747.66954398542 0
2274.532475370854 1691.629332271768 0
2335.761034978264 1686.030894585225 0
2369.795657733603 1741.614535327412 0
2401.424023489099 1679.035383254621 0
2357.045774013756 1616.522482735304 0
2430.529183705107 1614.680747646413 0
2392.760320496548 1556.397751746403 0
2459.931233751832 1552.916780069298 0
2420.857107308244 1496.494565074753 0
2488.954696487564 1490.435147806301 0
2450.748498822083 1434.833912574361 0
2518.640713310494 1427.771640000507 0
2481.011563923972 1372.527547049955 0
2548.050335321002 1365.158834007397 0
2350.292229619315 1502.758736773359 0
2511.023523726966 1309.890363363262 0
2577.088883680818 1302.251972244343 0
2585.551766045778 1420.944881777834 0
2540.611129676043 1246.797380409955 0
2606.683143972405 1239.039807024989 0
2570.391198927462 1183.295970485148 0
2637.071222322925 1174.978060225419 0
2641.805937681059 1295.651069351477 0
2600.149800535241 1119.853008316223 0
2666.879100942773 1111.850797412709 0
2629.392068806392 1056.134561145816 0
2695.813988401857 1048.008612369164 0
2658.261312034465 991.7296951936124 0
2724.984546527174 984.3956186433246 0
2687.286855194678 928.3806976346954 0
2754.898636363247 921.2728061192561 0
2716.150846118744 864.9536072716452 0
2785.123783139462 858.5411907886405 0
2743.342849518329 800.3941264593374 0
2814.227954087068 795.6209428598821 0
2771.974514411974 736.3920923803951 0
2697.382739441725 738.639942771234 0
2841.310780232975 732.731107876895 0
2801.996280080787 674.4065903856648 0
2856.913129419668 853.8520216649168 0
2619.766000719498 935.7522991628653 0
2868.84183038763 670.4835289818143 0
2832.317025910634 612.8811492805823 0
2527.666610729332 1547.332732130363 0
2733.986820202051 1104.615926809272 0
2209.314832265713 1691.285317380204 0
2766.771492878451 617.847941727141 0
2795.465763163679 555.4458341035047 0
2864.109239966851 549.1150649913943 0
2823.639747799489 490.6715425185956 0
2893.561266324617 485.0792811458315 0
2855.781442578913 426.4659217281253 0
2927.622536376641 419.5044935440103 0
2887.831941940483 361.7194795813157 0
2746.963651125005 494.2335114971996 0
2817.295481737658 369.0537923395545 0
2845.250228296788 305.9619095148652 0
2915.101669872541 296.6738628767169 0
2873.373548950949 242.9966730302425 0
2774.573126646996 313.3041510861208 0
2939.113003449568 232.5263677820529 0
2902.441828838621 179.8508374779044 0
2835.263055715764 188.5595005068461 0
2863.226468669463 124.6014719709615 0
2934.566594839612 117.2149368164612 0
2895.045553409908 60.32770367453392 0
2826.26075780604 67.04006303361143 0
2854.931608985443 4.031939030604891 0
2925.664209970407 -3.050853055928791 0
2884.100449710031 -59.49289632656915 0
2956.306244113099 -66.04785825524938 0
2914.030737540912 -123.6017692338054 0
2843.191530518259 -116.3678889502505 0
2873.246184452697 -180.2809714009916 0
2804.155811825221 -172.8980689642284 0
2834.048466721873 -235.9560810550129 0
2902.163596294098 -244.9158789122929 0
2860.66973579493 -299.971290576617 0
2926.93763293879 -308.7976369139566 0
2888.586822249887 -362.8895981366744 0
2821.94009846774 -357.2574583041076 0
2852.644459874465 -420.6165371810836 0
2788.286720231229 -420.8606455789835 0
2816.38839034654 -478.5602574571795 0
2883.452629340795 -480.7554280029887 0
2843.581041353838 -539.5279090546654 0
2776.450487292641 -534.2269436517656 0
2802.463993992331 -595.9533629632929 0
2913.47180400019 -541.7707393021798 0
2728.350599438079 -584.0904181568144 0
2762.460093050442 -653.7577375994794 0
2832.473013266026 -660.8273015459133 0
2791.821178211444 -718.9610997824129 0
2754.44374109715 -367.8656794528388 0
2444.233444497714 1317.960784678703 0
2857.801279303274 -724.731274539522 0
2820.968699779315 -782.5102323735238 0
2752.054510780683 -777.5563042075634 0
2782.689669353898 -841.1257425415224 0
2713.494620455322 -834.4955933399165 0
2741.492213413669 -896.6028841964685 0
2671.048777453637 -890.288605424775 0
2701.205873791246 -952.7903966008421 0
2768.730677185702 -958.6797820560531 0
2729.45229794507 -1014.772467780148 0
2662.285091362756 -1010.008748323731 0
2690.671067632865 -1071.043293848847 0
2625.037982031058 -1069.196479351551 0
2534.090435164719 1128.437922044807 0
2472.366712585075 1671.894318593548 0
2790.383077098949 976.1745283005718 0
2677.927916320457 -772.8108032151006 0
2795.592089187627 -1019.280006611557 0
2834.262581347803 -966.5571632267691 0
2976.115133050053 -256.3851305848734 0
2951.798842656287 -367.6813401067596 0
2773.47273728743 -109.8193948602026 0
1044.567035484105 2585.248647895187 0
977.3589237955493 2595.828987932729 0
2857.956662366127 -853.6645226655254 0
2909.003600575436 -668.3529598769207 0
2958.495267077194 -479.5542367556064 0
2983.034166511251 -545.4302706180808 0
145.2531493317221 2783.795563989134 0
77.63255892593087 2789.264569150462 0
111.0472958429634 2850.456325525698 0
2038.068162933109 1892.838200200497 0
2067.173978886511 1830.108525115284 0
1413.74064172773 2375.334024027871 0
2283.231033110337 1927.726099059474 0
427.6058299882743 2757.103310367864 0
2939.056160529832 546.5374312442768 0
1171.69568342314 2751.145153844783 0
2652.067999523555 -1127.307704460328 0
2716.570508214513 -1129.187008080536 0
2591.187961089352 -1126.482579109131 0
2024.199884534981 2201.444773617261 0
2728.897240326191 -173.0402755609265 0
2992.047105242495 -132.4200898639638 0
3026.390247079299 -67.97803744902598 0
2527.548082128212 -1012.457633452541 0
682.3855709286491 2915.365009098336 0
1393.328835337213 2669.945139352308 0
2596.004641298639 -875.862011148459 0
2671.759094304207 -534.8180356301895 0
2725.054675240191 35.67477731606823 0
2722.282153311731 103.2576751403434 0
2684.944886090841 458.7241098222189 0
2675.233328530848 525.597545260822 0
2625.308429514067 742.8362172185078 0
2654.570303467239 668.704283901195 0
2733.586483110959 676.5598439293574 0
2278.463635501658 1519.515239851701 0
2293.075795956362 1589.783781725987 0
1681.478021063677 2142.01843761948 0
1742.115016754647 2104.00325405852 0
527.4531750405736 2680.250286138019 0
603.2966181846685 2674.389549366869 0
664.8182339834296 2701.241492778201 0
2727.655478453635 249.3532246219804 0
1144.797322702 2473.822527790903 0
740.0554881271393 2622.708673912045 0
1903.470237859541 1952.96687772845 0
1969.200819372085 1975.141939098241 0
1337.968510300044 2377.476564692913 0
2656.517477416845 -602.0986913615365 0
318.6418858869457 2707.686136923937 0
188.6013056034975 2840.585940173105 0
159.0129932965525 2903.251338730865 0
197.9168698340152 2957.600092107896 0
122.9707908332144 2966.189287571844 0
167.9974307009473 3014.692648638936 0
274.3186388964759 2975.608488107564 0
327.4240658944597 3021.356995825694 0
67.92608272720354 2990.056584063397 0
2754.459166972368 -1074.52001171278 0
2785.533760166495 -1138.670704669521 0
388.346674659789 2699.227421542776 0
2630.786092055139 -947.3017178577834 0
1468.870817094981 2669.721539610603 0
495.8001168702704 2748.519346318903 0
1571.940104345275 2225.797959077997 0
1636.34003991234 2251.082258907642 0
1701.871231371734 2466.578210308903 0
477.3077555062914 2943.505672448937 0
515.9744774775821 3002.600149394408 0
410.2361300111268 2954.063969917572 0
2872.253463379947 -602.7205012934054 0
1952.166890887003 2204.934420256838 0
2824.577768789124 914.6892788441095 0
2760.841400863961 1038.859932411402 0
2612.293656395691 1358.363250665109 0
2917.822795245815 -422.8478416386807 0
2555.215419031589 1483.461892001901 0
2499.647037894335 1611.317769479304 0
2941.602961311922 -188.3680049607892 0
1628.85940000757 2470.039826534187 0
1459.176372229651 2549.476361945871 0
930.3755303574507 2836.587900105955 0
858.9873897057481 2846.450439534876 0
829.2638397201866 2920.381425886079 0
2182.739284967802 1994.555593566613 0
1098.947329710785 2771.769716386323 0
2995.644142800376 -9.750756318060903 0
2968.217683173656 52.59810239750365 0
3003.424411000748 111.884282832671 0
2704.435589623296 1167.222988981546 0
2777.871754950492 1156.582574612056 0
2672.081667388505 1231.888464251584 0
2705.734556735399 1290.754030747397 0
2897.986972352644 608.0519419288798 0
2339.307024224646 1800.683514030963 0
2313.259167496804 1864.796689962139 0
1821.156479404032 2334.074390479481 0
2443.075534703278 1743.457999167976 0
2969.145261530266 172.9301743619855 0
1263.527603169757 2675.779660767016 0
2968.468215913166 350.7528645821567 0
3000.390879268656 416.5721870550192 0
871.0494768541814 2650.432289472003 0
2788.488304971953 131.9083280315823 0
2134.537399108704 1820.257695901758 0
2812.632711077691 -52.18408664148691 0
1284.010816018493 2507.995354163766 0
2803.753530253246 250.8746995112531 0
1111.505330904768 2579.247021997091 0
2788.08358221699 431.1957878682351 0
942.8333935330186 2654.358217035185 0
2647.039550380263 870.3837515983643 0
2674.098073318668 806.0355889703628 0
2725.173120763753 -715.6552500096166 0
2781.342258922637 -292.2301886793348 0
2862.360320338075 -1036.307668973541 0
2830.154125686883 1031.659114288827 0
2810.171309328273 -901.9249184661379 0
1511.943319719825 2264.962706689362 0
1783.314766390096 2161.211545667178 0
2521.139614624623 -1138.198428190279 0
358.4826042675722 2765.280362357506 0
2413.18112821571 1380.165092526998 0
2686.078808500843 -1228.174220197554 0
2168.32884326823 1754.592414732894 0
1865.026995055371 2392.863810131626 0
2183.096503188404 1627.610876900198 0
2379.547256985481 1848.768294657362 0
2694.017954178791 -390.5556522697002 0
2932.74409737656 -838.7724585987118 0
2605.246785574069 1595.754551838116 0
3042.087899210343 246.7625466132409 0
2996.192889876175 581.1241793174163 0
2971.066538819118 711.4107511305958 0
2968.478483837984 -709.2338373466881 0
3043.214099771454 -235.2790011957092 0
2927.719912779269 844.3433265533563 0
2230.009541700392 2087.671426412365 0
2181.005783306315 2135.384862783112 0
1594.807859931005 2599.341284840734 0
1985.585994534481 2315.480755441963 0
2738.711793423334 1351.634920488517 0
1293.574343027188 2769.137084931222 0
2675.287540671288 1474.451383113326 0
2898.292188282575 918.860011674679 0
3019.861711769198 -373.2764679017992 0
2706.696632400009 321.8797202471503 0
2521.013159029612 1719.101578100091 0
2083.696110821473 2230.948727629439 0
722.4451979024614 2688.586077997428 0
2309.100555159718 1450.702556091704 0
2621.380088679362 -736.4256195532749 0
2579.025777694336 879.302442469992 0
2883.123394492228 788.8097991893178 0
1204.682805285861 2443.082470123967 0
1479.228840638433 2369.472035169851 0
613.5800298081036 2925.69889674693 0
2594.407781760475 -1009.11928176164 0
807.3155718719493 2600.203811583395 0
1163.371273461267 2818.54918586858 0
2889.945624033222 -784.2105365090143 0
2318.659748338889 1986.18957861077 0
1003.472046496782 2531.242971587939 0
977.7856227355593 2888.926566858413 0
2787.103460310464 11.44464043243072 0
583.8975209372388 2992.813105888593 0
1711.632438929844 2533.155309053298 0
1605.197134388241 2531.230950421537 0
2553.746037079721 945.0567794688054 0
1846.670942763457 1997.958379959088 0
2740.321024201669 -1255.571831679997 0
1043.01987095993 2870.678657591528 0
2382.181784104776 1442.126354525403 0
2726.509339534855 567.5783640681956 0
1327.497851589719 2671.632201692471 0
2504.006521709092 1191.475026538482 0
2252.311002352889 1632.955863027676 0
2563.284236549904 1064.813518054154 0
2754.913669947708 -474.2972237174511 0
2965.244835449932 475.0927373457986 0
2591.801267271258 1000.551343159147 0
2496.024522818634 1776.750270421 0
2734.685305841402 -1191.019338245187 0
2907.610070572383 724.2464054926127 0
1816.523555519877 2453.011725847343 0
716.7496705734933 2970.857847749532 0
2980.828737192421 279.4325680919611 0
2706.912491463773 -317.6746698361272 0
2896.476685042752 -969.6975835753371 0
2001.828853510329 1839.555694417603 0
2941.312001439358 -601.5588368283801 0
2377.165993519963 1325.976029442854 0
2696.369055060388 -656.6811844175934 0
2567.312689080783 -1177.889571504637 0
3019.506537919618 -501.1946381934466 0
1688.366210893757 2208.507847649148 0
2559.243068788853 -1071.75502939865 0
3035.473667388636 369.7808639553252 0
2773.114065295833 -224.5226730245255 0
2139.676807283213 1688.611164918026 0
2114.357737140946 2128.456154986453 0
383.4373470242449 3029.255372234849 0
1974.355505385663 2035.450780526624 0
2497.75240610452 1073.817125232098 0
2409.129679992567 1264.005464287284 0
1315.894157894724 2446.969887665845 0
3057.874697319092 -19.41626316281626 0
2713.244392436563 -106.8211549663908 0
2469.17039798297 1137.651472020805 0
2474.365489321831 1255.325699570145 0
2752.651369479561 375.0154234742526 0
48.73311893832994 2835.880686871397 0
1878.964172594758 2326.23163717996 0
43.10469637654425 2747.946275206477 0
1483.787216856628 2603.520985217743 0
2675.533558353137 1353.142856966305 0
1812.262292517774 2103.271021439085 0
2775.761944106786 198.7923076494933 0
2769.471978894584 1289.070130532876 0
702.9415140979258 2747.816319177502 0
103.1007278464233 2911.532823446251 0
2736.495961797465 1223.91220013645 0
937.4460284524233 2550.721614367456 0
2645.295568082709 1414.58532243609 0
2652.979115389931 -834.6769451950194 0
2248.843613700521 1986.140856586825 0
752.047921854953 2906.412147556659 0
3000.326775213429 -196.4285298827247 0
2836.810394518497 -1169.143055220148 0
2395.506187329741 1791.804387391434 0
2681.887543591804 -1172.428639403714 0
2834.183529346258 1176.224685039967 0
53.42597512370509 2942.376254012236 0
1242.273400485097 2732.468292718693 0
2614.226690466875 1476.358707097345 0
1055.010177808339 2814.921329907764 0
2916.069595435304 -731.4451658422814 0
1982.715788103157 2254.338987227687 0
2931.087956041317 661.4926523291794 0
1142.524208936245 2532.522658600275 0
3057.104222557469 -114.7097819035922 0
51.39722425864365 3039.41087120502 0
3026.026325857496 464.0568245655817 0
1645.119693530226 2308.267388728377 0
2789.546399765329 1088.059364961268 0
2768.778204972944 69.95962064138403 0
1512.051027122889 2321.893084031009 0
2468.055725574647 -1124.739562996347 0
2982.200315589357 -321.1833676899545 0
2708.90333343944 623.2930988371875 0
2581.688168762623 1536.376445246353 0
627.1694870812424 2749.316536505463 0
2017.144742383531 1945.994779179434 0
2035.101562366967 1784.983058392061 0
2860.807887376688 -916.8029606218415 0
1383.83733038758 2326.502936930814 0
2306.496607122744 1640.403130906906 0
2883.582252136137 1051.538253497411 0
2994.44528931151 221.2153670241443 0
2670.028202629016 -714.5513998624319 0
1662.023454420681 2513.996675169832 0
2732.169800581314 431.7345356516836 0
2784.489423396104 -1284.465775362431 0
1422.726106081379 2719.430118491902 0
3062.021214430574 109.1117251303753 0
921.4526595275453 2605.334024074381 0
2549.328371812781 1596.074601047703 0
2080.024629729297 2179.367724016507 0
2971.849987679152 -419.1784983155072 0
172.361781181992 3067.230142568806 0
2420.922803253707 1887.740575273923 0
2219.793757828364 2034.421285026578 0
1729.217775066082 2167.142060079797 0
1253.338740370167 2461.830611901486 0
2335.573804065698 1555.890541007769 0
38.71150268808186 2702.200993123854 0
2724.453635590945 -518.4221275669552 0
3003.904717042529 -596.0924339521484 0
1760.102460254157 2441.915218155311 0
2734.162858592071 -428.6164417019357 0
288.0227586583611 3049.87363966167 0
1847.63672921937 2050.171821307439 0
1301.938013504729 2715.92075198615 0
2808.905440174863 -1074.128515591819 0
2952.583508897765 607.4496711373771 0
2846.537868840845 965.8202920104937 0
$EndNodes
$Elements
5 1488 621 11479
1 19 1 90
621 15 603 
622 603 604 
623 604 605 
624 605 606 
625 606 607 
626 607 608 
627 608 609 
628 609 610 
629 610 611 
630 611 612 
631 612 613 
632 613 614 
633 614 615 
634 615 616 
635 616 617 
636 617 618 
637 618 619 
638 619 620 
639 620 621 
640 621 622 
641 622 623 
642 623 624 
643 624 625 
644 625 626 
645 626 627 
646 627 628 
647 628 629 
648 629 630 
649 630 631 
650 631 632 
651 632 633 
652 633 634 
653 634 635 
654 635 636 
655 636 637 
656 637 638 
657 638 639 
658 639 640 
659 640 641 
660 641 642 
661 642 643 
662 643 644 
663 644 645 
664 645 646 
665 646 647 
666 647 648 
667 648 649 
668 649 650 
669 650 651 
670 651 652 
671 652 653 
672 653 654 
673 654 655 
674 655 656 
675 656 657 
676 657 658 
677 658 659 
678 659 660 
679 660 661 
680 661 662 
681 662 663 
682 663 664 
683 664 665 
684 665 666 
685 666 667 
686 667 668 
687 668 669 
688 669 670 
689 670 671 
690 671 672 
691 672 673 
692 673 674 
693 674 675 
694 675 676 
695 676 677 
696 677 678 
697 678 679 
698 679 680 
699 680 681 
700 681 682 
701 682 683 
702 683 684 
703 684 685 
704 685 686 
705 686 687 
706 687 688 
707 688 689 
708 689 690 
709 690 691 
710 691 16 
1 20 1 7
711 16 692 
712 692 693 
713 693 694 
714 694 695 
715 695 696 
716 696 697 
717 697 14 
1 21 1 77
718 14 698 
719 698 699 
720 699 700 
721 700 701 
722 701 702 
723 702 703 
724 703 704 
725 704 705 
726 705 706 
727 706 707 
728 707 708 
729 708 709 
730 709 710 
731 710 711 
732 711 712 
733 712 713 
734 713 714 
735 714 715 
736 715 716 
737 716 717 
738 717 718 
739 718 719 
740 719 720 
741 720 721 
742 721 722 
743 722 723 
744 723 724 
745 724 725 
746 725 726 
747 726 727 
748 727 728 
749 728 729 
750 729 730 
751 730 731 
752 731 732 
753 732 733 
754 733 734 
755 734 735 
756 735 736 
757 736 737 
758 737 738 
759 738 739 
760 739 740 
761 740 741 
762 741 742 
763 742 743 
764 743 744 
765 744 745 
766 745 746 
767 746 747 
768 747 748 
769 748 749 
770 749 750 
771 750 751 
772 751 752 
773 752 753 
774 753 754 
775 754 755 
776 755 756 
777 756 757 
778 757 758 
779 758 759 
780 759 760 
781 760 761 
782 761 762 
783 762 763 
784 763 764 
785 764 765 
786 765 766 
787 766 767 
788 767 768 
789 768 769 
790 769 770 
791 770 771 
792 771 772 
793 772 773 
794 773 13 
1 22 1 7
795 13 774 
796 774 775 
797 775 776 
798 776 777 
799 777 778 
800 778 779 
801 779 15 
2 6 2 1307
10173 5833 6044 5600 
10174 5878 5952 5551 
10175 5535 5897 5803 
10176 5654 5933 5549 
10177 5655 5932 5550 
10178 5549 6005 5654 
10179 5862 5994 5595 
10180 5832 5833 5600 
10181 5825 5826 5712 
10182 779 6034 15 
10183 5785 5870 5547 
10184 5808 5952 5878 
10185 5845 5848 5565 
10186 5819 5854 5777 
10187 5711 5827 5714 
10188 5587 5848 5588 
10189 5595 5994 5849 
10190 5544 5990 5893 
10191 5565 5847 5845 
10192 5809 5811 5516 
10193 5919 5969 5721 
10194 5792 5898 5554 
10195 5547 5940 5785 
10196 5721 5969 5676 
10197 5826 5827 5712 
10198 15 6034 603 
10199 5893 5979 5544 
10200 5835 5900 5735 
10201 5580 5850 5846 
10202 5811 5986 5516 
10203 614 5876 615 
10204 5530 5980 5907 
10205 5834 6044 5833 
10206 5846 5847 5580 
10207 5881 5891 5740 
10208 5519 5881 5880 
10209 5517 5922 5795 
10210 5895 5951 5562 
10211 5550 6007 5655 
10212 5612 5942 5837 
10213 5715 5937 5865 
10214 5803 6046 5535 
10215 5811 5989 5913 
10216 631 5918 632 
10217 5538 5901 5793 
10218 5530 5813 711 
10219 5519 5880 5879 
10220 5860 5861 5528 
10221 5540 5854 5819 
10222 5913 5989 5578 
10223 5712 5905 5825 
10224 5785 5940 5890 
10225 5777 6017 5819 
10226 5595 5848 5587 
10227 5588 5848 5845 
10228 5852 5975 5581 
10229 5714 5827 5722 
10230 5712 5827 5711 
10231 5527 5875 5874 
10232 5606 5942 5612 
10233 5940 5974 5890 
10234 5796 5927 5542 
10235 775 6006 5800 
10236 5822 5896 5531 
10237 5591 5862 5589 
10238 5528 5862 5860 
10239 5838 5839 5660 
10240 5880 5881 5740 
10241 5876 6019 5604 
10242 5571 5891 5881 
10243 5937 6078 5865 
10244 5527 5876 5875 
10245 5600 5856 5832 
10246 5612 5951 5895 
10247 5528 5861 609 
10248 5535 5917 5897 
10249 609 5861 610 
10250 5885 6014 6011 
10251 5898 5957 5554 
10252 5735 5939 5835 
10253 6011 6014 5546 
10254 5894 5990 666 
10255 711 5813 712 
10256 666 6035 5894 
10257 5730 5824 5823 
10258 5577 5876 614 
10259 615 5876 5527 
10260 5907 5991 5530 
10261 673 5999 5815 
10262 5581 6021 5852 
10263 5850 6025 5846 
10264 5815 6033 673 
10265 5835 6010 5900 
10266 5949 5958 5601 
10267 5907 5980 5769 
10268 5825 5905 5556 
10269 5800 6004 775 
10270 5554 6000 5792 
10271 5846 6025 6013 
10272 5655 5960 5932 
10273 5787 5944 5564 
10274 5793 5955 5538 
10275 5929 5937 5715 
10276 5535 5992 5917 
10277 5805 5888 5573 
10278 5820 5841 5765 
10279 5572 5928 5790 
10280 5839 5995 5660 
10281 5921 5980 709 
10282 5795 6047 5517 
10283 5883 6037 5567 
10284 5567 6024 5883 
10285 5817 6019 5978 
10286 631 5977 5918 
10287 5515 6004 5801 
10288 5896 6010 5531 
10289 5599 6044 6012 
10290 5532 6042 5826 
10291 5826 6042 5827 
10292 5875 5876 5604 
10293 5828 5943 5690 
10294 632 5918 5549 
10295 5690 6067 5828 
10296 5858 5988 5645 
10297 5832 5856 5563 
10298 5564 6017 5787 
10299 5577 6019 5876 
10300 6012 6044 5834 
10301 5978 6019 5577 
10302 688 5908 5566 
10303 5589 5862 5595 
10304 5542 5983 5796 
10305 5806 5853 5563 
10306 5860 5862 5591 
10307 5917 5992 5721 
10308 5801 6013 5515 
10309 5730 5966 5824 
10310 5943 5965 5690 
10311 5922 5953 5795 
10312 5521 6078 5937 
10313 5890 5974 5523 
10314 5534 5965 5943 
10315 5824 5966 5532 
10316 5663 5995 5839 
10317 5694 6002 5968 
10318 5544 5979 5924 
10319 5790 6041 5572 
10320 5523 6022 5890 
10321 5799 5800 5579 
10322 5582 5799 5579 
10323 5520 5925 5807 
10324 5563 5856 5806 
10325 5552 5958 5949 
10326 5530 5991 5813 
10327 5802 6045 5559 
10328 733 5997 5984 
10329 5769 5980 5921 
10330 5839 6045 5663 
10331 5629 5840 5804 
10332 5715 5946 5929 
10333 5979 6051 5924 
10334 5518 6061 5797 
10335 5810 5975 5852 
10336 5797 5987 5518 
10337 5537 5948 5804 
10338 637 5931 638 
10339 5559 5982 5802 
10340 5984 5997 5770 
10341 5645 6036 5858 
10342 5765 6069 5820 
10343 5592 5856 5594 
10344 5573 5954 5805 
10345 5945 5961 727 
10346 5857 5911 751 
10347 772 5582 5579 
10348 687 5908 688 
10349 625 5855 5550 
10350 5888 5920 5573 
10351 5893 5990 5894 
10352 722 5824 5532 
10353 716 5822 5531 
10354 5556 5905 5904 
10355 5970 5973 5701 
10356 680 5987 5798 
10357 700 5816 5540 
10358 5874 5956 5527 
10359 5850 6034 778 
10360 774 6006 775 
10361 5538 6032 5901 
10362 5836 5947 5640 
10363 5930 5931 5669 
10364 5528 5994 5862 
10365 5595 5849 5848 
10366 5812 5941 5569 
10367 778 6034 779 
10368 5540 5819 701 
10369 5857 5858 5639 
10370 5968 6002 5557 
10371 5807 5972 5520 
10372 624 5855 625 
10373 5819 6017 5564 
10374 5837 5951 5612 
10375 5639 5911 5857 
10376 5563 5853 768 
10377 5904 5945 5556 
10378 5806 5914 5853 
10379 5798 6070 680 
10380 766 5833 5832 
10381 748 5831 5830 
10382 5532 5826 723 
10383 5588 5844 5843 
10384 5804 6048 5537 
10385 5588 5845 5844 
10386 5806 5856 5592 
10387 5716 5961 5945 
10388 5594 5856 5600 
10389 5956 5964 617 
10390 5828 6067 5829 
10391 5799 5801 5800 
10392 5588 5843 5585 
10393 5541 5842 5584 
10394 5551 6028 5878 
10395 5853 5914 5842 
10396 5543 6033 5814 
10397 5861 5958 610 
10398 5816 5950 5540 
10399 5524 5931 637 
10400 5585 5843 5583 
10401 721 5824 722 
10402 715 5822 716 
10403 5909 6078 5521 
10404 5540 5950 5854 
10405 5835 5939 718 
10406 5521 6050 5909 
10407 5831 6065 5830 
10408 5575 5952 5808 
10409 5601 5958 5861 
10410 770 5842 5541 
10411 771 5582 772 
10412 5849 5994 607 
10413 638 5931 5930 
10414 5660 5962 5838 
10415 5669 6064 5930 
10416 5828 5829 5558 
10417 5552 5949 5817 
10418 5823 5824 721 
10419 5821 5822 715 
10420 699 5816 700 
10421 5920 6022 5523 
10422 5645 5988 5647 
10423 5641 5956 5874 
10424 5966 6042 5532 
10425 5783 5809 5782 
10426 701 5819 702 
10427 690 5581 691 
10428 5845 5846 5844 
10429 5848 6073 5565 
10430 603 5580 604 
10431 5929 5946 5545 
10432 5780 5851 5788 
10433 772 5579 773 
10434 5578 5816 699 
10435 767 5832 5563 
10436 764 5837 5539 
10437 706 5841 5820 
10438 765 5833 766 
10439 737 5828 5558 
10440 707 5820 5553 
10441 758 5836 5538 
10442 725 5825 5556 
10443 755 5840 5561 
10444 5529 5841 705 
10445 749 5830 5560 
10446 720 5823 721 
10447 747 5831 748 
10448 750 5857 751 
10449 714 5821 715 
10450 744 5838 745 
10451 717 5835 718 
10452 723 5826 724 
10453 698 5578 699 
10454 5783 5811 5809 
10455 5781 5782 5780 
10456 768 5853 769 
10457 5541 5582 771 
10458 5842 5914 5584 
10459 751 5911 752 
10460 5569 6030 5812 
10461 5837 5942 5539 
10462 5583 5799 5582 
10463 5583 5843 5799 
10464 5781 5783 5782 
10465 5541 5583 5582 
10466 5801 6004 5800 
10467 5778 5854 5781 
10468 5533 5973 5970 
10469 688 5566 689 
10470 605 5565 606 
10471 770 5541 771 
10472 5778 5780 5779 
10473 700 5540 701 
10474 5778 5781 5780 
10475 5809 5810 5782 
10476 5554 5957 5821 
10477 5559 6045 5839 
10478 5777 5778 5776 
10479 5912 6065 5831 
10480 5562 6058 5895 
10481 5908 6076 5566 
10482 5777 5854 5778 
10483 5587 5588 5585 
10484 738 5919 739 
10485 5838 5962 745 
10486 708 5921 709 
10487 702 5819 5564 
10488 769 5842 770 
10489 5775 5777 5776 
10490 5778 5779 5776 
10491 5840 6048 5804 
10492 5775 5776 5774 
10493 5523 6063 5920 
10494 5782 5851 5780 
10495 5780 5788 5779 
10496 769 5853 5842 
10497 719 5939 5555 
10498 5773 5775 5774 
10499 5773 5774 5772 
10500 5843 5844 5801 
10501 5796 6029 5927 
10502 5774 5795 5772 
10503 5884 5885 5698 
10504 5695 5884 5698 
10505 5741 5880 5740 
10506 5761 5863 5764 
10507 5650 5864 5654 
10508 5755 5868 5791 
10509 5747 5871 5814 
10510 5671 5888 5805 
10511 5626 5873 5642 
10512 5715 5865 5708 
10513 5786 5866 5704 
10514 5689 5867 5693 
10515 5539 5834 5833 
10516 5685 5869 5719 
10517 5605 5875 5604 
10518 5681 5870 5785 
10519 766 5832 767 
10520 5664 5877 5669 
10521 5763 5863 5761 
10522 5653 5864 5650 
10523 5749 5871 5747 
10524 5757 5868 5755 
10525 5628 5873 5626 
10526 5634 5872 5633 
10527 5614 5878 5613 
10528 5608 5875 5605 
10529 5718 5886 5717 
10530 5539 5833 765 
10531 5697 5884 5695 
10532 5644 5889 5651 
10533 5744 5880 5741 
10534 5673 5888 5671 
10535 5887 5888 5673 
10536 5874 5875 5608 
10537 5764 5798 5797 
10538 5560 5858 5857 
10539 5559 5839 5838 
10540 5882 5884 5697 
10541 5708 5865 5706 
10542 5720 5883 5882 
10543 5893 5894 5728 
10544 5642 5855 5818 
10545 5642 5818 5625 
10546 5754 5790 5752 
10547 5633 5655 5631 
10548 5619 5808 5617 
10549 5726 5807 5724 
10550 5814 5815 5746 
10551 5643 5859 5637 
10552 5764 5797 5760 
10553 5704 5866 5702 
10554 5710 5715 5708 
10555 5661 5812 5658 
10556 5771 5796 5767 
10557 5706 5786 5704 
10558 5702 5720 5700 
10559 5613 5641 5610 
10560 5671 5805 5670 
10561 5666 5877 5664 
10562 5683 5870 5681 
10563 5695 5698 5692 
10564 5687 5869 5685 
10565 5675 5887 5673 
10566 5692 5867 5689 
10567 5670 5877 5666 
10568 5689 5693 5687 
10569 5685 5719 5683 
10570 5593 5860 5591 
10571 5768 5771 5767 
10572 5700 5882 5697 
10573 5678 5887 5675 
10574 5659 5661 5658 
10575 5681 5785 5679 
10576 5646 5889 5644 
10577 5785 5890 5679 
10578 5706 5865 5786 
10579 5649 5889 5646 
10580 5719 5870 5683 
10581 5677 5678 5675 
10582 5650 5654 5649 
10583 5761 5764 5760 
10584 5679 5890 5678 
10585 5617 5878 5614 
10586 5702 5866 5720 
10587 5693 5869 5687 
10588 5724 5886 5718 
10589 5610 5874 5608 
10590 5698 5867 5692 
10591 5755 5791 5754 
10592 5644 5651 5643 
10593 5668 5670 5666 
10594 5753 5754 5752 
10595 5638 5643 5637 
10596 5740 5891 5737 
10597 5664 5669 5662 
10598 5720 5882 5700 
10599 5632 5633 5631 
10600 5766 5767 5763 
10601 5747 5814 5746 
10602 5657 5658 5653 
10603 5631 5873 5628 
10604 5745 5746 5744 
10605 724 5826 5825 
10606 5555 5823 720 
10607 5560 5857 750 
10608 5554 5821 714 
10609 5536 5831 747 
10610 5559 5838 744 
10611 5531 5835 717 
10612 5623 5892 5620 
10613 5752 5871 5749 
10614 5626 5642 5625 
10615 5637 5872 5634 
10616 5733 5893 5729 
10617 5746 5879 5744 
10618 5648 5649 5646 
10619 5737 5891 5736 
10620 5759 5760 5757 
10621 5879 5880 5744 
10622 5624 5625 5623 
10623 5760 5868 5757 
10624 5677 5679 5678 
10625 5734 5736 5733 
10626 5751 5752 5749 
10627 5636 5637 5634 
10628 5807 5886 5724 
10629 5620 5892 5619 
10630 763 5837 764 
10631 5729 5893 5728 
10632 5641 5874 5610 
10633 5618 5619 5617 
10634 5767 5863 5763 
10635 5808 5878 5617 
10636 5658 5864 5653 
10637 5630 5631 5628 
10638 5727 5728 5726 
10639 757 5836 758 
10640 736 5828 737 
10641 706 5820 707 
10642 705 5841 706 
10643 724 5825 725 
10644 754 5840 755 
10645 748 5830 749 
10646 707 5553 708 
10647 713 5554 714 
10648 719 5555 720 
10649 725 5556 726 
10650 731 5557 732 
10651 737 5558 738 
10652 749 5560 750 
10653 743 5559 744 
10654 755 5561 756 
10655 761 5562 762 
10656 767 5563 768 
10657 702 5564 703 
10658 734 5534 735 
10659 710 5530 711 
10660 704 5529 705 
10661 716 5531 717 
10662 746 5536 747 
10663 722 5532 723 
10664 728 5533 729 
10665 758 5538 759 
10666 764 5539 765 
10667 740 5535 741 
10668 752 5537 753 
10669 5743 5744 5741 
10670 5668 5671 5670 
10671 5739 5740 5737 
10672 5725 5726 5724 
10673 5659 5662 5661 
10674 5768 5772 5771 
10675 5622 5623 5620 
10676 5714 5717 5713 
10677 5732 5733 5729 
10678 5611 5613 5610 
10679 5711 5713 5710 
10680 5657 5659 5658 
10681 5766 5768 5767 
10682 5655 5873 5631 
10683 5709 5710 5708 
10684 5815 5879 5746 
10685 5707 5708 5706 
10686 5616 5617 5614 
10687 5859 5872 5637 
10688 5723 5724 5718 
10689 5790 5871 5752 
10690 5705 5706 5704 
10691 5648 5650 5649 
10692 5759 5761 5760 
10693 5703 5704 5702 
10694 5609 5610 5608 
10695 5638 5644 5643 
10696 5701 5702 5700 
10697 5753 5755 5754 
10698 5797 5868 5760 
10699 5699 5700 5697 
10700 5696 5697 5695 
10701 5751 5753 5752 
10702 5636 5638 5637 
10703 5632 5634 5633 
10704 5745 5747 5746 
10705 5812 5864 5658 
10706 5694 5695 5692 
10707 5796 5863 5767 
10708 5630 5632 5631 
10709 5691 5692 5689 
10710 5688 5689 5687 
10711 5743 5745 5744 
10712 5624 5626 5625 
10713 5686 5687 5685 
10714 5734 5737 5736 
10715 5684 5685 5683 
10716 5739 5741 5740 
10717 5680 5681 5679 
10718 5682 5683 5681 
10719 5618 5620 5619 
10720 5622 5624 5623 
10721 5607 5608 5605 
10722 5732 5734 5733 
10723 5727 5729 5728 
10724 5676 5677 5675 
10725 5616 5618 5617 
10726 5672 5673 5671 
10727 5725 5727 5726 
10728 5674 5675 5673 
10729 5714 5718 5717 
10730 5723 5725 5724 
10731 5611 5614 5613 
10732 5667 5668 5666 
10733 5711 5714 5713 
10734 5665 5666 5664 
10735 5663 5664 5662 
10736 5609 5611 5610 
10737 5709 5711 5710 
10738 5707 5709 5708 
10739 5705 5707 5706 
10740 5762 5763 5761 
10741 5765 5766 5763 
10742 5652 5653 5650 
10743 5656 5657 5653 
10744 5703 5705 5704 
10745 5701 5703 5702 
10746 5756 5757 5755 
10747 5699 5701 5700 
10748 5645 5646 5644 
10749 5647 5648 5646 
10750 5758 5759 5757 
10751 5696 5699 5697 
10752 5694 5696 5695 
10753 5607 5609 5608 
10754 5691 5694 5692 
10755 5748 5749 5747 
10756 5635 5636 5634 
10757 5677 5680 5679 
10758 5688 5691 5689 
10759 5750 5751 5749 
10760 5686 5688 5687 
10761 5627 5628 5626 
10762 5684 5686 5685 
10763 5742 5743 5741 
10764 5668 5672 5671 
10765 5629 5630 5628 
10766 5682 5684 5683 
10767 5738 5739 5737 
10768 5680 5682 5681 
10769 5621 5622 5620 
10770 5659 5663 5662 
10771 5768 5773 5772 
10772 5731 5732 5729 
10773 655 5567 656 
10774 634 5569 635 
10775 683 5570 684 
10776 648 5568 649 
10777 676 5572 677 
10778 669 5571 670 
10779 662 5576 663 
10780 627 5574 628 
10781 641 5573 642 
10782 620 5575 621 
10783 613 5577 614 
10784 5674 5676 5675 
10785 5672 5674 5673 
10786 681 5542 682 
10787 674 5543 675 
10788 667 5544 668 
10789 660 5545 661 
10790 646 5547 647 
10791 653 5546 654 
10792 639 5548 640 
10793 632 5549 633 
10794 625 5550 626 
10795 618 5551 619 
10796 611 5552 612 
10797 643 5523 644 
10798 685 5517 686 
10799 629 5525 630 
10800 678 5518 679 
10801 622 5526 623 
10802 636 5524 637 
10803 671 5519 672 
10804 650 5522 651 
10805 664 5520 665 
10806 615 5527 616 
10807 657 5521 658 
10808 608 5528 609 
10809 5759 5762 5761 
10810 5648 5652 5650 
10811 5722 5723 5718 
10812 5615 5616 5614 
10813 5665 5667 5666 
10814 5753 5756 5755 
10815 5638 5645 5644 
10816 5663 5665 5664 
10817 5607 5895 5609 
10818 5745 5748 5747 
10819 5632 5635 5634 
10820 5656 5660 5657 
10821 5762 5765 5763 
10822 5652 5656 5653 
10823 5624 5627 5626 
10824 5739 5742 5741 
10825 5756 5758 5757 
10826 5734 5738 5737 
10827 5667 5897 5668 
10828 5645 5647 5646 
10829 5618 5621 5620 
10830 5727 5731 5729 
10831 5635 5639 5636 
10832 5748 5750 5749 
10833 5611 5615 5614 
10834 5723 5730 5725 
10835 5714 5722 5718 
10836 5627 5629 5628 
10837 5629 5804 5630 
10838 5709 5712 5711 
10839 5738 5896 5739 
10840 5621 5640 5622 
10841 5703 5716 5705 
10842 5731 5735 5732 
10843 5603 5604 5602 
10844 5696 5784 5699 
10845 5615 5793 5616 
10846 5615 5794 5793 
10847 5688 5770 5691 
10848 5668 5897 5672 
10849 5802 5803 5667 
10850 5603 5605 5604 
10851 5682 5690 5684 
10852 5674 5721 5676 
10853 5748 5792 5750 
10854 5756 5769 5758 
10855 5665 5802 5667 
10856 5739 5896 5742 
10857 5803 5897 5667 
10858 5766 5906 5768 
10859 5751 5907 5753 
10860 5792 5813 5750 
10861 5743 5898 5745 
10862 5612 5895 5607 
10863 5622 5899 5624 
10864 5768 5906 5773 
10865 5601 5860 5593 
10866 5606 5607 5605 
10867 5616 5901 5618 
10868 5732 5900 5734 
10869 5705 5904 5707 
10870 5725 5902 5727 
10871 5609 5903 5611 
10872 5753 5907 5756 
10873 5640 5899 5622 
10874 5606 5612 5607 
10875 5707 5905 5709 
10876 5735 5900 5732 
10877 5745 5898 5748 
10878 5793 5901 5616 
10879 5602 5817 5598 
10880 5624 5899 5627 
10881 5734 5900 5738 
10882 5618 5901 5621 
10883 5603 5606 5605 
10884 5895 5903 5609 
10885 5727 5902 5731 
10886 5730 5902 5725 
10887 5611 5903 5615 
10888 5716 5904 5705 
10889 5709 5905 5712 
10890 5756 5907 5769 
10891 5748 5898 5792 
10892 5615 5903 5794 
10893 5904 5905 5707 
10894 5599 5603 5602 
10895 5779 5910 5776 
10896 5599 5602 5598 
10897 5774 5910 5795 
10898 5596 5601 5593 
10899 5601 5861 5860 
10900 5594 5600 5597 
10901 5597 5599 5598 
10902 5773 5787 5775 
10903 5597 5598 5596 
10904 5773 5906 5787 
10905 5594 5597 5596 
10906 5594 5596 5593 
10907 5789 5910 5779 
10908 5584 5585 5583 
10909 5541 5584 5583 
10910 5592 5594 5593 
10911 5526 5967 5818 
10912 607 6073 5849 
10913 5590 5806 5592 
10914 5829 6067 5680 
10915 5592 5593 5591 
10916 5531 6010 5835 
10917 5586 5587 5585 
10918 5786 5909 5866 
10919 5776 5910 5774 
10920 5845 5847 5846 
10921 5648 5912 5652 
10922 5590 5592 5591 
10923 5788 5908 5789 
10924 5589 5595 5587 
10925 5640 6032 5836 
10926 5584 5586 5585 
10927 5586 5589 5587 
10928 5590 5591 5589 
10929 5919 5992 739 
10930 752 5911 5537 
10931 5586 5590 5589 
10932 5590 5914 5806 
10933 5799 5843 5801 
10934 5788 5789 5779 
10935 5647 5912 5648 
10936 736 5943 5828 
10937 5534 5943 735 
10938 5686 5915 5688 
10939 5564 5944 703 
10940 704 5944 5529 
10941 5769 6072 5758 
10942 5556 5945 726 
10943 757 5947 5836 
10944 5561 5947 756 
10945 5674 5917 5721 
10946 5897 5917 5672 
10947 5584 5914 5586 
10948 5794 5955 5793 
10949 5586 5914 5590 
10950 5808 6026 5575 
10951 6006 6068 5579 
10952 5810 5852 5851 
10953 5688 5915 5770 
10954 5810 5851 5782 
10955 5921 6072 5769 
10956 5849 6073 5848 
10957 5672 5917 5674 
10958 5654 6030 5933 
10959 5814 6033 5815 
10960 693 5916 694 
10961 5641 5964 5956 
10962 5814 6020 5543 
10963 763 5951 5837 
10964 5562 5951 762 
10965 694 5516 695 
10966 776 5515 777 
10967 5817 5978 5552 
10968 5889 5918 5651 
10969 5538 5955 759 
10970 5558 5919 738 
10971 5579 6068 773 
10972 5887 5920 5888 
10973 5918 5977 5651 
10974 5713 5946 5710 
10975 5565 6062 5847 
10976 5553 5921 708 
10977 696 5913 697 
10978 5804 5948 5630 
10979 5632 5948 5635 
10980 668 5924 669 
10981 661 5926 662 
10982 647 5923 648 
10983 682 5927 683 
10984 675 5928 676 
10985 633 5933 634 
10986 626 5932 627 
10987 684 5922 685 
10988 663 5925 664 
10989 649 5936 650 
10990 621 5935 622 
10991 658 5937 659 
10992 638 5930 639 
10993 659 5929 660 
10994 651 5934 652 
10995 669 5924 5571 
10996 648 5923 5568 
10997 662 5926 5576 
10998 683 5927 5570 
10999 676 5928 5572 
11000 634 5933 5569 
11001 627 5932 5574 
11002 5570 5922 684 
11003 5576 5925 663 
11004 5568 5936 649 
11005 5575 5935 621 
11006 5544 5924 668 
11007 5545 5926 661 
11008 5547 5923 647 
11009 5542 5927 682 
11010 5543 5928 675 
11011 5549 5933 633 
11012 5550 5932 626 
11013 685 5922 5517 
11014 664 5925 5520 
11015 650 5936 5522 
11016 622 5935 5526 
11017 639 5930 5548 
11018 660 5929 5545 
11019 5521 5937 658 
11020 5522 5934 651 
11021 5572 5938 677 
11022 678 5938 5518 
11023 5781 5950 5783 
11024 727 5961 728 
11025 5817 5949 5598 
11026 5596 5949 5601 
11027 677 5938 678 
11028 646 5940 5547 
11029 5716 5945 5904 
11030 5721 5992 5919 
11031 746 5962 5536 
11032 5858 6036 5639 
11033 718 5939 719 
11034 645 5940 646 
11035 5830 5988 5560 
11036 5569 5941 635 
11037 636 5941 5524 
11038 5950 5989 5783 
11039 5913 5986 5811 
11040 694 5916 5516 
11041 5717 5976 5713 
11042 5772 5953 5771 
11043 603 6034 5580 
11044 635 5941 636 
11045 5742 5957 5743 
11046 659 5937 5929 
11047 5539 5942 5834 
11048 5872 5960 5633 
11049 5686 5965 5915 
11050 5570 5953 5922 
11051 5855 6007 5550 
11052 709 5980 710 
11053 5522 6016 6008 
11054 735 5943 736 
11055 5847 6062 5580 
11056 743 5982 5559 
11057 734 5984 5534 
11058 703 5944 704 
11059 620 5952 5575 
11060 5551 5952 619 
11061 726 5945 727 
11062 5516 6023 5809 
11063 5522 6008 5934 
11064 5710 5946 5715 
11065 5690 5965 5684 
11066 5915 5965 5534 
11067 641 5954 5573 
11068 5548 5954 640 
11069 756 5947 757 
11070 5723 5966 5730 
11071 5558 5969 5919 
11072 5794 6015 5955 
11073 616 5956 617 
11074 5816 5989 5950 
11075 5818 5967 5625 
11076 5623 5967 5892 
11077 740 5992 5535 
11078 5844 6013 5801 
11079 5630 5948 5632 
11080 5534 5984 5915 
11081 5694 5968 5696 
11082 610 5958 611 
11083 5525 5959 5859 
11084 5881 6057 5571 
11085 5519 6057 5881 
11086 732 5997 733 
11087 5574 5959 628 
11088 629 5959 5525 
11089 5699 5970 5701 
11090 5726 5972 5807 
11091 5894 5972 5728 
11092 5758 5971 5759 
11093 5813 6000 712 
11094 5598 5949 5596 
11095 5823 6054 5730 
11096 713 6000 5554 
11097 731 6001 5557 
11098 5818 6056 5526 
11099 5733 5979 5893 
11100 5854 5950 5781 
11101 5852 6021 5566 
11102 617 5964 618 
11103 5877 6064 5669 
11104 5796 5983 5863 
11105 5764 5983 5798 
11106 5571 6051 5891 
11107 5635 6039 5639 
11108 778 6025 5850 
11109 5639 6039 5911 
11110 5879 5999 5519 
11111 5936 6027 6016 
11112 5629 5998 5840 
11113 761 6015 5562 
11114 5751 5991 5907 
11115 5813 5991 5750 
11116 5660 5995 5657 
11117 5659 5995 5663 
11118 762 5951 763 
11119 5680 6049 5829 
11120 5523 5974 644 
11121 619 5952 620 
11122 5525 5977 630 
11123 5788 6076 5908 
11124 613 5978 5577 
11125 5552 5978 612 
11126 5899 5998 5627 
11127 5566 6076 5852 
11128 5546 6014 5883 
11129 5939 6003 5555 
11130 5936 6016 5522 
11131 693 5963 5916 
11132 5836 6032 5538 
11133 5902 6003 5731 
11134 5517 5981 686 
11135 5915 5984 5770 
11136 640 5954 641 
11137 5795 5953 5772 
11138 759 5955 760 
11139 5652 6009 5656 
11140 5802 5982 5803 
11141 690 6021 5581 
11142 5985 6052 5906 
11143 5535 6046 741 
11144 5654 6005 5649 
11145 754 6048 5840 
11146 5537 6048 753 
11147 5527 5956 616 
11148 679 5987 680 
11149 5655 6007 5873 
11150 5885 6008 5698 
11151 5642 6007 5855 
11152 5533 5996 729 
11153 5932 5960 5574 
11154 5743 5957 5898 
11155 5738 6010 5896 
11156 666 5990 667 
11157 607 5994 608 
11158 5603 6012 5606 
11159 5934 6008 5885 
11160 5884 6014 5885 
11161 5883 6014 5882 
11162 5703 5973 5716 
11163 5670 6018 5877 
11164 5787 6017 5775 
11165 5602 6019 5817 
11166 5871 6020 5814 
11167 5890 6022 5678 
11168 611 5958 5552 
11169 5580 6062 604 
11170 5566 6021 689 
11171 775 6004 776 
11172 672 5999 673 
11173 5840 5998 5561 
11174 5619 6026 5808 
11175 5669 5993 5662 
11176 5766 5985 5906 
11177 645 5974 5940 
11178 5812 6030 5864 
11179 628 5959 629 
11180 5621 6032 5640 
11181 5633 5960 5655 
11182 5841 5985 5765 
11183 5516 5986 695 
11184 6009 6074 5656 
11185 5784 6001 5996 
11186 5918 6005 5549 
11187 5889 6005 5918 
11188 5883 6024 5546 
11189 6026 6075 5935 
11190 5639 6036 5636 
11191 5638 6036 5645 
11192 5720 6037 5883 
11193 5910 6047 5795 
11194 5567 6037 5909 
11195 5909 6037 5866 
11196 5754 6041 5790 
11197 5859 6071 5525 
11198 728 5961 5533 
11199 5663 6045 5665 
11200 5643 6071 5859 
11201 653 6011 5546 
11202 5597 6044 5599 
11203 5886 6031 5717 
11204 5786 6078 5909 
11205 5680 6067 5682 
11206 5797 6061 5868 
11207 5676 6049 5677 
11208 605 6062 5565 
11209 5852 6076 5851 
11210 5895 6058 5903 
11211 696 5986 5913 
11212 777 6025 778 
11213 745 5962 746 
11214 5931 5993 5669 
11215 692 5963 693 
11216 655 6024 5567 
11217 5546 6024 654 
11218 5938 6061 5518 
11219 5870 6059 5547 
11220 5548 6018 5954 
11221 5791 6061 5938 
11222 5996 6001 730 
11223 5887 6022 5920 
11224 5885 6011 5934 
11225 5606 6012 5942 
11226 5701 5973 5703 
11227 673 6033 674 
11228 14 6040 698 
11229 606 6073 607 
11230 618 5964 5551 
11231 665 6035 666 
11232 5894 6035 5972 
11233 5872 6053 5960 
11234 5684 5965 5686 
11235 5810 6023 5975 
11236 5722 5966 5723 
11237 680 6070 681 
11238 5735 6003 5939 
11239 5567 6050 656 
11240 657 6050 5521 
11241 5526 6056 623 
11242 5571 6057 670 
11243 671 6057 5519 
11244 5573 6063 642 
11245 643 6063 5523 
11246 5909 6050 5567 
11247 5762 6069 5765 
11248 5982 6046 5803 
11249 5934 6011 652 
11250 5924 6051 5571 
11251 5625 5967 5623 
11252 691 6055 16 
11253 5829 5969 5558 
11254 5557 6001 5968 
11255 5983 6070 5798 
11256 5815 5999 5879 
11257 5955 6015 760 
11258 5696 5968 5784 
11259 5529 6052 5985 
11260 5717 6031 5976 
11261 5798 5987 5797 
11262 5920 6063 5573 
11263 5691 6002 5694 
11264 697 6040 14 
11265 5784 5970 5699 
11266 5759 5971 5762 
11267 5728 5972 5726 
11268 5529 5985 5841 
11269 644 5974 645 
11270 5954 6018 5805 
11271 5575 6026 5935 
11272 5765 5985 5766 
11273 5713 5976 5946 
11274 5578 5989 5816 
11275 630 5977 631 
11276 5886 6077 6031 
11277 5517 6047 5981 
11278 5899 6066 5998 
11279 612 5978 613 
11280 5716 5973 5961 
11281 16 6055 692 
11282 5736 5979 5733 
11283 5792 6000 5813 
11284 5730 6054 5902 
11285 5820 6069 5553 
11286 5925 6077 5807 
11287 710 5980 5530 
11288 5572 6041 5938 
11289 686 5981 687 
11290 5938 6041 5791 
11291 5770 6002 5691 
11292 5908 5981 5789 
11293 687 5981 5908 
11294 624 6056 5855 
11295 729 5996 730 
11296 5953 6029 5771 
11297 742 5982 743 
11298 5863 5983 5764 
11299 5662 5993 5661 
11300 5568 6027 5936 
11301 733 5984 734 
11302 5970 5996 5533 
11303 5568 6043 6027 
11304 695 5986 696 
11305 5822 6038 5896 
11306 5545 5976 5926 
11307 5855 6056 5818 
11308 5800 6006 5579 
11309 5969 6049 5676 
11310 5933 6030 5569 
11311 5518 5987 679 
11312 5963 5975 5916 
11313 5960 6053 5574 
11314 6015 6058 5562 
11315 5892 6075 6026 
11316 5928 6020 5790 
11317 5560 5988 5858 
11318 5783 5989 5811 
11319 5942 6012 5834 
11320 667 5990 5544 
11321 5771 6029 5796 
11322 5750 5991 5751 
11323 739 5992 740 
11324 5946 5976 5545 
11325 608 5994 5528 
11326 5657 5995 5659 
11327 5557 5997 732 
11328 5536 6009 5831 
11329 5742 6038 5957 
11330 5613 6028 5641 
11331 5878 6028 5613 
11332 5902 6054 6003 
11333 5831 6009 5912 
11334 5896 6038 5742 
11335 5627 5998 5629 
11336 742 6046 5982 
11337 5524 5993 5931 
11338 5519 5999 672 
11339 712 6000 713 
11340 730 6001 731 
11341 5972 6035 5520 
11342 5536 6074 6009 
11343 698 6040 5578 
11344 5731 6003 5735 
11345 5923 6059 6043 
11346 5961 5973 5533 
11347 773 6068 13 
11348 5807 6077 5886 
11349 5923 6043 5568 
11350 5827 6042 5722 
11351 5736 6051 5979 
11352 5542 6070 5983 
11353 5649 6005 5889 
11354 5873 6007 5642 
11355 5570 6029 5953 
11356 5698 6008 5867 
11357 5912 6009 5652 
11358 5846 6013 5844 
11359 5900 6010 5738 
11360 5975 6023 5916 
11361 5981 6047 5789 
11362 652 6011 653 
11363 776 6004 5515 
11364 5578 6040 5913 
11365 6018 6064 5877 
11366 5640 6066 5899 
11367 5830 6065 5988 
11368 5599 6012 5603 
11369 6008 6016 5867 
11370 5882 6014 5884 
11371 5581 6055 691 
11372 5916 6023 5516 
11373 760 6015 761 
11374 5580 6034 5850 
11375 5867 6016 5693 
11376 5775 6017 5777 
11377 5809 6023 5810 
11378 5805 6018 5670 
11379 5604 6019 5602 
11380 5968 6001 5784 
11381 689 6021 690 
11382 5790 6020 5871 
11383 6016 6027 5693 
11384 5678 6022 5887 
11385 5543 6020 5928 
11386 5957 6038 5821 
11387 654 6024 655 
11388 5581 5975 5963 
11389 5892 6026 5619 
11390 5693 6027 5869 
11391 5553 6069 5971 
11392 5864 6030 5654 
11393 5901 6032 5621 
11394 5962 6074 5536 
11395 5944 6052 5529 
11396 5656 6074 5660 
11397 5525 6071 5977 
11398 674 6033 5543 
11399 5641 6028 5964 
11400 5561 6066 5947 
11401 5998 6066 5561 
11402 5947 6066 5640 
11403 5976 6031 5926 
11404 6027 6043 5869 
11405 5515 6025 777 
11406 5661 6060 5812 
11407 5851 6076 5788 
11408 5859 6053 5872 
11409 5821 6038 5822 
11410 5520 6035 665 
11411 5636 6036 5638 
11412 5997 6002 5770 
11413 5866 6037 5720 
11414 5784 5996 5970 
11415 6013 6025 5515 
11416 5911 6039 5537 
11417 5948 6039 5635 
11418 5927 6029 5570 
11419 5926 6031 5576 
11420 5791 6041 5754 
11421 5993 6060 5661 
11422 5869 6043 5719 
11423 5906 6052 5787 
11424 5600 6044 5597 
11425 5665 6045 5802 
11426 5547 6059 5923 
11427 741 6046 742 
11428 6031 6077 5576 
11429 6043 6059 5719 
11430 753 6048 754 
11431 5677 6049 5680 
11432 656 6050 657 
11433 5789 6047 5910 
11434 5891 6051 5736 
11435 5758 6072 5971 
11436 5555 6054 5823 
11437 5565 6073 606 
11438 623 6056 624 
11439 5967 6075 5892 
11440 670 6057 671 
11441 5903 6058 5794 
11442 5719 6059 5870 
11443 604 6062 605 
11444 5524 6060 5993 
11445 5812 6060 5941 
11446 5868 6061 5791 
11447 642 6063 643 
11448 5682 6067 5690 
11449 5651 6071 5643 
11450 681 6070 5542 
11451 5865 6078 5786 
11452 5553 6072 5921 
11453 5913 6040 697 
11454 5647 6065 5912 
11455 5574 6053 5959 
11456 5537 6039 5948 
11457 5557 6002 5997 
11458 5935 6075 5526 
11459 13 6068 774 
11460 6003 6054 5555 
11461 5941 6060 5524 
11462 5787 6052 5944 
11463 5930 6064 5548 
11464 5829 6049 5969 
11465 5964 6028 5551 
11466 5576 6077 5925 
11467 5660 6074 5962 
11468 5722 6042 5966 
11469 5959 6053 5859 
11470 5977 6071 5651 
11471 5963 6055 5581 
11472 5794 6058 6015 
11473 692 6055 5963 
11474 5971 6072 5553 
11475 5526 6075 5967 
11476 5988 6065 5647 
11477 5548 6064 6018 
11478 5971 6069 5762 
11479 774 6068 6006 
$EndElements
