$MeshFormat
4.1 0 8
$EndMeshFormat
$PhysicalNames
31
1 1 "r1"
1 2 "ground"
1 3 "flare"
1 4 "pipewall"
1 5 "x2"
1 6 "symmetry"
1 7 "r2"
1 8 "symmetry2"
1 9 "ground2"
1 11 "r3"
1 12 "ground3"
1 14 "symmetry3"
1 15 "r4"
1 16 "ground4"
1 18 "symmetry4"
1 19 "r5"
1 20 "ground5"
1 22 "symmetry5"
1 23 "r6"
1 24 "ground6"
1 26 "symmetry6"
1 27 "r7"
1 28 "ground7"
1 30 "symmetry7"
2 7 "domain1"
2 10 "domain2"
2 15 "domain3"
2 19 "domain4"
2 23 "domain5"
2 27 "domain6"
2 31 "domain7"
$EndPhysicalNames
$Entities
24 38 9 0
1 0 488.8888888888888 0 0 
2 0 0 0 0 
3 457.3432961439855 -172.769948634498 0 0 
4 122.3606797749979 -5.278640450004204 0 0 
5 100 -50 0 0 
6 50 -50 0 0 
7 50 -150 0 0 
8 0 -150 0 0 
9 0 1222.222222222222 0 0 
10 1114.634330649659 -501.415465887335 0 0 
11 0 2100 0 0 
12 1900.125308262818 -894.1609546939143 0 0 
13 0 2666.666666666667 0 0 
14 2407.080556173249 -1147.63857864913 0 0 
15 0 3111.111111111111 0 0 
16 2804.663660498559 -1346.430130811784 0 0 
17 0 3600 0 0 
18 3241.987987399283 -1565.092294262146 0 0 
19 0 4000 0 0 
20 3599.78992435832 -1743.993262741665 0 0 
21 0 4800 0 0 
22 4315.378266508133 -2101.787433816572 0 0 
23 0 10000 0 0 
24 8966.520785676501 -4427.358693400755 0 0 
1 0 -172.769948634498 0 487.7544968055191 488.8888888888887 0 0 2 1 -3 
2 122.3606797749979 -172.769948634498 0 457.3432961439855 -5.278640450004218 0 0 2 3 -4 
3 49.99999999999999 -50.00000000000001 0 122.3606797749979 -0.00333442290281738 0 0 2 4 -6 
4 50 -150 0 50 -50 0 0 2 6 -7 
5 0 -150 0 50 -150 0 0 2 7 -8 
6 0 -150 0 0 488.8888888888888 0 0 2 8 -1 
7 0 -501.415465887335 0 1221.970940956613 1222.222222222222 0 0 2 9 -10 
8 0 488.8888888888888 0 0 1222.222222222222 0 0 2 1 -9 
9 457.3432961439855 -501.415465887335 0 1114.634330649659 -172.769948634498 0 0 2 10 -3 
10 -2.842170943040401e-14 -172.7699486344979 0 487.754496805519 488.8888888888887 0 0 2 3 -1 
11 0 -894.1609546939143 0 2099.94897105561 2100 0 0 2 11 -12 
12 1114.634330649659 -894.1609546939143 0 1900.125308262818 -501.415465887335 0 0 2 12 -10 
13 1.13686837721616e-13 -501.415465887335 0 1221.970940956613 1222.222222222223 0 0 2 10 -9 
14 0 1222.222222222222 0 0 2100 0 0 2 9 -11 
15 0 -1147.638578649129 0 2666.654383170227 2666.666666666667 0 0 2 13 -14 
16 1900.125308262818 -1147.63857864913 0 2407.080556173249 -894.1609546939143 0 0 2 14 -12 
17 1.591615728102624e-12 -894.1609546939146 0 2099.94897105561 2100 0 0 2 12 -11 
18 0 2100 0 0 2666.666666666667 0 0 2 11 -13 
19 0 -1346.430130811785 0 3111.109702544029 3111.111111111111 0 0 2 15 -16 
20 2407.080556173249 -1346.430130811784 0 2804.663660498559 -1147.63857864913 0 0 2 16 -14 
21 6.821210263296962e-13 -1147.63857864913 0 2666.654383170227 2666.666666666667 0 0 2 14 -13 
22 0 2666.666666666667 0 0 3111.111111111111 0 0 2 13 -15 
23 0 -1565.092294262146 0 3599.998997894867 3600 0 0 2 17 -18 
24 2804.663660498559 -1565.092294262146 0 3241.987987399283 -1346.430130811784 0 0 2 18 -16 
25 9.094947017729282e-13 -1346.430130811784 0 3111.10970254403 3111.111111111111 0 0 2 16 -15 
26 0 3111.111111111111 0 0 3600 0 0 2 15 -17 
27 0 -1743.993262741665 0 3999.993327934862 4000 0 1 27 2 19 -20 
28 3241.987987399283 -1743.993262741665 0 3599.78992435832 -1565.092294262146 0 1 28 2 20 -18 
29 2.273736754432321e-13 -1565.092294262146 0 3599.998997894867 3600 0 1 23 2 18 -17 
30 0 3600 0 0 4000 0 1 30 2 17 -19 
31 0 -2101.787433816573 0 4799.971484377824 4800 0 0 2 21 -22 
32 3599.78992435832 -2101.787433816572 0 4315.378266508133 -1743.993262741665 0 0 2 22 -20 
33 9.094947017729282e-13 -1743.993262741665 0 3999.99332793486 3999.999999999999 0 0 2 20 -19 
34 0 4000 0 0 4800 0 0 2 19 -21 
35 0 -4427.358693400756 0 9999.706619488945 10000 0 0 2 23 -24 
36 4315.378266508133 -4427.358693400755 0 8966.520785676501 -2101.787433816572 0 0 2 24 -22 
37 -4.547473508864641e-13 -2101.787433816573 0 4799.971484377825 4800 0 0 2 22 -21 
38 0 4800 0 0 10000 0 0 2 21 -23 
2 0 -172.769948634498 0 487.7544968055191 488.8888888888888 0 0 6 -2 -1 -6 -5 -4 -3 
3 0 -501.4154658873351 0 1221.970940956613 1222.222222222222 0 0 4 -10 -9 -7 -8 
4 0 -894.1609546939144 0 2099.94897105561 2100 0 0 4 -14 -13 -12 -11 
5 0 -1147.63857864913 0 2666.654383170227 2666.666666666667 0 0 4 -18 -17 -16 -15 
6 0 -1346.430130811785 0 3111.109702544029 3111.111111111111 0 0 4 -22 -21 -20 -19 
7 0 -1565.092294262146 0 3599.998997894867 3600 0 0 4 -26 -25 -24 -23 
8 0 -1743.993262741665 0 3999.993327934862 4000 0 1 31 4 -30 -29 -28 -27 
9 0 -2101.787433816573 0 4799.971484377824 4800 0 0 4 -34 -33 -32 -31 
10 0 -4427.358693400756 0 9999.706619488945 10000 0 0 4 -38 -37 -36 -35 
$EndEntities
$Nodes
9 898 17 7465
0 17 0 1
17
0 3600 0
0 18 0 1
18
3241.987987399283 -1565.092294262146 0
0 19 0 1
19
0 4000 0
0 20 0 1
20
3599.78992435832 -1743.993262741665 0
1 27 0 115
984
985
986
987
988
989
990
991
992
993
994
995
996
997
998
999
1000
1001
1002
1003
1004
1005
1006
1007
1008
1009
1010
1011
1012
1013
1014
1015
1016
1017
1018
1019
1020
1021
1022
1023
1024
1025
1026
1027
1028
1029
1030
1031
1032
1033
1034
1035
1036
1037
1038
1039
1040
1041
1042
1043
1044
1045
1046
1047
1048
1049
1050
1051
1052
1053
1054
1055
1056
1057
1058
1059
1060
1061
1062
1063
1064
1065
1066
1067
1068
1069
1070
1071
1072
1073
1074
1075
1076
1077
1078
1079
1080
1081
1082
1083
1084
1085
1086
1087
1088
1089
1090
1091
1092
1093
1094
1095
1096
1097
1098
69.71866313272751 3999.392367349194 0
139.4161445929822 3997.569654005647 0
209.0712691452985 3994.532413739808 0
278.6628744089699 3990.281569316398 0
348.169817336848 3984.818412210979 0
417.5709805946065 3978.144602219138 0
486.8452789738526 3970.26216695332 0
555.9716658407511 3961.173501221861 0
624.9291394777171 3950.881366306971 0
693.6967494365617 3939.388889132571 0
762.2536030262202 3926.699561294898 0
830.5788715431165 3912.817238019962 0
898.6517966403031 3897.746136986753 0
966.4516966411667 3881.49083704437 0
1033.957972842846 3864.056276815169 0
1101.150115640937 3845.447753230299 0
1168.007711074885 3825.670919834795 0
1234.510446741184 3804.731785144241 0
1300.638117980079 3782.636710821862 0
1366.370634056904 3759.392409736836 0
1431.688024463512 3735.005943851732 0
1496.570444680295 3709.484722183045 0
1560.998182419011 3682.836498472956 0
1624.95166341972 3655.069368910731 0
1688.411457463425 3626.191769653976 0
1751.35828456506 3596.212474129599 0
1813.773020389966 3565.140590566585 0
1875.6367023832 3532.985559080744 0
1936.930535356241 3499.757148889703 0
1997.635897110485 3465.465455400701 0
2057.734344591092 3430.12089686213 0
2117.207618902322 3393.734211523047 0
2176.037651038904 3356.316454278573 0
2234.2065674196 3317.878993287598 0
2291.696695291491 3278.433506537849 0
2348.490568092222 3237.991978307215 0
2404.570931107584 3196.566695264218 0
2459.920746261871 3154.170243044983 0
2514.523197527031 3110.815502259566 0
2568.361695478182 3066.515645027828 0
2621.419883239239 3021.284130259512 0
2673.681640829009 2975.134700058789 0
2725.131090236828 2928.081375410294 0
2775.752600283113 2880.138451884134 0
2825.530791389847 2831.320495265039 0
2874.450540196968 2781.642337174454 0
2922.496983932645 2731.119070803137 0
2969.655525403314 2679.766045840862 0
3015.91183710935 2627.598864131225 0
3061.251865442978 2574.633375127784 0
3105.661835471367 2520.885670492936 0
3149.128254754068 2466.372079616049 0
3191.637917598621 2411.109164460775 0
3233.177908686907 2355.113715042006 0
3273.735607616339 2298.402743521005 0
3313.298692135432 2240.993479841839 0
3351.855142363535 2182.903365843557 0
3389.393244252048 2124.150050212691 0
3425.901593109433 2064.751383176737 0
3461.369097118788 2004.725411000486 0
3495.784980618849 1944.09037065659 0
3529.138787514444 1882.86468405488 0
3561.420384454858 1821.066952418117 0
3592.619963795389 1758.715950839936 0
3622.728046555623 1695.830622644632 0
3651.735485377958 1632.430073489034 0
3679.633467383431 1568.533565376203 0
3706.41351670209 1504.160511118428 0
3732.067497071208 1439.330468413925 0
3756.587614401634 1374.063133674812 0
3779.966419171622 1308.378335931495 0
3802.196808504031 1242.296031307257 0
3823.27202839333 1175.836296813954 0
3843.185675822827 1109.019324065293 0
3861.93170064327 1041.865413365173 0
3879.504407533004 974.3949671113837 0
3895.898457666317 906.6284837535245 0
3911.108870267197 838.5865518342449 0
3925.131024152489 770.2898436534341 0
3937.960659158992 701.7591088942701 0
3949.593877443596 633.0151682701318 0
3960.027144649269 564.0789072824427 0
3969.257290976025 494.9712699073186 0
3977.281512153672 425.713252178735 0
3984.097370293072 356.3258958086349 0
3989.70279464699 286.8302815010998 0
3994.096082164147 217.2475234404624 0
3997.275898089516 147.598762029533 0
3999.241276341997 77.90515773964907 0
3999.991619808773 8.187884927723777 0
3999.526700535847 -61.53187548614539 0
3997.846659773697 -131.232941505907 0
3994.952007946225 -200.8941368144471 0
3990.843624495845 -270.494297205817 0
3985.522757616719 -340.012277012498 0
3978.991023872934 -409.4269555593719 0
3971.250407711462 -478.7172435285188 0
3962.303260860496 -547.8620893749428 0
3952.152301606086 -616.8404857900575 0
3940.800613952028 -685.6314761410258 0
3928.251646706079 -754.2141606672304 0
3914.509212487574 -822.567702593481 0
3899.577486463892 -890.6713350411319 0
3883.461005194054 -958.5043667804456 0
3866.164665118918 -1026.046189109401 0
3847.693721124615 -1093.276281832826 0
3828.05378496537 -1160.174219422371 0
3807.250823578487 -1226.719677171982 0
3785.29115726123 -1292.89243742855 0
3762.181457715945 -1358.672395840266 0
3737.928746043912 -1424.039567392208 0
3712.540390611495 -1488.974092480539 0
3686.02410478551 -1553.456243007887 0
3658.387944590188 -1617.466428361708 0
3629.640306450923 -1680.985200942249 0
1 28 0 5
1099
1100
1101
1102
1103
3540.156268198492 -1714.176434661751 0
3480.522612038789 -1684.3596065819 0
3420.888955879086 -1654.542778502048 0
3361.255299719122 -1624.725950422066 0
3301.621643559252 -1594.909122342131 0
1 29 0 103
1104
1105
1106
1107
1108
1109
1110
1111
1112
1113
1114
1115
1116
1117
1118
1119
1120
1121
1122
1123
1124
1125
1126
1127
1128
1129
1130
1131
1132
1133
1134
1135
1136
1137
1138
1139
1140
1141
1142
1143
1144
1145
1146
1147
1148
1149
1150
1151
1152
1153
1154
1155
1156
1157
1158
1159
1160
1161
1162
1163
1164
1165
1166
1167
1168
1169
1170
1171
1172
1173
1174
1175
1176
1177
1178
1179
1180
1181
1182
1183
1184
1185
1186
1187
1188
1189
1190
1191
1192
1193
1194
1195
1196
1197
1198
1199
1200
1201
1202
1203
1204
1205
1206
3271.781482602158 -1501.814212911046 0
3300.340039873792 -1437.969269910127 0
3327.652879678863 -1373.581563783152 0
3353.709692855812 -1308.675397508862 0
3378.5006441882 -1243.275270091026 0
3402.016376295293 -1177.40586690344 0
3424.248013133585 -1111.092050439882 0
3445.187163373572 -1044.358850839096 0
3464.825923496847 -977.2314566489466 0
3483.156880793557 -909.7352053100387 0
3500.173116239464 -841.8955733073533 0
3515.868207037236 -773.7381667882048 0
3530.236229048307 -705.2887118866913 0
3543.271759056151 -636.5730448857603 0
3554.969876780236 -567.6171026185852 0
3565.326166756812 -498.4469125585808 0
3574.33671998932 -429.0885830874386 0
3581.998135435752 -359.5682935615955 0
3588.307521269642 -289.9122846650675 0
3593.262496019764 -220.1468480306255 0
3596.861189424387 -150.2983167323655 0
3599.102243154913 -80.39305515577644 0
3599.984811323274 -10.45744910254166 0
3599.508560800641 59.48210422384136 0
3597.673671347288 129.3992059269719 0
3594.480835538866 199.2674658438043 0
3589.931258518629 269.0605119872776 0
3584.026657525756 338.7520009457712 0
3576.7692612613 408.3156275435638 0
3568.161809045063 477.7251348550351 0
3558.207549774104 546.9543241721094 0
3546.910240694469 615.9770648788019 0
3534.274145999024 684.767304215723 0
3520.30403516476 753.2990773940403 0
3505.005181234918 821.5465169522504 0
3488.38335879753 889.4838627341494 0
3470.444841747053 957.0854718316814 0
3451.19640103246 1024.32582780119 0
3430.645302021249 1091.179550632953 0
3408.799301680714 1157.621406531979 0
3385.666645892011 1223.626316689184 0
3361.256066051621 1289.169367628312 0
3335.576775984756 1354.22581998393 0
3308.638468345913 1418.771118179958 0
3280.451311121006 1482.78089931199 0
3251.025943432648 1546.23100315828 0
3220.373472023088 1609.097480170162 0
3188.50546670345 1671.356601327859 0
3155.433956141426 1732.984866763027 0
3121.171423119659 1793.959015000399 0
3085.730800138062 1854.256031156246 0
3049.125464234114 1913.853156164052 0
3011.369232302824 1972.727894753837 0
2972.476355435942 2030.858024671901 0
2932.461513739335 2088.221604724368 0
2891.339810788857 2144.796983060974 0
2849.12676803643 2200.562805206496 0
2805.838319097196 2255.498021964511 0
2761.490803054927 2309.581898232461 0
2716.100958801271 2362.794020137771 0
2669.685918933307 2415.1143025226 0
2622.263202828143 2466.522997073713 0
2573.850710170531 2517.000699593596 0
2524.466714392925 2566.528357124111 0
2474.129855746004 2615.087275198719 0
2422.859133688451 2662.659125442543 0
2370.673900389088 2709.225951819815 0
2317.593853412518 2754.770177460275 0
2263.639027812184 2799.274611710239 0
2208.829788789019 2842.72245640658 0
2153.18682428694 2885.0973120013 0
2096.73113687157 2926.383184012861 0
2039.484035701462 2966.564489121866 0
1981.467128711147 3005.626060879364 0
1922.702314595605 3043.553155351276 0
1863.211774077685 3080.331456992621 0
1803.017961959633 3115.947083769384 0
1742.143598561395 3150.38659246632 0
1680.611660960574 3183.636983866619 0
1618.445374412066 3215.685707597089 0
1555.668203703907 3246.520666803872 0
1492.303844137767 3276.130222804283 0
1428.376212551254 3304.503199486684 0
1363.909438634956 3331.628887376636 0
1298.927855483499 3357.497047839214 0
1233.45599028867 3382.097916977124 0
1167.518555701892 3405.42220907948 0
1101.140439953617 3427.461120348232 0
1034.346697332208 3448.206332242598 0
967.1625391362912 3467.650014475429 0
899.6133244150412 3485.784827916795 0
831.7245494907576 3502.603927619336 0
763.5218390611074 3518.100965190843 0
695.0309364474786 3532.270091227587 0
626.2776935511811 3545.105957592835 0
557.288061322412 3556.60371937998 0
488.0880800857409 3566.759036727631 0
418.7038693786565 3575.568076511388 0
349.1616184949596 3583.02751373332 0
279.4875760525974 3589.134532841064 0
209.7080406442499 3593.88682872585 0
139.8493507345199 3597.282607621917 0
69.93787437455239 3599.32058779542 0
1 30 0 5
1207
1208
1209
1210
1211
0 3666.666666666667 0
0 3733.333333333333 0
0 3800 0
0 3866.666666666667 0
0 3933.333333333333 0
2 8 0 666
6800
6801
6802
6803
6804
6805
6806
6807
6808
6809
6810
6811
6812
6813
6814
6815
6816
6817
6818
6819
6820
6821
6822
6823
6824
6825
6826
6827
6828
6829
6830
6831
6832
6833
6834
6835
6836
6837
6838
6839
6840
6841
6842
6843
6844
6845
6846
6847
6848
6849
6850
6851
6852
6853
6854
6855
6856
6857
6858
6859
6860
6861
6862
6863
6864
6865
6866
6867
6868
6869
6870
6871
6872
6873
6874
6875
6876
6877
6878
6879
6880
6881
6882
6883
6884
6885
6886
6887
6888
6889
6890
6891
6892
6893
6894
6895
6896
6897
6898
6899
6900
6901
6902
6903
6904
6905
6906
6907
6908
6909
6910
6911
6912
6913
6914
6915
6916
6917
6918
6919
6920
6921
6922
6923
6924
6925
6926
6927
6928
6929
6930
6931
6932
6933
6934
6935
6936
6937
6938
6939
6940
6941
6942
6943
6944
6945
6946
6947
6948
6949
6950
6951
6952
6953
6954
6955
6956
6957
6958
6959
6960
6961
6962
6963
6964
6965
6966
6967
6968
6969
6970
6971
6972
6973
6974
6975
6976
6977
6978
6979
6980
6981
6982
6983
6984
6985
6986
6987
6988
6989
6990
6991
6992
6993
6994
6995
6996
6997
6998
6999
7000
7001
7002
7003
7004
7005
7006
7007
7008
7009
7010
7011
7012
7013
7014
7015
7016
7017
7018
7019
7020
7021
7022
7023
7024
7025
7026
7027
7028
7029
7030
7031
7032
7033
7034
7035
7036
7037
7038
7039
7040
7041
7042
7043
7044
7045
7046
7047
7048
7049
7050
7051
7052
7053
7054
7055
7056
7057
7058
7059
7060
7061
7062
7063
7064
7065
7066
7067
7068
7069
7070
7071
7072
7073
7074
7075
7076
7077
7078
7079
7080
7081
7082
7083
7084
7085
7086
7087
7088
7089
7090
7091
7092
7093
7094
7095
7096
7097
7098
7099
7100
7101
7102
7103
7104
7105
7106
7107
7108
7109
7110
7111
7112
7113
7114
7115
7116
7117
7118
7119
7120
7121
7122
7123
7124
7125
7126
7127
7128
7129
7130
7131
7132
7133
7134
7135
7136
7137
7138
7139
7140
7141
7142
7143
7144
7145
7146
7147
7148
7149
7150
7151
7152
7153
7154
7155
7156
7157
7158
7159
7160
7161
7162
7163
7164
7165
7166
7167
7168
7169
7170
7171
7172
7173
7174
7175
7176
7177
7178
7179
7180
7181
7182
7183
7184
7185
7186
7187
7188
7189
7190
7191
7192
7193
7194
7195
7196
7197
7198
7199
7200
7201
7202
7203
7204
7205
7206
7207
7208
7209
7210
7211
7212
7213
7214
7215
7216
7217
7218
7219
7220
7221
7222
7223
7224
7225
7226
7227
7228
7229
7230
7231
7232
7233
7234
7235
7236
7237
7238
7239
7240
7241
7242
7243
7244
7245
7246
7247
7248
7249
7250
7251
7252
7253
7254
7255
7256
7257
7258
7259
7260
7261
7262
7263
7264
7265
7266
7267
7268
7269
7270
7271
7272
7273
7274
7275
7276
7277
7278
7279
7280
7281
7282
7283
7284
7285
7286
7287
7288
7289
7290
7291
7292
7293
7294
7295
7296
7297
7298
7299
7300
7301
7302
7303
7304
7305
7306
7307
7308
7309
7310
7311
7312
7313
7314
7315
7316
7317
7318
7319
7320
7321
7322
7323
7324
7325
7326
7327
7328
7329
7330
7331
7332
7333
7334
7335
7336
7337
7338
7339
7340
7341
7342
7343
7344
7345
7346
7347
7348
7349
7350
7351
7352
7353
7354
7355
7356
7357
7358
7359
7360
7361
7362
7363
7364
7365
7366
7367
7368
7369
7370
7371
7372
7373
7374
7375
7376
7377
7378
7379
7380
7381
7382
7383
7384
7385
7386
7387
7388
7389
7390
7391
7392
7393
7394
7395
7396
7397
7398
7399
7400
7401
7402
7403
7404
7405
7406
7407
7408
7409
7410
7411
7412
7413
7414
7415
7416
7417
7418
7419
7420
7421
7422
7423
7424
7425
7426
7427
7428
7429
7430
7431
7432
7433
7434
7435
7436
7437
7438
7439
7440
7441
7442
7443
7444
7445
7446
7447
7448
7449
7450
7451
7452
7453
7454
7455
7456
7457
7458
7459
7460
7461
7462
7463
7464
7465
3929.153942834574 185.4815711063564 0
1305.239630641926 3722.062944979517 0
2946.412101580999 2617.270974937367 0
3354.039403097924 2054.377858497823 0
653.261398013386 3884.923733411679 0
3906.328971691252 -500.0826032913757 0
3846.677961072621 855.3405109331519 0
1934.615202159702 3433.104594426788 0
2452.414193553706 3082.744109086494 0
3662.895588960715 1452.590841535501 0
3782.632606081029 -1104.302881911186 0
3470.561644393779 -1163.502120941333 0
3344.613381334057 1480.708648054392 0
2387.83316471135 2769.32631952512 0
1666.355961064384 3250.623228408193 0
3594.01260872986 651.1248065699987 0
3658.323818731164 -336.8489295009733 0
749.2177046338871 3579.228567672631 0
3038.590141896609 2039.736998028446 0
2835.626277736616 2319.348037005806 0
1085.709449141404 3495.678804190679 0
3660.316115917364 24.92477261144345 0
3641.845927988407 310.1523913952082 0
1353.090493142859 3394.823428317282 0
2646.911429011804 2526.877559272849 0
3186.694695643978 1787.55806202845 0
461.0248269602849 3631.252045653531 0
3610.477398057392 -608.5050166409623 0
3538.050423382621 940.0495047855147 0
1926.093107799061 3112.921132044074 0
2160.713594558662 2954.632307496902 0
3455.678689702643 1208.966868146235 0
3548.818212260485 -881.4647707035631 0
240.7928982339745 3937.93835134474 0
3649.664194603889 -1500.385682337396 0
3530.237203298586 1761.258430821405 0
2708.853683088017 2863.868589196496 0
1636.69210088651 3586.738620063101 0
3908.626791321777 525.4233739937927 0
3940.584241269872 -163.716363438231 0
982.3345603289729 3819.258774213896 0
3168.772099367153 2348.501460739049 0
3498.486803407465 1075.098736090907 0
3580.476764192365 -746.1785056807965 0
2043.987820032514 3035.992081726091 0
3422.277888610194 -1297.383753269362 0
319.4718398161021 3646.029040877095 0
3425.840260046454 -1590.084736733351 0
57.73502691896244 3766.66666666667 0
3724.297878602232 -1305.334326037704 0
3582.325279784158 1639.009169147969 0
2607.584183129401 2952.949405461814 0
851.5633777349706 3846.32880506389 0
1755.656611968514 3526.623785553228 0
3884.243269364541 657.3124760199627 0
3927.598217142652 -299.0976395367294 0
3247.177340923448 2236.294861315834 0
3082.087823639809 2448.238902386566 0
1118.165981718176 3770.296839810987 0
3942.505774545625 -25.95882944790826 0
3919.400966699151 383.9534718101575 0
1503.868244170418 3642.221296147478 0
2804.589454390604 2763.279516776922 0
3456.348295161841 1883.861513944865 0
448.1737334859699 3921.057231083106 0
3884.585460199734 -711.9800839604479 0
3801.860611906738 1058.960363118493 0
2116.535123916172 3331.140090610858 0
2290.457430517407 3213.788555451964 0
3740.622789607876 1259.334672362342 0
3827.833696087009 -916.0686393337352 0
3287.108651005973 1609.793816975334 0
2490.803785527023 2678.983508162396 0
1556.646419219441 3314.855842624573 0
3627.156077415316 528.623692243629 0
3652.959135456538 -187.8032334994431 0
884.7275444417003 3549.541297326681 0
2958.76159832386 2150.100972934478 0
3515.472959389716 -1030.081135282136 0
3410.552158713556 1343.074877632341 0
2274.448597180445 2871.577759719877 0
1805.251917725534 3188.106612784627 0
3575.588432314121 802.5284839840574 0
3624.380383409797 -473.6656531015165 0
600.6727494535636 3613.676599847369 0
3123.821298296739 1921.432265767441 0
2735.3845411803 2427.734210418289 0
1214.499148887738 3452.781986645133 0
3666.168947741099 163.1839969898868 0
3371.175849257554 -1428.980649745329 0
178.7357122721584 3656.957137993097 0
106.5218294476209 3935.247498711626 0
3597.30413550733 -1627.699147392124 0
249.5438417975119 3651.730178455343 0
289.7716051537948 3709.168245370162 0
359.5818583745648 3703.183257883743 0
329.741277266257 3765.782211558048 0
260.2541582991258 3771.946774782351 0
399.6236197211892 3759.370581822598 0
299.9671250362276 3826.728955709667 0
231.4090107547506 3832.705867855253 0
191.0924038597007 3778.939676791485 0
166.3819754692198 3841.121445829205 0
429.5405328776039 3697.134001067408 0
469.7192448147553 3753.393117415377 0
439.666000292409 3814.387866889417 0
508.9278519268372 3807.78506135107 0
538.7845465339616 3745.948959441914 0
575.9915016885484 3802.33408434133 0
607.9908257353965 3741.203128829104 0
648.5986196647974 3809.002975607228 0
678.2618024386819 3737.596317147182 0
717.7906144328465 3794.394822215711 0
748.4640854775544 3733.293546801606 0
707.4902455890798 3673.899707622978 0
777.3424671341435 3673.102242768959 0
819.7852398380952 3729.849045464724 0
844.2418609918632 3669.401924430075 0
888.7338535467799 3720.706951042868 0
912.64194722655 3660.361673841348 0
957.9496811402259 3711.306801591732 0
982.0505558617833 3650.746821711118 0
1025.788223973059 3704.024345864964 0
1052.833483985478 3641.550301183142 0
1006.593730309999 3587.928890401401 0
546.9307528523966 3858.338654144215 0
1082.506113940887 3568.848425768353 0
1123.645460921586 3636.050407240648 0
1154.664451329743 3575.078586627909 0
1194.896836821008 3632.153955321321 0
1226.027298470637 3570.248258106814 0
1264.107136623688 3622.578327940777 0
1294.082565834462 3563.385396754973 0
1333.478846329698 3616.49428521918 0
1364.604107479228 3558.389696843377 0
1400.046818909844 3616.220888503806 0
1433.158671169007 3561.868778863611 0
1325.28507032205 3500.635067572935 0
1161.616891022428 3697.15475526373 0
569.6106151517915 3681.068945417845 0
3397.076274685449 -1362.850315465115 0
3466.121748950507 -1351.624321291801 0
3491.149738171098 -1286.180562890666 0
3534.435723868044 -1340.53332637131 0
3559.692000358553 -1275.151661866343 0
3509.202033535472 -1405.511214944028 0
3575.403172619363 -1394.423452193039 0
3550.087912270753 -1458.894799466484 0
3484.883728967009 -1469.878212213847 0
3523.777165110196 -1522.237355522538 0
3516.217543397857 -1220.490995709337 0
3583.6296146198 -1209.37255219494 0
3624.981832411692 -1263.766777466074 0
3648.214768676797 -1199.173378112354 0
3608.368694986552 -1144.114014658817 0
3674.037163638774 -1136.458520070672 0
3634.077520052583 -1079.564935036718 0
3712.292800746708 -1073.365194577695 0
3661.047951618172 -1014.133208047191 0
3732.437878143334 -1001.102287615751 0
3685.065676557428 -949.0122073379918 0
3616.120309432091 -960.0791284502051 0
3647.60004068014 -898.851418916766 0
3711.934400500684 -882.9242838787242 0
3670.612445866697 -835.3665941003934 0
3735.802058909308 -817.4164143455769 0
3692.335205376193 -769.0335475016013 0
3758.699234004162 -749.8778719370567 0
3714.123073670011 -700.9380302112173 0
3802.383799230045 -797.8900173453776 0
3782.34566846554 -683.3787721085484 0
3736.724440940367 -632.3216116096914 0
3808.631965844913 -619.1906309459019 0
3764.127503966284 -565.7587310870899 0
3683.826921560131 -574.58352465875 0
3721.50680161563 -514.4391850506154 0
3788.684121545829 -502.6182926271034 0
3747.66985643593 -447.8235111707394 0
3810.638736452515 -439.8267488863823 0
3768.454577306868 -389.4727250890006 0
3837.112606289347 -378.6264768677243 0
3783.419522855956 -323.8453621419044 0
3709.539718687869 -1189.311975048965 0
3703.922459576861 -398.2105576166132 0
3876.159854661441 -435.417151544235 0
3562.879952066219 -1087.561442095283 0
3647.315930258545 -720.9414903769239 0
105.0616909778365 3664.386727355372 0
151.7200057954242 3721.942795041939 0
3345.746376338833 -1499.08067167136 0
3417.93177989655 -1480.478415235144 0
3518.601970924791 1007.701134003143 0
3566.556425657038 1058.620329796109 0
3545.819149627519 1126.014241841128 0
3613.601955869485 1109.480434170555 0
3634.443950600737 1042.068236475804 0
3592.608533931983 1176.836934814307 0
3658.472770201139 1160.18056751937 0
3638.905733851639 1227.616542301468 0
3572.466611129763 1243.947226908104 0
3618.493899622656 1294.020439756381 0
3551.885817218283 1310.311208115559 0
3599.082260238245 1359.29387946931 0
3534.046278735503 1377.878072369326 0
3659.218173609831 1341.572167135316 0
3482.733702874687 1326.650817357079 0
3462.835106774435 1393.54258264593 0
3516.597248472012 1445.90533768459 0
3449.219392969148 1460.955764923948 0
3499.198980559621 1514.643674877299 0
3434.308827437059 1529.235962720463 0
3479.966472855645 1583.792997563947 0
3415.294162785917 1595.184935549453 0
3456.060294199197 1649.927169075938 0
3391.811447022329 1661.258589548612 0
3563.205549823845 1496.749262038915 0
3431.99388110615 1714.808314401133 0
3369.023568468023 1728.01874425486 0
3410.574136131253 1779.070122166517 0
3349.530602559057 1796.02983100354 0
3293.694771903806 1742.544383635498 0
3283.797706620739 1817.214747921437 0
3332.351017673343 1863.52375412332 0
3264.614156312987 1883.034372429696 0
3313.917819790294 1929.454070436096 0
3243.919359303651 1947.098016534955 0
3296.012952783995 1998.063375602148 0
3226.193545873386 2014.340324243023 0
3274.310870665082 2066.567957924032 0
3205.881441432712 2080.405369983837 0
3163.207366604287 2031.114036959344 0
3139.166514153525 2097.69338422019 0
3184.164881407997 2143.993410900025 0
3117.357248482416 2163.589706530628 0
3363.964944632381 1976.548599286121 0
3068.096606603434 2112.741051823038 0
3052.055239177411 2185.019692621082 0
3097.855064284741 2231.557447409403 0
3030.833663626581 2250.88814746056 0
3075.167315143853 2297.637745385198 0
3010.681350043993 2317.409154583613 0
2965.343588163168 2269.03022817085 0
2947.1714380617 2334.256788832895 0
2988.736483966488 2381.205605603519 0
2924.175566708398 2398.711087368588 0
2968.859806313063 2448.149038918231 0
2902.036004621338 2462.183537494786 0
2852.065888605897 2403.585891529186 0
2835.11555725585 2481.823700175311 0
2882.609107829929 2529.140735752118 0
2816.053162770806 2548.399417749296 0
2874.07885179817 2600.454264532555 0
2797.309793908782 2614.478520098248 0
2748.031055087464 2568.347235237906 0
2727.116808686639 2626.564819992697 0
2841.648042400012 2655.961600184353 0
3382.664434781483 1908.398006374481 0
3196.122820607319 1901.304576445673 0
2902.580238530938 2290.468156376749 0
3317.393611539995 2122.922713049679 0
3433.267924817909 1275.218374361156 0
3477.427142273727 1142.283564422555 0
3586.822471914068 991.0604942876778 0
3654.285894887931 975.0370237874624 0
3699.151161329666 1025.866795242469 0
3719.567206625661 959.43267133371 0
3674.68128522806 908.6008590766911 0
3741.186975711544 895.2873640898099 0
3697.841157467344 842.2560079579268 0
3781.339175391156 943.6141182686692 0
3775.941318997864 830.8880007262611 0
3721.581267302758 775.9970419155338 0
3790.165048733068 761.7996982236402 0
3744.975120997641 709.6674092220323 0
3675.206884963653 724.2598083879001 0
3701.299853168081 658.3235952625756 0
3766.553517208632 642.5821404724581 0
3722.562568801698 592.8726888384736 0
3785.556114780597 574.8397436537132 0
3742.077315284735 528.2737641521572 0
3804.622355051874 507.9139871730237 0
3759.814449022202 460.4694536557936 0
3826.973839909486 443.1674077154468 0
3783.327962313062 392.2592344577492 0
3708.151403249621 406.2031183333631 0
3740.751183131686 338.771275082884 0
3806.545797558585 327.351825765028 0
3762.187913060606 273.3506606563379 0
3828.738938339019 262.6407626336953 0
3783.494170096393 207.9591001538809 0
3872.884209097083 319.43677624459 0
3852.551993610554 196.428156788641 0
3805.202286299992 142.2187693856512 0
3873.305577916965 128.1211204010989 0
3825.07721999119 76.95432713327681 0
3762.276075954625 93.65285091240796 0
3778.137665774384 26.64378666280648 0
3843.556213438148 10.96372485514483 0
3798.009384030663 -40.85962717937537 0
3719.483908255248 -21.20002475114105 0
3749.283697909757 -93.88903734251349 0
3819.52613647624 -109.8431084369885 0
3771.691901165934 -161.9601028950709 0
3838.108783896465 -177.2976069268954 0
3795.784573275269 -223.7686601054762 0
3864.878839400842 -243.1513624420258 0
3680.467354892688 -83.36600352699723 0
3628.253033266487 855.9376353676854 0
3717.071076068401 221.2276204392692 0
3721.461645840187 -220.7422866802427 0
3652.983848411862 605.8629654418862 0
3895.804476564922 252.5571072807716 0
1985.337128218818 3074.87463900505 0
2048.331091774135 3105.624245909436 0
2106.726947923919 3066.337258687615 0
2110.944719612125 3135.620874155059 0
2052.445746610993 3174.639707499148 0
2169.390212481145 3096.588380881285 0
2172.6000361991 3164.370682440256 0
2230.632698974484 3124.396786165147 0
2227.519437895269 3056.992742580784 0
2288.143234260503 3085.2276402208 0
2284.406057377209 3017.054118261301 0
2344.371856350291 3048.083945296583 0
2342.51681871228 2979.363541653134 0
2411.136476307875 3018.7051314523 0
2402.38189421112 2942.122806014688 0
2465.031585914568 2972.785429865924 0
2461.619809171184 2904.276201578606 0
2396.778496003794 2872.206678851636 0
2456.839804260245 2836.634251640102 0
2522.129746918844 2866.439687829982 0
2513.771969307199 2801.825183049509 0
2577.849106309636 2824.681871516556 0
2568.431628579679 2761.467070416964 0
2630.722026163809 2783.122633562181 0
2622.938469826173 2722.910023027206 0
2676.438838515902 2746.190264904602 0
2346.276374063435 3110.980479484613 0
2279.751569724654 2945.438163444178 0
2557.711407260393 2699.658281077716 0
2614.46966900236 2659.997199773577 0
1989.616357525092 3144.704975005433 0
1994.256576512832 3213.945826405487 0
2056.089211900017 3242.764088117719 0
1998.364723623776 3281.54791762647 0
1936.412729825637 3252.572866072421 0
1942.928723323719 3320.35105249936 0
1879.829603520289 3293.765360659795 0
2000.474751864067 3344.845790619196 0
1891.65950346952 3372.315558222665 0
1823.73615657911 3336.12381511319 0
1830.644861136622 3405.965310135835 0
1767.451624949205 3379.249367864208 0
1761.155760773808 3306.992045138067 0
1705.17825351921 3351.116617589899 0
1709.327073353294 3418.361831197588 0
1648.285378064374 3389.833530366003 0
1649.525658124981 3455.975850193699 0
1590.519426547185 3428.555013567301 0
1593.134685511712 3492.976208581424 0
1533.93732913551 3466.857999680947 0
1541.863592092606 3536.143983153377 0
1528.309329666205 3387.284443638767 0
1468.38960720689 3443.37311433968 0
1872.141524980751 3222.437220540219 0
1640.176861188079 3319.527067775874 0
1459.301901680284 3373.36589074102 0
3563.744662948648 -814.4555499089902 0
3315.46793424085 1546.802136551808 0
2438.147660843402 2723.74063956225 0
3654.751818382513 -258.4903911947404 0
3714.196292977783 -295.4887647920903 0
816.2025388193688 3563.723262657825 0
3493.172686157262 -1096.950066694562 0
3387.348643703438 1419.482710441455 0
2340.536972297489 2827.508454435118 0
3598.590043014728 725.4062545022873 0
1738.840431072202 3233.033754713858 0
3075.822725687342 1979.825559912684 0
679.8881239035931 3607.223922239942 0
2784.605495491362 2376.835038318339 0
3658.014479792923 89.60941671786068 0
1148.379641225325 3470.507770734364 0
1291.183484802235 3435.279371390648 0
2689.743168559859 2477.305073455313 0
3618.090344550789 -539.4843129516212 0
3557.005184831704 872.2159107050271 0
530.999247415775 3622.571079413322 0
1866.768619842188 3150.442705448061 0
3544.040706348349 -956.0034689385922 0
2217.75413223071 2913.165515276492 0
3257.649311412696 1671.877314559456 0
3227.654679985581 1729.654910874288 0
3635.476694138474 447.4016799374327 0
3641.422830334534 378.6982349893375 0
952.393034259159 3534.432670649574 0
1811.69575885553 3258.733977573521 0
3645.358072656977 787.1113269754427 0
2642.668157945888 2845.719614990411 0
2102.140683990089 2996.204982897707 0
220.1862878629526 3715.114134739062 0
3441.06523588209 -1416.553854815877 0
3460.803919831528 -1531.725817242178 0
3498.14721012161 -1584.37470918497 0
3586.392359683387 -1021.564776452176 0
639.2364237324171 3673.783721806467 0
1017.593340952615 3516.111360955922 0
2337.208179157022 2905.399852686529 0
1369.002518297011 3682.245596851323 0
2759.174610744641 2496.152050699639 0
3525.069039112517 1193.264643589232 0
1239.445749081052 3692.423151043546 0
3553.503988921118 1572.967480732629 0
3614.269538132103 1540.699069287586 0
3446.787305842737 -1231.373094967527 0
3399.14909484252 1846.555642070534 0
1095.354988429971 3701.516419279433 0
389.5807576503619 3639.365655954413 0
3599.965791548366 -1329.171451146258 0
3638.130384375303 -1382.59141582984 0
3591.078181969526 1431.662669252124 0
369.2975484967562 3820.939915374102 0
338.745932194072 3877.110762049085 0
2949.390101014895 2511.690771225281 0
3025.997408011211 2499.806995819716 0
2915.662995063952 2216.368499194115 0
3060.285594810562 2373.558133770366 0
3875.12847787975 -54.42736954088627 0
3175.052505501554 2218.937135513063 0
3887.62671795986 61.63758895424078 0
3842.606128968187 -549.5422165817517 0
3877.124463031535 -610.8739675223135 0
2779.429235912218 2686.987409341151 0
1774.646173985664 3457.069481839589 0
3822.683459705154 694.8301757152491 0
3855.852030678064 756.4274864610768 0
3757.62454092244 -934.3386418703345 0
3807.81598967411 -991.1616377285094 0
2534.356987561694 2941.848756049329 0
2522.404220289431 3009.716042773125 0
793.519380171806 3801.330056084713 0
748.7794762938577 3854.836039681535 0
1400.810368516435 3492.608361159473 0
3539.739983426108 -1153.591489119162 0
499.9712048526112 3689.056082507538 0
3740.491791162776 156.442063895347 0
3175.972480772328 1963.042098546681 0
3667.291512135325 -650.0799806466409 0
2222.822858518257 2986.328010260624 0
932.8280888030455 3770.932358740874 0
2607.788109978121 2587.074626466581 0
1842.292232920098 3471.058955550923 0
2114.404897789215 3203.237112318301 0
2173.756409445195 3228.541129639556 0
3001.925458077314 2094.0389682812 0
3851.548814187881 377.83977227468 0
57.33847912606115 3830.313024906525 0
119.6405358365975 3789.559471681536 0
3606.516382251812 923.8169046683431 0
2165.118585748705 3027.02383473843 0
3678.512642908474 1092.901060914112 0
3720.63183179666 1143.266978277931 0
3494.266354412272 1705.584501453709 0
1930.881486080927 3182.837454252615 0
3623.477410751655 -1564.736527774461 0
175.3009616267951 3941.066973715634 0
3139.079162478906 2289.10167972047 0
1699.39100572418 3555.365233165775 0
3895.507630054839 594.3247823700144 0
3920.98684333284 -370.3578274489487 0
3934.197843034153 -231.2904375953448 0
3126.01298166275 2399.213606749272 0
1049.971965459316 3800.587266852358 0
3498.649610885026 1822.735094825215 0
3940.309380982533 106.4746513038626 0
1566.190147788152 3604.322446874878 0
2757.632357172542 2814.547231707056 0
3939.737683804652 -93.81825703187644 0
3918.820361275401 456.7583194697615 0
3357.271380293767 -1564.735324468505 0
3780.664616490723 -865.7482438543675 0
3866.978780345022 -777.2719260713103 0
51.2374957320534 3701.858524821688 0
3693.271514879344 486.4059802982093 0
3284.432173174996 2182.33289431732 0
1194.306366196389 3756.915907150308 0
2586.597016684278 2890.964865190876 0
3705.421613861417 -146.2084867092848 0
1443.56515552739 3665.989317025266 0
3637.56597684642 -407.4675273058415 0
3503.516964142633 1259.726523079561 0
864.0255929821724 3782.220726738056 0
1257.482205292845 3506.670952806261 0
3325.638363829761 1673.819593070454 0
3860.322534573726 -314.0756609288304 0
2989.298827547101 2565.468552834984 0
3651.121316329064 240.3750497211701 0
2688.704137917108 2688.368282026219 0
1480.132844561745 3513.049471404813 0
2683.254970434145 2578.009984431746 0
53.34130727437907 3897.16102656274 0
3208.866620986777 2294.868926209279 0
3884.277237359817 -132.083864433127 0
3830.137429743958 623.7979404891551 0
3249.175361952803 2128.643482607925 0
3532.932733012883 -1645.598003289651 0
935.737994627539 3599.176884147009 0
3596.529839026951 -677.8796577695376 0
3520.913667142897 1640.865751374549 0
3153.459747742012 1850.55181437865 0
2902.502300233688 2666.483927698509 0
3848.409203294854 -845.8514663524554 0
2544.894923651137 2634.55487463385 0
1708.717258683718 3485.245776410969 0
3428.674182981694 1955.716463883675 0
3686.257018459838 -1252.50555153561 0
2659.1017934757 2910.939854025667 0
917.2385128398735 3834.687080170047 0
3675.334270645611 -1435.678582852147 0
1592.787482937057 3368.011179594504 0
1406.700399012061 3424.141585005976 0
3935.60882253972 310.4750205999424 0
3770.811353740668 -1044.566877156258 0
3761.639391457379 1192.85178645491 0
3352.015051848566 1606.234763908525 0
3687.192623486738 547.8080673181889 0
478.3679124606407 3864.368498742687 0
3760.551413162143 1009.29205060049 0
107.4057373796354 3866.537893089938 0
2892.32388192871 2349.273992222645 0
2289.088943164168 3149.478660980482 0
309.151787817124 3933.283732616593 0
3715.681392135002 50.25637506403439 0
2232.796633622131 3253.411331271306 0
3944.837454724364 39.47511315787807 0
2174.844455096887 3292.541349369845 0
2057.483198324843 3306.149026749679 0
378.4817144569618 3927.653440307643 0
3844.883562663845 -485.4974025861697 0
2986.087735769384 2205.392587164382 0
3847.208303835286 553.5262853768113 0
1254.828062128126 3751.754099827895 0
2854.221394867515 2717.128557200779 0
2735.405407853844 2748.568558849949 0
3823.727181519615 -731.1086757737507 0
695.8728926534134 3846.738389910435 0
3683.70493506713 -458.8882183728347 0
2793.26921865561 2437.226178228153 0
3025.455204428086 2429.600249431904 0
3101.58678876821 2044.346613700806 0
3557.554073073239 1699.579666330199 0
3699.619543576937 287.9942571677338 0
2471.361034731807 3028.730968028327 0
1647.20355641468 3520.948228377051 0
270.08054393574 3881.875181704304 0
3781.886475680828 1126.000207631276 0
1188.92104395067 3516.712940499569 0
3679.668088021363 1276.475585384822 0
3612.910502231332 -1447.386807055988 0
3828.44123447627 801.7700178977824 0
2231.621998905408 3189.069025780772 0
3700.541542943868 1210.156856245317 0
2115.518882745388 3267.395466134327 0
204.1469382050917 3887.03605789553 0
408.7888068978016 3870.919619074339 0
865.5209287216974 3610.624490720214 0
3627.155950425139 -790.1045845983878 0
3700.158545872068 -1370.605670027688 0
3561.323316114274 -1576.668873321675 0
1455.526673483806 3612.925824725432 0
3587.416903356004 -1511.881721706074 0
2692.88532195389 2800.739876450689 0
3740.652013953845 1076.061658510735 0
2503.580060366448 2741.19217486933 0
3646.962307357989 -129.6138191247734 0
1001.871040618872 3758.653392746738 0
1403.004406781193 3368.475340887101 0
1878.343307158605 3431.792794646104 0
2347.185648208293 3173.195952057691 0
517.3782861733412 3913.07398453772 0
3695.746944246774 1389.363761782904 0
2057.679554127569 3368.572652547907 0
3662.298575211583 -1317.329198673862 0
3653.324537722535 -32.28115827717636 0
3820.600450476677 991.8137684442154 0
3220.568009964833 1838.090514325218 0
2404.229642304945 3130.369342857655 0
3617.568892568438 1486.627941493575 0
3907.228667388106 -562.5362068032247 0
1607.315281303438 3269.49642900069 0
1996.64228716692 3405.445898922533 0
3470.120063193371 -1630.622634073125 0
3718.941820238272 1325.346892429233 0
587.9803734264362 3903.243855081132 0
3746.930877243347 -1240.216378807573 0
3760.924414563265 -266.6779756384812 0
3376.91417941135 1540.529252744901 0
3595.35423648567 588.8750297070006 0
3838.415394223749 922.7556982010835 0
3228.000452592159 2182.040356930834 0
3847.370146873183 -666.2533832197641 0
3113.863430692644 2341.602525272871 0
1496.790028877622 3578.421966861598 0
3768.948666870431 -1174.53430562263 0
1132.161105226213 3525.258100567822 0
3862.870389620481 486.3610125427995 0
48.71222901780947 3950.98343780533 0
3667.184132518136 -511.7228759916823 0
3468.3543048576 1767.573480692336 0
1354.81737414321 3451.918337404121 0
3305.517252098956 -1543.141251669221 0
3892.494015700688 -192.9785432486837 0
799.5736862231646 3621.541901918351 0
48.19807219348183 3647.449012879139 0
2393.752177380444 3077.172760707354 0
2927.025267394374 2563.85419458607 0
1062.353724008615 3745.810809216607 0
1595.760629556982 3549.387681847339 0
3608.571601927245 -855.3517879918636 0
604.716413417901 3851.725726674448 0
2452.613910680997 2781.478366947148 0
3727.821351392436 -348.7906882671572 0
3639.950061679367 1398.695828059041 0
3403.647449999985 -1536.470213972905 0
3898.674460705967 7.836596874183474 0
3685.336225633898 345.7515414815161 0
2705.03930866096 2531.429320744791 0
3578.025493392809 -1679.051667596228 0
1495.430874183608 3330.088200206584 0
3934.513372460749 -439.373894945776 0
3731.385400245974 -1133.195425964559 0
1950.666200739352 3376.918805167777 0
96.43018430203969 3732.64874202895 0
1704.668359564192 3292.756842759664 0
1301.991778969349 3664.470496357766 0
3797.751710559181 886.932527175602 0
3399.785718821655 1485.009069684763 0
3241.880356910355 1780.107250829118 0
3950.870295122643 250.2165096186831 0
3817.185704417619 -273.857055136734 0
3645.480460311167 674.783096654777 0
3614.652563613823 1594.434254496213 0
3408.503539876442 2013.149953842547 0
3012.347335944932 2146.025530279059 0
2505.812868316032 3059.704453435068 0
2575.132350824156 2995.80965964498 0
710.7728238846878 3890.517322686223 0
3708.738190816148 110.4100454909863 0
801.490392418096 3868.31169399394 0
1808.825132012719 3512.792163628666 0
2664.266739203675 2628.002982538164 0
151.8813669084679 3894.11017273242 0
3819.388876234511 -1050.797915789577 0
741.2911139175451 3632.602809909728 0
3593.498299382367 -911.8678097230816 0
3656.395603955999 1511.437865353748 0
3875.4852168813 424.1275363857661 0
3130.443428625559 1986.856431061526 0
3886.398763567444 712.647156379611 0
2406.257487805114 2820.00378109215 0
3444.40464331232 1821.984420486037 0
3900.357659067237 -657.3499276247881 0
1892.504736107084 3476.519554894309 0
3873.442224129327 804.4828821559381 0
2859.544428654991 2254.651785751628 0
$EndNodes
$Elements
5 1794 1010 14689
1 27 1 116
1010 19 984 
1011 984 985 
1012 985 986 
1013 986 987 
1014 987 988 
1015 988 989 
1016 989 990 
1017 990 991 
1018 991 992 
1019 992 993 
1020 993 994 
1021 994 995 
1022 995 996 
1023 996 997 
1024 997 998 
1025 998 999 
1026 999 1000 
1027 1000 1001 
1028 1001 1002 
1029 1002 1003 
1030 1003 1004 
1031 1004 1005 
1032 1005 1006 
1033 1006 1007 
1034 1007 1008 
1035 1008 1009 
1036 1009 1010 
1037 1010 1011 
1038 1011 1012 
1039 1012 1013 
1040 1013 1014 
1041 1014 1015 
1042 1015 1016 
1043 1016 1017 
1044 1017 1018 
1045 1018 1019 
1046 1019 1020 
1047 1020 1021 
1048 1021 1022 
1049 1022 1023 
1050 1023 1024 
1051 1024 1025 
1052 1025 1026 
1053 1026 1027 
1054 1027 1028 
1055 1028 1029 
1056 1029 1030 
1057 1030 1031 
1058 1031 1032 
1059 1032 1033 
1060 1033 1034 
1061 1034 1035 
1062 1035 1036 
1063 1036 1037 
1064 1037 1038 
1065 1038 1039 
1066 1039 1040 
1067 1040 1041 
1068 1041 1042 
1069 1042 1043 
1070 1043 1044 
1071 1044 1045 
1072 1045 1046 
1073 1046 1047 
1074 1047 1048 
1075 1048 1049 
1076 1049 1050 
1077 1050 1051 
1078 1051 1052 
1079 1052 1053 
1080 1053 1054 
1081 1054 1055 
1082 1055 1056 
1083 1056 1057 
1084 1057 1058 
1085 1058 1059 
1086 1059 1060 
1087 1060 1061 
1088 1061 1062 
1089 1062 1063 
1090 1063 1064 
1091 1064 1065 
1092 1065 1066 
1093 1066 1067 
1094 1067 1068 
1095 1068 1069 
1096 1069 1070 
1097 1070 1071 
1098 1071 1072 
1099 1072 1073 
1100 1073 1074 
1101 1074 1075 
1102 1075 1076 
1103 1076 1077 
1104 1077 1078 
1105 1078 1079 
1106 1079 1080 
1107 1080 1081 
1108 1081 1082 
1109 1082 1083 
1110 1083 1084 
1111 1084 1085 
1112 1085 1086 
1113 1086 1087 
1114 1087 1088 
1115 1088 1089 
1116 1089 1090 
1117 1090 1091 
1118 1091 1092 
1119 1092 1093 
1120 1093 1094 
1121 1094 1095 
1122 1095 1096 
1123 1096 1097 
1124 1097 1098 
1125 1098 20 
1 28 1 6
1126 20 1099 
1127 1099 1100 
1128 1100 1101 
1129 1101 1102 
1130 1102 1103 
1131 1103 18 
1 29 1 104
1132 18 1104 
1133 1104 1105 
1134 1105 1106 
1135 1106 1107 
1136 1107 1108 
1137 1108 1109 
1138 1109 1110 
1139 1110 1111 
1140 1111 1112 
1141 1112 1113 
1142 1113 1114 
1143 1114 1115 
1144 1115 1116 
1145 1116 1117 
1146 1117 1118 
1147 1118 1119 
1148 1119 1120 
1149 1120 1121 
1150 1121 1122 
1151 1122 1123 
1152 1123 1124 
1153 1124 1125 
1154 1125 1126 
1155 1126 1127 
1156 1127 1128 
1157 1128 1129 
1158 1129 1130 
1159 1130 1131 
1160 1131 1132 
1161 1132 1133 
1162 1133 1134 
1163 1134 1135 
1164 1135 1136 
1165 1136 1137 
1166 1137 1138 
1167 1138 1139 
1168 1139 1140 
1169 1140 1141 
1170 1141 1142 
1171 1142 1143 
1172 1143 1144 
1173 1144 1145 
1174 1145 1146 
1175 1146 1147 
1176 1147 1148 
1177 1148 1149 
1178 1149 1150 
1179 1150 1151 
1180 1151 1152 
1181 1152 1153 
1182 1153 1154 
1183 1154 1155 
1184 1155 1156 
1185 1156 1157 
1186 1157 1158 
1187 1158 1159 
1188 1159 1160 
1189 1160 1161 
1190 1161 1162 
1191 1162 1163 
1192 1163 1164 
1193 1164 1165 
1194 1165 1166 
1195 1166 1167 
1196 1167 1168 
1197 1168 1169 
1198 1169 1170 
1199 1170 1171 
1200 1171 1172 
1201 1172 1173 
1202 1173 1174 
1203 1174 1175 
1204 1175 1176 
1205 1176 1177 
1206 1177 1178 
1207 1178 1179 
1208 1179 1180 
1209 1180 1181 
1210 1181 1182 
1211 1182 1183 
1212 1183 1184 
1213 1184 1185 
1214 1185 1186 
1215 1186 1187 
1216 1187 1188 
1217 1188 1189 
1218 1189 1190 
1219 1190 1191 
1220 1191 1192 
1221 1192 1193 
1222 1193 1194 
1223 1194 1195 
1224 1195 1196 
1225 1196 1197 
1226 1197 1198 
1227 1198 1199 
1228 1199 1200 
1229 1200 1201 
1230 1201 1202 
1231 1202 1203 
1232 1203 1204 
1233 1204 1205 
1234 1205 1206 
1235 1206 17 
1 30 1 6
1236 17 1207 
1237 1207 1208 
1238 1208 1209 
1239 1209 1210 
1240 1210 1211 
1241 1211 19 
2 8 2 1562
13128 7047 7181 6819 
13129 6974 7186 6827 
13130 6870 7238 1087 
13131 6926 7207 6820 
13132 7164 7299 7243 
13133 6819 7330 7047 
13134 7008 7175 7006 
13135 6858 7217 6938 
13136 7300 7451 7251 
13137 7171 7172 7109 
13138 7194 7195 7084 
13139 6803 7028 7026 
13140 1033 7225 1034 
13141 7233 7344 7298 
13142 7243 7321 7164 
13143 7026 7034 6803 
13144 7299 7403 6936 
13145 7251 7451 7141 
13146 6938 7286 6858 
13147 6856 7302 7229 
13148 7006 7175 6879 
13149 7227 7272 6857 
13150 7237 7238 6870 
13151 7277 7372 7344 
13152 6924 7207 6926 
13153 6827 7248 6974 
13154 1087 7238 1088 
13155 7091 7093 6800 
13156 7084 7284 7194 
13157 7344 7372 7137 
13158 6857 7349 7227 
13159 6937 7293 7184 
13160 7233 7343 6862 
13161 7178 7197 7154 
13162 6824 7300 7251 
13163 6875 7171 7109 
13164 7020 7193 7192 
13165 7270 7295 6980 
13166 7233 7298 7054 
13167 7074 7198 7177 
13168 6847 7204 7203 
13169 1034 7225 6857 
13170 7005 7006 6879 
13171 7229 7302 7267 
13172 6827 7308 7248 
13173 7172 7396 7109 
13174 6850 7351 7309 
13175 6800 7111 7091 
13176 6847 7392 7204 
13177 7309 7351 7263 
13178 7166 7320 6873 
13179 6983 7422 6816 
13180 7141 7313 7251 
13181 6873 7390 7166 
13182 7192 7294 7020 
13183 1003 7209 1004 
13184 6914 7206 7180 
13185 7190 7205 6961 
13186 6881 7189 7165 
13187 7248 7308 6986 
13188 7129 7208 7176 
13189 7154 7434 7178 
13190 7177 7441 7074 
13191 7258 7329 7257 
13192 7151 7197 7148 
13193 7068 7198 7071 
13194 7162 7403 7299 
13195 6821 7384 7099 
13196 7140 7313 7141 
13197 6851 7446 7239 
13198 7107 7187 6882 
13199 6805 7339 7231 
13200 7231 7389 6805 
13201 6874 7326 7110 
13202 6860 7256 7090 
13203 7287 7317 6851 
13204 7110 7398 6874 
13205 7239 7287 6851 
13206 7172 7422 6981 
13207 6981 7396 7172 
13208 7184 7293 6887 
13209 6879 7060 7005 
13210 6802 7311 7051 
13211 7099 7333 6821 
13212 7194 7284 6874 
13213 6855 7271 7105 
13214 7292 7318 6852 
13215 7199 7317 7287 
13216 6852 7449 7241 
13217 7228 7278 6859 
13218 7212 7286 6938 
13219 7324 7356 1056 
13220 6936 7403 7370 
13221 7056 7216 6863 
13222 1017 7336 7334 
13223 6816 7290 6983 
13224 7241 7292 6852 
13225 6803 7059 7028 
13226 7332 7338 988 
13227 1094 7368 7319 
13228 7008 7437 7175 
13229 7298 7344 7137 
13230 7055 7343 7233 
13231 7250 7318 7292 
13232 1033 7296 7225 
13233 7196 7207 6924 
13234 7090 7322 6860 
13235 6952 7383 7316 
13236 7165 7197 6881 
13237 6855 7295 7270 
13238 7284 7326 6874 
13239 7105 7295 6855 
13240 7024 7034 7026 
13241 6810 7323 6957 
13242 7212 7342 7286 
13243 6939 7188 6884 
13244 6878 7174 6985 
13245 6888 7246 7108 
13246 6816 7422 7172 
13247 7024 7056 7034 
13248 7093 7275 6800 
13249 7139 7191 6880 
13250 6882 7198 7107 
13251 6850 7309 7213 
13252 6984 7270 6980 
13253 7243 7299 6936 
13254 6862 7344 7233 
13255 7035 7255 6818 
13256 7164 7321 7167 
13257 6848 7258 7257 
13258 6958 7205 6956 
13259 1030 7343 7311 
13260 6909 7206 6911 
13261 6884 7206 6939 
13262 6985 7205 6878 
13263 6870 7281 7237 
13264 7345 7401 6970 
13265 7050 7210 7048 
13266 7125 7353 6808 
13267 7213 7442 6850 
13268 6863 7315 7056 
13269 6880 7208 7139 
13270 6801 7209 1003 
13271 6873 7320 7163 
13272 7306 7369 7204 
13273 7124 7208 7126 
13274 6910 7346 6804 
13275 6957 7431 6810 
13276 7001 7291 6999 
13277 6820 7405 6926 
13278 6924 7307 7196 
13279 7154 7197 7151 
13280 7148 7197 7165 
13281 7071 7198 7074 
13282 7107 7198 7068 
13283 6871 7294 7192 
13284 7057 7247 6885 
13285 1125 7375 7106 
13286 6974 7408 7186 
13287 6870 7312 7281 
13288 7106 7384 1125 
13289 7262 7356 7324 
13290 7163 7429 6873 
13291 7334 7336 7254 
13292 7051 7416 6802 
13293 6808 7415 7125 
13294 7223 7338 7332 
13295 7321 7377 7167 
13296 7319 7368 7220 
13297 7316 7383 6849 
13298 6948 7202 6990 
13299 7209 7289 1004 
13300 6804 7420 6910 
13301 7328 7373 7064 
13302 6865 7401 7345 
13303 6990 7203 6948 
13304 6996 7211 6993 
13305 6902 7329 7258 
13306 6811 7244 7174 
13307 7188 7245 6826 
13308 6892 7369 7306 
13309 7180 7206 6884 
13310 6878 7205 7190 
13311 6853 7314 7234 
13312 7191 7249 6830 
13313 7281 7312 6969 
13314 7176 7208 6880 
13315 6961 7455 7190 
13316 7180 7454 6914 
13317 7174 7244 6985 
13318 6939 7245 7188 
13319 6871 7325 7294 
13320 7235 7304 6854 
13321 1091 7404 7395 
13322 7139 7249 7191 
13323 7327 7365 6905 
13324 7111 7322 7090 
13325 6988 7201 6901 
13326 6901 7258 6988 
13327 6881 7197 7178 
13328 6821 7333 7182 
13329 7176 7460 7129 
13330 7228 7303 7278 
13331 7063 7259 7066 
13332 7146 7264 7143 
13333 7196 7307 6876 
13334 1144 7060 1145 
13335 6801 7342 7212 
13336 7381 7393 1053 
13337 6818 7350 7035 
13338 7234 7450 6853 
13339 7088 7111 7090 
13340 7091 7111 7088 
13341 7070 7360 6806 
13342 7331 7361 7119 
13343 6854 7459 7235 
13344 7144 7363 7337 
13345 6961 7205 6958 
13346 6911 7206 6914 
13347 6956 7205 6985 
13348 6939 7206 6909 
13349 6984 7339 6805 
13350 7189 7264 7165 
13351 7177 7198 6882 
13352 7385 7399 1059 
13353 7053 7210 7050 
13354 7126 7208 7129 
13355 7139 7208 7124 
13356 7395 7404 6982 
13357 7212 7435 6801 
13358 6897 7201 6894 
13359 6941 7202 6945 
13360 7162 7418 7276 
13361 7107 7259 7187 
13362 7380 7394 991 
13363 7276 7403 7162 
13364 6999 7291 7211 
13365 7311 7343 7055 
13366 1014 7391 7382 
13367 6885 7310 7057 
13368 7056 7315 7034 
13369 7108 7297 6888 
13370 6807 7378 7150 
13371 6998 7362 7358 
13372 7184 7410 6937 
13373 7116 7142 7113 
13374 7379 7387 1020 
13375 1040 7059 1041 
13376 1041 7059 6803 
13377 6809 7388 7221 
13378 6993 7211 7061 
13379 1145 7060 6879 
13380 6831 7060 1144 
13381 6903 7218 6826 
13382 6999 7211 6996 
13383 6811 7215 6950 
13384 7058 7226 7041 
13385 6815 7441 7177 
13386 6992 7062 6995 
13387 6805 7430 6984 
13388 7307 7366 6876 
13389 7268 7314 6853 
13390 7239 7446 7240 
13391 1152 7193 6825 
13392 7062 7259 7063 
13393 7143 7264 7142 
13394 7249 7260 6830 
13395 6866 7373 7328 
13396 7004 7393 7381 
13397 6950 7244 6811 
13398 6826 7245 6903 
13399 7229 7400 6856 
13400 7333 7448 7182 
13401 6901 7201 6897 
13402 1143 7061 6831 
13403 7241 7449 7242 
13404 6945 7202 6948 
13405 7109 7288 6875 
13406 7168 7367 6843 
13407 7116 7143 7142 
13408 1204 6893 6890 
13409 6889 6940 1106 
13410 6854 7304 7269 
13411 7051 7311 7055 
13412 7069 7399 7385 
13413 6864 7365 7327 
13414 6894 7201 6893 
13415 6940 7202 6941 
13416 7178 7434 6814 
13417 7066 7259 7107 
13418 6990 7202 6889 
13419 6806 7436 7070 
13420 6986 7308 6843 
13421 6991 7062 6992 
13422 7113 7142 7112 
13423 7169 7325 6871 
13424 6872 7374 7170 
13425 7268 7354 7314 
13426 7165 7264 7146 
13427 6893 7201 6890 
13428 6889 7202 6940 
13429 6830 7260 7200 
13430 6826 7218 1201 
13431 1109 7215 6811 
13432 6844 7200 7114 
13433 6888 7448 7246 
13434 1142 7061 1143 
13435 6991 6992 6842 
13436 7111 7439 7322 
13437 7112 7142 6829 
13438 7062 7063 6995 
13439 1115 7168 6843 
13440 1141 6991 6842 
13441 1176 7200 6844 
13442 1178 7112 6829 
13443 1132 7195 7194 
13444 1200 7188 6826 
13445 6811 7174 1110 
13446 1123 7171 6875 
13447 6872 7170 1169 
13448 6812 7169 1148 
13449 1196 7173 6817 
13450 6817 7180 1197 
13451 6886 7185 1164 
13452 1147 7175 6812 
13453 6882 7187 1138 
13454 1180 7189 6881 
13455 1191 7183 6820 
13456 1113 7190 6832 
13457 6813 7176 1171 
13458 6815 7177 1136 
13459 1182 7178 6814 
13460 6819 7181 1162 
13461 1156 7179 6818 
13462 1174 7191 6830 
13463 6821 7182 1127 
13464 6827 7186 1118 
13465 6823 7184 1188 
13466 7005 7291 7001 
13467 6872 7313 7140 
13468 6925 7394 7380 
13469 6886 7210 7185 
13470 6868 7361 7331 
13471 6989 6990 6889 
13472 7304 7341 7269 
13473 7382 7391 7149 
13474 7061 7211 6831 
13475 6890 7201 6988 
13476 7337 7363 6867 
13477 1151 7193 1152 
13478 7210 7348 7048 
13479 1105 6989 6889 
13480 6812 7397 7169 
13481 7138 7387 7379 
13482 7179 7350 6818 
13483 7358 7362 6869 
13484 7192 7193 1151 
13485 7150 7432 6807 
13486 6859 7425 7228 
13487 1205 6987 1206 
13488 1203 6893 1204 
13489 7221 7423 6809 
13490 1106 6940 1107 
13491 7169 7397 7325 
13492 1108 7215 1109 
13493 1201 7218 1202 
13494 6842 7061 1142 
13495 1193 7207 7196 
13496 1194 7196 6876 
13497 1133 7194 6874 
13498 6820 7207 1192 
13499 6877 7226 1159 
13500 7116 7144 7143 
13501 1114 7168 1115 
13502 1140 6991 1141 
13503 1175 7200 1176 
13504 1131 7195 1132 
13505 1177 7112 1178 
13506 1150 7192 1151 
13507 1199 7188 1200 
13508 1110 7174 1111 
13509 1122 7171 1123 
13510 1169 7170 1170 
13511 1197 7180 1198 
13512 1112 7190 1113 
13513 1146 7175 1147 
13514 1164 7185 1165 
13515 1179 7189 1180 
13516 1138 7187 1139 
13517 1190 7183 1191 
13518 1148 7169 1149 
13519 1195 7173 1196 
13520 1173 7191 1174 
13521 1171 7176 1172 
13522 1136 7177 1137 
13523 1181 7178 1182 
13524 1162 7181 1163 
13525 1155 7179 1156 
13526 1118 7186 1119 
13527 1188 7184 1189 
13528 1127 7182 1128 
13529 6824 7251 1166 
13530 6948 7203 6949 
13531 7203 7204 6949 
13532 1158 7255 6877 
13533 6818 7255 1157 
13534 7063 7064 6995 
13535 6992 6993 6842 
13536 6890 6987 1205 
13537 6890 6988 6987 
13538 1097 6892 1098 
13539 984 6891 985 
13540 6900 6902 6901 
13541 6948 6949 6947 
13542 6900 6901 6897 
13543 7200 7260 7114 
13544 1104 6989 1105 
13545 6945 6948 6947 
13546 1204 6890 1205 
13547 1105 6889 1106 
13548 6829 7264 7189 
13549 7168 7419 7367 
13550 6843 7367 6986 
13551 6846 6893 1203 
13552 1107 6940 6845 
13553 7144 7145 7143 
13554 6876 7366 7173 
13555 6992 6994 6993 
13556 7063 7065 7064 
13557 6993 7061 6842 
13558 6899 6900 6897 
13559 6846 6894 6893 
13560 6940 6941 6845 
13561 6945 6947 6946 
13562 6896 6897 6894 
13563 6941 6945 6943 
13564 6994 6996 6993 
13565 6992 6995 6994 
13566 6944 7219 6952 
13567 6929 7212 6938 
13568 6905 7222 6898 
13569 7018 7216 7019 
13570 6923 7217 6922 
13571 7116 7253 7144 
13572 7002 7221 7003 
13573 6845 7215 1108 
13574 6994 6997 6996 
13575 6896 6899 6897 
13576 6945 6946 6943 
13577 7145 7146 7143 
13578 7015 7214 7213 
13579 7117 7118 7115 
13580 7114 7115 7113 
13581 6844 7113 7112 
13582 6828 7062 6991 
13583 6816 7172 7171 
13584 7009 7213 7011 
13585 7145 7149 7147 
13586 7067 7069 7065 
13587 7045 7225 7224 
13588 6935 7209 6933 
13589 6978 6984 6980 
13590 6931 7212 6929 
13591 7088 7090 7086 
13592 7022 7056 7024 
13593 6929 6938 6927 
13594 6972 7232 7231 
13595 7135 7199 7133 
13596 6965 6969 6967 
13597 7235 7236 7072 
13598 7239 7240 7127 
13599 7007 7015 7009 
13600 7241 7242 6912 
13601 6959 7238 7237 
13602 7000 7004 7002 
13603 7123 7138 7121 
13604 6953 6982 6955 
13605 6908 6925 6906 
13606 7003 7221 7007 
13607 6997 6998 6996 
13608 6895 6896 6894 
13609 7015 7213 7009 
13610 7063 7066 7065 
13611 6927 7217 6923 
13612 7019 7216 7022 
13613 7117 7119 7118 
13614 6941 6943 6942 
13615 7114 7117 7115 
13616 7115 7116 7113 
13617 6844 7114 7113 
13618 6944 6952 6951 
13619 7046 7224 7049 
13620 6904 6905 6898 
13621 7040 7227 7043 
13622 7051 7055 7052 
13623 7007 7221 7015 
13624 6844 7112 1177 
13625 7101 7228 7098 
13626 6832 7168 1114 
13627 6828 6991 1140 
13628 7049 7051 7050 
13629 6830 7200 1175 
13630 6822 7195 1131 
13631 6871 7192 1150 
13632 6884 7188 1199 
13633 1111 7174 6878 
13634 1149 7169 6871 
13635 6876 7173 1195 
13636 6816 7171 1122 
13637 1198 7180 6884 
13638 1170 7170 6813 
13639 6878 7190 1112 
13640 6879 7175 1146 
13641 6887 7183 1190 
13642 6880 7191 1173 
13643 1172 7176 6880 
13644 1137 7177 6882 
13645 6881 7178 1181 
13646 1163 7181 6886 
13647 1119 7186 6883 
13648 6885 7179 1155 
13649 1128 7182 6888 
13650 1189 7184 6887 
13651 1165 7185 6824 
13652 1139 7187 6828 
13653 6829 7189 1179 
13654 7045 7224 7046 
13655 7033 7229 7037 
13656 7145 7147 7146 
13657 7043 7045 7044 
13658 7097 7230 7094 
13659 6952 6953 6951 
13660 7104 7105 7103 
13661 7039 7227 7040 
13662 6938 7217 6927 
13663 6904 6906 6905 
13664 7022 7216 7056 
13665 7037 7039 7038 
13666 7098 7228 7097 
13667 7102 7103 7101 
13668 7066 7067 7065 
13669 7094 7230 7093 
13670 7032 7229 7033 
13671 1176 6844 1177 
13672 1115 6843 1116 
13673 1141 6842 1142 
13674 6934 6935 6933 
13675 7046 7049 7048 
13676 7092 7093 7091 
13677 1193 7196 1194 
13678 1192 7207 1193 
13679 1132 7194 1133 
13680 7026 7028 7027 
13681 1107 6845 1108 
13682 1202 6846 1203 
13683 1149 6871 1150 
13684 1168 6872 1169 
13685 1184 6873 1185 
13686 1133 6874 1134 
13687 1123 6875 1124 
13688 1194 6876 1195 
13689 1158 6877 1159 
13690 1154 6885 1155 
13691 1128 6888 1129 
13692 1189 6887 1190 
13693 1137 6882 1138 
13694 1111 6878 1112 
13695 1119 6883 1120 
13696 1163 6886 1164 
13697 1198 6884 1199 
13698 1172 6880 1173 
13699 1145 6879 1146 
13700 1180 6881 1181 
13701 1109 6811 1110 
13702 1147 6812 1148 
13703 1170 6813 1171 
13704 1182 6814 1183 
13705 1135 6815 1136 
13706 1121 6816 1122 
13707 1196 6817 1197 
13708 1156 6818 1157 
13709 1161 6819 1162 
13710 1126 6821 1127 
13711 1191 6820 1192 
13712 1130 6822 1131 
13713 1187 6823 1188 
13714 1152 6825 1153 
13715 1165 6824 1166 
13716 1200 6826 1201 
13717 1139 6828 1140 
13718 1117 6827 1118 
13719 1178 6829 1179 
13720 1143 6831 1144 
13721 1174 6830 1175 
13722 1113 6832 1114 
13723 6973 7231 6976 
13724 6932 6933 6931 
13725 6978 6980 6979 
13726 7089 7091 7088 
13727 7024 7026 7025 
13728 6976 6978 6977 
13729 7087 7088 7086 
13730 6930 6931 6929 
13731 7022 7024 7023 
13732 7040 7043 7042 
13733 6928 6929 6927 
13734 6972 7231 6973 
13735 7160 7162 7161 
13736 6970 6972 6971 
13737 7100 7101 7098 
13738 7081 7082 7080 
13739 7016 7018 7017 
13740 7033 7037 7036 
13741 7136 7137 7135 
13742 7158 7160 7159 
13743 7079 7080 7078 
13744 6921 6922 6920 
13745 7013 7016 7014 
13746 7096 7097 7094 
13747 6967 6970 6968 
13748 7029 7032 7031 
13749 6919 6920 6918 
13750 7134 7135 7133 
13751 6965 6967 6966 
13752 7153 7234 7156 
13753 7076 7235 7073 
13754 7156 7158 7157 
13755 7011 7013 7012 
13756 7077 7078 7076 
13757 6963 6965 6964 
13758 7009 7011 7010 
13759 7131 7239 7128 
13760 7073 7235 7072 
13761 7152 7234 7153 
13762 7132 7133 7131 
13763 6917 6918 6916 
13764 6960 7237 6963 
13765 6916 7241 6913 
13766 7150 7152 7151 
13767 7071 7072 7070 
13768 7128 7239 7127 
13769 7147 7150 7148 
13770 7007 7009 7008 
13771 6913 7241 6912 
13772 7068 7070 7067 
13773 6959 7237 6960 
13774 7126 7127 7125 
13775 6973 6976 6975 
13776 7085 7086 7083 
13777 6998 7000 6999 
13778 7019 7022 7021 
13779 6946 7220 7219 
13780 6957 6959 6958 
13781 6926 6927 6923 
13782 7124 7125 7123 
13783 7120 7121 7119 
13784 6911 6912 6910 
13785 7000 7002 7001 
13786 7122 7123 7121 
13787 6943 7219 6944 
13788 6943 6944 6942 
13789 6955 6957 6956 
13790 6895 6898 6896 
13791 7153 7156 7155 
13792 7075 7076 7073 
13793 6909 6910 6908 
13794 7222 7223 6899 
13795 6960 6963 6962 
13796 7130 7131 7128 
13797 6915 6916 6913 
13798 6953 6955 6954 
13799 7055 7233 7052 
13800 7003 7007 7006 
13801 6907 6908 6906 
13802 7051 7052 7050 
13803 6898 7222 6896 
13804 7045 7046 7044 
13805 7049 7050 7048 
13806 7102 7104 7103 
13807 7039 7040 7038 
13808 7043 7044 7042 
13809 7037 7038 7036 
13810 7100 7102 7101 
13811 6934 6936 6935 
13812 7092 7094 7093 
13813 7096 7098 7097 
13814 7028 7029 7027 
13815 7032 7033 7031 
13816 6980 6981 6979 
13817 6932 6934 6933 
13818 7089 7092 7091 
13819 7026 7027 7025 
13820 6930 6932 6931 
13821 6978 6979 6977 
13822 7087 7089 7088 
13823 7024 7025 7023 
13824 6928 6930 6929 
13825 1202 7218 6846 
13826 6972 6973 6971 
13827 7085 7087 7086 
13828 6976 6977 6975 
13829 7081 7083 7082 
13830 7022 7023 7021 
13831 7160 7161 7159 
13832 7018 7019 7017 
13833 6926 6928 6927 
13834 6944 6951 6950 
13835 7079 7081 7080 
13836 6921 6923 6922 
13837 6970 6971 6968 
13838 7016 7017 7014 
13839 7134 7136 7135 
13840 6919 6921 6920 
13841 6998 6999 6996 
13842 7158 7159 7157 
13843 7077 7079 7078 
13844 7013 7014 7012 
13845 6967 6968 6966 
13846 7147 7148 7146 
13847 6965 6966 6964 
13848 6903 6904 6898 
13849 6917 6919 6918 
13850 7132 7134 7133 
13851 7117 7120 7119 
13852 1159 7226 1160 
13853 7066 7068 7067 
13854 7011 7012 7010 
13855 7152 7153 7151 
13856 7009 7010 7008 
13857 7071 7073 7072 
13858 7156 7157 7155 
13859 7075 7077 7076 
13860 6963 6964 6962 
13861 7150 7151 7148 
13862 7068 7071 7070 
13863 7126 7128 7127 
13864 7130 7132 7131 
13865 6915 6917 6916 
13866 7052 7233 7054 
13867 6959 6960 6958 
13868 6911 6913 6912 
13869 7124 7126 7125 
13870 7007 7008 7006 
13871 7002 7003 7001 
13872 6953 6954 6951 
13873 7000 7001 6999 
13874 6895 7218 6903 
13875 7122 7124 7123 
13876 6904 6907 6906 
13877 7120 7122 7121 
13878 6957 6958 6956 
13879 6909 6911 6910 
13880 6955 6956 6954 
13881 6907 6909 6908 
13882 7052 7054 7053 
13883 7046 7048 7047 
13884 7040 7042 7041 
13885 7099 7100 7098 
13886 7033 7036 7035 
13887 7095 7096 7094 
13888 7029 7031 7030 
13889 6954 7244 6951 
13890 6904 7245 6907 
13891 1048 6850 1049 
13892 1024 6851 1025 
13893 1009 6853 1010 
13894 1063 6854 1064 
13895 1077 6855 1078 
13896 995 6852 996 
13897 1092 6849 1093 
13898 1038 6856 1039 
13899 1034 6857 1035 
13900 999 6858 1000 
13901 1073 6859 1074 
13902 1067 6860 1068 
13903 1005 6861 1006 
13904 1028 6862 1029 
13905 1044 6863 1045 
13906 989 6864 990 
13907 1083 6865 1084 
13908 1057 6866 1058 
13909 1015 6867 1016 
13910 1018 6868 1019 
13911 1054 6869 1055 
13912 1086 6870 1087 
13913 1070 6800 1071 
13914 1002 6801 1003 
13915 1031 6802 1032 
13916 1041 6803 1042 
13917 992 6804 993 
13918 1080 6805 1081 
13919 1060 6806 1061 
13920 1012 6807 1013 
13921 1021 6808 1022 
13922 1051 6809 1052 
13923 1089 6810 1090 
13924 986 6833 987 
13925 1095 6834 1096 
13926 997 6840 998 
13927 1026 6836 1027 
13928 1007 6837 1008 
13929 1036 6841 1037 
13930 1046 6835 1047 
13931 1065 6838 1066 
13932 1075 6839 1076 
13933 6973 6975 6974 
13934 7084 7085 7083 
13935 7019 7021 7020 
13936 7161 7164 7163 
13937 6924 6926 6923 
13938 7140 7141 7136 
13939 6944 6950 6942 
13940 7153 7155 7154 
13941 7074 7075 7073 
13942 7052 7053 7050 
13943 7129 7130 7128 
13944 6960 6962 6961 
13945 6914 6915 6913 
13946 7003 7006 7005 
13947 7046 7047 7044 
13948 6895 6903 6898 
13949 7102 7109 7104 
13950 7040 7041 7038 
13951 7096 7099 7098 
13952 7092 7095 7094 
13953 7033 7035 7031 
13954 7029 7030 7027 
13955 6932 6937 6934 
13956 6946 7219 6943 
13957 6979 6983 6977 
13958 7087 7108 7089 
13959 7025 7057 7023 
13960 7081 7084 7083 
13961 7019 7020 7017 
13962 7161 7163 7159 
13963 6973 6974 6971 
13964 6921 6924 6923 
13965 7134 7140 7136 
13966 6968 6986 6966 
13967 6934 7243 6936 
13968 7042 7058 7041 
13969 7157 7166 7155 
13970 7075 7110 7077 
13971 7148 7165 7146 
13972 6985 7244 6954 
13973 7066 7107 7068 
13974 7153 7154 7151 
13975 7071 7074 7073 
13976 7126 7129 7128 
13977 6907 7245 6939 
13978 6960 6961 6958 
13979 6951 7244 6950 
13980 6911 6914 6913 
13981 7003 7005 7001 
13982 7099 7106 7100 
13983 6942 7215 6845 
13984 7122 7139 7124 
13985 6903 7245 6904 
13986 6956 6985 6954 
13987 6907 6939 6909 
13988 6896 7222 6899 
13989 7164 7167 7163 
13990 6846 7218 6895 
13991 7089 7246 7092 
13992 7027 7247 7025 
13993 6971 7248 6968 
13994 6950 7215 6942 
13995 7120 7249 7122 
13996 6937 7243 6934 
13997 6846 6895 6894 
13998 6941 6942 6845 
13999 7230 7275 7093 
14000 7092 7246 7095 
14001 7030 7247 7027 
14002 7108 7246 7089 
14003 7025 7247 7057 
14004 6974 7248 6971 
14005 6968 7248 6986 
14006 7122 7249 7139 
14007 6920 7250 6918 
14008 7115 7253 7116 
14009 7374 7421 7170 
14010 1166 7251 1167 
14011 7118 7254 7253 
14012 7173 7413 6817 
14013 7090 7256 7086 
14014 7152 7252 7234 
14015 7118 7253 7115 
14016 7083 7256 7082 
14017 7064 7261 6995 
14018 7187 7259 6828 
14019 1157 7255 1158 
14020 6995 7261 6994 
14021 7114 7260 7117 
14022 7140 7374 6872 
14023 7099 7384 7106 
14024 7175 7437 6812 
14025 7120 7260 7249 
14026 7142 7264 6829 
14027 6902 7258 6901 
14028 7037 7267 7039 
14029 7086 7256 7083 
14030 7058 7330 6819 
14031 7261 7262 6997 
14032 1097 7265 6892 
14033 6891 7266 985 
14034 6828 7259 7062 
14035 1209 7257 1210 
14036 7047 7348 7181 
14037 6994 7261 6997 
14038 7117 7260 7120 
14039 7013 7263 7016 
14040 1101 6847 1102 
14041 1208 6848 1209 
14042 6883 7290 1120 
14043 1121 7290 6816 
14044 6812 7437 7397 
14045 1040 7285 7059 
14046 7225 7349 6857 
14047 7229 7267 7037 
14048 1096 7265 1097 
14049 985 7266 986 
14050 6965 7281 6969 
14051 7237 7281 6963 
14052 6834 7265 1096 
14053 986 7266 6833 
14054 7195 7426 7084 
14055 7277 7344 6862 
14056 6848 7257 1209 
14057 1078 7270 1079 
14058 1008 7268 1009 
14059 1064 7269 1065 
14060 1076 7271 1077 
14061 1071 7275 1072 
14062 1035 7272 1036 
14063 998 7273 999 
14064 1074 7278 1075 
14065 1006 7276 1007 
14066 1045 7274 1046 
14067 1066 7279 1067 
14068 1027 7277 1028 
14069 6832 7419 7168 
14070 6855 7270 1078 
14071 1009 7268 6853 
14072 6854 7269 1064 
14073 1077 7271 6855 
14074 6837 7268 1008 
14075 1065 7269 6838 
14076 6839 7271 1076 
14077 6800 7275 1071 
14078 6857 7272 1035 
14079 999 7273 6858 
14080 6859 7278 1074 
14081 1067 7279 6860 
14082 6861 7276 1006 
14083 1028 7277 6862 
14084 6863 7274 1045 
14085 1036 7272 6841 
14086 6840 7273 998 
14087 1075 7278 6839 
14088 1007 7276 6837 
14089 1046 7274 6835 
14090 6838 7279 1066 
14091 6836 7277 1027 
14092 7081 7284 7084 
14093 6935 7289 7209 
14094 7058 7465 7226 
14095 7366 7413 7173 
14096 6815 7398 7110 
14097 7199 7287 7133 
14098 7131 7287 7239 
14099 6888 7297 1129 
14100 1130 7297 6822 
14101 7106 7288 7100 
14102 7102 7288 7109 
14103 6916 7292 7241 
14104 7250 7292 6918 
14105 7170 7421 6813 
14106 6989 7424 6990 
14107 6932 7293 6937 
14108 7190 7455 6832 
14109 6817 7454 7180 
14110 1102 7280 1103 
14111 7020 7294 7017 
14112 6858 7417 7217 
14113 6819 7465 7058 
14114 1084 7282 1085 
14115 6813 7460 7176 
14116 7166 7390 6814 
14117 6847 7280 1102 
14118 6831 7291 7060 
14119 1039 7285 1040 
14120 6858 7286 1000 
14121 7034 7443 6803 
14122 1207 7283 1208 
14123 1208 7283 6848 
14124 1005 7289 6861 
14125 7060 7291 7005 
14126 6883 7347 7290 
14127 6963 7281 6965 
14128 6832 7455 7419 
14129 6843 7308 1116 
14130 1117 7308 6827 
14131 7141 7298 7136 
14132 6865 7282 1084 
14133 1154 7310 6885 
14134 6825 7310 1153 
14135 7162 7299 7161 
14136 7240 7446 1023 
14137 7225 7296 7224 
14138 7167 7377 1186 
14139 1168 7313 6872 
14140 7413 7454 6817 
14141 7251 7313 1167 
14142 7421 7460 6813 
14143 7280 7424 6989 
14144 7020 7438 7193 
14145 7235 7459 7236 
14146 7079 7284 7081 
14147 7110 7441 6815 
14148 6802 7296 1032 
14149 7242 7449 994 
14150 7101 7303 7228 
14151 1210 7301 1211 
14152 7182 7448 6888 
14153 1000 7286 1001 
14154 7076 7304 7235 
14155 6856 7285 1039 
14156 7179 7458 7350 
14157 7315 7443 7034 
14158 7211 7291 6831 
14159 7214 7442 7213 
14160 7133 7287 7131 
14161 7213 7309 7011 
14162 7100 7288 7102 
14163 6921 7307 6924 
14164 1082 7389 7232 
14165 1004 7289 1005 
14166 1120 7290 1121 
14167 7029 7305 7032 
14168 7234 7314 7156 
14169 6918 7292 6916 
14170 6814 7434 7166 
14171 6823 7410 7184 
14172 6930 7293 6932 
14173 1038 7302 6856 
14174 6841 7302 1037 
14175 1186 7429 7167 
14176 6952 7316 6953 
14177 7017 7294 7014 
14178 6980 7295 6981 
14179 6836 7317 7199 
14180 7013 7309 7263 
14181 6886 7348 7210 
14182 7157 7320 7166 
14183 7267 7302 6841 
14184 7163 7320 7159 
14185 1030 7311 1031 
14186 6988 7433 6987 
14187 6957 7323 6959 
14188 1086 7312 6870 
14189 7252 7450 7234 
14190 1044 7315 6863 
14191 7110 7326 7077 
14192 19 7407 984 
14193 7282 7312 1085 
14194 6906 7327 6905 
14195 1211 7407 19 
14196 7065 7328 7064 
14197 7199 7372 6836 
14198 6851 7317 1025 
14199 1026 7317 6836 
14200 7121 7331 7119 
14201 7042 7330 7058 
14202 7232 7389 7231 
14203 7047 7330 7044 
14204 6975 7408 6974 
14205 6852 7318 996 
14206 997 7318 6840 
14207 1032 7296 1033 
14208 1124 7375 1125 
14209 1094 7319 1095 
14210 6837 7354 7268 
14211 6840 7318 7250 
14212 1186 7377 1187 
14213 7096 7333 7099 
14214 6978 7339 6984 
14215 7231 7339 6976 
14216 7167 7429 7163 
14217 7144 7337 7145 
14218 6926 7405 6928 
14219 6800 7439 7111 
14220 6860 7322 1068 
14221 7038 7340 7036 
14222 1125 7384 1126 
14223 7290 7347 6983 
14224 6969 7345 6967 
14225 1184 7390 6873 
14226 6814 7390 1183 
14227 6912 7346 6910 
14228 1055 7324 1056 
14229 7227 7349 7043 
14230 7045 7349 7225 
14231 6969 7312 7282 
14232 1129 7297 1130 
14233 6977 7347 6975 
14234 7127 7353 7125 
14235 6874 7398 1134 
14236 1135 7398 6815 
14237 7035 7350 7031 
14238 6887 7357 7183 
14239 7085 7352 7087 
14240 6998 7358 7000 
14241 7247 7458 6885 
14242 7072 7360 7070 
14243 7136 7298 7137 
14244 6946 7359 7220 
14245 7223 7355 6899 
14246 7059 7305 7028 
14247 7269 7341 6838 
14248 7262 7362 6997 
14249 987 7332 988 
14250 7135 7372 7199 
14251 6986 7367 6966 
14252 7161 7299 7164 
14253 6987 7433 7283 
14254 1161 7465 6819 
14255 7226 7465 1160 
14256 6928 7357 6930 
14257 1017 7334 1018 
14258 1073 7335 6859 
14259 7054 7300 7053 
14260 7250 7376 6840 
14261 7134 7374 7140 
14262 1016 7336 1017 
14263 7267 7402 7039 
14264 988 7338 989 
14265 6920 7376 7250 
14266 7150 7378 7152 
14267 1185 7429 1186 
14268 1002 7342 6801 
14269 1029 7343 1030 
14270 7301 7329 6891 
14271 7221 7388 7015 
14272 7023 7386 7021 
14273 1048 7351 6850 
14274 6835 7351 1047 
14275 1056 7356 1057 
14276 6801 7435 7209 
14277 6841 7402 7267 
14278 6837 7418 7354 
14279 1093 7368 1094 
14280 1037 7302 1038 
14281 7079 7326 7284 
14282 6836 7372 7277 
14283 6825 7386 7310 
14284 6970 7401 6972 
14285 7230 7335 7275 
14286 7257 7301 1210 
14287 7263 7351 6835 
14288 7282 7345 6969 
14289 7049 7416 7051 
14290 7275 7335 1072 
14291 7204 7392 7306 
14292 6868 7379 1019 
14293 7228 7425 7097 
14294 6931 7435 7212 
14295 1052 7381 1053 
14296 7209 7435 6933 
14297 6864 7380 990 
14298 1015 7382 6867 
14299 6981 7422 6979 
14300 6866 7385 1058 
14301 7166 7434 7155 
14302 7294 7325 7014 
14303 1020 7387 1021 
14304 7075 7441 7110 
14305 1081 7389 1082 
14306 1013 7391 1014 
14307 991 7394 992 
14308 1092 7395 6849 
14309 7236 7459 1062 
14310 7028 7305 7029 
14311 1059 7399 1060 
14312 7103 7303 7101 
14313 6835 7409 7263 
14314 7341 7406 6838 
14315 7263 7409 7016 
14316 7238 7453 1088 
14317 7078 7304 7076 
14318 1090 7404 1091 
14319 1099 7306 1100 
14320 1101 7392 6847 
14321 18 7411 1104 
14322 1050 7442 7214 
14323 7293 7357 6887 
14324 7297 7352 6822 
14325 1206 7414 17 
14326 6806 7464 1061 
14327 6919 7307 6921 
14328 1012 7463 6807 
14329 6840 7376 7273 
14330 1062 7459 1063 
14331 1051 7456 6809 
14332 1089 7453 6810 
14333 1080 7430 6805 
14334 1010 7450 1011 
14335 994 7449 995 
14336 1049 7442 1050 
14337 1023 7446 1024 
14338 1070 7439 6800 
14339 6804 7447 993 
14340 6808 7445 1022 
14341 6803 7443 1042 
14342 1116 7308 1117 
14343 7118 7361 7254 
14344 7011 7309 7013 
14345 7278 7303 6839 
14346 1011 7450 7252 
14347 1153 7310 1154 
14348 6984 7430 7270 
14349 1103 7411 18 
14350 7032 7400 7229 
14351 6877 7340 7226 
14352 7227 7402 7272 
14353 1031 7311 6802 
14354 17 7414 1207 
14355 7286 7342 1001 
14356 1098 7428 20 
14357 1085 7312 1086 
14358 7254 7363 7253 
14359 1167 7313 1168 
14360 7156 7314 7158 
14361 6947 7371 7359 
14362 7359 7371 6834 
14363 1043 7315 1044 
14364 20 7428 1099 
14365 7222 7365 7223 
14366 7274 7409 6835 
14367 6953 7316 6982 
14368 7376 7417 7273 
14369 1054 7393 6869 
14370 7270 7430 1079 
14371 7289 7370 6861 
14372 1023 7445 7240 
14373 7226 7340 7041 
14374 7219 7383 6952 
14375 6885 7458 7179 
14376 1025 7317 1026 
14377 7329 7452 6891 
14378 7285 7305 7059 
14379 996 7318 997 
14380 7085 7426 7352 
14381 1095 7319 6834 
14382 7274 7461 7409 
14383 7078 7341 7304 
14384 7021 7438 7020 
14385 994 7447 7242 
14386 7232 7462 1082 
14387 6981 7440 7396 
14388 7159 7320 7157 
14389 7340 7444 7036 
14390 1068 7322 1069 
14391 6935 7370 7289 
14392 7386 7438 7021 
14393 6959 7323 7238 
14394 7332 7355 7223 
14395 6955 7431 6957 
14396 7220 7359 7319 
14397 6919 7366 7307 
14398 6869 7324 1055 
14399 7014 7325 7012 
14400 7314 7354 7158 
14401 6802 7416 7296 
14402 7077 7326 7079 
14403 7324 7362 7262 
14404 7004 7423 7002 
14405 6925 7327 6906 
14406 7069 7328 7065 
14407 7261 7373 7262 
14408 7044 7330 7042 
14409 7303 7412 6839 
14410 7138 7331 7121 
14411 6849 7395 7316 
14412 6905 7365 7222 
14413 7084 7426 7085 
14414 7064 7373 7261 
14415 7103 7412 7303 
14416 6833 7332 987 
14417 6865 7345 7282 
14418 7306 7392 1100 
14419 7276 7418 6837 
14420 7095 7333 7096 
14421 7053 7427 7210 
14422 7210 7427 7185 
14423 1018 7334 6868 
14424 1072 7335 1073 
14425 7108 7352 7297 
14426 6949 7371 6947 
14427 7119 7361 7118 
14428 6810 7453 7323 
14429 7310 7386 7057 
14430 6867 7336 1016 
14431 7145 7337 7149 
14432 6976 7339 6978 
14433 989 7338 6864 
14434 7041 7340 7038 
14435 7258 7433 6988 
14436 6833 7364 7355 
14437 6838 7406 7279 
14438 7253 7363 7144 
14439 7080 7341 7078 
14440 1001 7342 1002 
14441 6928 7405 7357 
14442 7048 7348 7047 
14443 7327 7380 6864 
14444 7328 7385 6866 
14445 6862 7343 1029 
14446 7331 7379 6868 
14447 7360 7464 6806 
14448 6967 7345 6970 
14449 7296 7416 7224 
14450 7406 7457 7279 
14451 7242 7346 6912 
14452 6891 7452 7266 
14453 6983 7347 6977 
14454 7181 7348 6886 
14455 7220 7383 7219 
14456 7043 7349 7045 
14457 6807 7463 7378 
14458 6867 7382 7337 
14459 7031 7350 7030 
14460 1047 7351 1048 
14461 7346 7447 6804 
14462 7325 7397 7012 
14463 7240 7353 7127 
14464 7347 7408 6975 
14465 7087 7352 7108 
14466 6990 7424 7203 
14467 7149 7432 7147 
14468 7158 7354 7160 
14469 6899 7355 6900 
14470 7353 7445 6808 
14471 7266 7364 6833 
14472 6987 7414 1206 
14473 6947 7359 6946 
14474 6910 7420 6908 
14475 1057 7356 6866 
14476 7000 7358 7004 
14477 6809 7456 7388 
14478 7216 7461 6863 
14479 7355 7364 6900 
14480 7236 7360 7072 
14481 7123 7415 7138 
14482 6997 7362 6998 
14483 7204 7369 6949 
14484 7193 7438 6825 
14485 6900 7364 6902 
14486 7125 7415 7123 
14487 1043 7443 7315 
14488 7036 7444 7035 
14489 6917 7366 6919 
14490 6966 7367 6964 
14491 7106 7375 7288 
14492 6849 7368 1093 
14493 7305 7400 7032 
14494 7035 7444 7255 
14495 6936 7370 6935 
14496 6861 7403 7276 
14497 7183 7405 6820 
14498 7137 7372 7135 
14499 7254 7361 7334 
14500 6875 7375 1124 
14501 7070 7436 7067 
14502 7132 7374 7134 
14503 6908 7420 6925 
14504 1082 7462 1083 
14505 7185 7427 6824 
14506 6922 7376 6920 
14507 1187 7377 6823 
14508 7265 7369 6892 
14509 7080 7406 7341 
14510 7322 7439 1069 
14511 1053 7393 1054 
14512 7067 7436 7069 
14513 1019 7379 1020 
14514 7152 7378 7252 
14515 7336 7363 7254 
14516 7335 7425 6859 
14517 990 7380 991 
14518 6809 7381 1052 
14519 7095 7448 7333 
14520 1014 7382 1015 
14521 6834 7371 7265 
14522 1126 7384 6821 
14523 1104 7411 6989 
14524 7203 7424 6847 
14525 7257 7329 7301 
14526 1058 7385 1059 
14527 7273 7417 6858 
14528 7057 7386 7023 
14529 7223 7365 7338 
14530 7147 7432 7150 
14531 7354 7418 7160 
14532 1021 7387 6808 
14533 7015 7388 7214 
14534 6805 7389 1081 
14535 1183 7390 1184 
14536 6848 7433 7258 
14537 7272 7402 6841 
14538 6807 7391 1013 
14539 6917 7413 7366 
14540 1100 7392 1101 
14541 992 7394 6804 
14542 7367 7419 6964 
14543 7350 7458 7030 
14544 1091 7395 1092 
14545 7109 7396 7104 
14546 7012 7397 7010 
14547 6869 7393 7358 
14548 6930 7357 7293 
14549 6922 7417 7376 
14550 1134 7398 1135 
14551 7132 7421 7374 
14552 7316 7395 6982 
14553 6863 7461 7274 
14554 1060 7399 6806 
14555 7288 7375 6875 
14556 7002 7423 7221 
14557 7369 7371 6949 
14558 6892 7428 1098 
14559 7271 7412 7105 
14560 6877 7444 7340 
14561 984 7407 6891 
14562 7265 7371 7369 
14563 6972 7401 7232 
14564 7039 7402 7227 
14565 6810 7404 1090 
14566 6982 7431 6955 
14567 7397 7437 7010 
14568 7255 7444 6877 
14569 7396 7440 7104 
14570 7319 7359 6834 
14571 7352 7426 6822 
14572 7082 7406 7080 
14573 1062 7464 7236 
14574 7186 7408 6883 
14575 7016 7409 7018 
14576 6937 7410 7243 
14577 1083 7462 6865 
14578 7105 7412 7103 
14579 6915 7413 6917 
14580 6860 7457 7256 
14581 7217 7417 6922 
14582 7283 7414 6987 
14583 7082 7457 7406 
14584 7224 7416 7049 
14585 7160 7418 7162 
14586 6964 7419 6962 
14587 6989 7411 7280 
14588 7301 7407 1211 
14589 7130 7421 7132 
14590 6824 7427 7300 
14591 6979 7422 6983 
14592 6822 7426 7195 
14593 7097 7425 7230 
14594 7409 7461 7018 
14595 6873 7429 1185 
14596 1079 7430 1080 
14597 6915 7454 7413 
14598 6933 7435 6931 
14599 7155 7434 7154 
14600 7419 7455 6962 
14601 7279 7457 6860 
14602 7285 7400 7305 
14603 7010 7437 7008 
14604 7214 7456 1050 
14605 1069 7439 1070 
14606 7130 7460 7421 
14607 7104 7440 7105 
14608 6839 7412 7271 
14609 7262 7373 7356 
14610 7074 7441 7075 
14611 6850 7442 1049 
14612 7381 7423 7004 
14613 1042 7443 1043 
14614 1022 7445 1023 
14615 7141 7451 7298 
14616 1024 7446 6851 
14617 7252 7463 1011 
14618 993 7447 994 
14619 6833 7355 7332 
14620 7246 7448 7095 
14621 995 7449 6852 
14622 7280 7411 1103 
14623 6853 7450 1010 
14624 7018 7461 7216 
14625 7256 7457 7082 
14626 1088 7453 1089 
14627 1050 7456 1051 
14628 6962 7455 6961 
14629 6914 7454 6915 
14630 1063 7459 6854 
14631 1160 7465 1161 
14632 7129 7460 7130 
14633 1011 7463 1012 
14634 1061 7464 1062 
14635 7030 7458 7247 
14636 6856 7400 7285 
14637 6823 7377 7321 
14638 6869 7362 7324 
14639 6825 7438 7386 
14640 6847 7424 7280 
14641 1207 7414 7283 
14642 6925 7380 7327 
14643 7283 7433 6848 
14644 7138 7379 7331 
14645 7069 7385 7328 
14646 7334 7361 6868 
14647 6867 7363 7336 
14648 7357 7405 7183 
14649 7368 7383 7220 
14650 7338 7365 6864 
14651 7323 7453 7238 
14652 6883 7408 7347 
14653 7230 7425 7335 
14654 7391 7432 7149 
14655 7105 7440 7295 
14656 7295 7440 6981 
14657 7337 7382 7149 
14658 7356 7373 6866 
14659 7138 7415 7387 
14660 7298 7451 7054 
14661 7054 7451 7300 
14662 6891 7407 7301 
14663 7300 7427 7053 
14664 7306 7428 6892 
14665 7243 7410 7321 
14666 7321 7410 6823 
14667 6925 7420 7394 
14668 6849 7383 7368 
14669 1099 7428 7306 
14670 7358 7393 7004 
14671 7069 7436 7399 
14672 7242 7447 7346 
14673 7370 7403 6861 
14674 7240 7445 7353 
14675 7236 7464 7360 
14676 7387 7415 6808 
14677 6902 7452 7329 
14678 7404 7431 6982 
14679 6809 7423 7381 
14680 6865 7462 7401 
14681 7394 7420 6804 
14682 6807 7432 7391 
14683 7378 7463 7252 
14684 7364 7452 6902 
14685 7399 7436 6806 
14686 7266 7452 7364 
14687 6810 7431 7404 
14688 7388 7456 7214 
14689 7401 7462 7232 
$EndElements
