$MeshFormat
4.1 0 8
$EndMeshFormat
$PhysicalNames
39
1 1 "r1"
1 2 "ground"
1 3 "flare"
1 4 "pipewall"
1 5 "x2"
1 6 "symmetry"
1 7 "r2"
1 8 "symmetry2"
1 9 "ground2"
1 11 "r3"
1 12 "ground3"
1 14 "symmetry3"
1 15 "r4"
1 16 "ground4"
1 18 "symmetry4"
1 19 "r5"
1 20 "ground5"
1 22 "symmetry5"
1 23 "r6"
1 24 "ground6"
1 26 "symmetry6"
1 27 "r7"
1 28 "ground7"
1 30 "symmetry7"
1 31 "r8"
1 32 "ground8"
1 34 "symmetry8"
1 35 "r9"
1 36 "ground9"
1 38 "symmetry9"
2 7 "domain1"
2 10 "domain2"
2 15 "domain3"
2 19 "domain4"
2 23 "domain5"
2 27 "domain6"
2 31 "domain7"
2 35 "domain8"
2 39 "domain9"
$EndPhysicalNames
$Entities
24 38 9 0
1 0 488.8888888888888 0 0 
2 0 0 0 0 
3 457.3432961439855 -172.769948634498 0 0 
4 122.3606797749979 -5.278640450004204 0 0 
5 100 -50 0 0 
6 50 -50 0 0 
7 50 -150 0 0 
8 0 -150 0 0 
9 0 1222.222222222222 0 0 
10 1114.634330649659 -501.415465887335 0 0 
11 0 2100 0 0 
12 1900.125308262818 -894.1609546939143 0 0 
13 0 2666.666666666667 0 0 
14 2407.080556173249 -1147.63857864913 0 0 
15 0 3111.111111111111 0 0 
16 2804.663660498559 -1346.430130811784 0 0 
17 0 3600 0 0 
18 3241.987987399283 -1565.092294262146 0 0 
19 0 4000 0 0 
20 3599.78992435832 -1743.993262741665 0 0 
21 0 4800 0 0 
22 4315.378266508133 -2101.787433816572 0 0 
23 0 10000 0 0 
24 8966.520785676501 -4427.358693400755 0 0 
1 0 -172.769948634498 0 487.7544968055191 488.8888888888887 0 0 2 1 -3 
2 122.3606797749979 -172.769948634498 0 457.3432961439855 -5.278640450004218 0 0 2 3 -4 
3 49.99999999999999 -50.00000000000001 0 122.3606797749979 -0.00333442290281738 0 0 2 4 -6 
4 50 -150 0 50 -50 0 0 2 6 -7 
5 0 -150 0 50 -150 0 0 2 7 -8 
6 0 -150 0 0 488.8888888888888 0 0 2 8 -1 
7 0 -501.415465887335 0 1221.970940956613 1222.222222222222 0 0 2 9 -10 
8 0 488.8888888888888 0 0 1222.222222222222 0 0 2 1 -9 
9 457.3432961439855 -501.415465887335 0 1114.634330649659 -172.769948634498 0 0 2 10 -3 
10 -2.842170943040401e-14 -172.7699486344979 0 487.754496805519 488.8888888888887 0 0 2 3 -1 
11 0 -894.1609546939143 0 2099.94897105561 2100 0 0 2 11 -12 
12 1114.634330649659 -894.1609546939143 0 1900.125308262818 -501.415465887335 0 0 2 12 -10 
13 1.13686837721616e-13 -501.415465887335 0 1221.970940956613 1222.222222222223 0 0 2 10 -9 
14 0 1222.222222222222 0 0 2100 0 0 2 9 -11 
15 0 -1147.638578649129 0 2666.654383170227 2666.666666666667 0 0 2 13 -14 
16 1900.125308262818 -1147.63857864913 0 2407.080556173249 -894.1609546939143 0 0 2 14 -12 
17 1.591615728102624e-12 -894.1609546939146 0 2099.94897105561 2100 0 0 2 12 -11 
18 0 2100 0 0 2666.666666666667 0 0 2 11 -13 
19 0 -1346.430130811785 0 3111.109702544029 3111.111111111111 0 0 2 15 -16 
20 2407.080556173249 -1346.430130811784 0 2804.663660498559 -1147.63857864913 0 0 2 16 -14 
21 6.821210263296962e-13 -1147.63857864913 0 2666.654383170227 2666.666666666667 0 0 2 14 -13 
22 0 2666.666666666667 0 0 3111.111111111111 0 0 2 13 -15 
23 0 -1565.092294262146 0 3599.998997894867 3600 0 0 2 17 -18 
24 2804.663660498559 -1565.092294262146 0 3241.987987399283 -1346.430130811784 0 0 2 18 -16 
25 9.094947017729282e-13 -1346.430130811784 0 3111.10970254403 3111.111111111111 0 0 2 16 -15 
26 0 3111.111111111111 0 0 3600 0 0 2 15 -17 
27 0 -1743.993262741665 0 3999.993327934862 4000 0 0 2 19 -20 
28 3241.987987399283 -1743.993262741665 0 3599.78992435832 -1565.092294262146 0 0 2 20 -18 
29 2.273736754432321e-13 -1565.092294262146 0 3599.998997894867 3600 0 0 2 18 -17 
30 0 3600 0 0 4000 0 0 2 17 -19 
31 0 -2101.787433816573 0 4799.971484377824 4800 0 0 2 21 -22 
32 3599.78992435832 -2101.787433816572 0 4315.378266508133 -1743.993262741665 0 0 2 22 -20 
33 9.094947017729282e-13 -1743.993262741665 0 3999.99332793486 3999.999999999999 0 0 2 20 -19 
34 0 4000 0 0 4800 0 0 2 19 -21 
35 0 -4427.358693400756 0 9999.706619488945 10000 0 1 35 2 23 -24 
36 4315.378266508133 -4427.358693400755 0 8966.520785676501 -2101.787433816572 0 1 36 2 24 -22 
37 -4.547473508864641e-13 -2101.787433816573 0 4799.971484377825 4800 0 1 31 2 22 -21 
38 0 4800 0 0 10000 0 1 38 2 21 -23 
2 0 -172.769948634498 0 487.7544968055191 488.8888888888888 0 0 6 -2 -1 -6 -5 -4 -3 
3 0 -501.4154658873351 0 1221.970940956613 1222.222222222222 0 0 4 -10 -9 -7 -8 
4 0 -894.1609546939144 0 2099.94897105561 2100 0 0 4 -14 -13 -12 -11 
5 0 -1147.63857864913 0 2666.654383170227 2666.666666666667 0 0 4 -18 -17 -16 -15 
6 0 -1346.430130811785 0 3111.109702544029 3111.111111111111 0 0 4 -22 -21 -20 -19 
7 0 -1565.092294262146 0 3599.998997894867 3600 0 0 4 -26 -25 -24 -23 
8 0 -1743.993262741665 0 3999.993327934862 4000 0 0 4 -30 -29 -28 -27 
9 0 -2101.787433816573 0 4799.971484377824 4800 0 0 4 -34 -33 -32 -31 
10 0 -4427.358693400756 0 9999.706619488945 10000 0 1 39 4 -38 -37 -36 -35 
$EndEntities
$Nodes
9 609 1 609
0 21 0 1
1
0 4800 0
0 22 0 1
2
4315.378266508133 -2101.787433816572 0
0 23 0 1
3
0 10000 0
0 24 0 1
4
8966.520785676501 -4427.358693400755 0
1 35 0 28
5
6
7
8
9
10
11
12
13
14
15
16
17
18
19
20
21
22
23
24
25
26
27
28
29
30
31
32
699.2371908870609 9975.523412376935 0
1395.051393678803 9902.21347017902 0
2084.036377543152 9780.429048721575 0
2762.819341312352 9610.76632154119 0
3428.077426922581 9394.055841595997 0
4076.553985170903 9131.358475385096 0
4705.074517698561 8823.960209730303 0
5310.562216217168 8473.365857065692 0
5890.053026014407 8081.291688259899 0
6440.710156509972 7649.657030209217 0
6959.837966374699 7180.574871262697 0
7444.895158699551 6676.341518823914 0
7893.507225099363 6139.425354811649 0
8303.478066894811 5572.454754647793 0
8672.800745805835 4978.205221116317 0
8999.667311171248 4359.585793195918 0
9282.47764749978 3719.624809529446 0
9519.847309054119 3061.455080888017 0
9710.614295772608 2388.298557286474 0
9853.844742382003 1703.450554912161 0
9948.837490707881 1010.263620786829 0
9995.127520981079 312.1311252128468 0
9992.488228761302 -387.5293512326951 0
9940.932534325111 -1085.292747601557 0
9840.71281896542 -1777.743292674635 0
9692.319690132415 -2461.491219621041 0
9496.479579460387 -3133.18936499087 0
9254.151186590147 -3789.549553143775 0
1 36 0 12
33
34
35
36
37
38
39
40
41
42
43
44
8378.788758871218 -4133.492679998114 0
7843.043987106228 -3865.620294115619 0
7354.687996755163 -3621.442298940087 0
6909.52900160553 -3398.86280136527 0
6503.746177920937 -3195.971389522973 0
6133.856527458718 -3011.026564291864 0
5796.685108877342 -2842.440855001176 0
5489.33785085001 -2688.76722598751 0
5209.176721925593 -2548.686661525302 0
4953.797007566483 -2420.996804345747 0
4721.00662336492 -2304.601612244966 0
4508.807515395057 -2198.502058260033 0
1 37 0 46
45
46
47
48
49
50
51
52
53
54
55
56
57
58
59
60
61
62
63
64
65
66
67
68
69
70
71
72
73
74
75
76
77
78
79
80
81
82
83
84
85
86
87
88
89
90
4401.86161106912 -1914.05704120749 0
4480.182775258171 -1722.777495871127 0
4550.196531603323 -1528.303478954718 0
4611.7730564425 -1330.995595736896 0
4664.798171255041 -1131.219705210102 0
4709.173553867908 -929.3462430930174 0
4744.816920907668 -725.7495346662531 0
4771.662180447366 -520.8071002667809 0
4789.659554446454 -314.898956015724 0
4798.775671165836 -108.4069085754338 0
4798.993627015755 98.2861529523243 0
4790.313017840529 304.7969670248926 0
4772.74993969995 510.7426094366235 0
4746.336959080845 715.7412038322259 0
4711.123052415112 919.4126304347346 0
4667.173515307559 1121.379230239124 0
4614.569841427699 1321.266505511265 0
4553.409571535643 1518.703813733141 0
4483.806112411588 1713.325055644867 0
4405.888526780185 1904.769353382907 0
4319.80129383243 2092.681720138939 0
4225.704041353069 2276.713718255404 0
4123.771249722899 2456.524105307913 0
4014.191929235236 2631.779465544691 0
3897.169267556924 2802.154831555499 0
3772.920254273189 2967.334284319031 0
3641.675279510885 3127.011537970291 0
3503.677704834246 3280.890510310795 0
3359.183413005378 3428.68587038672 0
3208.460333673848 3570.123567503162 0
3051.787946276992 3704.941339745943 0
2889.456760728358 3832.889201096372 0
2721.767781565894 3953.729902665314 0
2549.031947116619 4067.239374880566 0
2371.569553544119 4173.207142319028 0
2189.709661954177 4271.436713372274 0
2003.789487082535 4361.745945313357 0
1814.153772640973 4443.967381654879 0
1621.154151690779 4517.948562838643 0
1425.148495403404 4583.552308641129 0
1226.500248102286 4640.656973037873 0
1025.577754839819 4689.156669250636 0
822.7535773339273 4728.961466430471 0
618.4038037519435 4759.997556249911 0
412.9073510704661 4782.207389839129 0
206.6452623308069 4795.549784493561 0
1 38 0 12
91
92
93
94
95
96
97
98
99
100
101
102
0 5016.254842775674 0
0 5253.494479465669 0
0 5513.755263317505 0
0 5799.271028356059 0
0 6112.492535630784 0
0 6456.108267711812 0
0 6833.067556616059 0
0 7246.605988188553 0
0 7700.273162321504 0
0 8197.963088021354 0
0 8743.94746484216 0
0 9342.912730194967 0
2 10 0 507
103
104
105
106
107
108
109
110
111
112
113
114
115
116
117
118
119
120
121
122
123
124
125
126
127
128
129
130
131
132
133
134
135
136
137
138
139
140
141
142
143
144
145
146
147
148
149
150
151
152
153
154
155
156
157
158
159
160
161
162
163
164
165
166
167
168
169
170
171
172
173
174
175
176
177
178
179
180
181
182
183
184
185
186
187
188
189
190
191
192
193
194
195
196
197
198
199
200
201
202
203
204
205
206
207
208
209
210
211
212
213
214
215
216
217
218
219
220
221
222
223
224
225
226
227
228
229
230
231
232
233
234
235
236
237
238
239
240
241
242
243
244
245
246
247
248
249
250
251
252
253
254
255
256
257
258
259
260
261
262
263
264
265
266
267
268
269
270
271
272
273
274
275
276
277
278
279
280
281
282
283
284
285
286
287
288
289
290
291
292
293
294
295
296
297
298
299
300
301
302
303
304
305
306
307
308
309
310
311
312
313
314
315
316
317
318
319
320
321
322
323
324
325
326
327
328
329
330
331
332
333
334
335
336
337
338
339
340
341
342
343
344
345
346
347
348
349
350
351
352
353
354
355
356
357
358
359
360
361
362
363
364
365
366
367
368
369
370
371
372
373
374
375
376
377
378
379
380
381
382
383
384
385
386
387
388
389
390
391
392
393
394
395
396
397
398
399
400
401
402
403
404
405
406
407
408
409
410
411
412
413
414
415
416
417
418
419
420
421
422
423
424
425
426
427
428
429
430
431
432
433
434
435
436
437
438
439
440
441
442
443
444
445
446
447
448
449
450
451
452
453
454
455
456
457
458
459
460
461
462
463
464
465
466
467
468
469
470
471
472
473
474
475
476
477
478
479
480
481
482
483
484
485
486
487
488
489
490
491
492
493
494
495
496
497
498
499
500
501
502
503
504
505
506
507
508
509
510
511
512
513
514
515
516
517
518
519
520
521
522
523
524
525
526
527
528
529
530
531
532
533
534
535
536
537
538
539
540
541
542
543
544
545
546
547
548
549
550
551
552
553
554
555
556
557
558
559
560
561
562
563
564
565
566
567
568
569
570
571
572
573
574
575
576
577
578
579
580
581
582
583
584
585
586
587
588
589
590
591
592
593
594
595
596
597
598
599
600
601
602
603
604
605
606
607
608
609
4930.323862789352 -654.7277728430498 0
1581.585416555423 4717.836131706716 0
6457.05907284865 -2817.767742285581 0
339.494428945199 7033.699187309832 0
2189.574064740254 4486.229574494676 0
5005.540798662239 15.79147196355486 0
4948.258163288141 629.5423468523286 0
2770.114316274073 4164.096089723963 0
4814.250070394969 1264.190201573483 0
3241.309247285169 3788.041172999933 0
4593.454281582341 1887.984940189036 0
4333.639965625234 2446.717436487267 0
3967.932086145203 2982.505420362794 0
4811.296610062578 -1277.028746927522 0
955.1003376727792 4902.630294716821 0
6765.687669943395 6508.386344253238 0
9441.093842307129 613.4217141809638 0
4692.478576827162 8061.821213603486 0
8785.152500556027 3154.694234674826 0
7967.741304680411 4983.076484856527 0
5461.652453442587 -2338.035019088918 0
259.2608440079506 5955.881781993421 0
2905.523243346887 8975.492530938125 0
9221.539624665085 -1406.316017265109 0
3699.564543381292 3316.319343940042 0
411.9497082629467 7949.118125171429 0
7295.87808904122 -3165.848797004341 0
4685.80135938683 -1687.759375709857 0
533.8826876665903 4937.841078346044 0
5770.67636877079 7341.609547633826 0
9243.698697224456 1969.96488395265 0
1663.038091109043 9247.937481519628 0
9081.808189719575 -2674.771929390443 0
4963.758375615097 -2181.405364843326 0
213.5433593153572 5379.202933686249 0
476.3029057970585 9001.054879185993 0
8312.32000002114 -3467.100912905171 0
220.4847339893994 5127.909703121866 0
437.3149595613891 5256.22230830519 0
441.9507674669042 5495.155128532055 0
662.1268617396088 5351.129886238365 0
679.5824024179707 5611.60310622868 0
901.7362099091057 5452.85904074692 0
927.0117039970844 5733.459264398852 0
1162.170338519618 5564.445973372351 0
1188.018172121219 5860.244160499138 0
1440.720196294578 5670.637430455733 0
1467.695595272325 5996.627468943218 0
1737.672806929364 5795.127791176512 0
1766.658340516131 6143.899793072324 0
2054.859204340606 5942.689273746154 0
2085.700355675178 6305.173301068328 0
2394.663672106992 6089.611420522118 0
2428.172119725805 6476.423154238812 0
2748.359886979363 6246.29080759711 0
2682.67074813715 5807.007035433885 0
3060.997970048548 6002.006720396033 0
2104.947399958985 6681.041823258696 0
3017.837237218584 5618.241481765097 0
3373.973705992395 5772.78963400559 0
3327.823102540304 5396.676727589494 0
3681.425308660539 5542.18491875433 0
3634.981689952293 5170.139290569866 0
3987.213602945826 5316.215045232653 0
3934.335732723612 4874.054233816788 0
4289.506580713031 5075.510338470182 0
4245.388177536783 4707.871649490437 0
4595.523370400381 4857.648284172758 0
4551.28701027672 4482.609025427229 0
4906.212997166509 4628.612787737681 0
4861.174788620275 4242.065460596063 0
5223.391536499462 4393.870358556716 0
5190.808260346224 4005.151537203138 0
5552.947663206302 4161.117497749681 0
5507.11211688084 3754.254428347651 0
5877.95587427935 3915.296528596752 0
5830.242079563915 3502.231781545521 0
6186.416898530117 3644.295536207167 0
6140.430259324527 3243.68310056529 0
2796.592321408058 6624.561465759231 0
4045.272956714987 5685.606564969236 0
5783.041754603609 3094.837255237533 0
6105.304934167868 2831.755714973746 0
4932.766219254525 4987.755140106171 0
6452.08909133401 2972.838307075865 0
6407.139899605385 2564.571095779257 0
6054.862397406913 2421.285993560025 0
6349.52015860199 2157.302523740586 0
6725.30127571198 2323.331662969255 0
6655.475950659069 1882.571773984263 0
6215.894780105753 1722.987431410042 0
6554.538988794311 1456.657174311484 0
6971.174942671229 1589.603982429941 0
6860.940073367042 1174.341310125978 0
6462.06408615072 1054.446627416155 0
6752.10345607927 771.6874531496871 0
6362.80540783269 670.3268257457585 0
6646.22002154886 375.776623857142 0
7046.58481857599 473.4148120056175 0
6931.293760331412 67.06827876703807 0
6458.492116755206 -16.97101381682789 0
6792.54804900096 -328.4712790872831 0
6398.509304098319 -422.0386179929255 0
6675.544876302451 -717.1425968291512 0
6281.125900318779 -794.7122846224343 0
5943.839515543767 4290.84172291768 0
7153.173442246363 -216.6594154686361 0
6551.982846600954 -1111.267207389882 0
7291.579283572552 1286.013491717946 0
5147.67018735374 3652.179876679636 0
7405.386661358267 1735.907284596562 0
6162.282057501694 -1133.930620200877 0
6092.814114592155 937.5241840096653 0
2004.878007208485 5603.478627951145 0
6961.653851112742 -1010.227937274472 0
6004.031061013096 588.5085244845371 0
3440.785080065702 6158.942459400321 0
1477.527865353112 6340.447933200381 0
4231.183131972641 4342.915406724776 0
2994.890079350852 5251.404586406471 0
6026.672281070513 -521.7316206071788 0
6826.126486717165 -1429.981230908724 0
7262.546048670564 -1320.488534836512 0
3563.242032407245 4787.878272584561 0
933.7704405279926 6030.602066977709 0
5745.740212523688 837.7103641560298 0
5670.120706877334 524.1305870911267 0
7752.692289868394 1410.126121369961 0
7117.469927850576 -1751.195475709699 0
7573.698557825138 -1667.38675856952 0
7723.471528753206 -1198.956243494646 0
7872.321871225819 1894.608870801343 0
1395.864129425427 5379.969088212281 0
5831.445265704695 1165.004715193584 0
5521.255828674244 1074.479298795854 0
5587.200460570682 1371.852291710739 0
6686.2041501781 -1842.831944357024 0
5887.402552648191 278.1791458832562 0
5538.112456286512 212.0588086100425 0
8061.521049417071 -1570.814066602186 0
7899.450483546434 -2056.954725617439 0
8213.766993857733 -1075.5294935913 0
6965.505579352119 -2189.188609445123 0
7622.596751159119 960.8853761338701 0
8114.132313137288 1063.570519761885 0
7935.720303738051 616.6566426406325 0
5382.682214897868 478.3576229615877 0
5309.342532444135 1278.787067928854 0
5364.882166295966 1566.796468579089 0
5642.750573623622 1665.029342038602 0
5415.184877044111 1863.217500311057 0
5145.436271271138 1756.053706120538 0
5189.462065501839 2047.485723589535 0
5467.020727556463 2161.085431541081 0
5231.422125662873 2348.418433552582 0
4960.78768946243 2233.415992584087 0
4994.21481371857 2527.651174632475 0
5281.837854775184 2645.855785927903 0
5046.391970553201 2830.193974696446 0
4762.031264468771 2712.226210020174 0
4784.310891662867 2997.064418675649 0
4526.529250712233 2884.381986145451 0
4546.336106941597 3157.09485297402 0
7503.164935746419 2234.608155657615 0
7987.406892189718 2402.399813065246 0
7592.447875725099 2764.302419355506 0
5225.592407721916 955.9021158112159 0
5815.790916157749 -43.23030915677349 0
5491.198174946647 -101.7910647307999 0
7871.533546974357 -704.7016742347975 0
8370.649260550272 -566.8509470844069 0
8393.01081031471 -1955.654680286514 0
8208.211139306726 -2463.88943957767 0
5088.907801849784 3132.179911187216 0
8470.317445848272 595.6819701399063 0
8627.34912942956 1172.361723923956 0
6536.80485748825 -2223.071894241283 0
6279.613117754752 -1929.954807451212 0
6096.041480571085 -2299.671460687 0
5900.443738232609 -1987.305537923144 0
6010.10931162772 -1669.588577334824 0
5677.45980181037 -1735.172668961269 0
5764.347782172038 -1436.092617333105 0
5463.425552989648 -1493.830868810102 0
5547.044700259722 -1192.738555030089 0
5371.603922600874 -1784.823481641378 0
5175.071734649223 -1574.589467868107 0
5084.322136521787 -1815.611377613161 0
5236.455103025432 -2056.227224315514 0
8050.317057879381 -210.9884072981395 0
8511.163600136282 -44.05468490362432 0
8908.785894825518 -350.5939039628845 0
7722.835435077181 -2557.393917907077 0
8361.62903631223 2045.068245630013 0
880.9733865658134 5153.33219812572 0
8125.591343718826 2941.974138781387 0
7694.575235421803 3292.67392984829 0
7213.251197813768 3138.563159557057 0
7278.549366547169 3648.734700356663 0
7793.229462901892 3840.794356814989 0
7358.344973839401 4184.084817629036 0
6893.421342856313 3981.037173673609 0
6940.902442462277 4516.157661233035 0
4311.044095998045 3047.69975135562 0
4315.829206704097 3315.415880548539 0
4567.775838709445 3440.085831880999 0
4335.684281724164 3591.811068381398 0
4596.062037398828 3732.874259868686 0
4091.954349834996 3471.297875618427 0
4116.356329060282 3742.785485547706 0
3886.367943349584 3620.126900402411 0
3885.995160252112 3894.675477092363 0
3648.540955921563 3723.863595158257 0
3627.888381588771 4035.553580339824 0
4294.018324883539 2824.162302826863 0
5713.724352861207 -320.2375634948329 0
5415.582647506431 -379.6162076450628 0
5654.337203784369 -591.1647598355274 0
5325.098194962431 -645.4516010323243 0
5906.825514413747 -834.1339289596153 0
5163.337666633808 -412.1495475530318 0
5220.273673851764 -169.2702281592555 0
5267.061537469249 77.57236162116294 0
5098.859694608704 235.4223578864289 0
3290.851657904534 5033.31763746262 0
2971.687434667935 4912.446026220628 0
2705.969980931122 5105.933296801616 0
2683.845918312169 4795.366310050633 0
2436.825852874353 4965.443505536708 0
2933.753300630366 4609.669174329801 0
2454.861046113206 5261.709287298461 0
2188.934034125187 5123.550110751467 0
2664.171109225525 4491.44473781404 0
2174.727271075766 4854.916884353039 0
1948.529538814014 4995.224680789925 0
1956.708500719995 4757.259127842497 0
3220.38260245436 4698.376823983116 0
3137.840446200666 4405.49341250673 0
3435.388594057666 4476.455731499746 0
3741.702068568564 4522.859281011974 0
3331.268198317851 4180.977110734906 0
3050.769679820757 4148.961635305815 0
2384.315020547656 4666.840191487364 0
5228.87863999494 -1281.19019057378 0
5325.671114763139 -972.8009159546907 0
5074.657543926704 -1033.813895859962 0
4528.1590217929 4079.333706958919 0
3894.760025262474 4217.379019689371 0
5458.798806457497 752.9435016664795 0
5401.02273916123 3355.843908934513 0
1959.225678670129 5279.242074720963 0
1738.097449048653 5117.279141977558 0
1685.896694194555 5439.198388601412 0
1332.686592558462 5133.416678186767 0
6116.641914804927 -195.4381059536847 0
6172.241513557678 1300.267314211017 0
4713.858770662311 -2057.792559338543 0
312.0181367528765 6644.587912163935 0
665.6804622138282 6816.309633163078 0
703.3141023250224 7223.769015837384 0
1036.466338378585 6982.936563309665 0
1083.384599360928 7406.684002147347 0
1423.684576651282 7155.258870076113 0
1482.577082630047 7606.399021297533 0
1831.923159355465 7341.518613855355 0
1904.55643598759 7806.838142903544 0
2271.720546051391 7520.093861697558 0
1534.519659069116 8097.688619464161 0
1954.20748467722 8317.700381964563 0
968.7250357695577 6608.668770014427 0
8030.605161970886 -2946.10913074828 0
6364.533856326962 -1502.825930875238 0
1378.457990747975 6697.318583386522 0
5207.401468049937 647.0810211830645 0
2413.361459562285 4410.726883562127 0
1129.701215272352 5289.215590504135 0
288.8164377089624 6287.706767453101 0
592.699158887018 6100.931156136045 0
5780.857254971067 -2511.109015944457 0
6868.205179548089 -2972.656516628569 0
442.0939573705816 8453.691354329514 0
942.1283339462685 8685.806044591362 0
2303.567629180365 5726.147697380515 0
6231.653625346503 327.1548368657495 0
5568.820937765636 -2024.333564355351 0
5115.246490857111 1474.741302866283 0
4885.561523803595 1658.073382664617 0
4942.420713681396 1943.62297334006 0
5722.228113002937 2678.283144406849 0
4728.804897519586 2415.632558775567 0
4704.916809054582 2130.940681061775 0
5986.502215748727 2036.484662927888 0
1500.922484321426 8650.266209525376 0
6450.293395311782 4319.989783618597 0
6499.344481461543 4866.390679678361 0
6992.434760748569 5043.568243922526 0
6567.86966345057 5391.581112019074 0
6061.335710207266 5195.141291946938 0
6124.740897353287 5710.161386609108 0
5645.407861136857 5509.990344259948 0
5691.720352810475 6023.794680018907 0
5219.549600122653 5824.566556766085 0
5262.877153757411 6333.315279889061 0
4802.382958748814 6113.261243755075 0
4834.071973217437 6634.916491916423 0
4346.246281898374 6362.628548858699 0
4407.873487704765 6940.3618571751 0
3930.344738239931 6726.939781891793 0
3983.28577371884 7248.449332037009 0
3531.941544487217 7042.547841697407 0
3557.697636447423 7559.275867112082 0
4883.440657059129 7151.089500218804 0
3094.124373241776 7302.617864468748 0
3125.815181863273 7877.412722314688 0
3564.166485469482 8137.486443143345 0
7088.42093956869 5535.064541028267 0
4771.163894378119 5644.884371854893 0
5622.590239471709 5027.494513981798 0
5755.238637383789 6630.40048541526 0
745.9281764863381 4932.871489895007 0
6872.045330182028 3500.534073678929 0
230.8640827411976 5640.161741241885 0
2889.945933774887 4353.046433378955 0
5032.998196595488 1199.513844887878 0
4995.556629676442 954.1979441016523 0
1165.318160226264 4835.657374517585 0
4861.993240661592 -1077.72419485467 0
4754.70286025692 -1484.003541219245 0
4916.212224206974 -1642.920792868489 0
1373.008476077711 4773.131831645853 0
4905.47322450337 -867.2091491496603 0
4419.238185005153 2267.589201518585 0
4973.044971514844 -219.5477209560476 0
4746.584425173344 1473.626465918799 0
3065.642425610733 3915.827425855864 0
3409.365884197551 3651.337514643104 0
365.2307172415213 7450.67389058386 0
6102.016805844783 -2667.515174991139 0
3559.142640049094 3481.756737735559 0
3842.173510434083 3157.357609394734 0
4082.425432710735 3184.308615073713 0
5414.688327742656 2967.180653884516 0
616.5438595567325 6461.618568608865 0
3522.119034299495 8751.310333956913 0
5110.951625190644 -797.2030188187373 0
7108.745837173032 2619.572767200735 0
9221.62582242461 -2077.296887170372 0
2305.620338225278 9161.000171659276 0
3843.765587420435 6295.078465660135 0
4099.740654527201 8445.872571034926 0
2720.836458276192 5457.773464282121 0
9088.73110450184 2560.029318684137 0
9246.126958346002 1287.945845287425 0
5313.772736610515 7814.031673119666 0
6310.749896876499 6924.502626853951 0
1019.15843442732 9286.122139581463 0
6734.924894631275 -2570.988680205428 0
7236.062631641663 -2660.170618857743 0
4829.683970073302 -1845.57496596281 0
8906.451648431505 -3292.805029327465 0
7419.170435882183 -2147.048351017766 0
8230.996181724338 3487.869922919483 0
8327.22132415568 4054.189601383039 0
6655.018260482048 5924.382039119781 0
7335.163723931199 137.9811025708358 0
4948.319550333087 384.4740132927846 0
4969.097788367351 -1434.122449265327 0
4510.962625575173 2626.280508758224 0
9456.469974163385 -52.66725637061388 0
327.9363460475835 4946.528562619691 0
835.7919625912828 8171.423900912415 0
7417.159989058056 -870.9504656282995 0
5164.967932315039 -2309.070214823761 0
5876.691845998437 1464.983752925177 0
4605.529768759206 -1876.542493826322 0
1756.133645774383 6892.56227741048 0
1127.46502547871 5042.118403141385 0
7428.561552002315 4712.227644451095 0
485.5020971067744 5781.809950177606 0
4202.665006542051 4032.211577517847 0
7067.807561782694 2005.85471190747 0
5843.179859255039 -1132.175417181917 0
8784.149214115303 -935.7059867249936 0
7649.032375957592 5591.598645711391 0
7873.729574605879 4389.677902938191 0
6217.192619141582 6286.937927045042 0
3115.897105673636 6401.446573407041 0
3503.039055817175 6568.126717450581 0
7158.584004822231 873.899145388049 0
5307.901568393296 6874.33134641364 0
4792.96107371857 3275.121577219331 0
4461.891990498904 7460.740210151511 0
9384.060911809283 -703.0175438596422 0
4335.6798626857 5462.681893658212 0
8224.801138258339 1547.898257853984 0
747.1829359481949 7670.942505645534 0
8582.991557430247 -1459.285608524912 0
4059.876852914835 7818.940939513726 0
2350.245669330341 8018.4542998195 0
2457.139170400976 8530.581730741102 0
4415.248638203278 5863.670333002985 0
1756.087990273882 4855.980366625515 0
4638.898737985892 5234.590924450248 0
8527.748911161225 2549.461612180019 0
5492.651336789378 2420.171865664135 0
3432.567766337855 3911.379121748253 0
4673.408579935075 1679.074365977763 0
7749.639072785931 -3337.637899252623 0
5593.906064190831 4567.052261340352 0
2562.428542202256 4270.678754786153 0
2502.269799613311 6844.287392795088 0
1761.570933004294 6510.073951899454 0
1192.877561636777 6161.578031513307 0
2219.419182876933 5412.180361674789 0
4826.215778629225 3560.649546343841 0
4882.530074180954 3875.801727297744 0
616.4946475166969 5118.802289514651 0
7076.440638394535 -618.8666853115535 0
5760.747862949428 2267.216532892258 0
5594.372702958719 -873.9798472160062 0
3752.26194288677 5911.196368998475 0
4512.702222187399 2075.182133160103 0
3054.517723586884 8387.049014881442 0
5172.369286955861 5310.175157710853 0
4952.667542997028 -448.6705148014378 0
1521.945060057389 4953.889874728986 0
6028.551567697816 4711.151708913954 0
5695.853896655471 1961.365055291299 0
8969.965315996211 249.0188767790607 0
5256.216467955026 4772.935911556303 0
2899.550192799963 4003.100850929466 0
1143.509204042595 7875.873525746712 0
714.1428757594608 5874.209265741945 0
4084.061424629453 2803.625812713386 0
4849.884120351056 1064.311689883659 0
7249.426938291774 6062.533073958039 0
7476.897546669199 547.1025617078601 0
1776.850559141121 4630.739944886468 0
1975.111628729984 4552.9508072503 0
3153.898636711472 6819.344798393475 0
3606.201453559066 4286.644944655164 0
8535.975014845822 -2879.569284037977 0
5167.038856648945 419.8362877700818 0
4994.765804959667 -1225.274390447664 0
2709.813178862748 7666.713609792737 0
3901.553690473235 3358.838123730534 0
2599.534129634621 7230.953010001079 0
2177.754780064693 7085.07616316971 0
5883.538662426403 1770.170048918601 0
8725.102993021415 3755.192872340542 0
4519.262323433119 2416.133892215801 0
5761.563172996596 -2232.090919599774 0
7523.789153753213 -323.4867505517762 0
889.2783642289387 6306.915028872481 0
6705.02630911129 2707.6687928396 0
4188.807183163135 2619.073357669175 0
4026.121266369936 4543.88264923112 0
4355.785335303644 3835.803219654911 0
1976.185513746789 8781.497195081989 0
8951.203748121839 806.5880521671318 0
2136.087297162731 4663.639317085575 0
438.9397062222879 9521.12263226787 0
8367.278830055586 4563.694512494461 0
6361.36525037645 -2520.425112445697 0
8757.975919951965 -3812.649131496555 0
6205.383564470783 3984.618179290275 0
5052.09860053599 795.4041656745389 0
4521.790126105505 -2031.293524868102 0
8753.597924876549 1702.640479815422 0
151.013268473558 4937.248578602159 0
3234.81150695125 3991.191649786947 0
6101.996225142514 69.93891076434393 0
8710.765438137172 -2310.479271190391 0
5261.504652186156 7345.202520165794 0
8146.050817078118 235.4147624173863 0
7744.656433841526 167.1133185811332 0
4973.668195197583 -1984.116929203198 0
4869.191839251653 842.8998969045681 0
4918.928141364901 1414.029039582212 0
7633.597608087493 -2946.300916369471 0
5051.355516142509 3395.194964072908 0
1529.961139372825 5216.458682361461 0
1218.92937053786 6430.039386736787 0
6033.719614669581 -1395.119544170576 0
2476.86900110321 5520.121362738517 0
4777.635565103946 1822.73253771612 0
6526.015733054565 3792.981937968761 0
4893.306330571841 7603.76197136552 0
1206.520161703526 8352.683156185354 0
2721.664975369185 4319.816503925777 0
8795.081134815262 2165.432908052448 0
6823.473847633914 3058.688201834287 0
8825.408079627861 -1833.202753970863 0
6500.078526676525 3368.83685955505 0
5290.750951982256 284.6494877698607 0
4923.917421183549 207.3968549560987 0
5102.400733229842 -604.6400469547083 0
2745.793715257341 8073.496015600309 0
427.2226749563318 5077.460788381488 0
7430.004909202286 5154.859370464593 0
4576.984887439968 2261.095693346367 0
4080.559081424768 6023.636056297906 0
4142.249756792682 2962.079498321299 0
5934.853333763856 -302.2726322417898 0
2844.287728555882 6967.900169510471 0
1301.810700659661 4940.849096428801 0
3739.033954634954 3500.180940193361 0
$EndNodes
$Elements
5 1216 1 1216
1 35 1 29
1 3 5 
2 5 6 
3 6 7 
4 7 8 
5 8 9 
6 9 10 
7 10 11 
8 11 12 
9 12 13 
10 13 14 
11 14 15 
12 15 16 
13 16 17 
14 17 18 
15 18 19 
16 19 20 
17 20 21 
18 21 22 
19 22 23 
20 23 24 
21 24 25 
22 25 26 
23 26 27 
24 27 28 
25 28 29 
26 29 30 
27 30 31 
28 31 32 
29 32 4 
1 36 1 13
30 4 33 
31 33 34 
32 34 35 
33 35 36 
34 36 37 
35 37 38 
36 38 39 
37 39 40 
38 40 41 
39 41 42 
40 42 43 
41 43 44 
42 44 2 
1 37 1 47
43 2 45 
44 45 46 
45 46 47 
46 47 48 
47 48 49 
48 49 50 
49 50 51 
50 51 52 
51 52 53 
52 53 54 
53 54 55 
54 55 56 
55 56 57 
56 57 58 
57 58 59 
58 59 60 
59 60 61 
60 61 62 
61 62 63 
62 63 64 
63 64 65 
64 65 66 
65 66 67 
66 67 68 
67 68 69 
68 69 70 
69 70 71 
70 71 72 
71 72 73 
72 73 74 
73 74 75 
74 75 76 
75 76 77 
76 77 78 
77 78 79 
78 79 80 
79 80 81 
80 81 82 
81 82 83 
82 83 84 
83 84 85 
84 85 86 
85 86 87 
86 87 88 
87 88 89 
88 89 90 
89 90 1 
1 38 1 13
90 1 91 
91 91 92 
92 92 93 
93 93 94 
94 94 95 
95 95 96 
96 96 97 
97 97 98 
98 98 99 
99 99 100 
100 100 101 
101 101 102 
102 102 3 
2 10 2 1114
103 229 351 249 
104 207 322 214 
105 460 463 245 
106 226 342 167 
107 123 387 291 
108 322 484 214 
109 297 422 117 
110 391 444 260 
111 113 588 393 
112 291 475 123 
113 318 320 223 
114 342 559 167 
115 324 325 108 
116 269 569 376 
117 470 558 114 
118 132 492 421 
119 332 339 328 
120 345 563 107 
121 276 444 352 
122 421 457 132 
123 351 376 249 
124 261 444 276 
125 149 355 151 
126 260 507 391 
127 310 518 349 
128 107 377 345 
129 193 476 358 
130 393 588 390 
131 468 545 109 
132 346 546 469 
133 346 469 289 
134 317 558 470 
135 321 447 347 
136 258 393 390 
137 320 322 223 
138 117 479 297 
139 352 583 276 
140 203 574 357 
141 235 378 356 
142 378 479 356 
143 110 533 344 
144 193 551 476 
145 396 529 208 
146 332 340 339 
147 325 326 108 
148 151 355 216 
149 343 508 316 
150 327 339 226 
151 395 458 384 
152 269 376 351 
153 386 574 203 
154 295 463 460 
155 109 545 376 
156 260 444 261 
157 186 532 526 
158 397 529 396 
159 314 482 350 
160 191 483 448 
161 186 526 505 
162 79 377 80 
163 235 355 149 
164 505 526 419 
165 339 341 226 
166 459 460 245 
167 291 579 136 
168 298 506 121 
169 328 339 327 
170 344 425 110 
171 526 532 420 
172 316 543 343 
173 341 342 226 
174 421 488 457 
175 349 518 173 
176 347 522 321 
177 228 351 229 
178 121 464 298 
179 277 577 293 
180 448 483 266 
181 474 555 520 
182 520 555 209 
183 336 345 331 
184 347 447 348 
185 455 571 278 
186 134 458 395 
187 336 563 345 
188 165 327 226 
189 452 500 120 
190 293 531 277 
191 223 606 318 
192 223 322 207 
193 80 377 107 
194 120 500 494 
195 108 435 324 
196 457 488 118 
197 220 514 375 
198 214 374 210 
199 221 559 350 
200 312 482 314 
201 350 559 342 
202 136 475 291 
203 441 609 315 
204 484 522 287 
205 258 390 255 
206 5 458 6 
207 133 571 455 
208 486 538 418 
209 350 482 221 
210 555 578 467 
211 193 358 194 
212 446 525 417 
213 241 325 271 
214 212 583 352 
215 212 352 177 
216 17 538 486 
217 286 346 289 
218 485 499 126 
219 227 556 380 
220 210 374 224 
221 438 441 315 
222 324 435 323 
223 216 355 353 
224 379 445 360 
225 281 554 381 
226 139 544 373 
227 380 535 227 
228 375 514 478 
229 240 386 218 
230 380 445 379 
231 388 426 250 
232 335 425 332 
233 289 431 290 
234 291 387 288 
235 184 444 391 
236 297 378 145 
237 215 228 218 
238 262 470 392 
239 438 508 112 
240 126 495 485 
241 43 359 44 
242 241 597 325 
243 330 335 332 
244 381 440 281 
245 392 393 258 
246 216 385 153 
247 254 389 388 
248 286 289 288 
249 222 328 327 
250 229 249 241 
251 417 525 416 
252 228 229 218 
253 197 215 199 
254 319 323 321 
255 306 317 264 
256 218 386 199 
257 209 555 467 
258 451 490 219 
259 340 344 343 
260 331 345 330 
261 315 508 438 
262 205 223 207 
263 215 218 199 
264 329 330 328 
265 250 269 237 
266 280 282 281 
267 271 325 324 
268 287 346 286 
269 347 348 346 
270 337 338 336 
271 288 387 284 
272 285 286 284 
273 317 470 264 
274 349 560 310 
275 254 388 251 
276 297 479 378 
277 348 447 433 
278 271 324 319 
279 283 284 282 
280 499 595 126 
281 163 327 165 
282 161 222 163 
283 373 510 139 
284 185 391 189 
285 262 392 259 
286 297 519 422 
287 236 237 228 
288 203 357 205 
289 289 290 288 
290 286 288 284 
291 239 280 279 
292 330 332 328 
293 307 443 306 
294 315 609 313 
295 165 226 167 
296 334 336 331 
297 179 352 184 
298 402 420 400 
299 194 358 197 
300 190 394 193 
301 470 553 392 
302 6 458 134 
303 393 524 113 
304 280 281 279 
305 406 419 404 
306 311 443 307 
307 238 250 237 
308 5 564 458 
309 408 503 406 
310 251 388 250 
311 287 522 347 
312 169 221 171 
313 222 327 163 
314 332 425 340 
315 280 374 283 
316 177 352 179 
317 335 592 425 
318 139 510 34 
319 294 495 471 
320 215 358 236 
321 259 392 258 
322 224 374 239 
323 417 500 452 
324 479 608 356 
325 321 522 320 
326 528 584 356 
327 175 212 177 
328 184 391 185 
329 330 345 335 
330 243 463 295 
331 121 506 454 
332 222 329 328 
333 391 521 189 
334 189 394 190 
335 158 587 453 
336 304 423 301 
337 237 351 228 
338 94 424 124 
339 329 331 330 
340 132 576 492 
341 123 475 41 
342 263 264 262 
343 141 519 143 
344 417 452 446 
345 319 324 323 
346 383 384 138 
347 329 453 333 
348 340 343 341 
349 287 347 346 
350 147 378 235 
351 285 287 286 
352 205 357 223 
353 334 337 336 
354 253 254 251 
355 229 241 240 
356 158 453 161 
357 345 377 335 
358 402 526 420 
359 222 453 329 
360 96 379 360 
361 179 184 181 
362 435 527 323 
363 265 306 264 
364 343 543 341 
365 185 189 188 
366 255 390 254 
367 283 285 284 
368 301 423 300 
369 145 378 147 
370 241 271 270 
371 485 495 294 
372 221 349 171 
373 280 283 282 
374 105 440 38 
375 215 236 228 
376 465 552 20 
377 190 193 192 
378 271 319 318 
379 419 526 404 
380 101 383 138 
381 257 258 255 
382 312 313 311 
383 388 581 426 
384 261 262 259 
385 99 439 128 
386 171 349 173 
387 197 199 198 
388 568 589 396 
389 197 358 215 
390 462 544 139 
391 203 205 204 
392 343 573 508 
393 415 542 412 
394 319 321 320 
395 136 359 43 
396 314 315 313 
397 239 374 280 
398 322 522 484 
399 471 531 294 
400 340 341 339 
401 369 550 549 
402 205 207 206 
403 426 427 269 
404 30 135 31 
405 6 134 7 
406 294 531 293 
407 200 386 203 
408 410 490 451 
409 207 214 210 
410 216 516 385 
411 194 197 196 
412 354 584 528 
413 239 279 245 
414 21 121 22 
415 18 122 19 
416 11 120 12 
417 25 119 26 
418 15 118 16 
419 299 300 268 
420 303 304 301 
421 507 521 391 
422 250 426 269 
423 153 385 155 
424 155 385 158 
425 28 126 29 
426 8 125 9 
427 268 448 266 
428 380 556 445 
429 200 203 202 
430 309 311 307 
431 143 297 145 
432 284 387 282 
433 254 390 389 
434 123 554 387 
435 236 238 237 
436 158 161 159 
437 23 133 24 
438 13 132 14 
439 401 402 400 
440 147 235 149 
441 361 372 363 
442 471 495 27 
443 161 163 162 
444 352 444 184 
445 238 251 250 
446 141 601 519 
447 403 404 402 
448 361 445 372 
449 408 604 503 
450 151 216 153 
451 399 400 397 
452 224 239 231 
453 163 165 164 
454 385 587 158 
455 405 406 404 
456 30 449 135 
457 184 185 181 
458 243 295 275 
459 134 450 7 
460 269 351 237 
461 91 140 92 
462 92 137 93 
463 94 124 95 
464 189 190 188 
465 42 136 43 
466 40 123 41 
467 253 255 254 
468 79 512 377 
469 97 106 98 
470 96 360 97 
471 396 589 304 
472 37 105 38 
473 155 158 157 
474 165 167 166 
475 99 128 100 
476 126 449 29 
477 35 129 36 
478 225 474 217 
479 92 140 137 
480 8 450 125 
481 356 584 235 
482 101 138 102 
483 354 528 504 
484 33 139 34 
485 119 471 26 
486 407 408 406 
487 549 550 513 
488 120 456 12 
489 121 454 22 
490 25 455 119 
491 15 457 118 
492 167 559 169 
493 289 469 431 
494 261 263 262 
495 257 259 258 
496 348 433 429 
497 97 360 106 
498 140 141 137 
499 167 169 168 
500 409 410 408 
501 214 586 374 
502 229 240 218 
503 193 194 192 
504 427 569 269 
505 282 554 281 
506 93 424 94 
507 13 456 132 
508 23 454 133 
509 133 455 24 
510 132 457 14 
511 300 448 268 
512 333 334 331 
513 36 382 37 
514 292 578 555 
515 410 451 408 
516 299 301 300 
517 129 382 36 
518 39 381 40 
519 340 425 344 
520 40 381 123 
521 37 382 105 
522 263 265 264 
523 305 396 304 
524 411 412 410 
525 360 361 106 
526 279 566 459 
527 353 354 337 
528 415 607 542 
529 377 512 335 
530 20 552 21 
531 98 439 99 
532 303 305 304 
533 431 461 290 
534 169 171 170 
535 354 504 337 
536 400 529 397 
537 199 386 200 
538 290 291 288 
539 124 481 380 
540 241 270 240 
541 437 573 344 
542 594 596 187 
543 265 307 306 
544 125 446 9 
545 161 453 222 
546 446 452 10 
547 249 597 241 
548 353 516 216 
549 197 198 196 
550 203 204 202 
551 271 318 270 
552 413 415 412 
553 309 312 311 
554 312 314 313 
555 372 375 363 
556 171 173 172 
557 205 206 204 
558 319 320 318 
559 11 452 120 
560 199 200 198 
561 173 175 174 
562 239 245 231 
563 313 548 311 
564 207 210 206 
565 175 177 176 
566 264 470 262 
567 314 316 315 
568 273 292 272 
569 128 498 473 
570 399 401 400 
571 342 543 350 
572 295 373 275 
573 278 562 455 
574 360 445 361 
575 344 573 343 
576 426 581 111 
577 401 403 402 
578 374 586 283 
579 459 566 105 
580 244 272 233 
581 177 179 178 
582 135 462 31 
583 326 598 108 
584 161 162 159 
585 494 590 120 
586 95 379 96 
587 233 474 225 
588 158 159 157 
589 424 481 124 
590 84 432 85 
591 320 522 322 
592 100 383 101 
593 450 502 125 
594 403 405 404 
595 41 475 42 
596 49 429 50 
597 75 437 76 
598 111 537 426 
599 61 436 62 
600 358 476 236 
601 365 478 367 
602 72 441 73 
603 38 440 39 
604 163 164 162 
605 125 525 446 
606 405 407 406 
607 179 181 180 
608 531 562 277 
609 20 565 465 
610 175 518 212 
611 185 188 187 
612 165 166 164 
613 252 253 251 
614 267 268 266 
615 363 375 365 
616 29 449 30 
617 7 450 8 
618 104 540 504 
619 407 409 408 
620 34 510 35 
621 305 397 396 
622 26 471 27 
623 167 168 166 
624 12 456 13 
625 190 192 191 
626 22 454 23 
627 24 455 25 
628 211 491 246 
629 14 457 15 
630 348 546 346 
631 329 333 331 
632 279 459 245 
633 383 473 384 
634 234 266 213 
635 382 459 105 
636 334 353 337 
637 298 299 268 
638 409 411 410 
639 359 579 461 
640 439 498 128 
641 302 303 301 
642 130 477 461 
643 256 257 255 
644 221 482 349 
645 136 579 359 
646 260 261 259 
647 290 579 291 
648 9 446 10 
649 142 481 424 
650 246 539 248 
651 31 462 32 
652 389 581 388 
653 169 170 168 
654 59 580 537 
655 272 474 233 
656 141 143 142 
657 10 452 11 
658 411 413 412 
659 129 460 382 
660 194 196 195 
661 89 472 90 
662 78 512 79 
663 137 424 93 
664 144 481 142 
665 143 145 144 
666 171 172 170 
667 106 439 98 
668 413 416 415 
669 353 355 354 
670 246 248 247 
671 88 131 89 
672 46 130 47 
673 443 605 306 
674 200 202 201 
675 376 569 109 
676 273 293 292 
677 398 399 397 
678 244 273 272 
679 210 224 217 
680 124 380 379 
681 359 570 44 
682 211 246 230 
683 361 363 362 
684 173 174 172 
685 175 176 174 
686 145 147 146 
687 87 422 88 
688 47 430 48 
689 177 178 176 
690 426 537 427 
691 367 369 368 
692 224 231 225 
693 308 309 307 
694 128 473 383 
695 86 117 87 
696 147 149 148 
697 363 365 364 
698 48 116 49 
699 18 486 122 
700 365 367 366 
701 232 243 242 
702 83 104 84 
703 51 103 52 
704 45 477 46 
705 362 498 439 
706 248 577 277 
707 63 113 64 
708 66 114 67 
709 69 115 70 
710 85 428 86 
711 54 108 55 
712 80 107 81 
713 57 109 58 
714 77 110 78 
715 60 111 61 
716 74 112 75 
717 149 151 150 
718 399 466 401 
719 272 555 474 
720 85 432 428 
721 151 153 152 
722 243 275 274 
723 382 460 459 
724 185 187 181 
725 50 433 51 
726 270 606 357 
727 65 434 66 
728 73 438 74 
729 173 518 175 
730 53 435 54 
731 131 472 89 
732 56 468 57 
733 429 433 50 
734 17 486 18 
735 70 442 71 
736 384 458 138 
737 337 504 338 
738 266 483 213 
739 179 180 178 
740 238 252 251 
741 118 488 466 
742 153 155 154 
743 71 127 72 
744 190 191 188 
745 267 298 268 
746 392 603 393 
747 423 596 594 
748 102 564 3 
749 27 495 28 
750 299 302 301 
751 4 567 33 
752 28 495 126 
753 412 490 410 
754 234 267 266 
755 364 498 362 
756 141 142 137 
757 46 477 130 
758 253 256 255 
759 240 574 386 
760 155 157 156 
761 406 503 419 
762 341 543 342 
763 124 379 95 
764 194 195 192 
765 88 422 131 
766 381 554 123 
767 104 432 84 
768 130 430 47 
769 143 519 297 
770 257 260 259 
771 73 441 438 
772 232 463 243 
773 116 429 49 
774 130 461 431 
775 112 437 75 
776 128 383 100 
777 111 436 61 
778 436 509 62 
779 189 521 394 
780 59 537 60 
781 261 276 263 
782 361 362 106 
783 245 463 231 
784 117 422 87 
785 204 209 202 
786 48 430 116 
787 248 277 247 
788 305 398 397 
789 210 217 206 
790 127 441 72 
791 334 516 353 
792 200 201 198 
793 298 464 299 
794 196 211 195 
795 246 247 230 
796 515 585 556 
797 42 475 136 
798 140 601 141 
799 86 428 117 
800 62 509 63 
801 143 144 142 
802 394 551 193 
803 375 478 365 
804 1 572 91 
805 242 244 233 
806 277 278 247 
807 224 225 217 
808 398 418 399 
809 403 421 405 
810 44 570 2 
811 265 308 307 
812 202 467 201 
813 39 440 381 
814 430 469 116 
815 481 535 380 
816 232 233 225 
817 145 146 144 
818 16 538 17 
819 478 550 367 
820 51 433 103 
821 273 294 293 
822 142 424 137 
823 90 572 1 
824 407 414 409 
825 302 487 303 
826 66 434 114 
827 219 523 451 
828 362 439 106 
829 368 370 366 
830 130 431 430 
831 2 570 45 
832 515 556 227 
833 74 438 112 
834 54 435 108 
835 126 595 449 
836 231 232 225 
837 461 477 359 
838 367 368 366 
839 363 364 362 
840 57 468 109 
841 115 442 70 
842 243 274 242 
843 162 219 159 
844 166 183 164 
845 211 213 195 
846 285 484 287 
847 212 518 517 
848 449 575 135 
849 149 150 148 
850 147 148 146 
851 234 296 267 
852 365 366 364 
853 413 417 416 
854 156 160 154 
855 192 483 191 
856 371 395 370 
857 152 220 150 
858 314 350 316 
859 357 574 270 
860 153 154 152 
861 313 609 548 
862 151 152 150 
863 472 601 140 
864 172 186 170 
865 178 208 176 
866 436 581 389 
867 148 227 146 
868 230 234 213 
869 404 526 402 
870 418 466 399 
871 157 182 156 
872 448 557 191 
873 299 464 302 
874 428 479 117 
875 235 584 355 
876 308 310 309 
877 300 594 448 
878 437 533 76 
879 71 442 127 
880 367 550 369 
881 155 156 154 
882 63 509 113 
883 232 242 233 
884 211 230 213 
885 195 483 192 
886 357 606 223 
887 464 465 302 
888 368 371 370 
889 539 578 248 
890 316 508 315 
891 256 507 257 
892 306 605 317 
893 209 467 202 
894 448 594 557 
895 498 534 473 
896 3 564 5 
897 208 568 396 
898 32 567 4 
899 323 599 321 
900 433 447 103 
901 344 533 437 
902 231 463 232 
903 257 507 260 
904 115 443 442 
905 420 529 400 
906 303 480 305 
907 236 476 238 
908 35 510 129 
909 244 485 273 
910 113 524 64 
911 431 469 430 
912 333 516 334 
913 103 527 52 
914 252 530 253 
915 65 524 434 
916 458 564 138 
917 474 520 217 
918 160 550 478 
919 105 566 440 
920 64 524 65 
921 196 491 211 
922 53 527 435 
923 338 563 336 
924 369 547 501 
925 401 488 403 
926 311 548 443 
927 77 533 110 
928 312 560 482 
929 369 501 368 
930 405 492 407 
931 52 527 53 
932 159 489 157 
933 504 540 338 
934 375 585 220 
935 176 511 174 
936 409 494 411 
937 465 487 302 
938 121 552 464 
939 478 514 160 
940 213 483 195 
941 303 487 480 
942 480 487 122 
943 110 512 78 
944 198 491 196 
945 168 496 166 
946 376 545 249 
947 69 536 115 
948 466 488 401 
949 83 540 104 
950 206 520 204 
951 118 538 16 
952 107 541 81 
953 119 531 471 
954 238 476 252 
955 157 489 182 
956 21 552 121 
957 263 493 265 
958 305 480 398 
959 309 560 312 
960 418 538 466 
961 169 559 221 
962 144 535 481 
963 19 565 20 
964 273 485 294 
965 423 594 300 
966 422 519 131 
967 411 500 413 
968 146 535 144 
969 278 497 247 
970 276 493 263 
971 170 505 168 
972 234 497 296 
973 204 520 209 
974 242 499 244 
975 115 605 443 
976 139 567 462 
977 201 491 198 
978 164 523 162 
979 114 558 67 
980 217 520 206 
981 569 580 109 
982 219 490 489 
983 76 533 77 
984 403 488 421 
985 247 497 230 
986 421 492 405 
987 230 497 234 
988 414 494 409 
989 407 492 414 
990 208 511 176 
991 304 589 423 
992 267 506 298 
993 103 599 527 
994 455 562 119 
995 395 561 134 
996 160 514 154 
997 219 489 159 
998 244 499 485 
999 501 502 371 
1000 109 580 58 
1001 460 582 295 
1002 256 521 507 
1003 220 515 150 
1004 134 561 450 
1005 108 598 55 
1006 166 496 183 
1007 366 534 364 
1008 364 534 498 
1009 274 499 242 
1010 368 501 371 
1011 537 580 427 
1012 413 500 417 
1013 265 493 308 
1014 491 539 246 
1015 466 538 118 
1016 296 506 267 
1017 504 528 104 
1018 56 598 468 
1019 191 557 188 
1020 389 509 436 
1021 512 592 335 
1022 129 582 460 
1023 350 543 316 
1024 162 523 219 
1025 122 565 19 
1026 186 505 170 
1027 516 587 385 
1028 445 556 372 
1029 183 523 164 
1030 390 588 389 
1031 68 536 69 
1032 451 604 408 
1033 501 600 502 
1034 156 513 160 
1035 419 503 496 
1036 252 551 530 
1037 187 596 181 
1038 82 540 83 
1039 152 514 220 
1040 318 606 270 
1041 81 541 82 
1042 524 603 434 
1043 148 515 227 
1044 182 513 156 
1045 517 518 310 
1046 253 530 256 
1047 292 555 272 
1048 172 532 186 
1049 494 500 411 
1050 114 553 470 
1051 281 566 279 
1052 91 572 140 
1053 174 532 172 
1054 154 514 152 
1055 116 546 429 
1056 150 515 148 
1057 496 503 183 
1058 112 573 437 
1059 325 597 326 
1060 168 505 496 
1061 372 585 375 
1062 508 573 112 
1063 370 534 366 
1064 449 595 575 
1065 450 561 502 
1066 425 592 110 
1067 502 525 125 
1068 82 541 540 
1069 104 528 432 
1070 511 532 174 
1071 308 517 310 
1072 443 548 442 
1073 135 544 462 
1074 120 590 456 
1075 462 567 32 
1076 355 584 354 
1077 60 537 111 
1078 227 535 146 
1079 256 530 521 
1080 416 547 415 
1081 496 505 419 
1082 373 544 275 
1083 285 586 484 
1084 534 591 473 
1085 201 539 491 
1086 456 576 132 
1087 370 591 534 
1088 68 558 536 
1089 528 608 432 
1090 119 562 531 
1091 467 539 201 
1092 493 517 308 
1093 178 568 208 
1094 519 601 131 
1095 454 593 133 
1096 511 529 420 
1097 484 586 214 
1098 428 608 479 
1099 502 561 371 
1100 122 602 480 
1101 453 587 333 
1102 295 582 373 
1103 208 529 511 
1104 468 598 326 
1105 502 600 525 
1106 461 579 290 
1107 67 558 68 
1108 442 548 127 
1109 321 599 447 
1110 469 546 116 
1111 384 591 395 
1112 482 560 349 
1113 398 602 418 
1114 429 546 348 
1115 467 578 539 
1116 326 545 468 
1117 387 554 282 
1118 418 602 486 
1119 527 599 323 
1120 188 557 187 
1121 486 602 122 
1122 521 530 394 
1123 489 542 182 
1124 138 564 102 
1125 369 549 547 
1126 556 585 372 
1127 490 542 489 
1128 33 567 139 
1129 393 603 524 
1130 544 575 275 
1131 107 563 541 
1132 412 542 490 
1133 434 553 114 
1134 58 580 59 
1135 420 532 511 
1136 182 607 513 
1137 293 577 292 
1138 283 586 285 
1139 183 604 523 
1140 540 541 338 
1141 464 552 465 
1142 310 560 309 
1143 356 608 528 
1144 476 551 252 
1145 513 550 160 
1146 472 572 90 
1147 440 566 281 
1148 371 561 395 
1149 530 551 394 
1150 277 562 278 
1151 487 565 122 
1152 180 568 178 
1153 477 570 359 
1154 317 605 536 
1155 45 570 477 
1156 55 598 56 
1157 333 587 516 
1158 133 593 571 
1159 140 572 472 
1160 135 575 544 
1161 547 600 501 
1162 513 607 549 
1163 536 558 317 
1164 395 591 370 
1165 427 580 569 
1166 270 574 240 
1167 180 589 568 
1168 275 575 274 
1169 506 593 454 
1170 181 596 180 
1171 548 609 127 
1172 111 581 436 
1173 131 601 472 
1174 547 549 415 
1175 523 604 451 
1176 465 565 487 
1177 510 582 129 
1178 509 588 113 
1179 473 591 384 
1180 296 593 506 
1181 536 605 115 
1182 432 608 428 
1183 326 597 545 
1184 541 563 338 
1185 497 571 296 
1186 278 571 497 
1187 447 599 103 
1188 493 583 517 
1189 276 583 493 
1190 575 595 274 
1191 127 609 441 
1192 492 576 414 
1193 389 588 509 
1194 576 590 414 
1195 525 600 416 
1196 571 593 296 
1197 577 578 292 
1198 517 583 212 
1199 220 585 515 
1200 456 590 576 
1201 110 592 512 
1202 503 604 183 
1203 414 590 494 
1204 480 602 398 
1205 373 582 510 
1206 274 595 499 
1207 549 607 415 
1208 248 578 577 
1209 557 594 187 
1210 542 607 182 
1211 553 603 392 
1212 416 600 547 
1213 545 597 249 
1214 434 603 553 
1215 180 596 589 
1216 589 596 423 
$EndElements
