$MeshFormat
4.1 0 8
$EndMeshFormat
$PhysicalNames
5
1 1 "bottom"
1 2 "pipewall"
1 3 "top"
1 4 "symmetry"
2 5 "domain1"
$EndPhysicalNames
$Entities
5 4 1 0
1 0 500 0 0 
2 0 0 0 0 
3 0 -50 0 0 
4 0 -50 0 0 
5 0 500 0 0 
1 0 -50 0 0 -50 0 1 1 2 4 -3 
2 0 -50 0 0 500 0 1 2 2 3 -5 
3 0 500 0 0 500 0 1 3 2 5 -1 
4 0 -50 0 0 500 0 1 4 2 1 -4 
1 0 -50 0 0 500 0 1 5 4 -4 -3 -2 -1 
$EndEntities
$Nodes
9 76 1 77
0 1 0 1
1
0 500 0
0 3 0 1
3
0 -50 0
0 4 0 1
4
0 -50 0
0 5 0 1
5
0 500 0
1 1 0 0
1 2 0 36
6
7
8
9
10
11
12
13
14
15
16
17
18
19
20
21
22
23
24
25
26
27
28
29
30
31
32
33
34
35
36
37
38
39
40
41
0 -35.13513513514234 0
0 -20.2702702702914 0
0 -5.405405405438131 0
0 9.459459459419527 0
0 24.32432432426278 0
0 39.18918918908203 0
0 54.05405405390128 0
0 68.91891891872052 0
0 83.78378378353977 0
0 98.64864864835903 0
0 113.5135135131783 0
0 128.3783783779975 0
0 143.2432432428168 0
0 158.108108107636 0
0 172.9729729724552 0
0 187.8378378372745 0
0 202.7027027020938 0
0 217.5675675669746 0
0 232.4324324318707 0
0 247.2972972967668 0
0 262.1621621616629 0
0 277.027027026559 0
0 291.8918918914551 0
0 306.7567567563513 0
0 321.6216216212474 0
0 336.4864864861435 0
0 351.3513513510397 0
0 366.2162162159358 0
0 381.081081080832 0
0 395.9459459457281 0
0 410.8108108106242 0
0 425.6756756755203 0
0 440.5405405404163 0
0 455.4054054053122 0
0 470.2702702702081 0
0 485.1351351351041 0
1 3 0 0
1 4 0 36
42
43
44
45
46
47
48
49
50
51
52
53
54
55
56
57
58
59
60
61
62
63
64
65
66
67
68
69
70
71
72
73
74
75
76
77
0 485.1351351351333 0
0 470.2702702702667 0
0 455.4054054054 0
0 440.5405405405334 0
0 425.6756756756667 0
0 410.8108108108 0
0 395.9459459459333 0
0 381.0810810810667 0
0 366.2162162162 0
0 351.3513513513334 0
0 336.4864864864668 0
0 321.6216216216002 0
0 306.7567567567335 0
0 291.8918918918669 0
0 277.0270270270003 0
0 262.1621621621336 0
0 247.2972972973183 0
0 232.4324324324668 0
0 217.5675675676002 0
0 202.7027027027334 0
0 187.8378378378667 0
0 172.972972973 0
0 158.1081081081333 0
0 143.2432432432665 0
0 128.3783783783998 0
0 113.5135135135331 0
0 98.64864864866644 0
0 83.78378378379966 0
0 68.91891891893295 0
0 54.05405405406623 0
0 39.18918918919951 0
0 24.32432432433279 0
0 9.459459459466132 0
0 -5.405405405400359 0
0 -20.27027027026691 0
0 -35.13513513513351 0
2 1 0 0
$EndNodes
$Elements
4 76 6 81
1 1 1 1
6 4 3 
1 2 1 37
7 3 6 
8 6 7 
9 7 8 
10 8 9 
11 9 10 
12 10 11 
13 11 12 
14 12 13 
15 13 14 
16 14 15 
17 15 16 
18 16 17 
19 17 18 
20 18 19 
21 19 20 
22 20 21 
23 21 22 
24 22 23 
25 23 24 
26 24 25 
27 25 26 
28 26 27 
29 27 28 
30 28 29 
31 29 30 
32 30 31 
33 31 32 
34 32 33 
35 33 34 
36 34 35 
37 35 36 
38 36 37 
39 37 38 
40 38 39 
41 39 40 
42 40 41 
43 41 5 
1 3 1 1
44 5 1 
1 4 1 37
45 1 42 
46 42 43 
47 43 44 
48 44 45 
49 45 46 
50 46 47 
51 47 48 
52 48 49 
53 49 50 
54 50 51 
55 51 52 
56 52 53 
57 53 54 
58 54 55 
59 55 56 
60 56 57 
61 57 58 
62 58 59 
63 59 60 
64 60 61 
65 61 62 
66 62 63 
67 63 64 
68 64 65 
69 65 66 
70 66 67 
71 67 68 
72 68 69 
73 69 70 
74 70 71 
75 71 72 
76 72 73 
77 73 74 
78 74 75 
79 75 76 
80 76 77 
81 77 4 
$EndElements
